<?xml version="1.0" encoding="UTF-8"?>
<svg width="80px" height="80px" viewBox="0 0 80 80" version="1.1" xmlns="http://www.w3.org/2000/svg" xmlns:xlink="http://www.w3.org/1999/xlink">
    <!-- Generator: Sketch 51.3 (57544) - http://www.bohemiancoding.com/sketch -->
    <title>送药上门</title>
    <desc>Created with Sketch.</desc>
    <defs></defs>
    <g id="送药上门" stroke="none" stroke-width="1" fill="none" fill-rule="evenodd">
        <g id="express" transform="translate(7.000000, 17.000000)" fill="#C3DB61" fill-rule="nonzero">
            <path d="M62.2558846,38.7632478 L57.4757946,38.7632478 C56.8970822,34.1289264 52.9510437,30.5407664 48.1601463,30.5407664 C43.3692489,30.5407664 39.4232104,34.1289264 38.8444329,38.7632478 L35.2392156,38.7632478 C33.293117,38.7632478 31.7151834,37.1849236 31.7151834,35.2394109 L31.7151834,3.52390203 C31.7151834,1.57728258 33.2930519,0 35.2392156,0 L62.2559497,0 C64.2019832,0 65.7799169,1.57728258 65.7799169,3.52390203 L65.7799169,35.2394109 C65.7799169,37.1849236 64.2020483,38.7632478 62.2559497,38.7632478 L62.2558846,38.7632478 Z M25.8420567,38.7632478 L23.4119074,38.7632478 C22.8326091,34.1289264 18.8865706,30.5407664 14.0956081,30.5407664 C9.30451542,30.5407664 5.35899776,34.1289264 4.77969944,38.7632478 L2.34922462,38.7632478 C1.05195575,38.7632478 0,37.7113572 0,36.413893 C0,36.413893 0,30.6864699 0,23.4928321 C0,18.7988751 8.03524142,7.04786916 11.7463184,7.04786916 C18.9404119,7.04786916 25.8420567,7.04786916 25.8420567,7.04786916 C27.1395209,7.04786916 28.1912813,8.09975981 28.1912813,9.39709378 L28.1912813,36.4138279 C28.1913464,37.7114223 27.1393907,38.7632478 25.8421218,38.7632478 L25.8420567,38.7632478 Z M21.1434773,12.921126 C21.1434773,12.921126 17.4406034,12.7502272 12.996647,12.921126 C11.1004834,12.9933918 5.87306154,19.9116383 5.87306154,23.4928972 C5.87306154,24.4095011 5.87306154,24.6251917 5.87306154,24.6675746 L21.1434773,24.6675746 L21.1434773,12.921126 Z M14.095543,34.0647335 C17.3390407,34.0647335 19.9687348,36.6939067 19.9687348,39.9379252 C19.9687348,43.1807719 17.3389756,45.8110519 14.095543,45.8110519 C10.8517849,45.8110519 8.22235126,43.1806417 8.22235126,39.9379252 C8.22235126,36.6939067 10.85185,34.0647335 14.095543,34.0647335 Z M48.4538319,34.0647335 C51.8595045,34.0647335 54.6207093,36.8258732 54.6207093,40.231676 C54.6207093,43.6374788 51.8595045,46.3984232 48.4538319,46.3984232 C45.0480292,46.3984232 42.2869546,43.6372834 42.2869546,40.231676 C42.2869546,36.8258081 45.0481594,34.0647335 48.4538319,34.0647335 Z" id="Shape"></path>
        </g>
    </g>
</svg>