<?xml version="1.0" encoding="UTF-8"?>
<svg width="80px" height="80px" viewBox="0 0 80 80" version="1.1" xmlns="http://www.w3.org/2000/svg" xmlns:xlink="http://www.w3.org/1999/xlink">
    <!-- Generator: Sketch 51.3 (57544) - http://www.bohemiancoding.com/sketch -->
    <title>更多</title>
    <desc>Created with Sketch.</desc>
    <defs></defs>
    <g id="更多" stroke="none" stroke-width="1" fill="none" fill-rule="evenodd">
        <g id="quanbu" transform="translate(10.000000, 10.000000)" fill="#46AFF6" fill-rule="nonzero">
            <path d="M45.6763393,31.3459821 L31.3459821,31.3459821 L31.3459821,45.6696429 C31.3459821,53.578125 37.7611607,59.9933036 45.6696429,59.9933036 C53.5848214,60 60,53.5848214 60,45.6763393 C60,37.7611607 53.5848214,31.3459821 45.6763393,31.3459821 Z M14.3236607,31.3459821 C6.41517857,31.3459821 -2.84217094e-14,37.7611607 -2.84217094e-14,45.6763393 C-2.651847e-14,53.5848214 6.41517857,60 14.3236607,60 C22.2321429,60 28.6473214,53.5848214 28.6473214,45.6763393 L28.6473214,31.3459821 L14.3236607,31.3459821 Z M45.6763393,0 C37.7678571,0 31.3526786,6.41517857 31.3526786,14.3236607 L31.3526786,28.6473214 L45.6763393,28.6473214 C53.5848214,28.6473214 60,22.2321429 60,14.3236607 C60,6.41517857 53.5848214,0 45.6763393,0 Z M14.3236607,0 C6.41517857,0 -1.26217745e-29,6.41517857 -1.26217745e-29,14.3236607 C-1.26217745e-29,22.2321429 6.41517857,28.6473214 14.3236607,28.6473214 L28.6473267,28.6473214 L28.6473214,14.3236607 C28.6540179,6.41517857 22.2388393,0 14.3236607,0 Z" id="Shape"></path>
        </g>
    </g>
</svg>