<?xml version="1.0" encoding="UTF-8"?>
<svg width="80px" height="80px" viewBox="0 0 80 80" version="1.1" xmlns="http://www.w3.org/2000/svg" xmlns:xlink="http://www.w3.org/1999/xlink">
    <!-- Generator: Sketch 51.3 (57544) - http://www.bohemiancoding.com/sketch -->
    <title>社保卡</title>
    <desc>Created with Sketch.</desc>
    <defs></defs>
    <g id="社保卡" stroke="none" stroke-width="1" fill="none" fill-rule="evenodd">
        <path d="M67.4258326,14 C70.0272828,14 72.1066732,14.6646217 73.6640039,15.9850034 C75.2213346,17.3053851 76,19.3169734 76,22.002045 L76,57.5460122 C76,58.6980231 75.7876367,59.7880027 75.3629102,60.8159509 C74.9381836,61.8438991 74.3541846,62.738923 73.6020646,63.5010225 C72.8587932,64.2719836 71.9827946,64.8745739 70.9829175,65.3265167 C69.9830404,65.7784594 68.9300725,65.9999999 67.8151653,66 L12.0521076,66 C10.9460489,66 9.90192942,65.787321 8.91974927,65.3619632 C7.93756912,64.9366053 7.08811598,64.3694615 6.36254145,63.6605317 C5.63696692,62.9516018 5.06181638,62.1363326 4.63708984,61.1970007 C4.2123633,60.2576687 4,59.2563054 4,58.1840491 L4,21.8779823 C4,19.5739604 4.69902914,17.6864349 6.10593583,16.2065439 C7.50399406,14.7355146 9.48605134,14 12.0521076,14 L67.4258326,14 Z M23.4289876,27 C22.5579024,27 21.7436271,27.1617862 20.967225,27.4853587 C20.190823,27.8089312 19.5091041,28.2562225 18.9126001,28.8272328 C18.3160961,29.3982431 17.8521486,30.0929722 17.5112891,30.8923865 C17.1704297,31.6918009 17,32.5578331 17,33.4714495 C17,34.3850659 17.1704297,35.2320644 17.5112891,36.0124451 C17.8521486,36.7928257 18.3255645,37.478038 18.9126001,38.0775988 C19.5091041,38.6771596 20.190823,39.1434846 20.967225,39.4860908 C21.7436271,39.8286969 22.5673707,40 23.4289876,40 C24.3852877,40 25.2658412,39.8286969 26.0611799,39.4860908 C26.8565186,39.1434846 27.5477057,38.6676427 28.1158048,38.0775988 C28.6839039,37.478038 29.1383831,36.7928257 29.4887109,36.0124451 C29.8295703,35.2320644 30,34.3850658 30,33.4714495 C30,31.5871157 29.3845594,30.045388 28.1536781,28.8272328 C26.9133285,27.6090776 25.3415877,27 23.4289876,27 Z M32,48.5047829 C32,47.6247241 31.8403548,46.7924945 31.5210643,45.9793966 C31.2017738,45.1758646 30.7760532,44.4775571 30.2350333,43.9036056 C29.7028825,43.3296541 29.0643015,42.870493 28.3104213,42.5165563 C27.5654102,42.1721854 26.7849224,42 25.9689579,42 L17.9600887,42 C16.2926829,42 14.8824834,42.6313466 13.72949,43.9036056 C12.5764967,45.1662988 12,46.7064017 12,48.5047829 L12,55 L32,55 L32,48.5047829 Z M60.5353241,53 C61.3743627,53 61.9949017,52.8072289 62.396941,52.4216867 C62.7989803,52.0361446 63,51.5702811 63,51.0321285 C63,50.4939759 62.7640204,50.0200803 62.3095411,49.6104418 C61.8463219,49.2008032 61.190823,49 60.3517844,49 L41.5258558,49 C40.6868172,49 40.0487982,49.2008032 39.629279,49.6104418 C39.2097597,50.0200804 39,50.4939759 39,51.0321285 C39,51.5702811 39.2097597,52.0361446 39.629279,52.4216867 C40.0487982,52.8072289 40.6605972,53 41.4646759,53 L60.5353241,53 Z M60.6043557,46 C61.4406534,46 62.0504537,45.8072289 62.4337568,45.4216867 C62.8083485,45.0361446 63,44.5702811 63,44.0321285 C63,43.4538153 62.8257713,42.9718875 62.4686025,42.5783133 C62.1114337,42.1927711 61.5103448,42 60.6740472,42 L41.3956443,42 C40.5593466,42 39.9495463,42.1927711 39.5662432,42.5783133 C39.1916515,42.9638554 39,43.4457831 39,44.0321285 C39,44.5702811 39.1742287,45.0361446 39.5313974,45.4216867 C39.8885662,45.8072289 40.4896551,46 41.3259528,46 L60.6043557,46 Z M63.4476191,38 C64.1333334,38 64.7333334,37.7953092 65.2380952,37.3859275 C65.7428571,36.9765459 66,36.4818763 66,35.9104478 C66,35.3390192 65.7428571,34.8699361 65.2380952,34.5202559 C64.7333333,34.1705757 64.1333333,34 63.4476191,34 L49.4761904,34 C48.7904761,34 48.2,34.1791045 47.7238095,34.5202559 C47.2380952,34.8699361 47,35.3304904 47,35.9104478 C47,36.4818763 47.2380953,36.9765459 47.7238095,37.3859275 C48.2095238,37.7953092 48.7904761,38 49.4761904,38 L63.4476191,38 Z" id="Shape" fill="#83D1F5" fill-rule="nonzero"></path>
    </g>
</svg>