<?xml version="1.0" encoding="UTF-8"?>
<svg width="80px" height="80px" viewBox="0 0 80 80" version="1.1" xmlns="http://www.w3.org/2000/svg" xmlns:xlink="http://www.w3.org/1999/xlink">
    <!-- Generator: Sketch 51.3 (57544) - http://www.bohemiancoding.com/sketch -->
    <title>健康管理</title>
    <desc>Created with Sketch.</desc>
    <defs></defs>
    <g id="健康管理" stroke="none" stroke-width="1" fill="none" fill-rule="evenodd">
        <g id="jiankang-" transform="translate(5.000000, 11.000000)" fill="#0084FF" fill-rule="nonzero">
            <path d="M2.21028549,29.8087175 L24.6895373,29.8087175 L28.2235225,13.2779993 C28.4004913,12.4370909 29.1594918,11.8432951 30.0244221,11.869085 C30.8885148,11.8921936 31.6129436,12.5241697 31.7471168,13.3719269 L34.6904637,32 L36.5274579,26.1857174 C36.7417079,25.5094013 37.3398566,25.0238353 38.0500767,24.949684 C38.7602968,24.8755326 39.4471079,25.2269407 39.7983903,25.8442118 L42.3780572,30.3869424 L67.5917451,30.1931149 C68.6002052,28.2450669 69.3423311,26.1107925 69.7092924,23.754458 C70.7314246,17.1909262 69.022949,10.5872173 65.1395029,6.08955021 C61.6995824,2.10549891 56.8093169,9.64444915e-16 50.9964528,9.64444915e-16 C41.9771889,9.64444915e-16 36.8523089,6.01299649 35.0000019,8.72495292 C33.1476949,6.01245355 28.0228149,0 19.003551,0 C13.1912338,0 8.30042145,2.10549891 4.85995402,6.08955021 C0.97705483,10.5866744 -0.731420812,17.1903833 0.290711383,23.754458 C0.617714697,25.8574843 1.26497262,27.8989097 2.21028549,29.8087175 Z" id="Shape"></path>
            <path d="M42.0097407,33.6312156 C41.3646264,33.6202199 40.7529177,33.2854001 40.4325511,32.7141723 L39.3652099,30.8135614 L36.4693145,40.0796579 C36.2192732,40.8777988 35.4549485,41.3982084 34.6238286,41.3362031 C33.7927087,41.2741978 33.1133997,40.6460866 32.9836158,39.819609 L30.3549664,23 L28.5346267,31.6107514 C28.3587615,32.4433407 27.6266816,33.0389158 26.778908,33.0390959 L5,33.0390959 C9.26662657,38.8805742 15.86837,42.8148442 21.1503124,45.9590715 C23.7395321,47.5001222 26.1847237,48.955956 27.8851313,50.3485644 C34.1643175,55.4912645 34.7393346,58.0862553 34.7601447,58.1945632 C34.8154559,58.6442883 35.1944195,59 35.6489568,59 C36.1122563,59 36.4983391,58.6607819 36.5399594,58.1978619 C36.5443405,58.172022 37.0317359,55.5764814 43.4166158,50.3485644 C45.1170234,48.955956 47.562215,47.4995724 50.1514346,45.9590715 C55.3101591,42.8879658 61.7289924,39.0642028 66,33.4448381 L42.0097407,33.6312156 Z" id="Shape"></path>
        </g>
    </g>
</svg>