<?xml version="1.0" encoding="UTF-8"?>
<svg width="80px" height="80px" viewBox="0 0 80 80" version="1.1" xmlns="http://www.w3.org/2000/svg" xmlns:xlink="http://www.w3.org/1999/xlink">
    <!-- Generator: Sketch 51.3 (57544) - http://www.bohemiancoding.com/sketch -->
    <title>办事进度</title>
    <desc>Created with Sketch.</desc>
    <defs></defs>
    <g id="办事进度" stroke="none" stroke-width="1" fill="none" fill-rule="evenodd">
        <g id="diannao" transform="translate(10.000000, 10.000000)" fill="#46AFF6" fill-rule="nonzero">
            <path d="M52.213354,48.7080839 L38.691894,48.7080839 L38.691894,56.1910278 L42.554863,56.1910278 C43.6217844,56.1910278 44.4867749,57.0281842 44.4867749,58.0633331 C44.4867749,59.0953777 43.6217131,59.933155 42.554863,59.933155 L19.3768352,59.933155 C18.3087029,59.933155 17.4444247,59.0953777 17.4444247,58.0633331 C17.4444247,57.0281842 18.3087029,56.1910278 19.3768352,56.1910278 L23.2385933,56.1910278 L23.2385933,48.7080839 L7.78650355,48.7080839 C3.52038515,48.7080839 0.0611353364,45.3576644 0.0611353364,41.2250711 L0.0611353364,7.54868501 C0.0611353364,3.41733344 3.52038515,0.0669829213 7.78650355,0.0669829213 L52.213354,0.0669829213 C56.4796149,0.0669829213 59.9387935,3.41733344 59.9387935,7.54868501 L59.9387935,41.2250711 C59.9387935,45.3575955 56.4796861,48.7080839 52.213354,48.7080839 Z M56.0776052,37.4817021 L3.92417555,37.4817021 L3.92417555,41.2250711 C3.92417555,43.290402 5.65216218,44.9659567 7.78650355,44.9659567 L52.213354,44.9659567 C54.3476953,44.9659567 56.0776052,43.290471 56.0776052,41.2250711 L56.0776052,37.4817021 Z" id="Shape"></path>
        </g>
    </g>
</svg>