<?xml version="1.0" encoding="UTF-8"?>
<svg width="80px" height="80px" viewBox="0 0 80 80" version="1.1" xmlns="http://www.w3.org/2000/svg" xmlns:xlink="http://www.w3.org/1999/xlink">
    <!-- Generator: Sketch 51.3 (57544) - http://www.bohemiancoding.com/sketch -->
    <title>预约挂号</title>
    <desc>Created with Sketch.</desc>
    <defs></defs>
    <g id="预约挂号" stroke="none" stroke-width="1" fill="none" fill-rule="evenodd">
        <g id="guahao-3" transform="translate(7.000000, 7.000000)" fill="#2F9AFE" fill-rule="nonzero">
            <path d="M63.3642902,26.6423484 L39.3576516,2.63570982 C35.8433718,-0.878569941 30.1475002,-0.878569941 26.6423484,2.63570982 L2.63570982,26.6423484 C-0.878569941,30.1566282 -0.878569941,35.8524998 2.63570982,39.3576516 L26.6423484,63.3642902 C30.1566282,66.8785699 35.8433718,66.8785699 39.3576516,63.3642902 L63.3642902,39.3576516 C66.8785699,35.8524998 66.8785699,30.1566282 63.3642902,26.6423484 Z M50.466427,36.1719798 C50.466427,37.3312357 49.526243,38.2622917 48.376115,38.2622917 L36.9204758,38.2622917 L36.9204758,49.754443 C36.9204758,50.9136989 35.9802918,51.8447548 34.8301639,51.8447548 L29.9284282,51.8447548 C28.7691723,51.8447548 27.8381163,50.9045709 27.8381163,49.754443 L27.8381163,38.2714196 L16.355093,38.2714196 C15.1958371,38.2714196 14.2647811,37.3312357 14.2647811,36.1811078 L14.2647811,31.3250121 C14.2647811,30.1657562 15.2049651,29.2347003 16.355093,29.2347002 L27.8289883,29.2347002 L27.8289883,17.8338289 C27.8289883,16.674573 28.7691722,15.7435171 29.9193002,15.7435171 L34.8210359,15.7435171 C35.9711638,15.7435171 36.9113477,16.683701 36.9113478,17.8338289 L36.9113478,29.2255722 L48.3578591,29.2255722 C49.517115,29.2255722 50.4481709,30.1657561 50.4481709,31.3158841 L50.4481709,36.1719798 L50.466427,36.1719798 Z" id="Shape"></path>
        </g>
    </g>
</svg>