<?xml version="1.0" encoding="UTF-8"?>
<svg width="60px" height="60px" viewBox="0 0 60 60" version="1.1" xmlns="http://www.w3.org/2000/svg" xmlns:xlink="http://www.w3.org/1999/xlink">
    <!-- Generator: Sketch 51.3 (57544) - http://www.bohemiancoding.com/sketch -->
    <title>医保结算</title>
    <desc>Created with Sketch.</desc>
    <defs></defs>
    <g id="医保结算" stroke="none" stroke-width="1" fill="none" fill-rule="evenodd">
        <g id="jiesuan-7" transform="translate(11.000000, 9.000000)" fill="#59C3FF" fill-rule="nonzero">
            <path d="M37.9430278,10.1381385 C38.1785845,8.96035514 37.4719144,7.78257176 36.5296877,7.54701508 L8.7339999,0.244758109 C8.49844322,0.00920143268 8.26288655,0.00920143268 8.02732987,0.00920143268 C7.08510316,0.00920143268 6.37843313,0.715871462 6.14287646,1.65809817 L3.31619634,11.7870353 L2.37396963,11.7870353 C0.960629572,11.7870353 0.0184028654,12.729262 0.0184028654,14.142602 L0.0184028654,40.0538365 C0.0184028654,41.4671765 0.960629572,42.4094032 2.37396963,42.4094032 L35.3519044,42.4094032 C36.7652444,42.4094032 37.7074711,41.4671765 37.7074711,40.0538365 L37.7074711,14.142602 C37.7074711,13.6714887 37.4719144,13.2003753 37.2363578,12.729262 L37.9430278,10.1381385 Z M24.7518539,26.3915492 L20.0407204,26.3915492 L20.0407204,28.747116 L22.3962871,28.747116 C23.1029572,28.747116 23.5740705,29.2182293 23.5740705,29.9248994 C23.5740705,30.6315694 23.1029572,31.1026827 22.3962871,31.1026827 L20.0407204,31.1026827 L20.0407204,34.4004762 C20.0407204,35.1071462 19.569607,35.5782596 18.862937,35.5782596 C18.156267,35.5782596 17.6851536,35.1071462 17.6851536,34.4004762 L17.6851536,31.1026827 L15.3295868,31.1026827 C14.6229168,31.1026827 14.1518035,30.6315694 14.1518035,29.9248994 C14.1518035,29.2182293 14.6229168,28.747116 15.3295868,28.747116 L17.6851536,28.747116 L17.6851536,26.3915492 L12.9740201,26.3915492 C12.26735,26.3915492 11.7962367,25.9204359 11.7962367,25.2137658 C11.7962367,24.5070958 12.26735,24.0359824 12.9740201,24.0359824 L14.8584735,24.0359824 L12.7384634,20.5026323 C12.26735,19.7959623 12.5029067,19.0892922 12.9740201,18.8537356 C13.4451334,18.6181789 14.1518035,18.6181789 14.6229168,19.3248489 L17.4495969,24.2715391 L20.2762771,24.2715391 L23.1029572,19.3248489 C23.3385138,18.8537356 24.0451839,18.6181789 24.7518539,18.8537356 C25.2229673,19.0892922 25.4585239,19.7959623 25.2229673,20.5026323 L23.1029572,24.2715391 L24.7518539,24.2715391 C25.4585239,24.2715391 25.9296373,24.7426525 25.9296373,25.4493225 C25.9296373,25.9204359 25.4585239,26.3915492 24.7518539,26.3915492 Z M5.6717631,11.7870353 L8.26288655,2.60032488 L35.587461,9.90258185 L35.1163477,11.7870353 L5.6717631,11.7870353 Z M36.0585744,12.0225919 C35.8230177,11.7870353 35.587461,11.7870353 35.3519044,11.7870353 C35.587461,11.7870353 35.8230177,11.7870353 36.0585744,12.0225919 Z M36.7652444,12.2581486 L36.5296877,12.0225919 C36.5296877,12.0225919 36.5296877,12.2581486 36.7652444,12.2581486 Z" id="Shape"></path>
        </g>
    </g>
</svg>