<?xml version="1.0" encoding="UTF-8"?>
<svg width="255px" height="122px" viewBox="0 0 255 122" version="1.1" xmlns="http://www.w3.org/2000/svg" xmlns:xlink="http://www.w3.org/1999/xlink">
    <!-- Generator: Sketch 51.3 (57544) - http://www.bohemiancoding.com/sketch -->
    <title>医疗机构</title>
    <desc>Created with Sketch.</desc>
    <defs></defs>
    <g id="医疗机构" stroke="none" stroke-width="1" fill="none" fill-rule="evenodd">
        <g id="Group-17">
            <g id="yiyuan-12" transform="translate(3.000000, 9.000000)" fill-rule="nonzero">
                <g id="yun-3" transform="translate(0.000000, 19.000000)">
                    <g id="Group-4" transform="translate(0.000000, 39.000000)">
                        <path d="M30.3206932,54 L6.30291492,54 C2.7094719,54 0,51.1652563 0,47.4048405 C0,44.2210736 1.92200928,41.6747998 4.74875469,40.9938762 C5.46115037,37.5851435 8.51089743,35.0871212 12.0991387,35.0871212 C13.1602255,35.0871212 14.2051993,35.3080557 15.1624612,35.7314302 C16.9671123,32.7919131 20.1611993,31 23.69535,31 C29.2030208,31 33.686102,35.4231361 33.686102,40.8630029 C33.686102,41.1405424 33.674345,41.418082 33.6514655,41.6898447 C35.7033511,42.860764 37,45.0377747 37,47.4048405 C37.0000423,51.0420716 34.0043858,54 30.3206932,54 Z" id="Shape" fill="#C8DFFF"></path>
                        <path d="M66.5297353,54 L28.880245,54 C23.2472803,54 19,49.4397602 19,43.3903956 C19,38.2686836 22.0128794,34.1725041 26.4439938,33.0771052 C27.5607222,27.5934916 32.3414068,23.5749341 37.9662174,23.5749341 C39.6295427,23.5749341 41.2676097,23.9303504 42.7681824,24.6114313 C45.597095,19.8826428 50.6040422,17 56.1440622,17 C64.7777082,17 71.8052409,24.1154798 71.8052409,32.8665698 C71.8052409,33.3130465 71.7868111,33.7595232 71.7509458,34.1967066 C74.9674152,36.0803596 77,39.5825071 77,43.3903957 C77.0000663,49.2415935 72.3041723,54 66.5297353,54 Z" id="Shape-Copy-2" fill="#DCEAFF"></path>
                        <path d="M119.475125,54 L63.6500185,54 C55.2976914,54 49,47.3445149 49,38.5157125 C49,31.0407814 53.4673729,25.0625735 60.037646,23.4638832 C61.6934846,15.4607716 68.7820859,9.59584976 77.1223223,9.59584976 C79.5886322,9.59584976 82.0174903,10.1145655 84.2424774,11.1085753 C88.4370718,4.20710031 95.861166,0 104.075678,0 C116.877292,0 127.297426,10.3847543 127.297426,23.1566154 C127.297426,23.8082301 127.270099,24.4598447 127.21692,25.0978962 C131.986167,27.8470112 135,32.9582536 135,38.5157126 C135.000098,47.0552986 128.037221,54 119.475125,54 Z" id="Shape-Copy" fill="#BED9FF"></path>
                    </g>
                    <g id="Group-4-Copy" transform="translate(184.500000, 66.000000) scale(-1, 1) translate(-184.500000, -66.000000) translate(117.000000, 39.000000)">
                        <path d="M30.3206932,54 L6.30291492,54 C2.7094719,54 0,51.1652563 0,47.4048405 C0,44.2210736 1.92200928,41.6747998 4.74875469,40.9938762 C5.46115037,37.5851435 8.51089743,35.0871212 12.0991387,35.0871212 C13.1602255,35.0871212 14.2051993,35.3080557 15.1624612,35.7314302 C16.9671123,32.7919131 20.1611993,31 23.69535,31 C29.2030208,31 33.686102,35.4231361 33.686102,40.8630029 C33.686102,41.1405424 33.674345,41.418082 33.6514655,41.6898447 C35.7033511,42.860764 37,45.0377747 37,47.4048405 C37.0000423,51.0420716 34.0043858,54 30.3206932,54 Z" id="Shape" fill="#C8DFFF"></path>
                        <path d="M66.5297353,54 L28.880245,54 C23.2472803,54 19,49.4397602 19,43.3903956 C19,38.2686836 22.0128794,34.1725041 26.4439938,33.0771052 C27.5607222,27.5934916 32.3414068,23.5749341 37.9662174,23.5749341 C39.6295427,23.5749341 41.2676097,23.9303504 42.7681824,24.6114313 C45.597095,19.8826428 50.6040422,17 56.1440622,17 C64.7777082,17 71.8052409,24.1154798 71.8052409,32.8665698 C71.8052409,33.3130465 71.7868111,33.7595232 71.7509458,34.1967066 C74.9674152,36.0803596 77,39.5825071 77,43.3903957 C77.0000663,49.2415935 72.3041723,54 66.5297353,54 Z" id="Shape-Copy-2" fill="#DCEAFF"></path>
                        <path d="M119.475125,54 L63.6500185,54 C55.2976914,54 49,47.3445149 49,38.5157125 C49,31.0407814 53.4673729,25.0625735 60.037646,23.4638832 C61.6934846,15.4607716 68.7820859,9.59584976 77.1223223,9.59584976 C79.5886322,9.59584976 82.0174903,10.1145655 84.2424774,11.1085753 C88.4370718,4.20710031 95.861166,0 104.075678,0 C116.877292,0 127.297426,10.3847543 127.297426,23.1566154 C127.297426,23.8082301 127.270099,24.4598447 127.21692,25.0978962 C131.986167,27.8470112 135,32.9582536 135,38.5157126 C135.000098,47.0552986 128.037221,54 119.475125,54 Z" id="Shape-Copy" fill="#BED9FF"></path>
                    </g>
                </g>
            </g>
            <g id="yiyuan-13">
                <polygon id="Path-3" fill="#FFFFFF" points="93.0927734 117.984375 93.0927734 60.4169922 100.44043 57.3105469 109.397461 57.3105469 109.397461 31.9199219 129.813477 21.3466797 150.292969 34.1669922 150.292969 57.3105469 165.920898 58.7089844 169.000977 68.0703125 169.000977 117.984375"></polygon>
                <path d="M171,122 L91,122 L91,65.448343 C91,59.7017543 95.6905538,54.9999999 101.423453,55 L160.576547,55 C166.309446,55 171,59.7017544 171,65.448343 L171,122 Z M96.2117263,116.775828 L165.788274,116.775828 L165.788274,65.448343 C165.788274,62.5750487 163.442997,60.2241715 160.576547,60.2241715 L101.423453,60.2241715 C98.5570032,60.2241715 96.2117263,62.5750487 96.2117263,65.448343 L96.2117263,116.775828 Z" id="Shape" fill="#278DFF" fill-rule="nonzero"></path>
                <path d="M138.455724,122 L121.479482,122 C117.915767,122 115,119.084233 115,115.520518 L115,98.4794816 C115,94.9157667 117.915767,92 121.479482,92 L138.520518,92 C142.084233,92 145,94.9157667 145,98.4794816 L145,115.520518 C144.935205,119.084233 142.084233,122 138.455724,122 Z M121.479482,97.1835853 C120.766739,97.1835853 120.183585,97.7667386 120.183585,98.4794816 L120.183585,115.520518 C120.183585,116.233261 120.766739,116.816415 121.479482,116.816415 L138.520518,116.816415 C139.233261,116.816415 139.816415,116.233261 139.816415,115.520518 L139.816415,98.4794816 C139.816415,97.7667386 139.233261,97.1835853 138.520518,97.1835853 L121.479482,97.1835853 Z" id="Shape" fill="#278DFF" fill-rule="nonzero"></path>
                <path d="M179.4,122 L80.6000001,122 C79.17,122 78.0000001,120.829451 78,119.398781 C77.9999999,117.96811 79.17,116.797561 80.6000001,116.797561 L179.4,116.797561 C180.83,116.797561 182,117.96811 182,119.398781 C182,120.829451 180.83,122 179.4,122 Z M150.8,60.4811631 L108.55,60.4811631 C107.12,60.4811631 105.95,59.3106143 105.95,57.8799438 L105.95,32.9732688 C105.95,32.062842 106.47,31.2174458 107.25,30.7622323 L128.375,18.34141 C129.22,17.8861967 130.195,17.8861967 131.04,18.34141 L152.165,30.7622323 C152.945,31.2174457 153.465,32.062842 153.465,32.9732688 L153.465,57.8799438 C153.4,59.3106144 152.23,60.4811631 150.8,60.4811631 Z M111.15,55.2787245 L148.2,55.2787245 L148.2,34.4689698 L129.675,23.5438488 L111.15,34.4689698 L111.15,55.2787245 Z" id="Shape" fill="#278DFF" fill-rule="nonzero"></path>
                <path d="M129.5,51 C128.125,51 127,49.8387096 127,48.4193549 L127,33.5806453 C127,32.1612904 128.125,31.0000001 129.5,31 C130.875,30.9999999 132,32.1612904 132,33.5806453 L132,48.4193549 C132,49.8387098 130.875,51 129.5,51 Z" id="Shape" fill="#278DFF" fill-rule="nonzero"></path>
                <path d="M138.545249,43.1396648 L123.454751,43.1396648 C122.011312,43.1396648 120.830317,41.9832401 120.830317,40.5698324 C120.830317,39.1564246 122.011312,38 123.454751,38 L138.545249,38 C139.988688,38 141.169683,39.1564246 141.169683,40.5698324 C141.169683,41.9832401 139.988688,43.1396648 138.545249,43.1396648 Z M114.662896,73.1424582 L104.624434,73.1424582 C103.180995,73.1424582 102,71.9860335 102,70.5726258 C102,69.159218 103.180996,68.0027934 104.624434,68.0027934 L114.662896,68.0027934 C116.106335,68.0027934 117.28733,69.159218 117.28733,70.5726258 C117.28733,71.9860335 116.106335,73.1424582 114.662896,73.1424582 Z M136.052036,73.1424582 L125.947964,73.1424582 C124.504525,73.1424582 123.323529,71.9860335 123.323529,70.5726258 C123.323529,69.159218 124.504525,68.0027934 125.947964,68.0027934 L135.986425,68.0027934 C137.429864,68.0027934 138.61086,69.159218 138.61086,70.5726258 C138.61086,71.9860335 137.495475,73.1424582 136.052036,73.1424582 Z M157.375566,73.1424582 L147.337104,73.1424582 C145.893665,73.1424582 144.71267,71.9860335 144.71267,70.5726258 C144.71267,69.159218 145.893665,68.0027934 147.337104,68.0027934 L157.375566,68.0027934 C158.819005,68.0027934 160,69.159218 160,70.5726258 C160,71.9860335 158.819004,73.1424582 157.375566,73.1424582 Z M114.662896,84 L104.624434,84 C103.180995,84 102,82.8435754 102,81.4301676 C102,80.0167599 103.180996,78.8603352 104.624434,78.8603352 L114.662896,78.8603352 C116.106335,78.8603352 117.28733,80.0167599 117.28733,81.4301676 C117.28733,82.8435754 116.106335,84 114.662896,84 Z M136.052036,84 L125.947964,84 C124.504525,84 123.323529,82.8435754 123.323529,81.4301676 C123.323529,80.0167599 124.504525,78.8603352 125.947964,78.8603352 L135.986425,78.8603352 C137.429864,78.8603352 138.61086,80.0167599 138.61086,81.4301676 C138.61086,82.8435754 137.495475,84 136.052036,84 Z" id="Shape" fill="#278DFF" fill-rule="nonzero"></path>
                <path d="M155.424893,84 L145.575107,84 C144.158798,84 143,82.8749999 143,81.5 C143,80.1250001 144.158798,79 145.575107,79 L155.424893,79 C156.841202,79 158,80.1250001 158,81.5 C158,82.8749999 156.841202,84 155.424893,84 Z" id="Shape" fill="#278DFF" fill-rule="nonzero"></path>
                <g id="xingxing" transform="translate(194.000000, 33.000000)" fill="#6698F1">
                    <g id="Shape">
                        <path d="M12.7892649,5.53167595 L10.3918086,7.52708452 C10.2408653,7.67000238 10.1719776,7.87589152 10.2076345,8.077719 L10.7737557,11.2829298 C10.8180156,11.5369078 10.7738196,11.7189385 10.5593993,11.8706308 C10.4380796,11.9563288 10.2937441,11.9999839 10.1493448,11.9999839 C10.0384956,11.9999839 9.92726327,11.9742497 9.82512874,11.9221147 L6.79802638,10.3374613 C6.61142615,10.2421982 6.38853058,10.2421982 6.20197823,10.3374613 L3.30194152,11.9221147 C3.06694749,12.0423214 2.78245836,12.0220286 2.56730386,11.8706308 C2.35288358,11.7189385 2.18162188,11.5372798 2.22663195,11.2829298 L2.92005827,8.01116663 C2.95573114,7.80940117 2.88682744,7.60351202 2.73588412,7.46059416 L0.211058962,5.53167595 C0.0203248301,5.35181556 -0.047621217,5.08264507 0.0339236145,4.837457 C0.116218608,4.59231545 0.334134358,4.41386578 0.596980357,4.37655119 L3.88115082,3.81677022 C4.08964957,3.78733091 4.26989731,3.66016363 4.36322137,3.47662914 L5.87522433,0.377564221 C5.99237817,0.146297407 6.23465043,0 6.50032152,0 C6.76597667,0 7.00757856,0.146297407 7.12548258,0.377564197 L8.57811056,3.47656711 C8.67138673,3.6601016 8.85169832,3.7873309 9.06024496,3.81683221 L12.4036467,4.37655118 C12.6658224,4.41349371 12.8844085,4.59231543 12.9660172,4.83745699 C13.0479451,5.08264506 12.9789296,5.35181556 12.7892649,5.53167595" fill-rule="nonzero"></path>
                    </g>
                </g>
                <g id="xingxing" transform="translate(224.000000, 12.000000)" fill="#6698F1">
                    <g id="Shape">
                        <path d="M4.91894803,2.30486498 L3.99684947,3.13628522 C3.93879435,3.19583432 3.91229907,3.28162147 3.92601326,3.36571625 L4.1437522,4.70122074 C4.16077524,4.8070449 4.14377676,4.88289105 4.06130742,4.94609617 C4.01464601,4.98180367 3.95913236,4.99999331 3.90359417,4.99999331 C3.86095985,4.99999331 3.81817818,4.98927073 3.77889567,4.9675478 L2.61462553,4.30727553 C2.54285621,4.26758259 2.45712714,4.26758259 2.38537624,4.30727553 L1.26997751,4.9675478 C1.17959519,5.0176339 1.07017629,5.00917856 0.987424563,4.94609617 C0.904955225,4.88289106 0.839085339,4.80719993 0.856396905,4.70122074 L1.12309934,3.3379861 C1.13681967,3.25391715 1.11031824,3.16813001 1.05226312,3.1085809 L0.0811765238,2.30486498 C0.00781724233,2.22992315 -0.0183158527,2.11776878 0.013047544,2.01560709 C0.0446994646,1.91346477 0.128513215,1.83911074 0.22960783,1.823563 L1.49275032,1.59032093 C1.57294214,1.57805455 1.6422682,1.52506818 1.67816207,1.44859548 L2.25970166,0.157318425 C2.30476083,0.0609572527 2.39794247,0 2.50012366,0 C2.60229872,0 2.69522252,0.0609572527 2.74057022,0.157318416 L3.29927329,1.44856963 C3.33514874,1.52504233 3.40449935,1.57805454 3.4847096,1.59034676 L4.77063336,1.82356299 C4.87147015,1.83895571 4.95554173,1.91346476 4.98692968,2.01560708 C5.0184404,2.11776878 4.99189601,2.22992315 4.91894803,2.30486498" fill-rule="nonzero"></path>
                    </g>
                </g>
                <g id="xingxing" transform="translate(229.000000, 39.000000)" fill="#6698F1">
                    <g id="Shape">
                        <path d="M4.91894803,2.30486498 L3.99684947,3.13628522 C3.93879435,3.19583432 3.91229907,3.28162147 3.92601326,3.36571625 L4.1437522,4.70122074 C4.16077524,4.8070449 4.14377676,4.88289105 4.06130742,4.94609617 C4.01464601,4.98180367 3.95913236,4.99999331 3.90359417,4.99999331 C3.86095985,4.99999331 3.81817818,4.98927073 3.77889567,4.9675478 L2.61462553,4.30727553 C2.54285621,4.26758259 2.45712714,4.26758259 2.38537624,4.30727553 L1.26997751,4.9675478 C1.17959519,5.0176339 1.07017629,5.00917856 0.987424563,4.94609617 C0.904955225,4.88289106 0.839085339,4.80719993 0.856396905,4.70122074 L1.12309934,3.3379861 C1.13681967,3.25391715 1.11031824,3.16813001 1.05226312,3.1085809 L0.0811765238,2.30486498 C0.00781724233,2.22992315 -0.0183158527,2.11776878 0.013047544,2.01560709 C0.0446994646,1.91346477 0.128513215,1.83911074 0.22960783,1.823563 L1.49275032,1.59032093 C1.57294214,1.57805455 1.6422682,1.52506818 1.67816207,1.44859548 L2.25970166,0.157318425 C2.30476083,0.0609572527 2.39794247,0 2.50012366,0 C2.60229872,0 2.69522252,0.0609572527 2.74057022,0.157318416 L3.29927329,1.44856963 C3.33514874,1.52504233 3.40449935,1.57805454 3.4847096,1.59034676 L4.77063336,1.82356299 C4.87147015,1.83895571 4.95554173,1.91346476 4.98692968,2.01560708 C5.0184404,2.11776878 4.99189601,2.22992315 4.91894803,2.30486498" fill-rule="nonzero"></path>
                    </g>
                </g>
                <g id="xingxing" transform="translate(248.000000, 22.000000)" fill="#6698F1">
                    <g id="Shape">
                        <path d="M4.91894803,2.30486498 L3.99684947,3.13628522 C3.93879435,3.19583432 3.91229907,3.28162147 3.92601326,3.36571625 L4.1437522,4.70122074 C4.16077524,4.8070449 4.14377676,4.88289105 4.06130742,4.94609617 C4.01464601,4.98180367 3.95913236,4.99999331 3.90359417,4.99999331 C3.86095985,4.99999331 3.81817818,4.98927073 3.77889567,4.9675478 L2.61462553,4.30727553 C2.54285621,4.26758259 2.45712714,4.26758259 2.38537624,4.30727553 L1.26997751,4.9675478 C1.17959519,5.0176339 1.07017629,5.00917856 0.987424563,4.94609617 C0.904955225,4.88289106 0.839085339,4.80719993 0.856396905,4.70122074 L1.12309934,3.3379861 C1.13681967,3.25391715 1.11031824,3.16813001 1.05226312,3.1085809 L0.0811765238,2.30486498 C0.00781724233,2.22992315 -0.0183158527,2.11776878 0.013047544,2.01560709 C0.0446994646,1.91346477 0.128513215,1.83911074 0.22960783,1.823563 L1.49275032,1.59032093 C1.57294214,1.57805455 1.6422682,1.52506818 1.67816207,1.44859548 L2.25970166,0.157318425 C2.30476083,0.0609572527 2.39794247,0 2.50012366,0 C2.60229872,0 2.69522252,0.0609572527 2.74057022,0.157318416 L3.29927329,1.44856963 C3.33514874,1.52504233 3.40449935,1.57805454 3.4847096,1.59034676 L4.77063336,1.82356299 C4.87147015,1.83895571 4.95554173,1.91346476 4.98692968,2.01560708 C5.0184404,2.11776878 4.99189601,2.22992315 4.91894803,2.30486498" fill-rule="nonzero"></path>
                    </g>
                </g>
                <g id="xingxing" transform="translate(68.000000, 0.000000)" fill="#6698F1">
                    <g id="Shape">
                        <path d="M4.91894803,2.30486498 L3.99684947,3.13628522 C3.93879435,3.19583432 3.91229907,3.28162147 3.92601326,3.36571625 L4.1437522,4.70122074 C4.16077524,4.8070449 4.14377676,4.88289105 4.06130742,4.94609617 C4.01464601,4.98180367 3.95913236,4.99999331 3.90359417,4.99999331 C3.86095985,4.99999331 3.81817818,4.98927073 3.77889567,4.9675478 L2.61462553,4.30727553 C2.54285621,4.26758259 2.45712714,4.26758259 2.38537624,4.30727553 L1.26997751,4.9675478 C1.17959519,5.0176339 1.07017629,5.00917856 0.987424563,4.94609617 C0.904955225,4.88289106 0.839085339,4.80719993 0.856396905,4.70122074 L1.12309934,3.3379861 C1.13681967,3.25391715 1.11031824,3.16813001 1.05226312,3.1085809 L0.0811765238,2.30486498 C0.00781724233,2.22992315 -0.0183158527,2.11776878 0.013047544,2.01560709 C0.0446994646,1.91346477 0.128513215,1.83911074 0.22960783,1.823563 L1.49275032,1.59032093 C1.57294214,1.57805455 1.6422682,1.52506818 1.67816207,1.44859548 L2.25970166,0.157318425 C2.30476083,0.0609572527 2.39794247,0 2.50012366,0 C2.60229872,0 2.69522252,0.0609572527 2.74057022,0.157318416 L3.29927329,1.44856963 C3.33514874,1.52504233 3.40449935,1.57805454 3.4847096,1.59034676 L4.77063336,1.82356299 C4.87147015,1.83895571 4.95554173,1.91346476 4.98692968,2.01560708 C5.0184404,2.11776878 4.99189601,2.22992315 4.91894803,2.30486498" fill-rule="nonzero"></path>
                    </g>
                </g>
                <g id="xingxing" transform="translate(48.000000, 43.000000)" fill="#6698F1">
                    <g id="Shape">
                        <path d="M7.87031685,3.68778397 L6.39495916,5.01805634 C6.30207096,5.11333492 6.2596785,5.25059435 6.28162122,5.385146 L6.63000353,7.52195318 C6.65724039,7.69127185 6.63004282,7.81262568 6.49809187,7.91375387 C6.42343361,7.97088588 6.33461178,7.9999893 6.24575067,7.9999893 C6.17753575,7.9999893 6.10908509,7.98283316 6.04623307,7.94807648 L4.18340085,6.89164085 C4.06856994,6.82813214 3.93140343,6.82813214 3.81660199,6.89164085 L2.03196401,7.94807648 C1.8873523,8.02821424 1.71228206,8.0146857 1.5798793,7.91375388 C1.44792836,7.81262569 1.34253654,7.69151989 1.37023505,7.52195319 L1.79695894,5.34077775 C1.81891147,5.20626744 1.77650919,5.06900801 1.683621,4.97372944 L0.129882438,3.68778397 C0.0125075877,3.56787704 -0.0293053643,3.38843005 0.0208760705,3.22497134 C0.0715191433,3.06154363 0.205621143,2.94257719 0.367372528,2.9177008 L2.38840051,2.54451348 C2.51670743,2.52488728 2.62762912,2.44010909 2.6850593,2.31775276 L3.61552266,0.251709481 C3.68761733,0.0975316044 3.83670796,0 4.00019786,0 C4.16367795,0 4.31235603,0.0975316044 4.38491236,0.251709465 L5.27883727,2.31771141 C5.33623798,2.44006774 5.44719897,2.52488727 5.57553536,2.54455481 L7.63301338,2.91770079 C7.79435223,2.94232914 7.92886676,3.06154362 7.97908748,3.22497133 C8.02950465,3.38843004 7.98703361,3.56787704 7.87031685,3.68778397" fill-rule="nonzero"></path>
                    </g>
                </g>
                <g id="xingxing" transform="translate(30.000000, 22.000000)" fill="#6698F1">
                    <g id="Shape">
                        <path d="M5.90273763,2.76583797 L4.79621937,3.76354226 C4.72655322,3.83500119 4.69475888,3.93794576 4.71121591,4.0388595 L4.97250264,5.64146489 C4.99293029,5.76845389 4.97253211,5.85946926 4.8735689,5.9353154 C4.81757521,5.97816441 4.75095884,5.99999197 4.68431301,5.99999197 C4.63315181,5.99999197 4.58181382,5.98712487 4.5346748,5.96105736 L3.13755064,5.16873063 C3.05142745,5.1210991 2.94855257,5.1210991 2.86245149,5.16873063 L1.52397301,5.96105736 C1.41551423,6.02116068 1.28421155,6.01101428 1.18490948,5.93531541 C1.08594627,5.85946927 1.00690241,5.76863992 1.02767629,5.64146489 L1.3477192,4.00558332 C1.36418361,3.90470058 1.33238189,3.80175601 1.26271575,3.73029708 L0.0974118285,2.76583797 C0.0093806908,2.67590778 -0.0219790232,2.54132254 0.0156570529,2.4187285 C0.0536393575,2.29615772 0.154215858,2.20693289 0.275529396,2.1882756 L1.79130038,1.90838511 C1.88753057,1.89366546 1.97072184,1.83008182 2.01379448,1.73831457 L2.711642,0.18878211 C2.765713,0.0731487033 2.87753097,0 3.0001484,0 C3.12275846,0 3.23426703,0.0731487033 3.28868427,0.188782099 L3.95912795,1.73828356 C4.00217849,1.8300508 4.08539922,1.89366545 4.18165152,1.90841611 L5.72476003,2.18827559 C5.84576417,2.20674686 5.94665007,2.29615772 5.98431561,2.4187285 C6.02212849,2.54132253 5.99027521,2.67590778 5.90273763,2.76583797" fill-rule="nonzero"></path>
                    </g>
                </g>
                <g id="xingxing" transform="translate(0.000000, 31.000000)" fill="#6698F1">
                    <g id="Shape">
                        <path d="M5.90273763,2.76583797 L4.79621937,3.76354226 C4.72655322,3.83500119 4.69475888,3.93794576 4.71121591,4.0388595 L4.97250264,5.64146489 C4.99293029,5.76845389 4.97253211,5.85946926 4.8735689,5.9353154 C4.81757521,5.97816441 4.75095884,5.99999197 4.68431301,5.99999197 C4.63315181,5.99999197 4.58181382,5.98712487 4.5346748,5.96105736 L3.13755064,5.16873063 C3.05142745,5.1210991 2.94855257,5.1210991 2.86245149,5.16873063 L1.52397301,5.96105736 C1.41551423,6.02116068 1.28421155,6.01101428 1.18490948,5.93531541 C1.08594627,5.85946927 1.00690241,5.76863992 1.02767629,5.64146489 L1.3477192,4.00558332 C1.36418361,3.90470058 1.33238189,3.80175601 1.26271575,3.73029708 L0.0974118285,2.76583797 C0.0093806908,2.67590778 -0.0219790232,2.54132254 0.0156570529,2.4187285 C0.0536393575,2.29615772 0.154215858,2.20693289 0.275529396,2.1882756 L1.79130038,1.90838511 C1.88753057,1.89366546 1.97072184,1.83008182 2.01379448,1.73831457 L2.711642,0.18878211 C2.765713,0.0731487033 2.87753097,0 3.0001484,0 C3.12275846,0 3.23426703,0.0731487033 3.28868427,0.188782099 L3.95912795,1.73828356 C4.00217849,1.8300508 4.08539922,1.89366545 4.18165152,1.90841611 L5.72476003,2.18827559 C5.84576417,2.20674686 5.94665007,2.29615772 5.98431561,2.4187285 C6.02212849,2.54132253 5.99027521,2.67590778 5.90273763,2.76583797" fill-rule="nonzero"></path>
                    </g>
                </g>
            </g>
        </g>
    </g>
</svg>