<?xml version="1.0" encoding="UTF-8"?>
<svg width="100px" height="100px" viewBox="0 0 100 100" version="1.1" xmlns="http://www.w3.org/2000/svg" xmlns:xlink="http://www.w3.org/1999/xlink">
    <!-- Generator: Sketch 51.3 (57544) - http://www.bohemiancoding.com/sketch -->
    <title>药品</title>
    <desc>Created with Sketch.</desc>
    <defs></defs>
    <g id="药品" stroke="none" stroke-width="1" fill="none" fill-rule="evenodd">
        <g id="Group-20">
            <g id="Group-16">
                <circle id="Oval-2" fill="#3DB7FF" cx="50" cy="50" r="50"></circle>
                <g id="WD_icon_yongyaozhidao" transform="translate(27.000000, 20.000000)" fill="#FFFFFF" fill-rule="nonzero">
                    <path d="M32.3095139,13.5123266 L13.7723929,13.5123266 L5.21583909,22.6454714 C3.46833549,24.5104162 2.49482204,26.9775757 2.49462211,29.541808 L2.49462211,51.206438 C2.49462211,54.6755424 5.28693577,57.4872546 8.73117739,57.4872546 L37.2688226,57.4872546 C40.7134799,57.4872546 43.5053778,54.6755424 43.5053779,51.206438 L43.5053779,29.5175222 C43.5053562,26.9652949 42.5410849,24.5086904 40.8082756,22.6463088 L32.3095139,13.5123266 Z M3.40100151,20.9211779 L12.6959634,11 L33.3905168,11 L42.6281024,20.9278774 C44.7943526,23.2558263 45.9998849,26.3266755 46,29.5171035 L46,51.2068567 C46,56.0631841 42.0905114,59.9999999 37.2688226,60 L8.73117739,60 C3.90907286,60 5.8873731e-08,56.0631842 0,51.2068567 L0,29.5422267 C-4.97677082e-05,26.3367912 1.21666364,23.252598 3.40100151,20.9211779 Z" id="Shape"></path>
                    <path d="M2,31.506126 L2,29 L44,29 L44,31.506126 L2,31.506126 Z M15.9635233,44 C15.2768499,43.9998497 14.7202701,43.4388783 14.7202701,42.746937 C14.7202701,42.0549957 15.2768499,41.4940243 15.9635233,41.493874 L30.0567876,41.493874 C30.743461,41.4940243 31.3000407,42.0549957 31.3000407,42.746937 C31.3000407,43.4388783 30.743461,43.9998497 30.0567876,44 L15.9635233,44 Z" id="Shape"></path>
                    <path d="M21.2666667,35.5329767 C21.2668147,34.84046 21.8189534,34.2791441 22.5,34.2791441 C23.1810466,34.2791441 23.7331853,34.84046 23.7333333,35.5329767 L23.7333333,49.7461674 C23.7331853,50.4386841 23.1810466,51 22.5,51 C21.8189534,51 21.2668147,50.4386841 21.2666667,49.7461674 L21.2666667,35.5329767 Z M6.46666668,2.50821013 L6.46666668,11.2869455 L38.5333333,11.2869455 L38.5333333,2.50821013 L6.46666668,2.50821013 Z M5.64444445,0 L39.3555555,0 C40.2637571,5.65479111e-17 41,0.748642618 41,1.67214009 L41,12.1230156 C41,13.0465131 40.2637571,13.7951557 39.3555555,13.7951557 L5.64444445,13.7951557 C4.73624286,13.7951557 4,13.0465131 4,12.1230156 L4,1.67214009 C4,0.748642618 4.73624286,1.69643733e-16 5.64444445,0 Z" id="Shape"></path>
                    <path d="M22,2 L24.5714285,2 L24.5714285,12 L22,12 L22,2 Z M16,2 L18.5714286,2 L18.5714286,12 L16,12 L16,2 Z M10,2 L12.5714285,2 L12.5714285,12 L10,12 L10,2 Z M28.4285714,2 L31,2 L31,12 L28.4285714,12 L28.4285714,2 Z" id="Shape"></path>
                    <path d="M28,2 L30.4,2 L30.4,12 L28,12 L28,2 Z M33.6,2 L36,2 L36,12 L33.6,12 L33.6,2 Z" id="Shape"></path>
                </g>
            </g>
        </g>
    </g>
</svg>