<?xml version="1.0" encoding="UTF-8"?>
<svg width="202px" height="126px" viewBox="0 0 202 126" version="1.1" xmlns="http://www.w3.org/2000/svg" xmlns:xlink="http://www.w3.org/1999/xlink">
    <!-- Generator: Sketch 51.3 (57544) - http://www.bohemiancoding.com/sketch -->
    <title>医院</title>
    <desc>Created with Sketch.</desc>
    <defs></defs>
    <g id="医院" stroke="none" stroke-width="1" fill="none" fill-rule="evenodd">
        <g id="Group-15">
            <path d="M191.529735,112 L153.880245,112 C148.24728,112 144,107.43976 144,101.390396 C144,96.2686836 147.012879,92.1725041 151.443994,91.0771052 C152.560722,85.5934916 157.341407,81.5749341 162.966217,81.5749341 C164.629543,81.5749341 166.26761,81.9303504 167.768182,82.6114313 C170.597095,77.8826428 175.604042,75 181.144062,75 C189.777708,75 196.805241,82.1154798 196.805241,90.8665698 C196.805241,91.3130465 196.786811,91.7595232 196.750946,92.1967066 C199.967415,94.0803596 202,97.5825071 202,101.390396 C202.000066,107.241594 197.304172,112 191.529735,112 Z" id="Shape-Copy-2" fill="#E5F6FF" fill-rule="nonzero"></path>
            <g id="yiyuan-14" transform="translate(15.000000, 0.000000)">
                <path d="M66.3717684,3 C84.4329966,3 99.2111242,3 110.706151,3 C111.701329,4.30299095 112.198918,5.70306155 112.198918,7.2002118 C112.198918,8.69736205 111.701329,9.72049056 110.706151,10.2695973 L95.0417763,10.2695973 C92.8669594,12.2468368 91.7795509,14.2259724 91.7795509,16.207004 C91.7795509,18.1880356 92.8669594,19.5403248 95.0417763,20.2638716 L130.060883,20.2638716 C131.353628,21.4417208 132,22.7845296 132,24.2922979 C132,25.8000663 131.353628,26.9691935 130.060883,27.7996796 L116.909503,27.7996796 C124.227971,39.4378612 127.887205,52.1776694 127.887205,66.0191041 C127.887205,86.7812561 116.66014,110.959778 99.1858842,119.774307 C81.7116289,128.588836 40.0690089,126.425021 32.763446,123.099664 C27.8930706,120.882759 23.4967523,119.774307 19.5744908,119.774307 C18.264287,117.224449 18.264287,115.94952 19.5744908,115.94952 C21.5397966,115.94952 26.5566779,115.706062 26.5566779,114.100835 C26.5566779,112.495608 23.9400657,111.112223 21.7572783,111.803915 C20.3020867,112.265044 13.5916568,112.265044 1.62598877,111.803915 C-0.541996256,108.737564 -0.541996256,106.554788 1.62598877,105.25559 C3.79397379,103.956391 8.58768018,103.956391 16.0071079,105.25559 C4.06041733,85.2427712 0.542375805,66.4529288 5.45298334,48.8860625 C12.8188946,22.535763 39.2799262,3 66.3717684,3 Z" id="Path-48" fill="#E5F6FF"></path>
                <polygon id="Path-49" fill="#FFFFFF" points="44.3515625 9.18359375 50.5 4.59765625 105.421875 4.59765625 110.458984 9.18359375 110.458984 44.4902344 143.787109 44.4902344 146.597656 49.5878906 146.597656 99.5507812 44.3515625 99.5507812 44.3515625 92.5898438"></polygon>
                <path d="M142.914459,104 L48.4450251,104 C43.2276116,104 38.9999999,99.7690473 39,94.5473389 L39,14.1828869 C39,6.3503242 45.3449619,0 53.1712212,0 L100.403992,0 C108.23039,0 114.575491,6.35046332 114.575491,14.183026 L114.575491,40.1838954 L140.551361,40.1838954 C145.768774,40.1838954 150,44.4149872 150,49.6368347 L150,96.9084871 C150.000139,100.826716 146.825712,104 142.914459,104 Z M67,97 L86,97 L86,78.3312274 C86,77.0443414 84.9371294,75.9999999 83.6274111,76 L69.3763628,76 C68.0628706,76 67.0001398,77.0443415 67.0001398,78.3312274 L67,97 Z M108,14.1058325 C108,10.1798302 104.794712,7 100.845563,7 L53.1544369,7 C49.201518,7 46,10.1798302 46,14.1058325 L46,94.6338857 C46,95.9401029 47.0672657,97 48.3822522,97 L62.6911261,97 L62.6911261,75.6858311 C62.6911261,73.0696521 64.825518,70.9498577 67.4595405,70.9498576 L86.5368288,70.9498576 C89.1707117,70.9498576 91.3051036,73.069652 91.3051036,75.6858311 L91.3051036,97 L108,97 L108,14.1058325 Z M143,49.3822135 C143,48.06541 141.955705,47 140.665305,47 L115,47 L115,61.286555 L131.332979,61.286555 C132.619808,61.286555 133.66424,62.3521051 133.66424,63.6689087 C133.66424,64.9819288 132.619945,66.047619 131.332979,66.047619 L115,66.047619 L115,75.5735305 L131.333253,75.5735305 C132.620082,75.5735305 133.664378,76.6390806 133.664378,77.9521006 C133.664378,79.2689042 132.620082,80.3344543 131.333116,80.3344544 L115,80.3344544 L115,97 L140.665167,97 C141.955705,97 142.999863,95.9344499 142.999863,94.6212897 L142.999863,49.3822135 L143,49.3822135 Z M78.8567267,39.8586293 L78.8567267,51.6449085 C78.8567267,52.9448913 77.8018631,54 76.5020115,54 C75.1982756,54 74.143412,52.94503 74.143412,51.6449085 L74.143412,39.8586293 L62.3584607,39.8586293 C61.0586091,39.8586293 60,38.8000521 60,37.4999306 C60,36.1960632 61.0584705,35.1412319 62.3584607,35.1412319 L74.143412,35.1412319 L74.143412,23.3549528 C74.143412,22.05497 75.1982756,21 76.5020115,21 C77.8018631,21 78.8567267,22.05497 78.8567267,23.3549528 L78.8567267,35.1410932 L90.641678,35.1410932 C91.9454139,35.1410932 93,36.1960632 93,37.4996531 C93,38.7997747 91.9452752,39.8584906 90.641678,39.8584906 L78.8567267,39.8584906 L78.8567267,39.8586293 Z M88.6209371,12 L98.2070731,12 C100.854716,12 103,14.2661762 103,17.0591923 L103,22.2133631 C103,24.5364414 100.605441,24.6539258 100.605441,22.2133631 L100.605441,17.0591923 C100.605441,15.6608441 99.5327282,14.5276145 98.2070731,14.5276145 L88.6209371,14.5276145 C86.5436494,14.5276145 86.3773253,12 88.6209371,12 Z M82.9984119,15 C82.4471502,15 82,14.3280133 82,13.5000832 C82,12.6723193 82.4471502,12.0000001 82.9984119,12 C83.549556,12 84,12.6723192 84,13.5000832 C84,14.3278472 83.5494382,15 82.9984119,15 Z" id="Shape" fill="#278DFF" fill-rule="nonzero"></path>
            </g>
            <circle id="Oval-17" fill="#E5F6FF" cx="5" cy="108" r="5"></circle>
            <circle id="Oval-17-Copy" fill="#E5F6FF" cx="161" cy="23" r="5"></circle>
        </g>
    </g>
</svg>