<?xml version="1.0" encoding="UTF-8"?>
<svg width="100px" height="100px" viewBox="0 0 100 100" version="1.1" xmlns="http://www.w3.org/2000/svg" xmlns:xlink="http://www.w3.org/1999/xlink">
    <!-- Generator: Sketch 51.3 (57544) - http://www.bohemiancoding.com/sketch -->
    <title>专家医师</title>
    <desc>Created with Sketch.</desc>
    <defs></defs>
    <g id="专家医师" stroke="none" stroke-width="1" fill="none" fill-rule="evenodd">
        <g id="Group-16">
            <circle id="Oval-2" fill="#F7DD68" cx="50" cy="50" r="50"></circle>
            <g id="yisheng-9" transform="translate(24.000000, 21.000000)" fill="#FFFFFF" fill-rule="nonzero">
                <path d="M29.3333333,8.33333333 L27.6666667,8.33333333 L27.6666667,6.66666667 C27.6666667,5.83333333 26.8333333,5 26,5 C25.1666667,5 24.3333333,5.83333333 24.3333333,6.66666667 L24.3333333,8.33333333 L22.6666667,8.33333333 C21.8333333,8.33333333 21,9.16666667 21,10 C21,10.8333333 21.8333333,11.6666667 22.6666667,11.6666667 L24.3333333,11.6666667 L24.3333333,13.3333333 C24.3333333,14.1666667 25.1666667,15 26,15 C26.8333333,15 27.6666667,14.1666667 27.6666667,13.3333333 L27.6666667,11.6666667 L29.3333333,11.6666667 C30.1666667,11.6666667 31,10.8333333 31,10 C31,9.16666667 30.1666667,8.33333333 29.3333333,8.33333333 Z" id="Shape"></path>
                <path d="M37.05,34.3166667 C40.3,31.4166667 42.25,27.2277778 42.25,22.5555556 L42.25,4.18888889 C42.25,3.54444444 41.925,2.9 41.275,2.73888889 C39.1625,1.93333333 33.475,0 26,0 C18.525,0 13,1.93333333 10.725,2.73888889 C10.075,3.06111111 9.75,3.54444444 9.75,4.18888889 L9.75,21.9111111 C9.75,26.7444444 11.8625,31.0944444 15.1125,34.3166667 C6.5,36.25 0,43.9833333 0,53.1666667 C0,55.9055556 2.1125,58 4.875,58 L47.125,58 C49.8875,58 52,55.9055556 52,53.1666667 C52,43.9833333 45.6625,36.4111111 37.05,34.3166667 Z M26,53.0055556 L20.475,48.6555556 L14.95,44.6277778 L17.0625,39.4722222 L26.325,52.8444444 L26,53.0055556 Z M19.5,37.2166667 C21.125,38.0222222 22.9125,38.5055556 24.8625,38.5055556 L26,38.5055556 C28.275,38.5055556 30.55,38.0222222 32.5,37.0555556 L26.1625,46.5611111 L19.5,37.2166667 Z M28.1125,49.6222222 L34.9375,39.4722222 L37.05,44.4666667 L31.525,48.6555556 L28.925,50.75 L28.1125,49.6222222 Z M13,21.75 C16.0875,20.6222222 20.475,19.3333333 26,19.3333333 C27.625,19.3333333 29.0875,19.4944444 30.7125,19.6555556 C31.525,19.8166667 32.5,19.1722222 32.5,18.2055556 C32.6625,17.4 32.0125,16.4333333 31.0375,16.4333333 C29.4125,16.2722222 27.625,16.1111111 26,16.1111111 C20.475,16.1111111 15.7625,17.4 13,18.3666667 L13,5.31666667 C15.4375,4.51111111 19.9875,3.22222222 26,3.22222222 C32.0125,3.22222222 36.5625,4.51111111 39,5.31666667 L39,18.3666667 C38.5125,18.2055556 37.8625,18.0444444 37.2125,17.7222222 C36.4,17.4 35.425,17.8833333 35.2625,18.85 C34.9375,19.6555556 35.425,20.6222222 36.4,20.7833333 C37.375,21.1055556 38.35,21.4277778 39.1625,21.75 L39.1625,22.5555556 C39.1625,29.6444444 33.3125,35.4444444 26.1625,35.4444444 L25.35,35.4444444 C18.525,34.9611111 13.1625,29.1611111 13.1625,22.0722222 L13.1625,21.75 L13,21.75 Z M3.25,53.1666667 C3.25,46.0777778 7.8,40.1166667 14.1375,38.0222222 L12.025,43.3388889 C11.5375,44.6277778 11.8625,46.2388889 13.1625,47.0444444 L18.6875,51.0722222 L23.2375,54.6166667 L4.875,54.6166667 C3.9,54.7777778 3.25,54.1333333 3.25,53.1666667 Z M47.125,54.7777778 L31.6875,54.7777778 L30.7125,53.3277778 L33.475,51.2333333 L39,47.2055556 C40.1375,46.4 40.625,44.7888889 40.1375,43.5 L38.025,38.1833333 C44.3625,40.4388889 48.9125,46.4 48.9125,53.3277778 C48.75,54.1333333 48.1,54.7777778 47.125,54.7777778 Z" id="Shape"></path>
            </g>
        </g>
    </g>
</svg>