<?xml version="1.0" encoding="UTF-8"?>
<svg width="100px" height="100px" viewBox="0 0 100 100" version="1.1" xmlns="http://www.w3.org/2000/svg" xmlns:xlink="http://www.w3.org/1999/xlink">
    <!-- Generator: Sketch 51.3 (57544) - http://www.bohemiancoding.com/sketch -->
    <title>药店</title>
    <desc>Created with Sketch.</desc>
    <defs></defs>
    <g id="药店" stroke="none" stroke-width="1" fill="none" fill-rule="evenodd">
        <g id="Group-16">
            <circle id="Oval-2" fill="#9BE5F6" cx="50" cy="50" r="50"></circle>
            <g id="yaodian-3" transform="translate(25.000000, 27.000000)" fill="#FFFFFF" fill-rule="nonzero">
                <path d="M50.1834161,14.8735126 L48.8139348,11.2944345 L47.1363202,6.91432453 C46.7711252,5.95422261 46.4458734,4.93162885 45.9893797,4.01129446 C44.7796712,1.58547482 42.2233061,0.136800321 39.5528176,0.011816639 C39.10203,-0.0109076668 38.6455362,0.00613556257 38.1947487,0.00613556257 L11.9577696,0.00613556257 C9.86360444,0.00613556257 7.74090844,0.790124113 6.34289629,2.39218767 C5.91493338,2.88076025 5.53832603,3.41478144 5.2587236,3.99993231 C5.08753843,4.35784013 4.95629648,4.73279117 4.81364218,5.10206114 C4.69951874,5.40883927 4.56827678,5.70993632 4.44844717,6.01103338 C3.90636082,7.34608634 3.36998065,8.68682039 2.8278943,10.0218734 C2.26868944,11.4137371 1.70377841,12.7999197 1.14457355,14.1917835 C0.996213077,14.5610534 0.847852604,14.9246423 0.699492131,15.2939123 C0.351415636,16.1574359 0.203055163,17.1289 0.0889317217,18.0492344 C-0.259144773,20.8329618 0.425595872,23.7984838 1.94914381,26.1561305 C2.57111656,27.1162324 3.3186251,27.9967993 4.19166942,28.7410203 L4.19166942,41.1655345 C4.1973756,42.0745067 4.40850396,42.9266682 4.77940514,43.7561053 C5.50979517,45.3865743 7.14746654,46.6648165 8.93349839,46.9204649 C9.3614613,46.9829568 9.76659951,47 10.1945624,47 L41.2760816,47 C43.9294516,46.9431892 46.2746883,44.9150449 46.7140635,42.3017498 C46.8681302,41.3927775 46.828187,40.4781242 46.828187,39.5577898 L46.828187,30.6328187 C46.828187,29.9965382 46.8453055,29.3545765 46.8395993,28.7126149 C49.0307694,26.8264975 50.4801371,24.0938997 50.8738629,21.2419994 C51.1648777,19.0888714 50.9594555,16.8959759 50.1834161,14.8735126 Z M44.1976416,41.4950369 C44.1862293,41.5575288 44.174817,41.6257017 44.1634046,41.6938746 C44.1405799,41.8245393 44.1063429,41.9552041 44.0721059,42.0801878 C44.0378688,42.2051715 43.9979256,42.3244741 43.9522762,42.4437767 C43.9636886,42.4267335 43.9751009,42.4040091 43.9865133,42.3812848 C43.9693948,42.4153713 43.9522762,42.4494578 43.9408639,42.4835442 L43.9237454,42.5176307 C43.9180392,42.5289928 43.912333,42.5460361 43.9066269,42.5573982 C43.7982096,42.7789602 43.6726738,42.98916 43.5300195,43.1879977 C43.5414319,43.1766355 43.5528442,43.1652734 43.5642565,43.1482302 C43.547138,43.1652734 43.5300195,43.1823166 43.5186072,43.2050409 L43.512901,43.210722 C43.4957825,43.2334463 43.4672516,43.2675328 43.4501331,43.284576 L43.4444269,43.2902571 C43.3645405,43.3868354 43.2732418,43.4777326 43.181943,43.5629487 C43.1020566,43.6368027 43.0221702,43.7106567 42.9365776,43.7845107 L42.816748,43.8697269 C42.7140369,43.9378998 42.6056196,44.0003916 42.4972024,44.0628835 C42.3887851,44.1196942 41.9779407,44.2674022 42.417316,44.1196942 C42.1776567,44.2049104 41.9437037,44.2901265 41.6926321,44.3412562 C41.6526889,44.3469373 41.6184519,44.3582994 41.5785087,44.3639805 C41.4529729,44.3696616 41.3331433,44.3810238 41.2076075,44.3810238 L9.80654272,44.3810238 C9.68100693,44.3810238 9.56117732,44.3696616 9.43564153,44.3639805 C9.39569833,44.3582994 9.35575513,44.3469373 9.31581192,44.3412562 C9.19027614,44.3128508 9.06474035,44.2844455 8.94491074,44.2446779 C8.88214285,44.2276347 8.82508113,44.2049104 8.76231323,44.1821861 C8.75660706,44.176505 8.74519472,44.176505 8.73948854,44.176505 C8.52836018,44.0742456 8.32293799,43.9606241 8.12322196,43.8299593 C8.11751579,43.8242783 8.10610345,43.8185972 8.10039728,43.8129161 C8.08898493,43.807235 8.07757259,43.7958729 8.06616024,43.7845107 C8.03762938,43.7617864 8.00339235,43.7390621 7.97486149,43.7163378 C7.99768618,43.733381 8.02051087,43.7447432 8.03762938,43.7561053 C7.94062446,43.6765703 7.85503188,43.5913541 7.76373312,43.506138 C7.68384672,43.4266029 7.60396031,43.3413868 7.52978007,43.2504895 C7.53548624,43.2618517 7.54689859,43.2732138 7.55260476,43.284576 C7.54119241,43.2675328 7.53548624,43.2561706 7.5240739,43.2391274 L7.50695538,43.2220842 C7.48413069,43.1993599 7.46701218,43.1652734 7.44989366,43.1425491 C7.44989366,43.136868 7.44418749,43.136868 7.44418749,43.1311869 C7.28441467,42.8982628 7.17029123,42.6482954 7.03904927,42.3983281 C7.25017764,42.7960034 7.04475545,42.4040091 7.00481224,42.2847065 C6.96486904,42.1597229 6.92492583,42.0290581 6.89639497,41.8983933 C6.88498263,41.8415826 6.87357029,41.7790907 6.86215794,41.72228 C6.85645177,41.6938746 6.84503943,41.6313827 6.83933325,41.5859341 L6.82221474,41.500718 C6.82792091,41.5291234 6.83362708,41.5518477 6.83933325,41.574572 L6.82221474,41.3018803 L6.82221474,30.0419868 C7.3814196,30.2408245 8.0547479,30.4510243 8.7280762,30.5873701 L8.7280762,30.5987323 C8.93349839,30.6328187 9.14462676,30.6669052 9.35575513,30.6896295 C9.4014045,30.6953106 9.44134771,30.7009917 9.48699708,30.7066727 C9.5041156,30.7066727 9.52123412,30.7123538 9.53835263,30.7123538 C9.57258966,30.7180349 9.60112052,30.7180349 9.63535756,30.723716 C10.0347896,30.7634835 10.4399278,30.7805267 10.8564784,30.7805267 C13.6068533,30.7691646 16.2259863,29.7352087 18.2117341,27.9229453 C20.1917758,29.7352087 22.7880841,30.7578024 25.5270467,30.7748456 L25.5384591,30.7748456 C28.2603031,30.7578024 30.8509052,29.7238465 32.8138284,27.9172642 C34.8109886,29.7465708 37.4301216,30.7691646 40.1919089,30.7691646 L40.197615,30.7691646 C40.9280051,30.7634835 41.6355704,30.7009917 42.2974864,30.5873701 L42.2974864,30.576008 C43.0335825,30.4510243 43.6669676,30.2635488 44.1862293,30.0703922 C44.1805231,31.7463097 44.209054,33.4222273 44.209054,35.0924637 L44.209054,39.3987197 C44.209054,40.1202164 44.2547034,40.8530753 44.1919355,41.574572 C44.1862293,41.5461666 44.1919355,41.5177612 44.1976416,41.4950369 Z M48.3688534,20.0944219 C48.3574411,20.2705353 48.3403226,20.4409676 48.323204,20.6170809 L48.323204,20.622762 C48.3060855,20.6568485 48.2946732,20.844324 48.288967,20.8784105 C48.2261991,21.2476804 48.1463127,21.6169504 48.0493078,21.9805393 C47.958009,22.3157228 47.8552979,22.6452252 47.7354683,22.9690466 C47.7069375,23.0485817 47.6727004,23.1337978 47.6441696,23.2133329 C47.6327572,23.2417383 47.6213449,23.2644626 47.6099325,23.292868 C47.558577,23.4235327 47.5642832,23.4008084 47.6441696,23.219014 C47.6498757,23.2701436 47.558577,23.4064895 47.5357523,23.4576192 C47.4901029,23.5598785 47.4387474,23.667819 47.3873918,23.7700784 C47.2390313,24.0654944 47.0792585,24.3552292 46.9023672,24.633602 C46.8167746,24.7699478 46.7254759,24.9062937 46.6341771,25.0426395 C46.5371722,25.1789853 46.3716932,25.3380555 46.3089253,25.4914445 L46.1548587,25.6789201 C46.0521476,25.8039037 45.9437303,25.9232064 45.835313,26.042509 C45.5956538,26.2981574 45.3445822,26.5424437 45.0878045,26.7696867 C44.9679749,26.8776272 44.8424391,26.9798866 44.7169033,27.0821459 C44.6313107,27.1503189 44.5514243,27.2298539 44.4886564,27.3150701 L44.4315947,27.2412161 C44.3231774,27.3150701 43.2846541,28.0024803 41.5043284,28.2297234 L41.5043284,28.2410855 C41.0820717,28.2922152 40.6426965,28.3206206 40.1919089,28.3263017 C37.6926055,28.3206206 35.3416626,27.2412161 33.7553468,25.3607798 L32.8138284,24.2472888 L31.87231,25.3494176 C30.2974065,27.2128107 27.9864069,28.2922152 25.5270467,28.3149395 C23.050568,28.2978963 20.7224498,27.2184918 19.1418402,25.3550987 L18.2003218,24.2472888 L17.2645096,25.3550987 C15.6667814,27.2412161 13.3272509,28.3263017 10.845066,28.3319828 C10.3543352,28.3319828 9.88642913,28.2978963 9.42993536,28.2354045 C8.34576267,28.05361 7.02763693,27.5252699 6.51408145,27.2923458 C6.47413824,27.2468972 6.42848887,27.2014486 6.37713332,27.1559999 C6.13747409,26.9514812 5.88640252,26.7526435 5.65815564,26.5367626 C5.44702727,26.3379249 5.24160508,26.1277251 5.04759523,25.9118442 C4.95059031,25.8039037 4.85358538,25.6959633 4.76228663,25.5823418 C4.72234342,25.5312121 4.68240022,25.4857635 4.64245702,25.4346338 C4.63104467,25.4232716 4.6253385,25.4062284 4.61392615,25.3948662 C4.26584966,24.929018 3.96342254,24.4347643 3.69523246,23.9177864 C3.62675839,23.7871216 3.5639905,23.6564568 3.50122261,23.5257921 C3.47269175,23.4633002 3.44416089,23.4008084 3.41563003,23.3326355 C3.30150658,23.0485817 3.19879549,22.7645278 3.10749673,22.4747929 C2.91919306,21.8782799 2.81648196,21.2817669 2.70235852,20.6682106 C2.7879511,21.1226967 2.69665235,20.6057188 2.69094618,20.4920973 C2.67953383,20.3443893 2.66812149,20.1910002 2.65670914,20.0432922 C2.63959063,19.6910655 2.63388445,19.3388387 2.65100297,18.9809309 C2.65670914,18.7991365 2.66812149,18.617342 2.68524,18.4412287 C2.69094618,18.3503314 2.70235852,18.2594342 2.71377086,18.168537 C2.71947704,18.1401316 2.71947704,18.1060451 2.72518321,18.0776398 C2.74230172,17.9299318 2.74230172,17.9583372 2.71377086,18.1571748 C2.69665235,18.094683 2.7480079,17.9526561 2.75371407,17.8901642 C2.77083258,17.799267 2.7879511,17.7140509 2.80506962,17.6231537 C2.84501282,17.4129538 2.8906622,17.2084351 2.94201775,17.0039163 C3.05043501,16.5778356 3.17026463,16.1744792 3.33003744,15.7711227 C3.76941269,14.6860371 4.20308177,13.6009515 4.64245702,12.5158659 C5.54973837,10.2718407 6.49696293,8.03349659 7.36430108,5.77242816 L7.41565663,5.6190391 C7.45559983,5.50541757 7.66102203,5.08501791 7.45559983,5.49405542 C7.5240739,5.35770958 7.58113562,5.21568267 7.65531586,5.07933684 C7.77514547,4.85209378 7.9120936,4.6305318 8.06045407,4.42033197 C8.0946911,4.36920228 8.14034048,4.31807259 8.17457751,4.2669429 C8.157459,4.28966721 8.14604665,4.30671044 8.13463431,4.32943474 C8.21452072,4.23285645 8.29440713,4.14195922 8.37999971,4.051062 C8.5454787,3.88062971 8.71666386,3.72724064 8.89926136,3.57385158 C8.93920457,3.54544619 8.98485394,3.51135974 9.02479715,3.48295435 C9.14462676,3.39773821 9.27016255,3.32388421 9.4014045,3.25003022 C9.50982177,3.18753838 9.62394521,3.12504654 9.73806865,3.07391685 C9.78371803,3.05119254 9.82936741,3.02846824 9.88072295,3.00574393 C10.1317945,2.90916563 10.3828661,2.82963056 10.64535,2.76145764 C10.776592,2.72737118 10.9078339,2.70464688 11.0390759,2.6762415 C11.0847253,2.67056042 11.1303746,2.65919827 11.176024,2.65351719 C11.4270956,2.63079288 11.672461,2.61374966 11.9235325,2.61374966 L39.1876226,2.61374966 C39.2789213,2.61374966 39.3645139,2.61374966 39.4558127,2.61943073 C39.598467,2.62511181 39.7354151,2.63079288 39.8723632,2.64783611 C39.8894817,2.64783611 39.9066003,2.65351719 39.9237188,2.65351719 C39.9522496,2.65351719 39.9807805,2.65919827 39.997899,2.65919827 C40.0264299,2.66487934 40.0492546,2.66487934 40.0777854,2.66487934 C40.0549607,2.66487934 40.0378422,2.66487934 40.0207237,2.65919827 C40.3003261,2.70464688 40.5799286,2.7728198 40.8538248,2.85235487 C40.9793606,2.8921224 41.1048964,2.93188994 41.2304322,2.98301963 C41.2932001,3.00574393 41.3502618,3.03414931 41.4130297,3.05687362 C41.3844988,3.04551147 41.3616741,3.03983039 41.3445556,3.02846824 C41.6013334,3.14777084 41.8466988,3.28411668 42.0806518,3.43182467 C42.1776567,3.49431651 42.2746617,3.56248942 42.3659604,3.63066234 C42.4059036,3.6647488 42.4458468,3.69883526 42.48579,3.72724064 C42.6969184,3.90903509 42.8966344,4.10787276 43.0792319,4.31807259 C43.1191751,4.3635212 43.1534122,4.40896982 43.1933554,4.44873735 C43.2561233,4.53963457 43.3245973,4.6305318 43.381659,4.72142902 C43.5243133,4.942991 43.6555553,5.17023406 43.7696787,5.40883927 C43.7753849,5.4258825 43.7810911,5.43724465 43.7925034,5.45428788 C43.8039158,5.47701219 43.8153281,5.50541757 43.8267405,5.52814188 C43.8381528,5.55086618 43.843859,5.57359049 43.8552713,5.59063372 C43.8495651,5.57359049 43.8381528,5.56222834 43.8324466,5.54518511 C43.8723898,5.64176341 43.9009207,5.74402278 43.9408639,5.84060108 L43.9579824,5.89173077 C44.2832342,6.77229762 44.6313107,7.64150232 44.9622687,8.51638809 C45.8923747,10.9478888 46.828187,13.3793895 47.758293,15.8165713 L47.8438856,16.0381333 C47.9523029,16.3449114 48.0264831,16.680095 48.1063695,16.9982352 C48.1520189,17.1686675 48.1862559,17.3447809 48.2261991,17.5208943 C48.2433176,17.6061104 48.2604361,17.6970076 48.2775547,17.7822238 C48.288967,17.8617589 48.3631472,18.0605965 48.3346164,18.1344505 C48.3289102,18.0776398 48.3174979,18.020829 48.3117917,17.9640182 C48.3174979,18.020829 48.3289102,18.0833208 48.3346164,18.1401316 C48.3460287,18.2310288 48.3517349,18.316245 48.3631472,18.4071422 C48.3802658,18.5832556 48.3916781,18.7593689 48.3973843,18.9411634 C48.3973843,19.3388387 48.3916781,19.7194709 48.3688534,20.0944219 Z" id="Shape"></path>
                <path d="M30.3736028,13.8736028 L27.1263972,13.8736028 L27.1263972,10.6263972 C27.1263972,9.72656922 26.399828,9 25.5,9 C24.600172,9 23.8736028,9.72656922 23.8736028,10.6263972 L23.8736028,13.8736028 L20.6263972,13.8736028 C19.7265692,13.8736028 19,14.600172 19,15.5 C19,16.399828 19.7265692,17.1263972 20.6263972,17.1263972 L23.8736028,17.1263972 L23.8736028,20.3736028 C23.8736028,21.2734308 24.600172,22 25.5,22 C26.399828,22 27.1263972,21.2734308 27.1263972,20.3736028 L27.1263972,17.1208083 L30.3736028,17.1208083 C31.2734308,17.1208083 32,16.394239 32,15.494411 C32,14.600172 31.2678418,13.8736028 30.3736028,13.8736028 Z" id="Shape"></path>
            </g>
        </g>
    </g>
</svg>