<?xml version="1.0" encoding="UTF-8"?>
<svg width="100px" height="100px" viewBox="0 0 100 100" version="1.1" xmlns="http://www.w3.org/2000/svg" xmlns:xlink="http://www.w3.org/1999/xlink">
    <!-- Generator: Sketch 51.3 (57544) - http://www.bohemiancoding.com/sketch -->
    <title>优质药店</title>
    <desc>Created with Sketch.</desc>
    <defs></defs>
    <g id="优质药店" stroke="none" stroke-width="1" fill="none" fill-rule="evenodd">
        <g id="Group-20">
            <g id="Group-16" fill="#3DB7FF">
                <circle id="Oval-2" cx="50" cy="50" r="50"></circle>
            </g>
            <path d="M80.3140148,40.7141231 C80.3140148,40.7141231 80.3140148,40.5843493 80.3140148,40.7141231 C80.3140148,40.5843493 80.1833509,40.3572452 80.1833509,40.2274714 L74.9894626,27.3149787 C74.0094837,24.6221724 71.3962065,23 68.4236038,23 L31.6417281,23 C28.5384615,23 26.1865121,24.7195028 25.337197,27.1852049 L19.7513172,40.3248017 C19.7513172,40.4545755 19.6206533,40.4545755 19.6206533,40.5843493 C19.2613277,41.8172004 19,43.0500514 19,44.3802328 C19,48.9223157 21.4826133,52.9777468 25.5658588,55.0865709 C27.2971549,55.9625441 29.1591149,56.4491958 31.3804004,56.4491958 C34.9736565,56.4491958 38.4362487,54.8594668 40.7881981,52.1342171 C43.1401475,54.8270234 46.4720759,56.4491958 50.0653319,56.4491958 C53.658588,56.4491958 56.9905163,54.729693 59.3424658,52.1342171 C61.6944152,54.9567972 65.0263435,56.4491958 68.7502634,56.4491958 C70.971549,56.4491958 72.9641728,55.9625441 74.5648051,55.0865709 C78.5173867,53.0101902 81,48.8249853 81,44.3802328 C80.8040042,43.1798252 80.7060063,41.9469741 80.3140148,40.7141231 Z M72.4088514,51.1609136 C71.4288725,51.6475654 70.1875659,52.0368868 68.6849315,52.0368868 C65.9736565,52.0368868 63.4910432,50.6742619 62.1190727,48.3383336 C61.9884089,48.2085598 61.857745,47.8516818 61.6290832,47.3650301 C61.2697576,47.0081522 60.6491043,46.3917266 59.5384615,46.3917266 C58.5584826,46.3917266 57.9378293,46.7486046 57.4478398,47.3650301 C57.1865121,47.721908 56.9578504,47.9814556 56.9578504,48.3383336 C55.5858799,50.6742619 53.0052687,52.0368868 50.3919916,52.0368868 C47.6807165,52.0368868 45.3287671,50.6742619 43.8261328,48.3383336 C43.6954689,48.2085598 43.5648051,47.8516818 43.3361433,47.4623605 C42.3561644,46.2295094 39.8735511,46.2295094 39.1222339,47.3325867 C38.7629083,47.6894646 38.6322445,48.078786 38.5015806,48.3058901 C36.9989463,50.6418184 34.6469968,52.0044433 31.9357218,52.0044433 C30.4330875,52.0044433 29.2244468,51.7448957 28.3424658,51.1284702 C25.8598525,49.7658453 24.1285564,47.2028129 24.1285564,44.3477894 C24.1285564,43.4718162 24.3898841,42.6282866 24.6185458,41.8820873 C24.6185458,41.7523135 24.6185458,41.7523135 24.7492097,41.7523135 L30.3350896,28.710047 C30.4657534,28.3531691 30.825079,27.3474222 32.4257113,27.3474222 L69.109589,27.3474222 C69.8609062,27.3474222 71.1022129,27.4771959 71.4615385,28.710047 L76.6554268,41.4927659 C76.6554268,41.6225397 76.6554268,41.7523135 76.7860906,41.7523135 C77.0474183,42.6282866 77.2760801,43.3420425 77.2760801,44.2180156 C76.4920969,47.2352563 74.8587987,49.9280626 72.4088514,51.1609136 Z M74.0094837,58.2984724 C72.768177,58.2984724 71.7881981,59.2717759 71.7881981,60.5046269 L71.7881981,72.5735899 C71.7881981,73.1900154 71.2982086,73.806441 70.5468915,73.806441 L28.6691254,73.806441 C28.0484721,73.806441 27.4278188,73.3197892 27.4278188,72.5735899 L27.4278188,60.6344007 C27.4278188,59.4015496 26.4478398,58.4282462 25.2065332,58.4282462 C23.9652266,58.4282462 22.9852476,59.4015496 22.9852476,60.6344007 L22.9852476,72.5735899 C22.9852476,75.7854913 25.5985248,78.21875 28.6691254,78.21875 L70.6775553,78.21875 C73.9114858,78.21875 76.3614331,75.6232741 76.3614331,72.5735899 L76.3614331,60.5046269 C76.2307692,59.4015496 75.2507903,58.2984724 74.0094837,58.2984724 Z M67.312961,42.7905038 L31.772392,42.7905038 C30.5310854,42.7905038 29.5511064,41.8172004 29.5511064,40.5843493 C29.5511064,39.3514982 30.5310854,38.3781948 31.772392,38.3781948 L67.4436249,38.3781948 C68.6849315,38.3781948 69.6649104,39.3514982 69.6649104,40.5843493 C69.5342466,41.9469741 68.6849315,42.7905038 67.312961,42.7905038 Z" id="Shape" fill="#FFFFFF" fill-rule="nonzero"></path>
        </g>
    </g>
</svg>