<?xml version="1.0" encoding="UTF-8"?>
<svg width="80px" height="80px" viewBox="0 0 80 80" version="1.1" xmlns="http://www.w3.org/2000/svg" xmlns:xlink="http://www.w3.org/1999/xlink">
    <!-- Generator: Sketch 51.3 (57544) - http://www.bohemiancoding.com/sketch -->
    <title>诊疗报告</title>
    <desc>Created with Sketch.</desc>
    <defs></defs>
    <g id="诊疗报告" stroke="none" stroke-width="1" fill="none" fill-rule="evenodd">
        <g id="binglifenbu" transform="translate(15.000000, 10.000000)" fill="#83D1F5" fill-rule="nonzero">
            <path d="M43.5249824,5.24430661 L40.3261847,5.24430661 L40.3261847,3.62992903 C40.3656546,2.34653937 39.703511,1.14338016 38.5981751,0.490020068 C37.4928392,-0.163340023 36.1195125,-0.163340023 35.0141766,0.490020068 C33.9088407,1.14338016 33.2466971,2.34653937 33.286167,3.62992903 L33.286167,5.24430661 L16.6430991,5.24430661 L16.6430991,3.62992903 C16.6456275,2.68959202 16.2744438,1.78677725 15.6112289,1.12015434 C14.9531729,0.455943174 14.0564182,0.0830946535 13.1214259,0.0849555418 C12.1841919,0.0875989164 11.2864446,0.462679306 10.6259061,1.12758801 C9.96536772,1.79249672 9.59621556,2.69269796 9.59975271,3.62992903 L9.59975271,5.24430661 L6.40428369,5.24430661 C4.70077616,5.24871389 3.0688407,5.92988777 1.86771341,7.13788221 C0.66658612,8.34587666 -0.00527316628,9.98166891 3.11712225e-05,11.6851739 L3.11712225e-05,53.5591327 C-0.00917431469,57.1058425 2.85757903,59.9889858 6.40428369,60 L43.5382968,60 C45.2405898,59.9956014 46.8711655,59.3140019 48.0701797,58.1056204 C49.2691939,56.8972389 49.9380837,55.2614084 49.9292349,53.5591327 L49.9292349,11.6851739 C49.9384404,8.13846408 47.071687,5.25532076 43.5249824,5.24430661 Z M18.5004654,21.477955 L22.3017421,21.477955 L22.3017421,17.653378 C22.3017421,16.182704 23.493959,14.9904872 24.964633,14.9904872 C26.435307,14.9904872 27.6275239,16.182704 27.6275239,17.653378 L27.6275239,21.477955 L31.4288006,21.477955 C32.9077472,21.477955 34.1066702,22.6768781 34.1066702,24.1558247 C34.1066702,25.6347712 32.9077472,26.8336943 31.4288006,26.8336943 L27.6275239,26.8336943 L27.6275239,30.6582713 C27.6286866,31.3703907 27.3473806,32.0539044 26.8452997,32.5589096 C26.3462987,33.0573559 25.6699348,33.3374783 24.964633,33.3378052 C24.2581549,33.3434519 23.5795756,33.062412 23.0839663,32.5589096 C22.5846416,32.052346 22.3048309,31.3695602 22.3050708,30.6582713 L22.3050708,26.8336943 L18.5004654,26.8336943 C17.7939873,26.839341 17.1154081,26.5583011 16.6197988,26.0547987 C15.8567686,25.2893381 15.6275663,24.1407635 16.038352,23.1410636 C16.4491378,22.1413637 17.4196862,21.4857776 18.5004654,21.477955 Z M41.4079841,52.8168519 L8.52128191,52.8168519 C7.88512928,52.4313799 7.49656029,51.7415917 7.49656029,50.9977646 C7.49656029,50.2539374 7.88512928,49.5641492 8.52128191,49.1786772 L41.4079841,49.1786772 C42.0441368,49.5641492 42.4327057,50.2539374 42.4327057,50.9977646 C42.4327057,51.7415917 42.0441368,52.4313799 41.4079841,52.8168519 Z M41.4079841,42.9408554 L8.52128191,42.9408554 C7.88501498,42.556249 7.49621015,41.8669091 7.49621015,41.1234324 C7.49621015,40.3799556 7.88501498,39.6906158 8.52128191,39.3060094 L41.4079841,39.3060094 C42.0442511,39.6906158 42.4330559,40.3799556 42.4330559,41.1234324 C42.4330559,41.8669091 42.0442511,42.556249 41.4079841,42.9408554 Z" id="Shape"></path>
        </g>
    </g>
</svg>