<?xml version="1.0" encoding="UTF-8"?>
<svg width="80px" height="80px" viewBox="0 0 80 80" version="1.1" xmlns="http://www.w3.org/2000/svg" xmlns:xlink="http://www.w3.org/1999/xlink">
    <!-- Generator: Sketch 51.3 (57544) - http://www.bohemiancoding.com/sketch -->
    <title>医药查询</title>
    <desc>Created with Sketch.</desc>
    <defs></defs>
    <g id="医药查询" stroke="none" stroke-width="1" fill="none" fill-rule="evenodd">
        <g id="yiyuan-11" transform="translate(9.000000, 10.000000)" fill="#20BAEE" fill-rule="nonzero">
            <path d="M36.91875,0 L3.91875,0 C1.85625,0 0,1.61073826 0,3.82550336 L0,56.1744966 C0,58.3892617 1.65,60 3.91875,60 L36.91875,60 C38.98125,60 40.8375,58.1879195 40.8375,56.1744966 L40.8375,3.82550336 C40.8375,1.61073826 38.98125,0 36.91875,0 Z M18.15,51.3422819 C18.15,51.9463087 17.53125,52.5503356 16.9125,52.5503356 L9.075,52.5503356 C8.45625,52.5503356 7.8375,51.9463087 7.8375,51.3422819 L7.8375,43.4899329 C7.8375,42.885906 8.45625,42.2818792 9.075,42.2818792 L16.9125,42.2818792 C17.53125,42.2818792 18.15,42.885906 18.15,43.4899329 L18.15,51.3422819 Z M18.15,37.2483221 C18.15,37.852349 17.53125,38.4563758 16.9125,38.4563758 L9.075,38.4563758 C8.45625,38.4563758 7.8375,37.852349 7.8375,37.2483221 L7.8375,29.3959732 C7.8375,28.7919463 8.45625,28.1879195 9.075,28.1879195 L16.9125,28.1879195 C17.53125,28.1879195 18.15,28.7919463 18.15,29.3959732 L18.15,37.2483221 Z M20.2125,21.5436242 C19.18125,21.5436242 18.15,20.738255 18.15,19.7315436 L18.15,15.9060403 L14.23125,15.9060403 C13.2,15.9060403 12.375,15.1006711 12.375,13.8926174 C12.375,12.885906 13.2,11.8791946 14.23125,11.8791946 L18.15,11.8791946 L18.15,8.25503356 C18.15,7.24832215 18.975,6.44295302 20.2125,6.44295302 C21.24375,6.44295302 22.275,7.24832215 22.275,8.25503356 L22.275,12.0805369 L26.19375,12.0805369 C27.225,12.0805369 28.05,12.885906 28.05,14.0939597 C28.05,15.1006711 27.225,16.1073826 26.19375,16.1073826 L22.275,16.1073826 L22.275,19.9328859 C22.275,20.738255 21.24375,21.5436242 20.2125,21.5436242 Z M32.38125,51.3422819 C32.38125,51.9463087 31.7625,52.5503356 31.14375,52.5503356 L23.30625,52.5503356 C22.6875,52.5503356 22.06875,51.9463087 22.06875,51.3422819 L22.06875,43.4899329 C22.06875,42.885906 22.6875,42.2818792 23.30625,42.2818792 L31.14375,42.2818792 C31.7625,42.2818792 32.38125,42.885906 32.38125,43.4899329 L32.38125,51.3422819 Z M32.38125,37.2483221 C32.38125,37.852349 31.7625,38.4563758 31.14375,38.4563758 L23.30625,38.4563758 C22.6875,38.4563758 22.06875,37.852349 22.06875,37.2483221 L22.06875,29.3959732 C22.06875,28.7919463 22.6875,28.1879195 23.30625,28.1879195 L31.14375,28.1879195 C31.7625,28.1879195 32.38125,28.7919463 32.38125,29.3959732 L32.38125,37.2483221 Z M57.75,30 L42.69375,30 L42.69375,60 L57.75,60 C60.01875,60 61.875,58.1879195 61.875,56.1744966 L61.875,33.8255034 C61.66875,31.8120805 59.8125,30 57.75,30 Z" id="Shape"></path>
        </g>
    </g>
</svg>