<?xml version="1.0" encoding="UTF-8"?>
<svg width="750px" height="210px" viewBox="0 0 750 210" version="1.1" xmlns="http://www.w3.org/2000/svg" xmlns:xlink="http://www.w3.org/1999/xlink">
    <!-- Generator: Sketch 51.3 (57544) - http://www.bohemiancoding.com/sketch -->
    <title>Group 14</title>
    <desc>Created with Sketch.</desc>
    <defs>
        <rect id="path-1" x="0" y="0" width="750" height="210"></rect>
        <rect id="path-3" x="0" y="0" width="328" height="210"></rect>
        <linearGradient x1="50%" y1="0%" x2="50%" y2="95.9063403%" id="linearGradient-5">
            <stop stop-color="#DADBF9" offset="0%"></stop>
            <stop stop-color="#B3B7F4" offset="48.609104%"></stop>
            <stop stop-color="#DFE1F8" offset="100%"></stop>
        </linearGradient>
        <linearGradient x1="53.8693024%" y1="6.89556043%" x2="51.430278%" y2="85.6595524%" id="linearGradient-6">
            <stop stop-color="#2BD1FF" offset="0%"></stop>
            <stop stop-color="#0296F1" offset="100%"></stop>
        </linearGradient>
        <linearGradient x1="78.9839453%" y1="26.177403%" x2="0%" y2="92.1254377%" id="linearGradient-7">
            <stop stop-color="#FEE8DD" offset="0%"></stop>
            <stop stop-color="#FF947A" offset="100%"></stop>
        </linearGradient>
        <linearGradient x1="50%" y1="0%" x2="50%" y2="96.00569%" id="linearGradient-8">
            <stop stop-color="#DCDEF5" offset="0%"></stop>
            <stop stop-color="#CED0F6" offset="100%"></stop>
        </linearGradient>
    </defs>
    <g id="Page-1" stroke="none" stroke-width="1" fill="none" fill-rule="evenodd">
        <g id="01首页" transform="translate(0.000000, -773.000000)">
            <g id="健康行" transform="translate(0.000000, 773.000000)">
                <g id="Group-14">
                    <mask id="mask-2" fill="white">
                        <use xlink:href="#path-1"></use>
                    </mask>
                    <use id="Mask" fill="#FFFFFF" xlink:href="#path-1"></use>
                    <g mask="url(#mask-2)" id="Rectangle-18">
                        <g transform="translate(422.000000, 0.000000)">
                            <g>
                                <mask id="mask-4" fill="white">
                                    <use xlink:href="#path-3"></use>
                                </mask>
                                <use id="Mask" fill="#FFFFFF" xlink:href="#path-3"></use>
                                <rect fill="#F0F6FF" mask="url(#mask-4)" x="13" y="163" width="184" height="47"></rect>
                                <rect id="Rectangle-17" fill="#E9F8FD" mask="url(#mask-4)" x="135" y="136" width="170" height="83"></rect>
                                <g id="Group-11" mask="url(#mask-4)">
                                    <g transform="translate(56.000000, 29.000000)">
                                        <rect id="Rectangle-8" fill="#F0F6FF" x="0" y="10" width="58" height="150"></rect>
                                        <rect id="Rectangle-11" fill="#F0F6FF" x="6" y="0" width="17" height="14"></rect>
                                        <rect id="Rectangle-11-Copy" fill="#F0F6FF" x="38" y="0" width="17" height="14"></rect>
                                        <g id="Group-9" stroke-width="1" fill="none" transform="translate(11.000000, 39.000000)">
                                            <g id="Group-8" fill="#FFFFFF">
                                                <rect id="Rectangle-10" x="0" y="0" width="7" height="6"></rect>
                                                <rect id="Rectangle-10-Copy" x="29" y="0" width="7" height="6"></rect>
                                            </g>
                                            <g id="Group-8-Copy" transform="translate(0.000000, 18.000000)" fill="#FFFFFF">
                                                <rect id="Rectangle-10" x="0" y="0" width="7" height="6"></rect>
                                                <rect id="Rectangle-10-Copy" x="29" y="0" width="7" height="6"></rect>
                                            </g>
                                            <g id="Group-8-Copy-2" transform="translate(0.000000, 36.000000)" fill="#FFFFFF">
                                                <rect id="Rectangle-10" x="0" y="0" width="7" height="6"></rect>
                                                <rect id="Rectangle-10-Copy" x="29" y="0" width="7" height="6"></rect>
                                            </g>
                                            <g id="Group-8-Copy-3" transform="translate(0.000000, 54.000000)" fill="#FFFFFF">
                                                <rect id="Rectangle-10" x="0" y="0" width="7" height="6"></rect>
                                                <rect id="Rectangle-10-Copy" x="29" y="0" width="7" height="6"></rect>
                                            </g>
                                        </g>
                                    </g>
                                </g>
                                <rect id="Rectangle-12" fill="#E9F8FD" opacity="0.975892857" mask="url(#mask-4)" x="135" y="39" width="69" height="124"></rect>
                                <rect id="Rectangle-14" fill="#E9F8FD" mask="url(#mask-4)" x="153" y="15" width="4" height="19"></rect>
                                <rect id="Rectangle-14-Copy" fill="#E9F8FD" mask="url(#mask-4)" x="185" y="15" width="4" height="19"></rect>
                                <rect id="Rectangle-14-Copy-2" fill="#E9F8FD" mask="url(#mask-4)" transform="translate(171.000000, 12.500000) scale(1, -1) translate(-171.000000, -12.500000) " x="149" y="10" width="44" height="5"></rect>
                                <rect id="Rectangle-14-Copy-3" fill="#E9F8FD" mask="url(#mask-4)" transform="translate(176.500000, 33.000000) scale(1, -1) translate(-176.500000, -33.000000) " x="149" y="27" width="55" height="12"></rect>
                                <rect id="Rectangle-15" fill="#E3F4FB" mask="url(#mask-4)" x="135" y="27" width="69" height="4"></rect>
                                <polygon id="Rectangle-16" fill="#E5F2F8" mask="url(#mask-4)" points="241 54 305 78.0214844 305 189 241 189"></polygon>
                                <g id="Group-12" mask="url(#mask-4)" fill="#FFFFFF">
                                    <g transform="translate(153.000000, 51.000000)">
                                        <rect id="Rectangle-13" x="0" y="0" width="7" height="7"></rect>
                                        <rect id="Rectangle-13-Copy" x="29" y="0" width="7" height="7"></rect>
                                    </g>
                                </g>
                                <g id="Group-12-Copy" mask="url(#mask-4)" fill="#FFFFFF">
                                    <g transform="translate(153.000000, 69.000000)">
                                        <rect id="Rectangle-13" x="0" y="0" width="7" height="7"></rect>
                                        <rect id="Rectangle-13-Copy" x="29" y="0" width="7" height="7"></rect>
                                    </g>
                                </g>
                                <g id="Group-12-Copy-2" mask="url(#mask-4)" fill="#FFFFFF">
                                    <g transform="translate(153.000000, 87.000000)">
                                        <rect id="Rectangle-13" x="0" y="0" width="7" height="7"></rect>
                                        <rect id="Rectangle-13-Copy" x="29" y="0" width="7" height="7"></rect>
                                    </g>
                                </g>
                                <g id="Group-12-Copy-3" mask="url(#mask-4)" fill="#FFFFFF">
                                    <g transform="translate(153.000000, 105.000000)">
                                        <rect id="Rectangle-13" x="0" y="0" width="7" height="7"></rect>
                                        <rect id="Rectangle-13-Copy" x="29" y="0" width="7" height="7"></rect>
                                    </g>
                                </g>
                                <g id="Group-22-Copy" mask="url(#mask-4)">
                                    <g transform="translate(24.000000, 33.000000)">
                                        <path d="M120.133244,7.43490846 C118.711081,10.1876529 118,12.7519911 118,15.1279232 C118,18.6918213 119.216426,22.5744103 120.388194,23.1033695 C121.559962,23.6323287 124.302919,23.5199959 124.978119,23.1033695 C125.653319,22.686743 126.154386,24.7305944 126.444329,25.6139705 C126.637624,26.2028879 126.756711,26.6648977 126.801591,27 C129.085473,25.7350718 130.473142,25.1026077 130.964601,25.1026077 C131.456059,25.1026077 132.302114,24.9767074 133.502765,24.7249067 L133.502765,20.2811873 L134,11.6354772 L126,6 L120.133244,7.43490846 Z" id="Path-10" stroke="none" fill="#FFBA9B" fill-rule="evenodd"></path>
                                        <path d="M127.33242,20.1001645 L125,22.0906598 C126.581895,22.2479742 127.525529,22.5836837 127.830902,23.0977883 C128.136276,23.611893 128.484619,24.2459636 128.875931,25 L133,23.7983915 L133,19 L127.33242,20.1001645 Z" id="Path-11" stroke="none" fill="#FEA98D" fill-rule="evenodd"></path>
                                        <path d="M161,161.664325 L161,166.47405 L161,169.966835 L162.790713,171 L165.782019,167.183834 C165.782019,165.811792 165.782019,164.761178 165.782019,164.031994 C165.782019,163.302809 166.188013,162.292145 167,161 L161,161.664325 Z" id="Path-21" stroke="none" fill="#F9C6B3" fill-rule="evenodd"></path>
                                        <path d="M137.396114,91.1215354 C137.859491,102.067026 138.438828,108.478965 139.134127,110.35735 C140.177076,113.174929 146.122798,120.5072 147.679826,122.593053 C149.236855,124.678906 155.695952,131.74573 157.377276,138.75667 C158.498158,143.43063 159.560824,150.979216 160.565276,161.402429 L171.509897,163 C173.551193,157.470556 174.337454,151.523615 173.868679,145.159178 C173.165516,135.612522 172.155666,129.271486 169.128932,124.053709 C166.102198,118.835932 160.682528,115.25694 159.429018,113.605232 C158.593345,112.504094 157.349691,110.63898 155.698057,108.009892 C153.371322,101.974469 152.207955,97.4964509 152.207955,94.5758371 C152.207955,90.1949164 153.932596,83.1179639 154.815326,81.7117941 C155.698057,80.3056244 157.377276,74.1322389 157.377276,72.7973207 C157.377276,71.9073753 155.818956,70.974935 152.702317,70 L136,80.4386971 L137.396114,91.1215354 Z" id="Path-20" stroke="none" fill="#DCDEF5" fill-rule="evenodd"></path>
                                        <path d="M154.432948,80.596358 L143.44928,90.7937224 C143.846679,97.1531064 144.338836,101.312614 144.925753,103.272246 C145.806127,106.211694 146.736294,115.297259 148.941114,117.113744 C151.145934,118.930229 156.028428,126.428855 157.672641,128.265225 C159.316854,130.101595 164.070804,146.165645 164.636532,147.539782 C165.013684,148.455874 165.468173,152.275947 166,159 L161.537035,159 C160.794974,147.787353 159.182425,139.753235 156.699391,134.897646 C152.974839,127.614263 146.989494,120.800787 146.47709,119.798179 C145.964686,118.795571 142.814337,115.015384 142.814337,113.286113 C142.814337,112.133265 141.209558,107.255001 138,98.65132 L138,89.9491457 C141.582943,85.7724277 143.891528,83.4202184 144.925753,82.8925179 C145.959978,82.3648174 149.129043,81.0673115 154.432948,79 L154.432948,80.596358 Z" id="Path-24" stroke="none" fill="url(#linearGradient-5)" fill-rule="evenodd"></path>
                                        <path d="M150.455527,55.6740473 L150.455527,58.1278035 C154.9125,60.5395193 157.140986,63.4732365 157.140986,66.9289548 C157.140986,72.1125324 156.68554,76.8017853 154.397142,78.2977217 C152.108744,79.7936582 144.100922,84.2012406 140.868477,86.3638673 C137.636032,88.526494 131.337615,96.0201898 129.221624,97.5984554 C127.105632,99.1767209 122.533373,106.044366 122.533373,107.316787 C122.533373,108.589209 126.553513,102.691646 132.192667,100.145051 C137.831821,97.5984554 146.827316,94.371857 148.641421,94.371857 C149.850825,94.371857 153.637018,94.371857 160,94.371857 L158.465444,107.316787 C151.569421,107.805857 145.836502,109.689733 141.266687,112.968414 C134.411963,117.886437 133.832273,119.269215 128.636349,120.141903 C123.440426,121.014591 113.855469,123.470799 113.187482,112.487403 C112.519495,101.504006 113.524268,94.5904669 118.02882,87.7708183 C122.533373,80.9511697 130.646594,74.6353049 131.41963,72.0680397 C132.192667,69.5007744 132.192667,66.9268528 132.192667,65.545126 C132.192667,64.6239748 131.934988,63.5809065 131.41963,62.4159212 L149.600476,55 L150.455527,55.6740473 Z" id="Path-17" stroke="none" fill="#DCDEF5" fill-rule="evenodd"></path>
                                        <path d="M124.394707,11.1072 C124.212534,12.2534411 124.121448,12.9526438 124.121448,13.204808 C124.121448,13.5830543 123.84819,15.1517811 124.121448,15.1517811 C124.394707,15.1517811 125.826467,13.6738003 126.333846,13.6738003 C126.841224,13.6738003 128.598191,13.753597 128.598191,14.6640425 C128.598191,15.574488 128.52365,16.9237324 128.212498,17.4139595 C128.005063,17.7407776 127.583078,18.1394293 126.946543,18.6099146 L127.786065,20.2952674 C129.368332,21 130.562711,21.1761832 131.369203,20.8238168 C132.578941,20.2952674 133.939896,19.9508642 134.465065,19.5391066 C134.990234,19.127349 136.089672,16.6003982 136.356704,16.0536 C136.534725,15.6890679 136.749157,14.6251119 137,12.861732 L130.5,10 L124.394707,11.1072 Z" id="Path-12" stroke="none" fill="#7B88A8" fill-rule="evenodd"></path>
                                        <path d="M119.016338,4.76948605 C118.790167,2.64037075 120.950094,1.23101546 123.14242,0.579845872 C125.334746,-0.0713237159 128.869885,-0.146398092 130.418327,0.21672389 C131.966769,0.579845872 135.576236,1.7918858 136.174015,1.7918858 C136.572535,1.7918858 138.39474,1.89600993 141.640631,2.1042582 L141.330697,2.8259522 L137.046844,2.8259522 C140.348948,5.34429794 142,6.74218632 142,7.01961735 C142,7.43576389 141.681652,7.97020945 141.330697,7.70298667 C140.979743,7.43576389 138.941858,6.34482296 138.941858,6.68222016 C138.941858,7.01961735 139.371698,7.96058453 139.371698,7.96058453 C139.371698,7.96058453 141.629412,9.35217297 141.330697,10.6149625 C141.031983,11.877752 140.576724,12.4144725 140.132158,12.4144725 C139.687592,12.4144725 138.089189,10.6149625 137.568016,10.6149625 C137.046844,10.6149625 138.089189,12.593496 137.568016,12.9091934 C137.046844,13.2248908 136.313556,14.4635305 135.310303,14.8704021 C134.30705,15.2772737 131.669282,14.640979 130.508169,14.1362832 C129.347057,13.6315874 126.199861,11.7883277 124.208431,10.6149625 C122.217001,9.44159722 119.24251,6.89860136 119.016338,4.76948605 Z" id="Path-9" stroke="none" fill="#0D1E3C" fill-rule="evenodd"></path>
                                        <path d="M85,50.9973704 C86.2644629,49.406546 87.6135111,48.2400038 89.0471446,47.4977437 C90.4807781,46.7554836 91.932612,46.2059728 93.4026464,45.8492113 C94.4543043,50.0628283 96.5750038,51.7788813 99.764745,50.9973704 C104.549357,49.8251041 106.672506,47.063532 107.983987,44.9313741 C109.295468,42.7992161 111.073509,37.6016431 114.764346,35.5206514 C117.224903,34.1333235 120.056119,32.7061608 123.257994,31.2391633 L124.221567,27.6701468 C125.987475,26.1267504 127.793633,25.0867218 129.640043,24.5500609 C132.409658,23.7450697 135.525781,23.5207796 136.241197,24.5500609 C136.718142,25.2362485 136.878329,25.8001279 136.721759,26.2416991 C138.564202,26.3863195 140.20154,26.1405349 141.633774,25.5043453 C143.782124,24.5500609 149.794914,20.1581801 156.348467,18.8226025 C162.902021,17.4870249 172.646948,17.6265054 174.388239,20.3709052 C176.12953,23.1153051 177,24.2017104 177,28.310425 C177,31.049568 176.531339,33.6771501 175.594017,36.1931713 C174.012447,37.1517779 172.30919,37.6310812 170.484248,37.6310812 C168.659305,37.6310812 167.415609,37.1517779 166.753161,36.1931713 C167.072135,33.2241308 167.072135,31.5727948 166.753161,31.2391633 C166.274699,30.7387159 165.769638,30.3728427 164.994019,30.5557793 C164.218401,30.7387159 156.526622,33.6601256 155.242792,34.5903885 C154.386905,35.2105637 152.235521,37.0445392 148.788641,40.0923148 C151.75811,46.2278177 153.242845,49.2955691 153.242845,49.2955691 C153.242845,49.2955691 155.19449,51.5426758 153.242845,53.4883925 C151.291199,55.4341093 141.772027,58.570316 140.032486,59.4881532 C138.872792,60.1000447 135.861964,61.2545547 131,62.9516833 L123.257994,50.3669049 C119.186232,54.222125 116.053892,56.706138 113.860974,57.8189441 C110.571598,59.4881532 101.960346,63.4833209 96.4851684,62.9516833 C91.0099905,62.4200456 87.8501166,60.2290115 87.1266497,58.3081769 C86.6443384,57.0276205 85.9354552,54.590685 85,50.9973704 Z" id="Path-13" stroke="none" fill="url(#linearGradient-6)" fill-rule="evenodd"></path>
                                        <path d="" id="Path-14" stroke="#979797" stroke-width="1" fill="none"></path>
                                        <path d="M87.6828501,23.0550672 C86.7073499,21.3739642 86.3821832,20.3213965 86.7073499,19.8973641 C87.1951,19.2613155 88.1099554,21.5471671 88.7191679,21.4762157 C89.3283804,21.4052643 88.1099554,17.9930924 88.7191679,17.9930924 C89.1253096,17.9930924 89.7686167,18.9064291 90.6490895,20.7331024 L90.1006946,17.0048574 C90.5655805,16.9553165 90.9850836,17.2847282 91.3592038,17.9930924 C91.9203843,19.0556387 92.6895884,21.4362425 92.6895884,20.7331024 C92.6895884,20.0299623 91.9974429,17.9930924 92.6895884,17.9930924 C93.381734,17.9930924 93.4339127,19.0780025 93.759425,20.1724217 C94.0849373,21.2668409 93.5641867,22.5162221 94.0241197,23.0550672 C94.4840527,23.5939124 96,22.1987261 96,23.0550672 C96,23.9114084 94.0241197,25.0745039 94.0241197,25.6654727 C94.0241197,26.2564414 92.6895884,32.5563514 92.6895884,34.955445 C92.6895884,36.5548408 92.6895884,40.6676734 92.6895884,47.2939427 L86,51 C86.4464563,40.3203002 86.8385454,34.021212 87.1762673,32.1027354 C87.5139892,30.1842588 87.6828501,27.1683694 87.6828501,23.0550672 Z" id="Path-15" stroke="none" fill="url(#linearGradient-7)" fill-rule="evenodd"></path>
                                        <path d="M157,54.7639362 C162.417935,51.9908523 165.336363,50.1873649 165.755284,49.3534741 C166.174205,48.5195832 166.773516,44.4017585 167.553219,37 L176,37 C175.026118,39.6148791 173.999728,42.1542082 172.920829,44.6179875 C171.30248,48.3136564 171.138577,50.8647088 168.819288,52.3599574 C166.5,53.8552059 164.333067,55.0342817 164.333067,55.7490453 C164.333067,56.4638089 165.093122,59.58788 165.093122,59.58788 C165.093122,59.58788 164.839771,59.58788 164.333067,59.58788 C163.916904,58.6734658 163.539577,58.2162586 163.201085,58.2162586 C162.862593,58.2162586 162.862593,59.1441724 163.201085,61 C162.267648,60.0585867 161.800929,59.58788 161.800929,59.58788 C161.800929,59.58788 161.800929,59.1306729 161.800929,58.2162586 L160.910579,58.7516208 L160.910579,61 C159.924747,60.1369786 159.67829,59.2090648 160.171205,58.2162586 C160.664121,57.2234524 160.664121,56.7288256 160.171205,56.7323781 C159.377714,57.5210338 158.980969,58.1941147 158.980969,58.7516208 C158.980969,59.309127 158.980969,60.0585867 158.980969,61 C158.362814,60.6999319 158.053736,60.3895616 158.053736,60.068889 C158.053736,59.58788 157.790733,56.2364487 158.980969,55.7490453 C159.77446,55.4241097 159.997248,55.09574 159.649335,54.7639362 L157,54.7639362 Z" id="Path-16" stroke="none" fill="#FFB498" fill-rule="evenodd"></path>
                                        <polygon id="Path-18" stroke="none" fill="#F9C6B3" fill-rule="evenodd" points="159.367032 101 165.264979 101.46305 167 106.208918 163.72482 107 158 107"></polygon>
                                        <path d="M163,107.275776 L164.111227,106.205367 L165.941183,106.205367 L164.470591,101.352869 L167.921254,100 L169.633313,100 C174.015003,108.068271 176.205848,112.463404 176.205848,113.1854 C176.205848,113.907396 176.470565,115.178929 177,117 L175.500301,117 C172.876315,114.070999 171.242488,112.277079 170.598818,111.61824 C169.955148,110.959401 167.422209,109.511913 163,107.275776 Z" id="Path-19" stroke="none" fill="#042246" fill-rule="evenodd"></path>
                                        <path d="M160.43826,168.116664 L163.056565,170.364618 L166.149471,166 L171,169.85269 C168.403855,173.695513 166.787012,176.120959 166.149471,177.129027 C165.193158,178.641128 161.629207,182 160.43826,182 C159.247314,182 157.347132,182 156.060199,182 C155.202244,182 154.182177,181.391027 153,180.17308 C156.05617,179.144117 158.059923,177.85803 159.011258,176.314818 C159.962593,174.771606 160.43826,172.038888 160.43826,168.116664 Z" id="Path-22" stroke="none" fill="#102951" fill-rule="evenodd"></path>
                                        <path d="M121.786663,86.506657 C118.046209,94.905456 115.88562,100.91498 115.304894,104.535228 C114.433805,109.965599 114.426087,118.804818 119.598241,119.583665 C124.770395,120.362512 130.838195,119.079501 132.148161,118.322906 C132.832976,117.927379 135.981777,114.014822 144.89454,109.336959 C147.347769,108.049382 148.574769,108.037457 151.993403,107.621757 C154.272492,107.344623 156.608025,107.344623 159,107.621757 C152.911411,108.570398 149.055655,109.423421 147.43273,110.180825 C143.886704,111.835724 141.548448,113.793157 139.637838,115.102861 C135.954274,117.627907 134.54267,118.903519 133.914545,119.081935 C132.148161,119.583665 123.891589,121.994962 119.598241,120.538448 C115.304894,119.081935 113,115.311133 113,108.613048 C113,101.914964 115.708689,91.1529663 118.041649,88.0650464 C119.596955,86.0064332 120.845293,85.48697 121.786663,86.506657 Z" id="Path-23" stroke="none" fill="url(#linearGradient-8)" fill-rule="evenodd"></path>
                                    </g>
                                </g>
                            </g>
                        </g>
                    </g>
                </g>
            </g>
        </g>
    </g>
</svg>