<?xml version="1.0" encoding="UTF-8"?>
<svg width="60px" height="60px" viewBox="0 0 60 60" version="1.1" xmlns="http://www.w3.org/2000/svg" xmlns:xlink="http://www.w3.org/1999/xlink">
    <!-- Generator: Sketch 51.3 (57544) - http://www.bohemiancoding.com/sketch -->
    <title>权益单</title>
    <desc>Created with Sketch.</desc>
    <defs></defs>
    <g id="权益单" stroke="none" stroke-width="1" fill="none" fill-rule="evenodd">
        <g id="huiyuanquanyi" transform="translate(8.000000, 6.000000)" fill="#5FC3FF" fill-rule="nonzero">
            <path d="M4.67912305,33.747242 L0.103225806,41.0686775 C-0.125569032,41.5262673 0.103225806,42.0982544 0.67521295,42.0982545 L6.85267421,42.4414467 C7.08146904,42.4414467 7.19586651,42.5558441 7.31026393,42.6702416 L11.0853791,47.7037285 C11.4285714,48.0469208 12.0005586,48.0469208 12.2293534,47.7037285 L16.5764558,40.4966904 C16.8052506,40.1534981 16.6908532,39.8103058 16.347661,39.5815109 L5.59430245,33.5184472 C5.25111015,33.4040497 4.90791789,33.5184472 4.67912305,33.747242 Z M38.7695573,33.6328446 L43.3454545,40.9542801 C43.5742494,41.4118698 43.3454545,41.983857 42.7734674,41.983857 L36.5960061,42.3270493 C36.3672113,42.3270493 36.2528138,42.4414467 36.1384164,42.5558442 L32.3633012,47.5893311 C32.0201089,47.9325234 31.4481218,47.9325234 31.2193269,47.5893311 L26.8722246,40.382293 C26.6434297,40.0391007 26.7578271,39.6959084 27.1010194,39.4671135 L37.8543779,33.4040497 C38.1975702,33.1752549 38.5407625,33.2896523 38.7695573,33.6328446 Z M37.8543779,8.69420472 L23.3259042,0.457589724 C22.2963273,-0.114397419 20.9235581,-0.114397419 19.8939813,0.457589724 L5.47990503,8.5798073 C4.45032816,9.15179444 3.7639436,10.2957687 3.7639436,11.4397431 L3.7639436,27.7985756 C3.7639436,28.9425499 4.45032816,30.0865242 5.47990503,30.6585114 L20.0083787,38.8951264 C21.0379556,39.4671135 22.4107247,39.4671135 23.4403017,38.8951264 L37.8543779,30.8873062 C38.8839548,30.3153191 39.5703394,29.1713448 39.5703393,28.0273705 L39.5703393,11.6685379 C39.5703393,10.4101661 38.8839548,9.26619186 37.8543779,8.69420472 Z M30.990532,15.672448 L22.5251222,27.912973 C22.2963274,28.2561653 21.8387376,28.4849602 21.3811479,28.4849602 C20.9235581,28.4849602 20.4659684,28.2561653 20.2371736,27.912973 L12.114956,15.672448 C11.6573663,15.1004609 11.8861612,14.1852814 12.4581483,13.8420891 C13.0301355,13.4988968 13.9453149,13.6132943 14.2885072,14.1852814 L21.2667505,24.709845 L28.588186,14.0708839 C29.0457757,13.4988968 29.8465577,13.2701019 30.4185449,13.7276917 C31.3337243,14.2996788 31.4481218,15.1004609 30.990532,15.672448 Z" id="Shape"></path>
        </g>
    </g>
</svg>