<?xml version="1.0" encoding="UTF-8"?>
<svg width="60px" height="60px" viewBox="0 0 60 60" version="1.1" xmlns="http://www.w3.org/2000/svg" xmlns:xlink="http://www.w3.org/1999/xlink">
    <!-- Generator: Sketch 51.3 (57544) - http://www.bohemiancoding.com/sketch -->
    <title>参保信息 copy</title>
    <desc>Created with Sketch.</desc>
    <defs></defs>
    <g id="参保信息-copy" stroke="none" stroke-width="1" fill="none" fill-rule="evenodd">
        <g id="canbao-on" transform="translate(8.000000, 5.000000)" fill="#DFDFDF" fill-rule="nonzero">
            <path d="M43.8664596,7.80143826 L44.6428571,8.58158209 L44.6428571,26.0568038 C44.6428571,39.9433639 24.068323,49.149061 23.2142857,49.4611186 L22.2049689,49.8511905 L21.1956522,49.4611186 C20.4192547,49.149061 0,39.9433639 0,26.0568038 L0,8.58158209 L0.854037267,7.80143826 C1.16459627,7.48938073 9.9378882,0 22.2826087,0 C34.5496894,0 43.5559006,7.48938073 43.8664596,7.80143826 Z M13.8917097,8.31 C12.3467742,12.99 9.84858065,17.16 6.43,20.76 L7.21890323,23.07 C8.50087097,21.81 9.68422581,20.46 10.8018387,19.05 L10.8018387,36.06 L13.2014194,36.06 L13.2014194,15.51 C14.3519032,13.53 15.3380323,11.46 16.1269355,9.24 L13.8917097,8.31 Z M18.0663226,9.84 L18.0663226,19.29 L24.6076452,19.29 L24.6076452,22.56 L15.4695161,22.56 L15.4695161,24.66 L22.2738065,24.66 C20.3015484,27.9 17.7376129,30.48 14.582,32.46 L15.9297097,34.41 C19.2496774,32.07 22.0108387,28.83 24.2131935,24.66 L24.6076452,24.66 L24.6076452,36 L26.9743548,36 L26.9743548,24.66 L27.3688065,24.66 C29.5054194,28.53 32.2008387,31.77 35.4879355,34.38 L37,32.49 C33.7457742,30.27 31.1818387,27.66 29.3081935,24.66 L36.4411935,24.66 L36.4411935,22.56 L26.9743548,22.56 L26.9743548,19.29 L33.5814194,19.29 L33.5814194,9.84 L18.0663226,9.84 Z" id="Combined-Shape"></path>
            <polygon id="保" points="31.2475806 17.22 31.2475806 11.91 20.4001613 11.91 20.4001613 17.22"></polygon>
        </g>
    </g>
</svg>