<?xml version="1.0" encoding="UTF-8"?>
<svg width="60px" height="60px" viewBox="0 0 60 60" version="1.1" xmlns="http://www.w3.org/2000/svg" xmlns:xlink="http://www.w3.org/1999/xlink">
    <!-- Generator: Sketch 51.3 (57544) - http://www.bohemiancoding.com/sketch -->
    <title>就医凭证 copy</title>
    <desc>Created with Sketch.</desc>
    <defs></defs>
    <g id="就医凭证-copy" stroke="none" stroke-width="1" fill="none" fill-rule="evenodd">
        <g id="pingzheng" transform="translate(5.000000, 10.000000)" fill="#DFDFDF" fill-rule="nonzero">
            <path d="M49.9866933,4.4949324 L49.9866933,13.6961203 C49.9866933,14.2488825 49.8717418,14.6346645 49.6363649,14.8707401 C49.4064619,15.0895418 49.034238,15.2680379 48.5306409,15.3601649 C47.8847229,15.452292 47.2607004,15.838074 46.6859428,16.4887212 C46.1057113,17.1393684 45.8210695,18.0433649 45.8210695,19.1949529 C45.8210695,19.9607589 45.9414949,20.5998902 46.1713979,21.1181048 C46.4013009,21.6593512 46.6859428,22.0739228 47.0034279,22.4021254 C47.3263869,22.730328 47.6493459,22.9721615 47.9668311,23.1333838 C48.295264,23.2830902 48.5470626,23.3579434 48.7331745,23.3579434 C49.2477194,23.4558284 49.5816261,23.6573563 49.7348948,23.9279795 C49.8881635,24.1928447 49.9757456,24.6131743 49.9757456,25.1716945 L49.9757456,36.0311691 C49.9757456,37.4361065 49.7129993,38.8583176 49.2094022,39.3650163 C48.7058051,39.877473 47.8190363,40.1020326 46.5709913,40.0444532 C46.1987674,40.0444532 45.9086517,40.067485 44.9124052,40.0790009 C43.9216327,40.1077906 42.9253862,40.1135485 41.9072442,40.1135485 L41.3872255,40.1135485 L41.3872255,0.026771066 L46.5764652,0.026771066 C48.0215699,0.026771066 48.9357081,0.308910134 49.3517231,0.884704088 C49.773212,1.47777191 49.9866933,3.13605858 49.9866933,4.4949324 Z M1.48262925,0.026771066 C1.12135306,0.026771066 0.814815707,0.18223542 0.606808236,0.521953864 C0.404274617,0.850156443 0.294796985,1.61020449 0.26195369,2.01901827 C0.240058146,2.427832 0.327640279,3.11302685 0.519226148,3.51032467 C0.699864221,3.90762253 1.00640162,4.18976156 1.42789046,4.339468 C1.84390545,4.49493235 2.18328609,4.74252378 2.44055855,5.09951609 C2.69783096,5.44499249 2.84015189,7.05145769 2.89489068,7.47178729 C2.92773398,7.9036328 2.83467799,8.31820445 2.61024887,8.72126027 C2.36939811,9.12431605 1.98075252,9.42372894 1.42241656,9.61949889 C1.01187543,9.81526885 0.667020927,10.1204396 0.420696265,10.5292534 C0.168897705,10.9380671 0.0156290279,11.3468809 0.00468127813,11.7729684 C-0.0226881188,12.2105718 0.0703678668,12.6078697 0.27290144,12.9936517 C0.475435059,13.3621598 0.814815707,13.632783 1.28556953,13.7824894 C1.8329577,13.9321959 2.26539433,14.2316087 2.56645783,14.6346645 C2.86204743,15.072268 3.02079001,15.5041135 3.05363326,15.9705066 C3.0755288,16.4196259 2.95510338,16.8687452 2.70877871,17.3293804 C2.44055851,17.7784997 2.07380846,18.1009444 1.55378974,18.3024722 C1.09398371,18.515516 0.743655266,18.8149289 0.51375225,19.2122267 C0.278375338,19.6210405 0.157949955,20.047128 0.130580558,20.5020053 C0.103211161,20.9568825 0.190793249,21.388728 0.371431323,21.7860258 C0.552069397,22.1890816 0.831237354,22.5000104 1.19798744,22.6957804 C2.35297646,23.306122 2.95510342,24.0373804 2.99342057,24.8895554 C3.04815936,25.7417305 2.61024887,26.4211674 1.68516287,26.9336241 C1.26914788,27.1293941 0.929767237,27.4460808 0.683442574,27.8721683 C0.420696265,28.2982559 0.283849235,28.7531331 0.256479793,29.2310421 C0.234584248,29.7089511 0.322166382,30.1407966 0.51375225,30.5093048 C0.694390324,30.9066026 1.00092772,31.154194 1.41146881,31.3154164 C1.96980473,31.4708807 2.39676751,31.7415039 2.70330486,32.1445597 C2.99342057,32.5360996 3.14668924,32.9679451 3.17405864,33.4113065 C3.20690194,33.8776996 3.09195041,34.321061 2.82920414,34.7701803 C2.57740558,35.2308155 2.17781224,35.6050816 1.62495018,35.9102524 C1.24725234,36.1060223 0.984506031,36.428467 0.820289604,36.8487966 C0.65059928,37.2864 0.595860441,37.6952138 0.63965153,38.0982695 C0.694390324,38.5013253 0.814815752,39.3247107 1.02829712,39.6413974 C1.23083074,39.9811159 1.52094644,40.1365803 1.89864428,40.1365802 L38.1247921,40.1365802 L38.1247921,0.026771066 L1.48262925,0.026771066 Z M12.3592318,16.4368997 C13.8700231,14.8707401 15.4355532,12.8036397 17.0120311,10.2759041 L17.1652998,10.0340705 L18.8895725,11.0762577 L18.7144083,11.3526388 C18.6870389,11.3929444 18.6651433,11.43325 18.6377739,11.4735555 L18.6706172,11.4735555 C22.5899164,11.3699126 25.9618274,11.1338371 28.6987681,10.759571 L28.9724622,10.7250233 L29.3446862,12.7287864 L29.027201,12.7633341 C27.7134695,12.9072825 26.3285775,13.0339572 24.9108422,13.1433581 L24.9108422,15.0549941 L30.9540073,15.0549941 L30.9540073,17.0069357 L24.9053683,17.0069357 L24.9053683,18.8322027 L29.9249176,18.8322027 L29.9249176,20.7726285 L18.2327067,20.7726285 L18.2327067,18.8206868 L22.9238232,18.8206868 L22.9238232,16.9954199 L17.4773111,16.9954199 L17.4773111,15.0434783 L22.9238232,15.0434783 L22.9238232,13.2700328 C21.6429349,13.344886 20.3018339,13.4082233 18.9388374,13.4542869 L18.6870389,13.4658027 L18.6432478,13.2009375 C18.5720874,12.7748499 18.4845052,12.3199727 18.3914493,11.8478216 C17.9371171,12.5445323 17.4882588,13.2066954 17.0558222,13.822795 L17.0558222,21.4693392 L15.0906987,21.4693392 L15.0906987,16.3965941 C14.614471,16.9608722 14.1546649,17.4675709 13.7112806,17.9166903 L13.4813775,18.1470078 L13.2733701,17.8936585 C13.0379932,17.5827297 12.7314558,17.2430113 12.3647057,16.8802611 L12.1402766,16.6614593 L12.3592318,16.4368997 Z M31.1018022,24.2792138 C30.9649551,25.2983692 30.8171603,26.2138816 30.6584177,26.9912035 C30.4011453,28.3385614 29.5253243,29.052546 28.1294845,29.052546 L25.9727752,29.052546 C24.4674577,29.052546 23.6737449,28.188855 23.6737449,26.559358 L23.6737449,23.7725151 L19.1632666,23.7725151 L19.1632666,23.8300945 C19.1632666,25.505655 18.7527254,26.7839177 17.9371171,27.6303348 L17.9316432,27.6360928 C17.0394005,28.4940258 15.6216652,29.1907366 13.7058067,29.720467 L13.5032731,29.7780464 L13.3883216,29.5937923 C13.1255752,29.1677048 12.813564,28.7185855 12.4687095,28.2637082 L12.1840676,27.8894422 L12.627452,27.7742834 C14.4502546,27.2963743 15.6873518,26.7839177 16.3004265,26.2484293 L16.3059004,26.2426713 C16.8532886,25.7877941 17.1324565,24.9413769 17.1324565,23.7206937 L17.1324565,21.866637 L25.7155027,21.866637 L25.7155027,26.2196396 C25.7155027,26.9508979 26.0439356,27.0545409 26.3997379,27.0545409 L27.6313613,27.0545409 C28.4798129,27.0545409 28.6713987,26.6169374 28.7425592,26.2887349 C28.8739324,25.6611194 28.9943578,24.7628808 29.1038354,23.6170507 L29.1476265,23.1852053 L29.5198504,23.3694593 C29.9030221,23.5594713 30.368302,23.7552413 30.9102163,23.9567692 L31.1346454,24.0431383 L31.1018022,24.2792138 Z" id="Shape"></path>
        </g>
    </g>
</svg>