<?xml version="1.0" encoding="UTF-8"?>
<svg width="80px" height="100px" viewBox="0 0 80 100" version="1.1" xmlns="http://www.w3.org/2000/svg" xmlns:xlink="http://www.w3.org/1999/xlink">
    <!-- Generator: Sketch 51.3 (57544) - http://www.bohemiancoding.com/sketch -->
    <title>内科 copy 3</title>
    <desc>Created with Sketch.</desc>
    <defs>
        <filter x="-7.7%" y="-50.0%" width="115.4%" height="200.0%" filterUnits="objectBoundingBox" id="filter-1">
            <feGaussianBlur stdDeviation="1" in="SourceGraphic"></feGaussianBlur>
        </filter>
    </defs>
    <g id="内科-copy-3" stroke="none" stroke-width="1" fill="none" fill-rule="evenodd">
        <g id="Group-5" transform="translate(6.000000, 8.000000)">
            <ellipse id="Oval-4" fill="#E9EDF3" filter="url(#filter-1)" cx="38.5" cy="81" rx="19.5" ry="3"></ellipse>
            <g id="Group-15">
                <path d="M5.73583984,59.8012695 C3.81087658,57.7158229 3.65283203,56.0927734 4.45458984,52.5043945 C5.25634766,48.9160156 6.09814453,47.0371094 8.99658203,46.1655273 C11.8950195,45.2939453 13.449707,45.0727539 15.0688477,45.0727539 C16.6879883,45.0727539 19.9726563,42.6049805 21.0205078,41.6801758 C22.0683594,40.7553711 25.1953125,39.9707031 26.7861328,39.2626953 C28.3769531,38.5546875 30.5908203,36.1450195 31.4516602,32.4282227 C32.3125,28.7114258 31.6503906,21.590332 32.5112305,19.8666992 C33.0851237,18.7176107 33.4729818,17.4817708 33.6748047,16.1591797 C30.2047526,12.1119792 28.1891276,9.63085937 27.6279297,8.71582031 C26.7861328,7.34326172 27.8569336,3.94482422 30.184082,2.71484375 C32.5112305,1.48486328 33.8920898,1.42382812 34.9799805,2.71484375 C36.0678711,4.00585938 40.5742188,8.71582031 42.3623047,8.71582031 C44.1503906,8.71582031 47.9130859,7.93652344 50.0761719,7.93652344 C52.2392578,7.93652344 57.984375,9.43066406 60.4399414,12.7949219 C62.8955078,16.1591797 68.3549805,22.2041016 67,28.0371094 C65.6450195,33.8701172 63.9912109,41.2011719 57.0336914,47.5283203 C50.0761719,53.8554688 44.0195922,56.894043 39.8598633,58.3476563 C35.7001343,59.8012695 30.4604492,60.4428711 27.6279297,59.8012695 C24.7954102,59.159668 20.2885742,58.496582 17.6787109,55.5004883 C15.0688477,52.5043945 14.5908203,51.5820312 13.1157227,52.5043945 C11.640625,53.4267578 12.0004883,55.4375 12.0004883,56.2353516 C12.0004883,57.0332031 12.0395508,59.0869141 11.1899414,59.8012695 C10.340332,60.515625 7.66080311,61.8867162 5.73583984,59.8012695 Z" id="Path-8" fill="#F3F6FB"></path>
                <path d="M30.8066691,51.2985013 C36.1507778,49.5009253 40,44.4499797 40,38.5" id="Oval-8" stroke="#FFFFFF" stroke-width="4" stroke-linecap="round"></path>
                <g id="xiaohua" fill="#278DFF" fill-rule="nonzero">
                    <path d="M4.30653201,59 C3.0072094,59 1.90475378,58.4863857 1.15665897,57.5381746 C-0.575771211,55.3256822 0.0148300124,51.2957852 0.526684331,49.0437839 C1.2354058,45.9225892 4.5427725,43.3545175 7.81076579,43.3545175 L7.92888603,43.3545175 C10.8425186,43.3940263 13.0080563,42.6038504 15.1735941,40.7074283 C16.5516635,39.4826557 18.5203342,38.4949358 20.7252454,37.902304 C26.0406562,36.4404786 27.3793523,32.5686168 27.8912066,26.760824 C27.9699535,25.6545778 27.9699535,24.5483315 27.9699535,23.4025765 C27.9699535,20.5184345 27.9699535,17.5157662 29.3873963,14.5526067 C29.5055166,14.3155539 29.6236368,13.9994835 28.403061,12.8142197 C28.1274471,12.5376582 27.8518332,12.2610966 27.5368459,11.984535 C26.5525106,11.0363239 25.4894284,10.0486041 24.6232134,8.90284912 C22.6939161,6.37428627 22.8514098,3.52965314 25.0169474,1.43568705 C27.1431118,-0.579261452 29.8598772,-0.460735065 32.1041619,1.71224854 L32.3797758,1.98881011 C32.6553897,2.26537168 32.970377,2.54193325 33.2853643,2.89751241 C35.8052627,6.09772471 38.2464143,7.006427 42.1837557,6.25575989 C49.2315966,4.91246091 55.1769821,7.95463802 60.4136461,15.5798353 C60.4136461,15.6193441 60.4530195,15.6193441 60.4530195,15.6588529 C63.3272787,20.4789258 63.7997596,26.2472097 61.7129687,32.331564 C58.4843488,41.8136746 49.1528499,51.4143115 39.545737,55.2071558 C34.3878199,57.2221043 30.017371,58.1703153 25.8044157,58.2098241 C20.3315113,58.2493329 15.6854485,56.115858 12.023721,51.888417 C11.0000123,50.7031532 10.1337972,50.5846268 9.03134165,50.8216796 C8.59823409,50.9006972 8.44074043,51.0192236 8.28324677,52.5205577 L8.16512652,53.3502425 C8.12575311,53.5872952 8.16512652,54.021892 8.20449994,54.4169799 C8.28324677,55.4046997 8.40136701,56.7875075 7.45640506,57.8147361 C6.74768359,58.6444208 5.72397487,58.9999999 4.30653201,59 Z M7.81076579,46.515221 C6.19645585,46.515221 4.03091811,47.8980288 3.59781054,49.7549422 C3.00720932,52.3625226 3.00720932,54.772559 3.63718396,55.5627349 C3.7553042,55.6812613 3.87342445,55.8392965 4.30653201,55.8392964 C4.73963958,55.8392964 4.97588007,55.7997876 5.0546269,55.7602788 C5.09400031,55.5232261 5.0546269,55.0491205 5.01525348,54.772559 C4.97588007,54.2194359 4.89713324,53.5872952 5.01525348,52.9551545 C5.0546269,52.7576105 5.09400031,52.5205577 5.09400031,52.283505 C5.25149397,50.940206 5.52710787,48.3721344 8.3619936,47.8190113 C10.8031452,47.3449057 12.6930691,48.0165553 14.3467524,49.9129773 C17.3391318,53.3897512 21.1189795,55.1676469 25.5681752,55.167647 L25.7256689,55.167647 C29.5842634,55.1281382 33.4822313,54.2589447 38.3645346,52.3625226 C47.1841791,48.9252575 55.7675833,40.1147964 58.7205893,31.4228617 C60.4923929,26.2077009 60.1774056,21.5061544 57.7756274,17.4367486 C53.2870582,10.8782887 48.5228752,8.34972598 42.7743569,9.45597218 C37.6558132,10.443692 34.0728326,9.10039302 30.8048392,4.95196971 L30.2536115,4.39884657 C30.1354912,4.28032018 30.017371,4.1617938 29.8992507,4.0827762 C28.5999281,2.81849482 27.8124598,3.2135827 27.1824852,3.80621463 C26.8281244,4.1617938 25.7256689,5.18902241 27.1037383,7.0459358 C27.8124598,7.9941469 28.7180483,8.82383153 29.6630102,9.73253375 C29.9779976,10.0090953 30.2536115,10.2856569 30.5292254,10.5622185 C31.3954405,11.3919032 33.4034846,13.3673429 32.1435353,15.9354144 C31.0410798,18.2664333 31.0410798,20.7554874 31.0410797,23.4025765 C31.0410797,24.5878403 31.0410797,25.812613 30.9229594,27.0373856 C30.4504785,32.7661607 28.9542888,38.8900238 21.4733402,40.9444811 C19.7409101,41.4185866 18.205347,42.1692537 17.1816382,43.077956 C14.4254992,45.4879924 11.4724932,46.5547298 7.81076579,46.4757122 C7.8501392,46.515221 7.8501392,46.515221 7.81076579,46.515221 Z" id="Shape"></path>
                </g>
            </g>
        </g>
    </g>
</svg>