<?xml version="1.0" encoding="UTF-8"?>
<svg width="60px" height="60px" viewBox="0 0 60 60" version="1.1" xmlns="http://www.w3.org/2000/svg" xmlns:xlink="http://www.w3.org/1999/xlink">
    <!-- Generator: Sketch 51.3 (57544) - http://www.bohemiancoding.com/sketch -->
    <title>医保支付 copy</title>
    <desc>Created with Sketch.</desc>
    <defs></defs>
    <g id="医保支付-copy" stroke="none" stroke-width="1" fill="none" fill-rule="evenodd">
        <g id="baoxiao-2" transform="translate(5.000000, 6.000000)" fill="#DFDFDF" fill-rule="nonzero">
            <path d="M6.2970297,9.10891089 L43.6435644,9.10891089 C44.5940594,9.10891089 45.3861386,8.31683168 45.3861386,7.36633663 C45.3861386,6.41584158 44.5940594,5.62376238 43.6435644,5.62376238 L6.2970297,5.62376238 C5.34653465,5.62376238 4.55445545,6.41584158 4.55445545,7.36633663 C4.55445545,8.31683168 5.34653465,9.10891089 6.2970297,9.10891089 Z M10.970297,3.48514851 L39.009901,3.48514851 C39.960396,3.48514851 40.7524752,2.69306931 40.7524752,1.74257426 C40.7524752,0.792079208 39.960396,0 39.009901,0 L10.970297,0 C10.019802,0 9.22772277,0.792079208 9.22772277,1.74257426 C9.18811881,2.69306931 9.98019802,3.48514851 10.970297,3.48514851 Z M43.8415842,11.2871287 L6.13861386,11.2871287 C2.77227723,11.2871287 0,14.019802 0,17.4257426 L0,40.6732673 C0,44.039604 2.77227723,46.8118812 6.13861386,46.8118812 L43.8415842,46.8118812 C47.2079208,46.8118812 49.980198,44.039604 49.980198,40.6732673 L49.980198,17.4257426 C49.980198,14.019802 47.2079208,11.2871287 43.8415842,11.2871287 Z M33.1485149,30.4950495 C33.9009901,30.4950495 34.5346535,31.1287129 34.5346535,31.8811881 C34.5346535,32.6336634 33.9009901,33.2673267 33.1485149,33.2673267 L26.3762376,33.2673267 L26.3762376,39.7227723 C26.3762376,40.4752475 25.7425743,41.1089109 24.990099,41.1089109 C24.2376238,41.1089109 23.6039604,40.4752475 23.6039604,39.7227723 L23.6039604,33.2277228 L16.8316832,33.2277228 C16.0792079,33.2277228 15.4455446,32.5940594 15.4455446,31.8415842 C15.4455446,31.0891089 16.0792079,30.4554455 16.8316832,30.4554455 L23.6039604,30.4554455 L23.6039604,27.4455446 L16.8316832,27.4455446 C16.0792079,27.4455446 15.4455446,26.8118812 15.4455446,26.0594059 C15.4455446,25.3069307 16.0792079,24.6732673 16.8316832,24.6732673 L22.1386139,24.6732673 L16.8712871,19.4851485 C16.3168317,18.9306931 16.3168317,18.0594059 16.8712871,17.5445545 C17.4257426,16.990099 18.2970297,16.990099 18.8118812,17.5445545 L25.0693069,23.7623762 L31.2871287,17.5049505 C31.8415842,16.950495 32.7128713,16.950495 33.2277228,17.5049505 C33.7821782,18.0594059 33.7821782,18.9306931 33.2277228,19.4455446 L28,24.7128713 L33.1485149,24.7128713 C33.9009901,24.7128713 34.5346535,25.3465347 34.5346535,26.0990099 C34.5346535,26.8514851 33.9009901,27.4851485 33.1485149,27.4851485 L26.3762376,27.4851485 L26.3762376,30.4950495 L33.1485149,30.4950495 Z" id="Shape"></path>
        </g>
    </g>
</svg>