<?xml version="1.0" encoding="UTF-8"?>
<svg width="60px" height="60px" viewBox="0 0 60 60" version="1.1" xmlns="http://www.w3.org/2000/svg" xmlns:xlink="http://www.w3.org/1999/xlink">
    <!-- Generator: Sketch 51.3 (57544) - http://www.bohemiancoding.com/sketch -->
    <title>报告查询</title>
    <desc>Created with Sketch.</desc>
    <defs></defs>
    <g id="报告查询" stroke="none" stroke-width="1" fill="none" fill-rule="evenodd">
        <g id="zaitu" transform="translate(8.000000, 6.000000)" fill="#59C3FF" fill-rule="nonzero">
            <path d="M26.0410714,36.3107143 C26.0410714,37.8839589 26.8803873,39.3376968 28.2428571,40.1243191 C29.6053269,40.9109414 31.2839588,40.9109414 32.6464286,40.1243191 C34.0088984,39.3376968 34.8482143,37.8839589 34.8482143,36.3107143 C34.8482143,33.8786889 32.8766682,31.9071429 30.4446429,31.9071429 C28.0126175,31.9071429 26.0410714,33.8786889 26.0410714,36.3107143 Z" id="Shape"></path>
            <path d="M31.4303571,26.2446429 C25.4464286,26.2446429 20.5660714,31.0982143 20.5660714,37.1089286 C20.5660714,43.0928571 25.4196429,47.9732143 31.4303571,47.9732143 C37.4142857,47.9732143 42.2946429,43.1196429 42.2946429,37.1089286 C42.2946429,31.0982143 37.4142857,26.2446429 31.4303571,26.2446429 Z M37.2482143,43.7785714 L34.2482143,40.7785714 C33.225,41.6517857 31.8964286,42.1767857 30.4446429,42.1767857 C27.2035714,42.1767857 24.5732143,39.5464286 24.5732143,36.3053571 C24.5732143,33.0642857 27.2035714,30.4339286 30.4446429,30.4339286 C33.6857143,30.4339286 36.3160714,33.0642857 36.3160714,36.3053571 C36.3160714,37.5696429 35.9196429,38.7375 35.2392857,39.6964286 L38.2821429,42.7392857 L37.2482143,43.7785714 Z M23.8232143,26.8125 L23.4803571,27.0696429 C23.625,27.0107143 23.7428571,26.925 23.8232143,26.8125 Z" id="Shape"></path>
            <path d="M18.6321429,37.0821429 C18.6321429,33.0535714 20.5339286,29.3946429 23.5125,27.0642857 C23.3410714,27.15 23.1428571,27.2035714 22.9446429,27.2035714 L9.1875,27.2035714 C8.50714286,27.2035714 7.93928571,26.6357143 7.93928571,25.9553571 C7.93928571,25.275 8.50714286,24.7071429 9.1875,24.7071429 L22.9178571,24.7071429 C23.5982143,24.7071429 24.1660714,25.275 24.1660714,25.9553571 C24.1660714,26.2982143 24.0267857,26.5821429 23.8232143,26.8071429 C25.8107143,25.3339286 28.2482143,24.4821429 30.8892857,24.4821429 C34.1785714,24.4821429 37.6392857,25.5053571 39.8571429,27.6053571 L39.8571429,1.9875 C39.8571429,0.878571429 38.9785714,0 37.8696429,0 L2.03571429,0 C0.926785714,0 0.0482142857,0.878571429 0.0482142857,1.9875 L0.0482142857,44.7696429 C0.0482142857,45.8785714 0.926785714,46.7571429 2.03571429,46.7571429 L23.1428571,46.7571429 C20.2767857,44.5125 18.6321429,41.025 18.6321429,37.0821429 Z M9.1875,9.30535714 L30.5785714,9.30535714 C31.2589286,9.30535714 31.8267857,9.87321429 31.8267857,10.5535714 C31.8267857,11.2339286 31.2589286,11.8017857 30.5785714,11.8017857 L9.1875,11.8017857 C8.50714286,11.8017857 7.93928571,11.2339286 7.93928571,10.5535714 C7.93928571,9.87321429 8.50714286,9.30535714 9.1875,9.30535714 Z M9.1875,17.0196429 L30.5785714,17.0196429 C31.2589286,17.0196429 31.8267857,17.5875 31.8267857,18.2678571 C31.8267857,18.9482143 31.2589286,19.5160714 30.5785714,19.5160714 L9.1875,19.5160714 C8.50714286,19.5160714 7.93928571,18.9482143 7.93928571,18.2678571 C7.93928571,17.5875 8.50714286,17.0196429 9.1875,17.0196429 Z" id="Shape"></path>
        </g>
    </g>
</svg>