<?xml version="1.0" encoding="UTF-8"?>
<svg width="60px" height="60px" viewBox="0 0 60 60" version="1.1" xmlns="http://www.w3.org/2000/svg" xmlns:xlink="http://www.w3.org/1999/xlink">
    <!-- Generator: Sketch 51.3 (57544) - http://www.bohemiancoding.com/sketch -->
    <title>预约挂号 copy</title>
    <desc>Created with Sketch.</desc>
    <defs></defs>
    <g id="预约挂号-copy" stroke="none" stroke-width="1" fill="none" fill-rule="evenodd">
        <path d="M53.0050055,25.1828416 L34.8169905,6.99533032 C32.1561023,4.33488989 27.8431421,4.33488989 25.1831494,6.99533032 L6.99423901,25.1828416 C4.33525366,27.8432261 4.33525366,32.1567459 6.99423901,34.8171304 L25.1831494,53.0037463 C27.8430862,55.6646344 32.1561023,55.6646344 34.8169905,53.0037463 L53.0050055,34.8171304 C55.6649982,32.15669 55.6649982,27.8431701 53.0050055,25.1827857 L53.0050055,25.1828416 Z M46.978748,32.8927351 C46.978748,34.0069323 46.0751452,34.9114865 44.9610039,34.9114865 L33.9164097,34.9114865 L33.9164097,46.0001808 C33.9164097,47.114322 33.0128069,48.0178689 31.8986656,48.0178689 L27.1711764,48.0178689 C26.0560277,48.0178689 25.1525368,47.114322 25.1525368,46.0001808 L25.1525368,34.9114865 L14.0829825,34.9114865 C12.9678338,34.9114865 12.0643429,34.0069323 12.0643429,32.8927351 L12.0643429,28.2113046 C12.0643429,27.096156 12.9678338,26.1926651 14.0829825,26.1926651 L25.1525368,26.1926651 L25.1525368,15.2034757 C25.1525368,14.0883831 26.0560277,13.1842765 27.1711764,13.1842765 L31.8986097,13.1842765 C33.012751,13.1842765 33.9162978,14.0883831 33.9162978,15.2034757 L33.9162978,26.1926651 L44.9610039,26.1926651 C46.0751452,26.1926651 46.9786921,27.096156 46.9786921,28.2113046 L46.9786921,32.8927351 L46.978748,32.8927351 Z" id="Shape" fill="#DFDFDF" fill-rule="nonzero"></path>
    </g>
</svg>