<?xml version="1.0" encoding="UTF-8"?>
<svg width="60px" height="60px" viewBox="0 0 60 60" version="1.1" xmlns="http://www.w3.org/2000/svg" xmlns:xlink="http://www.w3.org/1999/xlink">
    <!-- Generator: Sketch 51.3 (57544) - http://www.bohemiancoding.com/sketch -->
    <title>费用审核</title>
    <desc>Created with Sketch.</desc>
    <defs></defs>
    <g id="费用审核" stroke="none" stroke-width="1" fill="none" fill-rule="evenodd">
        <g id="jiesuan-9" transform="translate(7.000000, 5.000000)" fill="#5FC3FF" fill-rule="nonzero">
            <path d="M37.9310445,0 L6.89654166,0 C3.08754375,0 0,2.98468568 0,6.6666498 L0,43.3333502 C0,47.0153776 3.08760918,50 6.89654166,50 L37.9310445,50 C41.7400425,50 44.8275862,47.0153143 44.8275862,43.3333502 L44.8275862,6.6666498 C44.8276516,2.98462243 41.7400425,0 37.9310445,0 Z M20.0810412,36.4076245 L13.5248118,42.7449899 C12.7816996,43.4630146 11.5772258,43.4630146 10.8344408,42.7449899 C10.8054544,42.7176655 10.7964902,42.6803474 10.7699902,42.6516315 L7.38237488,39.376624 C6.74238367,38.7582827 6.74238367,37.7553124 7.38237488,37.1362754 C8.0223661,36.5179342 9.05998808,36.5179342 9.6999793,37.1362754 L11.822727,39.1886422 L17.390343,33.8066191 C18.1334552,33.0882781 19.3382561,33.0882781 20.0810412,33.8066191 C20.8241533,34.5246438 20.8241533,35.6893468 20.0810412,36.4076245 Z M20.0810412,23.0740087 L13.5248118,29.411627 C12.7816996,30.1296518 11.5772258,30.1296518 10.8344408,29.411627 C10.8054544,29.3839864 10.7964902,29.3473008 10.7699902,29.3179524 L7.38237488,26.0436406 C6.74238367,25.4249831 6.74238367,24.4219496 7.38237488,23.8029758 C8.0223661,23.1846346 9.05998808,23.1846346 9.6999793,23.8029758 L11.822727,25.8553426 L17.390343,20.4733195 C18.1334552,19.7552947 19.3382561,19.7552947 20.0810412,20.4733195 C20.8241533,21.1916605 20.8241533,22.3556677 20.0810412,23.0740087 Z M20.0810412,9.74096207 L13.5248118,16.0783274 C12.7816996,16.7969847 11.5772258,16.7969847 10.8344408,16.0783274 C10.8054544,16.051003 10.7964902,16.013685 10.7699902,15.9846528 L7.38237488,12.710341 C6.74238367,12.0916835 6.74238367,11.08865 7.38237488,10.4699925 C8.0223661,9.85133497 9.05998808,9.85133497 9.6999793,10.4699925 L11.822727,12.5219797 L17.390343,7.13995664 C18.1334552,6.42161563 19.3382561,6.42161563 20.0810412,7.13995664 C20.8241533,7.85829764 20.8241533,9.02262107 20.0810412,9.74096207 Z M36.206582,40.0003416 L29.3103675,40.0003416 C28.3582652,40.0003416 27.5862321,39.2536641 27.5862321,38.3333629 C27.5862321,37.4130616 28.3583307,36.6667004 29.3103675,36.6667004 L36.206582,36.6667004 C37.1590114,36.6667004 37.9310445,37.4130616 37.9310445,38.3333629 C37.9310445,39.2536641 37.1590114,40.0003416 36.206582,40.0003416 Z M36.206582,26.6666624 L29.3103675,26.6666624 C28.3582652,26.6666624 27.5862321,25.9206808 27.5862321,25.0003163 C27.5862321,24.0796355 28.3583307,23.3333376 29.3103675,23.3333376 L36.206582,23.3333376 C37.1590114,23.3333376 37.9310445,24.0796987 37.9310445,25.0003163 C37.9310445,25.9206175 37.1590114,26.6666624 36.206582,26.6666624 Z M36.206582,13.3332996 L29.3103675,13.3332996 C28.3582652,13.3332996 27.5862321,12.5873179 27.5862321,11.6666371 C27.5862321,10.7459564 28.3583307,10.000291 29.3103675,10.000291 L36.206582,10.000291 C37.1590114,10.000291 37.9310445,10.7459564 37.9310445,11.6666371 C37.9310445,12.5873179 37.1590114,13.3332996 36.206582,13.3332996 Z" id="Shape"></path>
        </g>
    </g>
</svg>