<?xml version="1.0" encoding="UTF-8"?>
<svg width="60px" height="60px" viewBox="0 0 60 60" version="1.1" xmlns="http://www.w3.org/2000/svg" xmlns:xlink="http://www.w3.org/1999/xlink">
    <!-- Generator: Sketch 51.3 (57544) - http://www.bohemiancoding.com/sketch -->
    <title>备案信息 copy</title>
    <desc>Created with Sketch.</desc>
    <defs></defs>
    <g id="备案信息-copy" stroke="none" stroke-width="1" fill="none" fill-rule="evenodd">
        <g id="beian" transform="translate(8.000000, 6.000000)" fill="#DFDFDF" fill-rule="nonzero">
            <path d="M37.242558,0.014729558 L44.7985349,9.43635752 L44.7985349,20.7703229 C43.927617,26.5232784 42.2638726,31.1714026 39.8078432,34.7161998 C37.351152,38.2609969 34.8091498,40.9975057 32.1818969,42.9251245 C29.5539219,44.8527433 26.2037517,46.4698614 22.1306041,47.7758773 C17.1239091,46.0654466 13.1593555,43.7107916 10.2369434,40.7096865 C7.31380936,37.7093033 5.09831114,34.7475447 3.59050893,31.8244708 C2.08192461,28.9020586 0.892564569,25.2793506 0.0224287496,20.9569482 L0.0224287496,7.9438367 L7.95153589,0.014729558 L37.242558,0.014729558 Z M34.723899,20.8169492 C34.941087,20.4751638 35.18228,20.1100353 35.4468162,19.7208416 C35.7106305,19.33243 35.9831683,18.9206151 36.263046,18.4848553 C34.1794851,18.3915426 32.2358027,18.1896962 30.4328414,17.8785337 C28.629098,17.5680932 26.9652934,17.1482766 25.4421497,16.6192042 C26.8719808,15.8729438 28.1546535,15.056714 29.2901076,14.1705147 C30.4248397,13.2843154 31.4122932,12.3281467 32.2518662,11.3020687 L32.2518662,9.48304388 L17.4198503,9.48304394 C17.6370383,9.14125857 17.8549482,8.80675296 18.0728582,8.48024897 C18.2900462,8.15374498 18.5079561,7.81996129 18.7258661,7.477454 L16.6736499,6.59125474 C15.802732,8.14646528 14.7453092,9.6389861 13.5020432,11.0688774 C12.257995,12.4994906 10.8121005,13.867354 9.16435937,15.1733699 C9.41289225,15.3912798 9.66942681,15.6244712 9.93396299,15.873004 C10.1977773,16.1222589 10.4543118,16.3860731 10.7035666,16.6658907 C11.5431397,15.9509751 12.3513077,15.2199961 13.128913,14.4737357 C13.9057963,13.7274753 14.6367753,12.9658733 15.321068,12.188268 C15.9427311,13.0278411 16.6736499,13.8207277 17.513223,14.5669881 C18.352796,15.3132485 19.3162444,15.9976013 20.4050122,16.6192042 C18.7259262,17.2722122 16.8988396,17.8399092 14.9245946,18.3216334 C12.9496275,18.8040795 10.8273818,19.2158343 8.55797768,19.5576197 C8.77516567,19.900127 8.9777341,20.2339107 9.16429923,20.5604146 C9.35086436,20.8869186 9.52142613,21.2060827 9.67736829,21.5165833 C12.257995,21.0814854 14.6447168,20.5604146 16.8368718,19.9540931 C19.0290268,19.3477715 21.0266151,18.656139 22.8303585,17.8785337 C24.4467547,18.5628264 26.2424965,19.1458649 28.2174635,19.6275891 C30.1916485,20.1100353 32.3604603,20.5065087 34.723899,20.8169492 Z M32.2518663,33.923253 L32.2518663,21.1434531 L12.7556625,21.1434531 L12.7556625,33.923253 L14.7146262,33.923253 L14.7146262,32.7105498 L30.2929628,32.7105498 L30.2929628,33.923253 L32.2518663,33.923253 Z M14.7146262,22.7759129 L14.7146262,26.1341449 L21.5243427,26.1341449 L21.5243427,22.7759129 L14.7146262,22.7759129 Z M14.7146262,31.0781502 L21.5243427,31.0781502 L21.5243427,27.7199182 L14.7146262,27.7199182 L14.7146262,31.0781502 Z M17.0467201,11.2553823 L29.3601372,11.2553823 C28.4579346,12.0949554 27.471143,12.8805623 26.3983786,13.6107593 C25.3256142,14.3417383 24.1362542,15.0027479 22.8302984,15.593006 C21.6482181,15.0333106 20.568174,14.3963662 19.5887222,13.6806685 C18.6092104,12.9658132 17.7616356,12.1576451 17.0467201,11.2553823 Z M23.4832462,22.7759129 L23.4832462,26.1341449 L30.2929628,26.1341449 L30.2929628,22.7759129 L23.4832462,22.7759129 Z M23.4832462,31.0781502 L30.2929628,31.0781502 L30.2929628,27.7199182 L23.4832462,27.7199182 L23.4832462,31.0781502 Z" id="Shape"></path>
        </g>
    </g>
</svg>