<?xml version="1.0" encoding="UTF-8"?>
<svg width="60px" height="60px" viewBox="0 0 60 60" version="1.1" xmlns="http://www.w3.org/2000/svg" xmlns:xlink="http://www.w3.org/1999/xlink">
    <!-- Generator: Sketch 51.3 (57544) - http://www.bohemiancoding.com/sketch -->
    <title>定点医院</title>
    <desc>Created with Sketch.</desc>
    <defs></defs>
    <g id="定点医院" stroke="none" stroke-width="1" fill="none" fill-rule="evenodd">
        <g id="yiyuan-11" transform="translate(5.000000, 6.000000)" fill="#5FC3FF" fill-rule="nonzero">
            <path d="M29.7731855,0 L3.16028226,0 C1.49697581,0 0,1.29898246 0,3.08508335 L0,45.3020134 C0,47.0881143 1.33064516,48.3870968 3.16028226,48.3870968 L29.7731855,48.3870968 C31.4364919,48.3870968 32.9334677,46.9257415 32.9334677,45.3020134 L32.9334677,3.08508335 C32.9334677,1.29898246 31.4364919,0 29.7731855,0 Z M14.6370968,41.405066 C14.6370968,41.8921845 14.1381048,42.3793029 13.6391129,42.3793029 L7.31854839,42.3793029 C6.81955645,42.3793029 6.32056452,41.8921845 6.32056452,41.405066 L6.32056452,35.0725265 C6.32056452,34.5854081 6.81955645,34.0982897 7.31854839,34.0982897 L13.6391129,34.0982897 C14.1381048,34.0982897 14.6370968,34.5854081 14.6370968,35.0725265 L14.6370968,41.405066 Z M14.6370968,30.0389695 C14.6370968,30.5260879 14.1381048,31.0132063 13.6391129,31.0132063 L7.31854839,31.0132063 C6.81955645,31.0132063 6.32056452,30.5260879 6.32056452,30.0389695 L6.32056452,23.70643 C6.32056452,23.2193115 6.81955645,22.7321931 7.31854839,22.7321931 L13.6391129,22.7321931 C14.1381048,22.7321931 14.6370968,23.2193115 14.6370968,23.70643 L14.6370968,30.0389695 Z M16.3004032,17.3738905 C15.46875,17.3738905 14.6370968,16.7243992 14.6370968,15.9125352 L14.6370968,12.8274518 L11.4768145,12.8274518 C10.6451613,12.8274518 9.97983871,12.1779606 9.97983871,11.2037237 C9.97983871,10.3918597 10.6451613,9.57999567 11.4768145,9.57999567 L14.6370968,9.57999567 L14.6370968,6.65728513 C14.6370968,5.84542109 15.3024194,5.19592985 16.3004032,5.19592985 C17.1320565,5.19592985 17.9637097,5.84542109 17.9637097,6.65728513 L17.9637097,9.74236848 L21.1239919,9.74236848 C21.9556452,9.74236848 22.6209677,10.3918597 22.6209677,11.3660966 C22.6209677,12.1779606 21.9556452,12.9898246 21.1239919,12.9898246 L17.9637097,12.9898246 L17.9637097,16.074908 C17.9637097,16.7243992 17.1320565,17.3738905 16.3004032,17.3738905 Z M26.1139113,41.405066 C26.1139113,41.8921845 25.6149194,42.3793029 25.1159274,42.3793029 L18.7953629,42.3793029 C18.296371,42.3793029 17.797379,41.8921845 17.797379,41.405066 L17.797379,35.0725265 C17.797379,34.5854081 18.296371,34.0982897 18.7953629,34.0982897 L25.1159274,34.0982897 C25.6149194,34.0982897 26.1139113,34.5854081 26.1139113,35.0725265 L26.1139113,41.405066 Z M26.1139113,30.0389695 C26.1139113,30.5260879 25.6149194,31.0132063 25.1159274,31.0132063 L18.7953629,31.0132063 C18.296371,31.0132063 17.797379,30.5260879 17.797379,30.0389695 L17.797379,23.70643 C17.797379,23.2193115 18.296371,22.7321931 18.7953629,22.7321931 L25.1159274,22.7321931 C25.6149194,22.7321931 26.1139113,23.2193115 26.1139113,23.70643 L26.1139113,30.0389695 Z M46.5725806,24.1935484 L34.4304435,24.1935484 L34.4304435,48.3870968 L46.5725806,48.3870968 C48.4022177,48.3870968 49.8991935,46.9257415 49.8991935,45.3020134 L49.8991935,27.2786317 C49.7328629,25.6549037 48.2358871,24.1935484 46.5725806,24.1935484 Z" id="Shape"></path>
        </g>
    </g>
</svg>