<?xml version="1.0" encoding="UTF-8"?>
<svg width="100px" height="100px" viewBox="0 0 100 100" version="1.1" xmlns="http://www.w3.org/2000/svg" xmlns:xlink="http://www.w3.org/1999/xlink">
    <!-- Generator: Sketch 51.3 (57544) - http://www.bohemiancoding.com/sketch -->
    <title>医保账户</title>
    <desc>Created with Sketch.</desc>
    <defs></defs>
    <g id="医保账户" stroke="none" stroke-width="1" fill="none" fill-rule="evenodd">
        <g id="yibaoxinxi" transform="translate(15.000000, 16.000000)" fill="#FFFFFF" fill-rule="nonzero">
            <path d="M59.1337359,0 L10.0556078,0 C4.51098462,0 7.72640556e-05,5.07362931 7.72640556e-05,11.3097165 L7.72640556e-05,17.2772497 L69.1891119,17.2772497 L69.1891119,11.3097165 C69.1891119,5.07362931 64.6782818,9.11588714e-05 59.1337359,9.11588714e-05 L59.1337359,0 Z M7.72640556e-05,52.6901923 C7.72640556e-05,58.9263707 4.51090736,64 10.0556078,64 L59.1337359,64 C64.6782818,64 69.1891892,58.9263707 69.1891892,52.6901923 L69.1891892,28.8443989 L0,28.8443989 L0,52.6901011 L7.72640556e-05,52.6901923 Z M41.7494007,46.5683271 L56.1392129,46.5683271 C57.5801876,46.5683271 58.7483428,47.9465581 58.7483428,49.6467622 C58.7483428,51.3469663 57.5802648,52.7251062 56.1391357,52.7251062 L41.7494779,52.7251062 C40.3083488,52.7251062 39.1402708,51.3468752 39.1402708,49.6466711 C39.1402708,47.946467 40.3083488,46.5683271 41.7494779,46.5683271 L41.7494007,46.5683271 Z" id="Shape"></path>
        </g>
    </g>
</svg>