<?xml version="1.0" encoding="UTF-8"?>
<svg width="60px" height="60px" viewBox="0 0 60 60" version="1.1" xmlns="http://www.w3.org/2000/svg" xmlns:xlink="http://www.w3.org/1999/xlink">
    <!-- Generator: Sketch 51.3 (57544) - http://www.bohemiancoding.com/sketch -->
    <title>家庭共济</title>
    <desc>Created with Sketch.</desc>
    <defs></defs>
    <g id="家庭共济" stroke="none" stroke-width="1" fill="none" fill-rule="evenodd">
        <g id="jiating-4" transform="translate(5.000000, 8.000000)" fill="#9BE5F6" fill-rule="nonzero">
            <path d="M49.9692383,23.1194336 C49.9362305,22.3235352 49.5712891,21.594043 48.875,20.9310059 L47.63125,19.6872559 C47.0013672,19.0571777 46.2219727,18.3029785 45.2935059,17.4239258 C44.3651367,16.5454102 43.3453125,15.5588867 42.2344238,14.4646973 C41.1067188,13.3538941 39.9709794,12.2512773 38.8272949,11.1569336 C37.6794917,10.0583053 36.5355069,8.95569444 35.3953613,7.84912109 C34.3774996,6.86080296 33.3578039,5.87437548 32.3362793,4.88984375 C31.4245117,4.01083984 30.653418,3.26494141 30.0234863,2.65151367 C29.3934082,2.03789063 28.9790527,1.64814453 28.7800781,1.48242188 C27.752002,0.487597656 26.5085449,-0.00146484375 25.0496094,0.0152832031 C23.5903809,0.0317871094 22.2308594,0.653613281 20.9708496,1.88037109 C20.805127,2.04614258 20.2164551,2.6015625 19.205127,3.54677734 C18.1936523,4.49160156 16.9833008,5.62758789 15.5740723,6.95390625 C14.1647949,8.28032227 12.6394531,9.70625 10.9980469,11.2315918 C9.35664063,12.7569336 7.8230957,14.182666 6.39711914,15.5092773 C5.16861737,16.6515419 3.94169563,17.7955046 2.71635742,18.9411621 C1.68833008,19.9027832 1.07495117,20.4832031 0.875927734,20.6821777 C0.345410156,21.1797363 0.0635742188,21.8510742 0.0304199219,22.696582 C-0.00278320312,23.5424316 0.312255859,24.2633789 0.975341797,24.8602539 C1.5722168,25.3907715 2.28515625,25.6396484 3.11420898,25.6064453 C3.94331055,25.5732422 4.60639648,25.3578125 5.10390625,24.9598633 C5.26967773,24.8270996 5.75874023,24.3879883 6.57109375,23.641748 C7.38364258,22.8956055 8.35351562,21.9920898 9.4809082,20.9308105 C10.6083496,19.8697754 11.8353027,18.7259766 13.1616699,17.4989258 C14.4277703,16.3282951 15.6878293,15.1511473 16.9417969,13.9675293 C18.1356445,12.8398437 19.188623,11.8534668 20.100293,11.0079102 C21.012207,10.1624512 21.634082,9.59023437 21.9656738,9.2918457 C22.960498,8.39643555 23.9718262,7.93232422 24.9998535,7.89912109 C26.0276367,7.86591797 27.0721191,8.33027344 28.1333496,9.2918457 C28.3655273,9.49077148 28.9125,10.0048828 29.7747559,10.8336914 C30.6367676,11.662793 31.6648438,12.640918 32.8586426,13.7685059 C34.1289659,14.9684827 35.3973269,16.1705351 36.6637207,17.3746582 C37.921579,18.5706617 39.1816071,19.7643812 40.4437988,20.9558105 C41.4546315,21.9098067 42.4660249,22.8632086 43.4779785,23.8160156 C44.3235352,24.6116211 44.8293457,25.0759277 44.9950684,25.2085449 C45.492334,25.6396973 46.1557129,25.871875 46.9847168,25.9050781 C47.8135254,25.9382812 48.5432617,25.6728516 49.1731934,25.1091797 C49.7370117,24.5786621 50.0023926,23.9152832 49.9691895,23.1194336 L49.9692383,23.1194336 Z" id="Shape"></path>
            <path d="M33.3312988,18.6430664 C32.5087434,17.8656385 31.6879893,17.086307 30.869043,16.3050781 L28.9790039,14.5643555 C28.4816895,14.0999512 28.1831055,13.8181152 28.0837402,13.7187988 C27.1550781,12.8564941 26.1105469,12.4503418 24.9502441,12.5 C23.7895996,12.549707 22.7948242,12.9561523 21.9657227,13.7187988 C21.8331543,13.851416 21.5098633,14.1582031 20.9958496,14.6390137 C20.4818359,15.1198242 19.8435059,15.7082031 19.0808594,16.4047363 C18.2357737,17.1761334 17.3902332,17.9470319 16.5442383,18.7174316 C15.6116637,19.5669001 14.6831052,20.420767 13.7585938,21.2790039 C11.285732,23.5311994 8.8153204,25.7860835 6.34736328,28.0436523 L6.34736328,40.1740234 C6.34736328,40.969873 6.62924805,41.5834961 7.19291992,42.0143555 C7.75664062,42.4456055 8.51928711,42.6609863 9.4809082,42.6609863 L40.5682617,42.6609863 C41.4969727,42.6280762 42.234668,42.3294434 42.7818848,41.7657715 C43.3287598,41.2020508 43.6024414,40.5555176 43.6024414,39.8260254 L43.6024414,28.1433105 C41.1168067,25.8372052 38.6298271,23.5325499 36.1415039,21.2293457 C35.193434,20.3796342 34.2566175,19.5174497 33.3312988,18.6430176 L33.3312988,18.6430664 Z M32.0108398,28.9713867 C31.8313965,31.2688477 30.0967285,34.1026855 25.027832,37.6581543 C19.9587402,34.1027344 18.2245117,31.2688477 18.0450684,28.9713867 L18.0450684,28.1723633 C18.2377441,25.7719727 19.8198242,24.5193848 21.1879395,24.3857422 C21.412793,24.3638672 21.6230957,24.353125 21.8204102,24.353125 C23.4012207,24.353125 24.159668,25.7077637 25.027832,26.7424316 C25.8959961,25.7078125 26.6540039,24.353125 28.2350586,24.353125 C28.4323242,24.353125 28.6427734,24.3637695 28.8675293,24.385791 C30.2356934,24.5193848 31.8177246,25.7720215 32.0108398,28.1724121 L32.0108398,28.9713379 L32.0108398,28.9713867 Z" id="Shape"></path>
        </g>
    </g>
</svg>