<?xml version="1.0" encoding="UTF-8"?>
<svg width="60px" height="60px" viewBox="0 0 60 60" version="1.1" xmlns="http://www.w3.org/2000/svg" xmlns:xlink="http://www.w3.org/1999/xlink">
    <!-- Generator: Sketch 51.3 (57544) - http://www.bohemiancoding.com/sketch -->
    <title>平产待遇核准 copy</title>
    <desc>Created with Sketch.</desc>
    <defs></defs>
    <g id="平产待遇核准-copy" stroke="none" stroke-width="1" fill="none" fill-rule="evenodd">
        <g id="fenmianyuyan" transform="translate(5.000000, 5.000000)" fill="#DFDFDF" fill-rule="nonzero">
            <path d="M25.00015,0.00820820821 C11.21425,0.00820820821 0.03825,11.1952452 0.03825,24.9948448 C0.03825,38.794995 11.2143,49.9814815 25.00015,49.9814815 C38.7858,49.9814815 49.9618,38.7949449 49.9618,24.9948448 C49.9618,11.1952452 38.7858,0.00820820821 25.00015,0.00820820821 Z M8.5503,17.9266767 C8.5503,14.806957 11.07675,12.2782282 14.193,12.2782282 C17.3093,12.2782282 19.83575,14.806957 19.83575,17.9266767 C19.83575,21.0462963 17.3093,23.575025 14.193,23.575025 C11.07675,23.5750751 8.5503,21.0462963 8.5503,17.9266767 Z M36.11005,29.7961962 C33.16595,29.8776777 36.35535,33.2342843 34.71965,38.7192192 C33.084,44.2040541 26.3782,41.9117618 21.8804,39.2923423 C17.3827,36.672973 14.9291,33.2342843 14.602,30.2873373 C14.275,27.3403403 19.26345,24.9948448 19.26345,24.9948448 C25.2428,23.2483984 24.0885,16.3711211 24.0885,16.3711211 C24.4975,13.5876877 26.8689,14.8156156 26.8689,14.8156156 C27.5232,20.7095596 25.56055,24.6389389 25.56055,24.6389389 C24.6302,26.724024 22.6165,28.2411912 22.6165,28.2411912 C26.18365,35.6891892 29.4372,32.0064565 29.4372,32.0064565 C31.106,30.1233233 29.813,28.4867367 29.813,28.4867367 C27.27795,24.7003003 30.95795,24.9948448 30.95795,24.9948448 C44.49225,25.4596597 44.28785,28.4867367 44.28785,28.4867367 C43.97115,32.559009 39.05415,29.7145646 36.11005,29.7961962 Z" id="Shape"></path>
        </g>
    </g>
</svg>