<?xml version="1.0" encoding="UTF-8"?>
<svg width="60px" height="60px" viewBox="0 0 60 60" version="1.1" xmlns="http://www.w3.org/2000/svg" xmlns:xlink="http://www.w3.org/1999/xlink">
    <!-- Generator: Sketch 51.3 (57544) - http://www.bohemiancoding.com/sketch -->
    <title>出国带药 copy</title>
    <desc>Created with Sketch.</desc>
    <defs></defs>
    <g id="出国带药-copy" stroke="none" stroke-width="1" fill="none" fill-rule="evenodd">
        <g id="chuguochujing" transform="translate(6.000000, 6.000000)" fill="#DFDFDF" fill-rule="nonzero">
            <path d="M41.3632042,0.104403183 C38.979756,0.389602122 37.1259629,1.67980902 35.5777401,3.48604775 C34.1110027,5.19724138 32.5831512,6.85413263 31.0824828,8.53814324 C30.315183,9.40055172 29.568191,10.2900796 28.7805199,11.1456764 C28.5088806,11.444435 28.2916074,11.8994164 27.7415809,11.7636286 C27.4156393,11.6821432 27.0828859,11.6210292 26.7569443,11.5395438 C23.6673103,10.772244 20.5844244,10.0116923 17.4947905,9.2375809 C12.3815809,7.96774536 7.27518302,6.6911618 2.16872149,5.41457825 C1.35386737,5.21086472 0.627310345,5.49606366 0.260625995,6.22262069 C-0.0110132626,6.77264721 -0.126429708,7.48564456 0.627310345,8.14433952 C1.12303448,8.5789496 1.65268966,8.97275332 2.16872149,9.37343236 C3.8527321,10.6771989 5.54355438,11.9809655 7.22762865,13.2779204 C8.64681167,14.3711618 10.079618,15.4508435 11.4988011,16.5441485 C13.1760637,17.8343554 14.8397029,19.1313103 16.5169655,20.4215172 C17.2775172,21.0054748 18.0380053,21.589496 18.8392997,22.2006366 C17.1620371,24.0544297 15.5187692,25.8674801 13.8822493,27.6873422 C13.4748223,28.1355119 13.1285093,28.6379841 12.6938992,29.0590345 C12.2661008,29.4732732 11.817931,30.0232997 11.2882759,30.1455279 C8.57207427,30.8042228 5.83556499,31.3474377 3.09899204,31.9246472 C2.35881167,32.0808064 1.92426525,32.6376446 1.89027056,33.3913846 C1.84271618,34.4710663 2.36562334,34.8038196 3.21440849,35.143321 C5.33302918,35.9921061 7.45164987,36.8273316 9.56345889,37.6965517 C9.76717241,37.7780371 9.98444562,37.9953103 10.0727427,38.2058355 C11.0030133,40.426313 11.9197241,42.6467905 12.8228753,44.8808276 C13.2438621,45.9129549 14.3914695,46.1234801 15.1655809,45.654939 C15.7902812,45.274695 15.8513952,44.6567427 15.9872467,44.0184191 C16.4150451,41.9609125 16.8903979,39.9102175 17.3724987,37.8594589 C17.5762122,36.976679 17.5897719,36.0192255 18.458992,35.4080849 C18.9410928,35.0753316 19.3757029,34.6679045 19.810313,34.2808488 C21.6098037,32.6715119 23.4024828,31.0486154 25.2019098,29.4392785 C25.351321,29.3102387 25.5210398,29.208382 25.704382,29.0794058 C25.9352785,29.3714164 26.1321804,29.6022493 26.3155225,29.8467056 C27.5446154,31.4356711 28.7736446,33.0178249 30.0027374,34.6067905 C30.9058886,35.7747692 31.8157878,36.9359363 32.725687,38.0971034 C33.9683395,39.6792573 35.210992,41.2546631 36.4536446,42.830069 C37.6487427,44.3511088 38.8370928,45.8857719 40.0390027,47.4000637 C40.4124987,47.8754164 41.2341008,48.1062493 41.7366366,47.9025358 C42.2798515,47.6784509 42.9861008,47.1556074 42.829878,46.3746844 C42.7008382,45.7159894 42.5718621,45.0573581 42.4020796,44.4122228 C41.3970716,40.5077347 40.378504,36.6099947 39.3735597,32.7122546 C38.3006897,28.5564987 37.2345676,24.393931 36.1752573,20.2314271 C36.1345146,20.0684562 36.1684456,19.8375597 36.2635544,19.7085836 C36.4537082,19.4505676 36.7049125,19.2332308 36.9426207,19.0159576 C38.5180265,17.6171459 40.0933687,16.2115225 41.6755862,14.8194589 C42.4496976,14.1336446 43.2577401,13.4885093 44.0182918,12.7823236 C44.7652202,12.0896976 45.5393316,11.4106313 46.1844668,10.6229602 C47.5969019,8.8982069 48.099374,6.86781963 47.9092202,4.66771353 C47.8005517,3.39112997 47.2912679,2.25033422 46.3338143,1.38111406 C44.9146313,0.0841591512 43.1490716,-0.112806366 41.3632042,0.104530504 L41.3632042,0.104403183 Z M45.0300477,6.44670557 C45.1862069,8.10359682 44.5072042,9.31906631 43.2101857,10.2493369 C42.9046154,10.4666101 42.6126048,10.4734218 42.3206578,10.2221538 C41.6144721,9.61782493 40.9082228,9.02024403 40.1952255,8.4294748 C39.387183,7.75722016 38.5723289,7.0985252 37.7710345,6.42627056 C37.4722759,6.17500265 37.2413793,5.9781008 37.4586525,5.45525729 C38.0222387,4.11755968 39.6044562,2.83416446 41.1730504,2.98351194 C43.0064721,2.88846684 44.8398939,4.47743236 45.0300477,6.44664191 L45.0300477,6.44670557 Z" id="Shape"></path>
        </g>
    </g>
</svg>