<?xml version="1.0" encoding="UTF-8"?>
<svg width="60px" height="60px" viewBox="0 0 60 60" version="1.1" xmlns="http://www.w3.org/2000/svg" xmlns:xlink="http://www.w3.org/1999/xlink">
    <!-- Generator: Sketch 51.3 (57544) - http://www.bohemiancoding.com/sketch -->
    <title>转外备案 copy</title>
    <desc>Created with Sketch.</desc>
    <defs></defs>
    <g id="转外备案-copy" stroke="none" stroke-width="1" fill="none" fill-rule="evenodd">
        <g id="zhuanyi-4" transform="translate(5.000000, 9.000000)" fill="#DFDFDF" fill-rule="nonzero">
            <path d="M8.88132683,28.6407805 C8.88132683,28.6407805 20.3001756,12.7762732 34.5412683,16.7623805 L34.5412683,26.0982634 L49.1370146,15.1589463 C50.4107707,14.0250537 50.1010732,13.3607024 48.8472976,12.2018341 L34.736078,0.0237268293 L34.736078,9.81916098 C34.736078,9.81916098 13.1621463,7.82610732 8.88132683,28.6407805 Z M35.9748683,34.4001561 L35.9748683,36.2683317 C35.9748683,37.2673561 35.1656585,38.0715707 34.1716293,38.0715707 L5.8492878,38.0715707 C4.85026341,38.0715707 4.04604878,37.262361 4.04604878,36.2683317 L4.04604878,15.1939122 C4.04604878,14.1948878 4.85525854,13.3906732 5.8492878,13.3906732 L11.6935805,13.3906732 C13.3219902,11.6823415 15.1252293,10.0739122 16.6936976,9.29467317 L5.81931707,9.29467317 C2.60745366,9.29467317 -7.10542736e-14,11.9021268 -7.10542736e-14,15.1139902 L-7.10542736e-14,36.3132878 C-7.10542736e-14,39.5201561 2.60245854,42.1226146 5.80932683,42.1226146 L34.2215805,42.1226146 C37.4234537,42.1226146 40.015922,39.5301463 40.015922,36.3282732 L40.015922,25.918439 L35.9698732,29.564878 L35.9748683,34.4001561 Z" id="Shape"></path>
        </g>
    </g>
</svg>