<?xml version="1.0" encoding="UTF-8"?>
<svg width="60px" height="60px" viewBox="0 0 60 60" version="1.1" xmlns="http://www.w3.org/2000/svg" xmlns:xlink="http://www.w3.org/1999/xlink">
    <!-- Generator: Sketch 51.3 (57544) - http://www.bohemiancoding.com/sketch -->
    <title>未就业配偶待遇核准</title>
    <desc>Created with Sketch.</desc>
    <defs></defs>
    <g id="未就业配偶待遇核准" stroke="none" stroke-width="1" fill="none" fill-rule="evenodd">
        <g id="banliETC-peiou" transform="translate(6.000000, 5.000000)" fill-rule="nonzero">
            <path d="M11.6109534,10.816777 C11.6109534,16.7616901 16.4302577,21.5809944 22.3751708,21.5809944 C28.3200839,21.5809944 33.1393882,16.7616901 33.1393882,10.816777 C33.1393882,4.87186394 28.3200839,0.0525596578 22.3751708,0.0525596578 C16.4302577,0.0525596578 11.6109534,4.87186394 11.6109534,10.816777 Z" id="Shape" fill="#5FC3FF"></path>
            <path d="M31.6593083,46.7423526 C29.3719121,46.069589 21.1641964,36.3817934 23.1824871,29.5196047 C23.1824871,29.385052 23.3170398,29.2504993 23.3170398,28.9813939 L23.3170398,28.7122885 C23.720698,27.0976558 24.7971198,25.7521287 26.0080942,24.8102597 C26.6808578,24.2720488 26.4117524,23.0610743 25.604436,23.0610743 C24.5280143,22.9265216 23.4515925,22.9265216 22.3751708,22.9265216 C10.1308735,22.9265216 0.039419702,30.8651319 0.0394197572,40.5529276 C0.0394197572,50.3752759 9.99632086,49.9716178 22.3751708,49.9716178 C32.8702828,49.9716178 41.6162094,50.1061705 44.0381583,44.3204036 C44.4418165,43.3785346 43.3653948,42.5712183 42.5580784,43.1094292 C38.1178387,45.8004836 32.6011773,47.1460107 31.6593083,46.7423526 Z" id="Shape" fill="#5FC3FF"></path>
            <path d="M46.3255545,35.4399243 C47.2674236,32.2106591 45.3836855,28.8468412 42.1544203,27.7704194 C40.5397876,27.2322086 38.7906023,27.501314 37.4450752,28.3086303 C36.6377589,26.8285504 35.4267844,25.7521286 33.8121518,25.2139178 C30.5828865,24.2720487 27.2190686,26.1557868 26.1426469,29.385052 L26.1426469,29.6541575 C26.1426469,29.7887102 26.0080942,29.9232629 26.0080942,30.0578156 C24.3934616,35.7090297 31.1210975,43.5130874 32.8702828,44.0512982 C34.2158099,44.4549564 44.5763692,41.6293493 46.1910018,35.9781352 C46.1910018,35.8435825 46.1910018,35.7090298 46.3255545,35.574477 C46.1910018,35.574477 46.3255545,35.574477 46.3255545,35.4399243 Z" id="Shape" fill="#AEE1FF"></path>
        </g>
    </g>
</svg>