<?xml version="1.0" encoding="UTF-8"?>
<svg width="100px" height="100px" viewBox="0 0 100 100" version="1.1" xmlns="http://www.w3.org/2000/svg" xmlns:xlink="http://www.w3.org/1999/xlink">
    <!-- Generator: Sketch 51.3 (57544) - http://www.bohemiancoding.com/sketch -->
    <title>扫码 copy</title>
    <desc>Created with Sketch.</desc>
    <defs></defs>
    <g id="扫码-copy" stroke="none" stroke-width="1" fill="none" fill-rule="evenodd">
        <g id="saoyisao-2" transform="translate(16.000000, 15.000000)" fill="#FFFFFF">
            <path d="M34,0.957746479 C15.2217642,0.957746479 0,16.1801709 0,34.9577823 C0,53.7353936 15.2217642,68.9577465 34,68.9577465 C52.7769474,68.9577465 68,53.735322 68,34.9577823 C68.0000716,16.1800993 52.7769474,0.957746479 34,0.957746479 Z M16.7786779,19.4487554 C16.7786779,18.4584596 17.5777137,17.6557009 18.5637137,17.6557009 L27.489179,17.6557009 C28.5727411,17.6557009 29.4318316,18.6265987 29.2491621,19.7501031 C29.1069348,20.6319566 28.2826316,21.2420962 27.3929768,21.2420962 L21.241339,21.2420962 C20.747659,21.2420962 20.3488211,21.6434398 20.348821,22.1386235 L20.348821,26.5255586 C20.348821,27.4186501 19.7407579,28.2466047 18.8635579,28.390049 C17.7449937,28.573005 16.7786063,27.7107641 16.7786063,26.6214745 L16.7786063,19.448827 L16.7786779,19.4487554 Z M27.489179,53.5191534 L18.5637137,53.5191534 C17.5778568,53.5191534 16.7786779,52.7163947 16.7786779,51.7258841 L16.7786779,44.553165 C16.7786779,43.4641617 17.7450652,42.6017061 18.8636294,42.7844473 C19.7408294,42.928178 20.3488926,43.7561326 20.3488926,44.6492241 L20.3488926,49.0360876 C20.3488926,49.5313429 20.7477305,49.9326865 21.2414106,49.9326865 L27.3930484,49.9326865 C28.2827748,49.9326865 29.1070063,50.5426829 29.2492337,51.4246796 C29.4319031,52.548184 28.5728842,53.5190818 27.4892506,53.5190818 L27.489179,53.5191534 Z M52.4806821,51.7258841 C52.4806821,52.7162515 51.6815748,53.5191534 50.6954316,53.5191534 L41.7698948,53.5191534 C40.6864758,53.5191534 39.8273853,52.5482555 40.0086232,51.4247512 C40.152139,50.5427545 40.9763706,49.932758 41.8661684,49.932758 L48.0178779,49.932758 C48.5101263,49.932758 48.9103957,49.5313429 48.9103958,49.0361592 L48.9103958,44.6492956 C48.9103958,43.7562042 49.518459,42.9282496 50.395659,42.7845905 C51.51408,42.6017777 52.4806106,43.4640902 52.4806106,44.5533082 L52.4806106,51.7258841 L52.4807537,51.7258841 L52.4806821,51.7258841 Z M50.6954316,37.3806606 L18.5636421,37.3806606 C17.5777853,37.3806606 16.7786063,36.5779019 16.7786063,35.5873913 C16.7786063,34.597024 17.5776421,33.7942653 18.5636421,33.7942653 L50.6954316,33.7942653 C51.6815032,33.7942653 52.4806106,34.597024 52.4806106,35.5873198 C52.4806106,36.5777587 51.6815032,37.3806606 50.6954316,37.3806606 Z M52.4806106,26.6216177 C52.4806106,27.7109073 51.5141516,28.5731482 50.3957306,28.3902638 C49.518459,28.2467478 48.9103958,27.4187933 48.9103958,26.5257018 L48.9103958,22.1386951 C48.9103958,21.6434398 48.5100548,21.2421678 48.0179494,21.2421678 L41.7699663,21.2421678 C40.6865474,21.2421678 39.8274569,20.27127 40.0086232,19.1477656 C40.1522106,18.2659121 40.9763706,17.6557725 41.8661684,17.6557725 L50.6954316,17.6557725 C51.6815032,17.6557725 52.4806106,18.4586028 52.4806106,19.4488986 L52.4806106,26.6216177 Z" id="Shape" fill-rule="nonzero"></path>
            <path d="M10,0 L58,0 C63.5228475,-1.01453063e-15 68,4.4771525 68,10 L68,60.8732394 C68,66.3960869 63.5228475,70.8732394 58,70.8732394 L10,70.8732394 C4.4771525,70.8732394 5.58162771e-15,66.3960869 0,60.8732394 L0,10 C-6.76353751e-16,4.4771525 4.4771525,1.01453063e-15 10,0 Z M20.9,13.6623112 C15.9294373,13.6623112 11.9,17.6917485 11.9,22.6623112 L11.9,47.3570338 C11.9,52.3275965 15.9294373,56.3570338 20.9,56.3570338 L47.95,56.3570338 C52.9205627,56.3570338 56.95,52.3275965 56.95,47.3570338 L56.95,22.6623112 C56.95,17.6917485 52.9205627,13.6623112 47.95,13.6623112 L20.9,13.6623112 Z" id="Combined-Shape"></path>
        </g>
    </g>
</svg>