<?xml version="1.0" encoding="UTF-8"?>
<svg width="60px" height="60px" viewBox="0 0 60 60" version="1.1" xmlns="http://www.w3.org/2000/svg" xmlns:xlink="http://www.w3.org/1999/xlink">
    <!-- Generator: Sketch 51.3 (57544) - http://www.bohemiancoding.com/sketch -->
    <title>定点药店</title>
    <desc>Created with Sketch.</desc>
    <defs></defs>
    <g id="定点药店" stroke="none" stroke-width="1" fill="none" fill-rule="evenodd">
        <g id="dianpu-copy" transform="translate(5.000000, 7.000000)" fill="#5FC3FF" fill-rule="nonzero">
            <path d="M50,18.8636364 C50,22.2727273 47.1590909,25.1136364 43.75,25.1136364 C40.3409091,25.1136364 37.5,22.2727273 37.5,18.8636364 C37.5,22.2727273 34.6590909,25.1136364 31.25,25.1136364 C27.8409091,25.1136364 25,22.2727273 25,18.8636364 C25,22.2727273 22.1590909,25.1136364 18.75,25.1136364 C15.3409091,25.1136364 12.5,22.2727273 12.5,18.8636364 C12.5,22.2727273 9.65909091,25.1136364 6.25,25.1136364 C2.84090909,25.1136364 0,22.2727273 0,18.8636364 L4.43181818,7.04545455 L45.6818182,7.04545455 L50,18.8636364 Z M42.1590909,4.65909091 L7.84090909,4.65909091 C6.59090909,4.65909091 5.45454545,3.63636364 5.45454545,2.27272727 C5.45454545,1.02272727 6.47727273,0 7.84090909,0 L42.1590909,0 C43.4090909,0 44.5454545,1.02272727 44.5454545,2.38636364 C44.5454545,3.63636364 43.5227273,4.65909091 42.1590909,4.65909091 Z M7.04545455,27.3863636 C7.27272727,27.3863636 7.5,27.3863636 7.72727273,27.2727273 C7.72727273,27.2727273 7.84090909,27.2727273 7.84090909,27.2727273 C7.95454545,27.2727273 8.06818182,27.2727273 8.18181818,27.1590909 C8.63636364,27.0454545 8.97727273,26.9318182 9.43181818,26.8181818 L9.43181818,38.4090909 L40.6818182,38.4090909 L40.6818182,26.8181818 C41.1363636,26.9318182 41.4772727,27.0454545 41.9318182,27.1590909 C42.0454545,27.1590909 42.1590909,27.1590909 42.2727273,27.2727273 C42.2727273,27.2727273 42.3863636,27.2727273 42.3863636,27.2727273 C42.6136364,27.2727273 42.8409091,27.3863636 43.0681818,27.3863636 C43.2954545,27.3863636 43.6363636,27.3863636 43.8636364,27.3863636 C44.4318182,27.3863636 44.8863636,27.3863636 45.4545455,27.2727273 L45.4545455,43.0681818 C45.4545455,44.3181818 44.4318182,45.4545455 43.0681818,45.4545455 L7.04545455,45.4545455 C5.79545455,45.4545455 4.65909091,44.4318182 4.65909091,43.0681818 L4.65909091,27.2727273 C5.11363636,27.3863636 5.68181818,27.3863636 6.25,27.3863636 C6.47727273,27.3863636 6.81818182,27.3863636 7.04545455,27.3863636 Z" id="Shape"></path>
        </g>
    </g>
</svg>