<?xml version="1.0" encoding="UTF-8"?>
<svg width="60px" height="60px" viewBox="0 0 60 60" version="1.1" xmlns="http://www.w3.org/2000/svg" xmlns:xlink="http://www.w3.org/1999/xlink">
    <!-- Generator: Sketch 51.3 (57544) - http://www.bohemiancoding.com/sketch -->
    <title>关系转移</title>
    <desc>Created with Sketch.</desc>
    <defs></defs>
    <g id="关系转移" stroke="none" stroke-width="1" fill="none" fill-rule="evenodd">
        <g id="jibenyiliaobaoxianguanxijiexu" transform="translate(6.000000, 8.000000)" fill="#F7DD68" fill-rule="nonzero">
            <path d="M41.6665514,8.6235984 L32.7367897,8.6235984 L32.7367897,2.90855094 C32.7367897,1.33804683 31.3987429,0.0510272094 29.7602025,0.0510272094 L17.8595233,0.0510272094 C16.2209829,0.0510272094 14.8829361,1.33804683 14.8829361,2.90855094 L14.8829361,8.6235984 L5.95317444,8.6235984 C2.68176334,8.6235984 0,11.1919679 0,14.3386459 L0,37.193166 C0,40.3398439 2.67609365,42.9082135 5.95317444,42.9082135 L35.9231555,42.9082135 C31.0075343,41.6495423 27.3846024,37.193166 27.3846024,31.8863362 C27.3846024,25.5929804 32.4816537,20.5072685 38.7636701,20.5072685 C42.3469142,20.5072685 45.5332799,22.1571483 47.6197258,24.7425269 L47.6197258,14.3386459 C47.6140561,11.1976376 44.9379625,8.6235984 41.6665514,8.6235984 Z M19.9232904,24.5440877 L14.6788273,24.5440877 L14.6788273,29.5787724 L11.1862982,29.5787724 L11.1862982,24.5440877 L5.94183506,24.5440877 L5.94183506,21.1876313 L11.1862982,21.1876313 L11.1862982,16.1586163 L14.6788273,16.1586163 L14.6788273,21.193301 L19.9232904,21.193301 L19.9232904,24.5440877 Z M29.7602025,8.6235984 L17.8538536,8.6235984 L17.8538536,2.90855094 L29.7602025,2.90855094 L29.7602025,8.6235984 Z" id="Shape"></path>
            <path d="M46.9658104,28.2401884 C47.4325095,29.3218276 47.665859,30.4975224 47.665859,31.7437588 C47.665859,33.0135092 47.4325095,34.189204 46.9658104,35.294357 C46.5224463,36.3759962 45.8924025,37.3400659 45.0990141,38.1630523 C44.3056257,38.9860386 43.3722275,39.6444277 42.3221546,40.1147056 C41.2720817,40.6084974 40.128669,40.8436364 38.9152514,40.8436364 C37.7251687,40.8436364 36.6050909,40.5849835 35.555018,40.1147056 C34.4816101,39.6444277 33.5715469,38.9860386 32.7781585,38.1630523 C32.008105,37.3400659 31.3780613,36.3995101 30.9113622,35.294357 C30.4446631,34.189204 30.2113136,33.0135092 30.2113136,31.7437588 C30.2113136,30.4975224 30.4446631,29.3453415 30.9113622,28.2401884 C31.3547263,27.1585492 31.9847701,26.1944795 32.7781585,25.3714932 C33.5715469,24.5485068 34.5049451,23.8901178 35.555018,23.4198398 C36.6050909,22.926048 37.7251687,22.6909091 38.9152514,22.6909091 C40.128669,22.6909091 41.2720817,22.9495619 42.3221546,23.4198398 C43.3955625,23.8901178 44.3056257,24.5485068 45.0990141,25.3714932 C45.8690676,26.1944795 46.4991113,27.1350353 46.9658104,28.2401884 Z M43.970482,33.4703998 C44.2038315,33.2352608 44.3671762,32.9060663 44.3671762,32.5768718 C44.3671762,32.2476772 44.2271665,31.9184827 43.9938169,31.6833437 L41.7536614,29.4495237 C41.2636273,28.9557319 40.8669331,29.1203291 40.8669331,29.825746 L40.8669331,31.5187465 L36.1532724,31.5187465 C36.0599326,31.5187465 35.9665928,31.4952326 35.873253,31.4717187 C35.6632384,31.3776631 35.4765588,31.2130658 35.4065539,30.9779269 C35.359884,30.8838713 35.359884,30.8133296 35.359884,30.719274 L35.359884,28.3678845 L33.7964421,28.3678845 L33.7964421,30.7427879 C33.7964421,31.0014408 33.843112,31.2600936 33.9131169,31.4952326 C34.1231315,32.1301077 34.6365004,32.6709273 35.2665442,32.9295802 C35.5232287,33.0236358 35.7799132,33.0941775 36.0599326,33.0941775 C37.6467095,33.1176914 39.2568213,33.0941775 40.8435982,33.0941775 L40.8435982,35.3279975 C40.8435982,36.0334144 41.2402924,36.1980117 41.7303264,35.7042199 L43.970482,33.4703998 Z" id="Combined-Shape"></path>
        </g>
    </g>
</svg>