<?xml version="1.0" encoding="UTF-8"?>
<svg width="80px" height="100px" viewBox="0 0 80 100" version="1.1" xmlns="http://www.w3.org/2000/svg" xmlns:xlink="http://www.w3.org/1999/xlink">
    <!-- Generator: Sketch 51.3 (57544) - http://www.bohemiancoding.com/sketch -->
    <title>内科 copy 2</title>
    <desc>Created with Sketch.</desc>
    <defs>
        <filter x="-7.7%" y="-50.0%" width="115.4%" height="200.0%" filterUnits="objectBoundingBox" id="filter-1">
            <feGaussianBlur stdDeviation="1" in="SourceGraphic"></feGaussianBlur>
        </filter>
    </defs>
    <g id="内科-copy-2" stroke="none" stroke-width="1" fill="none" fill-rule="evenodd">
        <g id="Group-5" transform="translate(17.000000, 4.000000)">
            <ellipse id="Oval-4" fill="#E9EDF3" filter="url(#filter-1)" cx="22.5" cy="88" rx="19.5" ry="3"></ellipse>
            <g id="yunfu">
                <path d="M2.04296875,33.2255859 C3.55810547,21.5249023 7.0762285,11.1020117 9.19726563,6.29296875 C11.3183027,1.48392583 15.5554199,0.983398437 17.7370605,0.983398437 C19.9187012,0.983398437 24.7050981,3.71101364 26.5646973,5.66894531 C28.4242964,7.62687699 29.151123,10.0002441 28.7763672,13.6271973 C28.5265299,16.045166 27.5958659,18.285319 25.984375,20.3476562 L24.2548828,22.9609375 L28.7763672,38.8115234 C35.1495768,39.784668 38.5270182,42.332194 38.9086914,46.4541016 C39.2903646,50.5760091 37.2749023,54.6469727 32.8623047,58.6669922 L35.9433594,70.0593262 L30.2001953,71.4023437 L2.04296875,71.4023438 C1.24126115,70.3558595 0.786671311,69.2696779 0.679199219,68.1437988 C0.571727127,67.0179198 0.784885349,65.5748606 1.31867389,63.8146213 L6.78808594,42.6708984 C5.14112806,41.224749 4.0340317,39.9382907 3.46679688,38.8115234 C2.76599138,37.4194286 2.48241552,36.1127909 2.04296875,33.2255859 Z" id="Path-7" fill="#F3F6FB"></path>
                <path d="M33.1294964,50 C27.0035971,50 22,44.9964029 22,38.8705036 C22,37.8417266 22.8417267,37 23.8705036,37 C24.8992805,37 25.7410072,37.8417267 25.7410072,38.8705036 C25.7410072,42.9388489 29.0611511,46.2589928 33.1294964,46.2589928 C34.1582734,46.2589928 35,47.1007195 35,48.1294964 C35,49.1582733 34.1582733,50 33.1294964,50 Z" id="Shape" fill="#278DFF" fill-rule="nonzero"></path>
                <path d="M36.2686359,73 L9.43917405,73 C7.7566485,73 6.21054386,72.2225154 5.16464963,70.8962181 C4.11875532,69.5699209 3.75496608,67.8777484 4.16422898,66.2313105 L14.3958035,25.116095 C14.9869611,22.6921724 17.169697,21 19.6707484,21 L26.0825351,21 C28.5835867,21 30.7208489,22.6921724 31.3574801,25.116095 L33.7675843,34.8117854 C40.6341076,35.6350044 46,41.5347406 46,48.6235708 C46,53.1970097 43.7717905,57.4503078 40.0429499,60.0571679 L41.5890546,66.2313105 C41.9983176,67.8777484 41.6345283,69.5699209 40.5886339,70.8962181 C39.5427396,72.2225154 37.9511614,73 36.2686359,73 Z M19.6707484,24.6587511 C18.8522224,24.6587511 18.1246439,25.2075638 17.9427492,26.0307828 L7.71117483,67.1002638 C7.57475384,67.6490765 7.71117483,68.1978892 8.02949049,68.6552331 C8.34780616,69.112577 8.89349015,69.3412489 9.43917405,69.3412488 L36.2686359,69.3412488 C36.8143198,69.3412488 37.3145302,69.0668425 37.6783194,68.6552331 C38.0421087,68.1978892 38.1330561,67.6490765 37.9966351,67.1002638 L36.1322149,59.6455585 C35.9503202,58.8223395 36.3141095,57.9991205 36.9962145,57.587511 C40.2703184,55.7581355 42.2711596,52.3280563 42.2711595,48.6235708 C42.2711595,43.0439754 37.7692667,38.4705366 32.2214798,38.3790677 C31.4029538,38.3790677 30.6753752,37.7845206 30.4934806,37.0070361 L27.7650607,26.0307828 C27.583166,25.2075638 26.8555874,24.6587512 26.0370615,24.6587511 L19.6707484,24.6587511 Z" id="Shape" fill="#278DFF" fill-rule="nonzero"></path>
                <path d="M12.4541575,42 C12.3186113,42 12.1378831,42 12.0023369,41.9546926 C7.07749355,40.6860842 4.05029629,35.6569579 5.27021159,30.7184466 L10.2854191,10.3754046 C10.5113293,9.46925569 10.8727858,8.60841432 11.3246062,7.83818775 C13.2222522,3.12621363 17.7404572,0 22.7556647,0 C29.5329721,0 35,5.52750813 35,12.2783172 C35,18.0776699 31.0239797,22.9708738 25.4665877,24.2394822 C25.1954953,24.420712 24.8340389,24.5566343 24.4274005,24.5566343 L19.5929212,24.5566343 C18.7796443,24.5566343 18.0567315,25.1003237 17.8760033,25.9158577 L14.2162574,40.6407767 C14.0807112,41.0938512 13.8096189,41.5016182 13.4029804,41.7734629 C13.0867061,41.9093852 12.7704317,42.0000001 12.4541575,42 Z M22.7556647,3.62459552 C19.1862828,3.62459552 15.9331752,5.8899677 14.6680779,9.24271846 C14.6228958,9.3786408 14.5777138,9.46925569 14.4873497,9.55987058 C14.1710753,10.0582525 13.899983,10.6472493 13.7644368,11.236246 L8.7944114,31.5792881 C8.20704474,33.9805826 9.24623191,36.4271845 11.2342421,37.6957929 L14.3969856,25.0550162 C14.9843522,22.6537217 17.1530906,20.9773463 19.6381032,20.9773463 L23.8400338,20.9773463 C23.97558,20.9320389 24.1111261,20.8867314 24.2918543,20.841424 C28.4486029,20.1165049 31.4758002,16.5372169 31.4758002,12.3236246 C31.4306181,7.52103563 27.5449619,3.62459552 22.7556647,3.62459552 Z" id="Shape" fill="#278DFF" fill-rule="nonzero"></path>
            </g>
        </g>
    </g>
</svg>