<?xml version="1.0" encoding="UTF-8"?>
<svg width="60px" height="60px" viewBox="0 0 60 60" version="1.1" xmlns="http://www.w3.org/2000/svg" xmlns:xlink="http://www.w3.org/1999/xlink">
    <!-- Generator: Sketch 51.3 (57544) - http://www.bohemiancoding.com/sketch -->
    <title>流产待遇核准</title>
    <desc>Created with Sketch.</desc>
    <defs></defs>
    <g id="流产待遇核准" stroke="none" stroke-width="1" fill="none" fill-rule="evenodd">
        <g id="lishifenmianjilu01" transform="translate(7.000000, 5.000000)" fill="#F7DD68" fill-rule="nonzero">
            <path d="M19.0089359,17.5405966 C23.8524419,17.5405966 27.7790813,13.6136514 27.7790813,8.77045121 C27.7790813,3.92669037 23.8524419,2.84217094e-14 19.0089359,2.84217094e-14 C14.16543,2.84217094e-14 10.2387906,3.92663942 10.2387906,8.77040021 C10.2387906,13.6136004 14.16543,17.5405966 19.0089359,17.5405966 Z" id="Shape"></path>
            <path d="M21.3506179,43.8369655 C19.2005763,43.7077102 15.1769954,42.277798 15.1769954,39.1974342 C15.1769954,39.1247026 15.1851503,39.0540607 15.1879536,38.9820936 C14.215073,39.8102755 12.9563119,40.3126179 11.5785401,40.3126179 C8.49960343,40.3126179 6.00450722,37.8169611 6.00450722,34.7383302 C6.00450722,31.6599542 8.49960343,29.1639915 11.5785401,29.1639915 C14.6572219,29.1639915 17.1528788,31.6599542 17.1528788,34.7383302 C17.1528788,34.8103992 17.1447239,34.8804805 17.1420735,34.9518869 C18.1156677,34.1224307 19.3755501,33.619171 20.754749,33.619171 C21.9662116,33.619171 23.8434206,34.4828777 25.6757776,35.5301209 C27.6175122,31.6723395 31.6122961,29.0178658 36.2177297,29.0178658 C36.2295543,29.0178658 36.2410731,29.0187832 36.2528977,29.0187832 C35.9727257,27.6717452 35.7091692,26.3541159 35.5065707,25.1593708 C34.5357288,19.4289166 30.7948174,18.5873301 24.9822535,18.5873301 L14.8085974,18.5873301 C8.99628833,18.5873301 6.20313019,19.3639832 3.93367013,25.1593708 C2.68979173,28.3361154 0.514724728,34.6895537 0.074716466,38.046114 C-0.680529986,43.8091878 4.78672453,48.5102887 10.5990336,48.5102887 L27.2885126,48.5102887 C26.001668,47.0191128 25.0787872,45.2057159 24.6652824,43.206795 C23.4169188,43.6306973 22.228086,43.8896156 21.3506179,43.8369655 Z" id="Shape"></path>
            <g id="guanbi-7" transform="translate(27.996716, 32.238643)">
                <path d="M8.48385331,0 C3.80076628,0 0,3.80076628 0,8.48385331 C0,13.1669403 3.80076628,16.9677066 8.48385331,16.9677066 C13.1669403,16.9677066 16.9677066,13.1669403 16.9677066,8.48385331 C16.9677066,3.80076628 13.1669403,0 8.48385331,0 Z M11.9792009,11.8180077 C11.80104,11.9961686 11.4871374,11.9961686 11.3089765,11.8180077 L8.63656267,9.14559387 L5.97263273,11.8180077 C5.79447181,11.9961686 5.48056924,11.9961686 5.30240832,11.8180077 C5.1242474,11.6398467 5.1242474,11.3259442 5.30240832,11.1477833 L7.97482211,8.48385331 L5.31089217,5.81992337 C5.13273125,5.64176245 5.13273125,5.32785988 5.31089217,5.14969896 C5.48905309,4.97153804 5.80295567,4.97153804 5.98111658,5.14969896 L8.64504652,7.80514505 L11.3004926,5.14969896 C11.4871374,4.97153804 11.7925561,4.97153804 11.970717,5.14969896 C12.1488779,5.32785988 12.1488779,5.64176245 11.970717,5.81992337 L9.31527094,8.48385331 L11.9876847,11.1562671 C12.1573618,11.3259442 12.1573618,11.6398467 11.9792009,11.8180077 Z" id="Shape"></path>
            </g>
        </g>
    </g>
</svg>