<?xml version="1.0" encoding="UTF-8"?>
<svg width="60px" height="60px" viewBox="0 0 60 60" version="1.1" xmlns="http://www.w3.org/2000/svg" xmlns:xlink="http://www.w3.org/1999/xlink">
    <!-- Generator: Sketch 51.3 (57544) - http://www.bohemiancoding.com/sketch -->
    <title>就诊信息</title>
    <desc>Created with Sketch.</desc>
    <defs></defs>
    <g id="就诊信息" stroke="none" stroke-width="1" fill="none" fill-rule="evenodd">
        <g id="yisheng-11" transform="translate(5.000000, 5.000000)" fill="#F7DD68" fill-rule="nonzero">
            <path d="M25.0710938,0 C28.6188058,0 31.8337612,1.44118304 34.1577009,3.76746652 C36.484375,6.09648438 37.9227121,9.31328125 37.9227121,12.865904 C37.9227121,16.4171875 36.4843192,19.6339844 34.1577009,21.9616071 C31.8337612,24.2892299 28.6188058,25.7304129 25.0710938,25.7304129 C21.5220424,25.7304129 18.3084263,24.2892299 15.9844866,21.9616071 C13.6578683,19.6339844 12.2194754,16.4171875 12.2194754,12.865904 C12.2194754,9.31328125 13.6578683,6.09648438 15.9844866,3.76746652 C18.3084263,1.44118304 21.5219866,0 25.0710938,0 M35.3112723,27.6440848 L35.3112723,33.249721 C37.0637835,33.6101004 38.1862723,34.5004464 38.8400112,35.2915737 C40.6099888,37.4351004 40.65625,40.3848772 40.5662388,41.7561384 C40.8275112,42.0675781 41.0199777,42.4417969 41.1087612,42.8561384 C41.1425223,43.0131138 41.1637835,43.1738281 41.1637835,43.3421317 C41.1637835,44.6832589 40.1175223,45.7719866 38.8275112,45.7719866 C38.1075335,45.7719866 37.4712612,45.4253906 37.0412388,44.8891741 C36.7012277,44.4685268 36.4912388,43.9348214 36.4912388,43.3421317 C36.4912388,42.5660714 36.8637277,41.9055804 37.4087612,41.4610491 C37.4637835,40.3987165 37.3512835,38.5401786 36.4300223,37.4326451 C35.8325335,36.7143415 34.9387835,36.3652902 33.69375,36.3652902 C32.2787388,36.3652902 31.2987723,36.7407366 30.7,37.5067522 C29.8125,38.6394531 29.8512277,40.5381138 29.9675223,41.4045759 C30.5550223,41.8478237 30.9637835,42.5297433 30.9637835,43.3421875 C30.9637835,44.6833147 29.9200335,45.7720424 28.6287946,45.7720424 C27.3387835,45.7720424 26.2925223,44.6833147 26.2925223,43.3421875 C26.2925223,42.7695871 26.5112723,42.2672991 26.8300223,41.8503906 C26.6725446,40.6699777 26.4837612,37.6700335 28.2425223,35.4222656 C29.1850446,34.2192522 30.4975446,33.484654 32.1425223,33.2071429 L32.1425223,27.3967076 L17.5,27.3967076 C17.4487723,27.3967076 17.3974888,27.4042411 17.3462612,27.4055246 L17.3462612,37.7728795 C18.6362723,38.491183 19.5237723,39.8862723 19.5237723,41.5137277 C19.5237723,43.8657366 17.6925223,45.7719308 15.43125,45.7719308 C13.1699777,45.7719308 11.3375,43.8657366 11.3375,41.5137277 C11.3375,39.7695312 12.3487723,38.2776786 13.7887277,37.6184152 L13.7887277,27.8010603 C5.90876116,29.5113839 0,36.5472656 0,44.9770647 L0,50 L50,50 L50,44.9770647 C50,36.2320871 43.6362723,28.9977679 35.3112723,27.6440848" id="Shape"></path>
        </g>
    </g>
</svg>