<?xml version="1.0" encoding="UTF-8"?>
<svg width="60px" height="60px" viewBox="0 0 60 60" version="1.1" xmlns="http://www.w3.org/2000/svg" xmlns:xlink="http://www.w3.org/1999/xlink">
    <!-- Generator: Sketch 51.3 (57544) - http://www.bohemiancoding.com/sketch -->
    <title>消息</title>
    <desc>Created with Sketch.</desc>
    <defs></defs>
    <g id="消息" stroke="none" stroke-width="1" fill="none" fill-rule="evenodd">
        <g transform="translate(10.000000, 9.000000)" fill="#FFFFFF" fill-rule="nonzero" id="Shape">
            <path d="M16.346381,38.1550884 L24.6917923,38.1550884 L24.6917923,38.2400372 C24.6917923,40.6185633 22.4803437,42.5531915 19.7616157,42.5531915 C17.0422231,42.5531915 14.830816,40.6185633 14.830816,38.2400372 L14.830816,38.1550884 L16.346381,38.1551305 L16.346381,38.1550884 Z M19.3051017,4.39936598 C19.2892324,5.53169473 19.2879446,7.26106496 19.2879446,7.26106496 L16.936829,7.80409782 C16.3967987,7.92861428 15.8649708,8.08718831 15.3444514,8.27889376 C13.9495268,8.79485917 12.7095153,9.52576456 11.6479302,10.4541403 C10.612351,11.3593634 9.81173784,12.3977349 9.25680892,13.5461862 C8.69298985,14.7119389 8.41108031,15.9317843 8.41108031,17.1914942 L8.41108031,27.1039066 C8.41108031,28.7702598 7.56539324,30.2841007 6.18633798,31.2221163 L3.22313059,33.2371892 C3.29296406,33.2552061 3.37172923,33.2648459 3.45992463,33.2648459 L36.4950613,33.2648459 C36.5820519,33.2648459 36.6607756,33.255164 36.7299859,33.2378206 L33.7712236,31.2247262 C32.3902574,30.2860371 31.5451934,28.7735011 31.5451934,27.1065165 L31.5451934,17.1927571 C31.5451934,15.9304372 31.2632839,14.7118968 30.700088,13.5467756 C30.1458237,12.3996713 29.3451691,11.3605842 28.3077204,10.4527932 C27.2505804,9.52761677 26.0105689,8.79612204 24.6124871,8.2794831 C24.0922201,8.08764114 23.5605918,7.92905052 23.0207326,7.80464507 L20.6695755,7.26102287 L20.6695755,4.39932389 L19.3044786,4.39932389 L19.3051017,4.39936598 Z M35.4943364,28.5154974 L38.6549968,30.6656128 C39.2626436,31.0786546 39.6874189,31.6371365 39.8829609,32.2785467 C40.0607641,32.8640119 40.0359631,33.4784389 39.8086823,34.0562006 C39.5826479,34.6326573 39.1712078,35.1325843 38.6201009,35.4986474 C38.0144066,35.8994393 37.2867427,36.1117694 36.5172036,36.1117694 L3.48223312,36.1117694 C2.71144774,36.1117694 1.98444849,35.8988079 1.37933586,35.4973424 C0.828228888,35.1312794 0.416165714,34.6320259 0.190795947,34.0548956 C-0.0352429472,33.4888975 -0.0612639033,32.8611266 0.117140537,32.2779153 C0.312682564,31.6345266 0.738080982,31.0767603 1.34506304,30.663045 L4.50634657,28.5128875 C5.07465227,28.1262396 5.40159422,27.5414059 5.40159422,26.9108984 L5.40159422,16.9984861 C5.40159422,15.2761879 5.78889788,13.6034362 6.55079309,12.0271676 C7.28605936,10.5055811 8.33746644,9.14037961 9.6778038,7.96877569 C11.0187643,6.79721387 12.5781154,5.87654165 14.3171807,5.23315295 C14.9584297,4.99729424 15.6134343,4.80176742 16.2784585,4.64768775 L16.2784585,3.25546095 C16.2784585,1.46042163 17.9483134,0 20.001027,0 C22.0524527,0 23.7216845,1.46042163 23.7235539,3.25546095 L23.7235539,4.64899272 C24.390233,4.80276783 25.0486451,4.99897529 25.6842086,5.23445791 C27.423897,5.87717308 28.9845359,6.79721387 30.3235854,7.96940713 C31.6632997,9.14164248 32.7153714,10.506886 33.449973,12.0278411 C34.2124914,13.6040676 34.5991719,15.2761879 34.5991719,16.9997489 L34.5991719,26.9128348 C34.5991719,27.5433423 34.9242444,28.1281339 35.4944195,28.5148239 L35.4943364,28.5154974 Z M19.3057249,4.39936598 L18.699366,4.39936598 L18.699366,3.55913839 C18.699366,3.02254616 19.1977967,2.58698329 19.8117579,2.58698329 C20.4238497,2.58698329 20.9229036,3.02385112 20.9229036,3.55846486 L20.9229036,4.39936598 L20.6701986,4.39936598 L20.6701986,3.45103697 C20.6701986,3.43302006 20.4422532,3.23357125 19.97876,3.23357125 C19.7076516,3.23357125 19.4784184,3.31847802 19.3406624,3.43941859 C19.3241699,3.4536048 19.3133688,3.85763808 19.3057664,4.39936598 L19.3057249,4.39936598 Z M19.8117579,2.58698329 C19.1977967,2.58698329 18.699366,3.02254616 18.699366,3.55846486 L18.699366,4.39936598 L20.9229036,4.39936598 L20.9229036,3.55913839 C20.9229036,3.02385112 20.4238497,2.58698329 19.8117579,2.58698329 Z M16.346381,38.1551305 L17.8619044,38.1551305 L17.8619044,38.2400372 C17.8619044,38.8396465 18.6314435,39.5125863 19.7616157,39.5125863 C20.8911648,39.5125863 21.6600393,38.8396465 21.6600393,38.2400372 L21.6600393,38.1551305 L24.6917923,38.1551305 L24.6917923,38.2400372 C24.6917923,39.3826794 24.1813142,40.4229872 23.349544,41.1956935 L16.1730228,41.1956935 C15.3412941,40.4229872 14.8307745,39.3826373 14.8307745,38.2400372 L14.8307745,38.1551305 L16.346381,38.1551305 Z"></path>
            <path d="M17.0220566,5.708885 C16.9969639,4.90580259 17.5803482,4.25531915 18.327057,4.25531915 L20.7148582,4.25531915 C21.4601483,4.25531915 22.0862257,4.91160411 22.1106091,5.708885 L22.1268795,6.20600861 C22.1519723,7.00837773 21.568588,7.65957447 20.8218792,7.65957447 L18.434078,7.65957447 C17.6887878,7.65957447 17.0627104,7.00257621 17.038327,6.20600861 L17.0213473,5.708885 L17.0220566,5.708885 Z"></path>
        </g>
    </g>
</svg>