<?xml version="1.0" encoding="UTF-8"?>
<svg width="80px" height="100px" viewBox="0 0 80 100" version="1.1" xmlns="http://www.w3.org/2000/svg" xmlns:xlink="http://www.w3.org/1999/xlink">
    <!-- Generator: Sketch 51.3 (57544) - http://www.bohemiancoding.com/sketch -->
    <title>内科 copy</title>
    <desc>Created with Sketch.</desc>
    <defs>
        <filter x="-7.7%" y="-50.0%" width="115.4%" height="200.0%" filterUnits="objectBoundingBox" id="filter-1">
            <feGaussianBlur stdDeviation="1" in="SourceGraphic"></feGaussianBlur>
        </filter>
    </defs>
    <g id="内科-copy" stroke="none" stroke-width="1" fill="none" fill-rule="evenodd">
        <ellipse id="Oval-4" fill="#E9EDF3" filter="url(#filter-1)" cx="41.5" cy="90" rx="19.5" ry="3"></ellipse>
        <g id="Group-11" transform="translate(6.000000, 6.000000)">
            <path d="M25.6482206,15 C20.6267106,17.2244716 16.8977496,19.878436 14.4613378,22.9618934 C12.024926,26.0453508 10.0263131,30.2370745 8.46549904,35.5370646 C4.15516635,38.0425722 2,40.0177632 2,41.4626377 C2,42.9075122 2.55855744,44.968443 3.67567232,47.6454302 L8.46549904,50.0187556 C17.1782084,61.3395852 25.3406207,67 32.9527359,67 C44.3709086,67 53.5812061,59.6823459 55.4008447,56.7552843 C56.613937,54.8039099 57.8136555,52.2602957 59,49.1244418 C59,43.6771857 59,39.730773 59,37.2852039 C59,33.6168503 55.7052978,23.6978267 52.0860816,19.3489134 C49.6732708,16.4496378 46.2829845,15 41.9152227,15 C39.6337909,17.91039 38.493075,19.9649697 38.493075,21.1637392 C38.493075,22.3625087 35.8434673,22.9618934 30.5442519,22.9618934 L25.6482206,15 Z" id="Path-5" fill="#F3F6FB"></path>
            <path d="M32,66.9405161 C45.6433637,66.0293331 56.4255319,54.7636013 56.4255319,41 C56.4255319,27.2363987 45.6433637,15.9706669 32,15.0594839 C32.5905973,15.0200404 33.1865562,15 33.787234,15 C48.2641449,15 60,26.6405965 60,41 C60,55.3594035 48.2641449,67 33.787234,67 C33.1865562,67 32.5905973,66.9799596 32,66.9405161 Z" id="Combined-Shape" fill="#FFFFFF"></path>
            <path d="M28,12.2372573 L28,18.9787621 C30.1784894,21.6595874 31.6096252,23 32.2934073,23 C32.9771894,23 34.4133643,23 36.6019322,23 L41,17.6186286 L39.0544771,11.1462379 L35.7187137,3 L34.5,3 L32.2934073,4.71116505 L28,12.2372573 Z" id="Path-6" fill="#ADCCFF"></path>
            <g id="haizi" fill="#278DFF" fill-rule="nonzero">
                <path d="M34.4561706,59.5 C29.8540835,59.5 25.5588022,57.6059783 22.3154265,54.1875 C21.6141561,53.4483695 21.6141561,52.2934782 22.3154265,51.5543478 C23.016697,50.8152174 24.112432,50.8152174 24.8137023,51.5543478 C27.399637,54.2798914 30.8183302,55.7581522 34.5,55.7581522 C38.1816698,55.7581522 41.600363,54.2798914 44.1862976,51.5543478 C44.887568,50.8152174 45.983303,50.8152174 46.6845735,51.5543478 C47.3858439,52.2934783 47.3858439,53.4483696 46.6845735,54.1875 C43.353539,57.6059782 39.0582577,59.5 34.4561706,59.5 Z" id="Shape"></path>
                <path d="M34.478451,68 C22.9281699,68 12.5415365,60.9826796 8.18863209,50.4351734 C3.70643346,50.6934797 0,47.0771919 0,42.6859852 C0,38.8544422 2.80137417,35.6686648 6.46470956,35.0228992 C8.27482822,24.0879336 16.5065584,15.004163 27.3241724,12.205845 C28.2292317,11.9475387 29.1773891,12.5072023 29.4359775,13.4543253 C29.6945659,14.3583973 29.134291,15.3055203 28.1861337,15.5638266 C18.2735791,18.1468893 10.817614,26.7140474 9.69706438,36.8740941 C9.61086825,37.7781661 8.83510307,38.4239317 7.93004378,38.3808807 L7.80074958,38.3808807 C5.43035607,38.3808807 3.49094321,40.3181777 3.49094321,42.7290363 C3.49094321,45.1398948 5.43035607,47.0771919 7.84384765,47.0771919 C8.18863217,47.0771919 8.57651476,47.0341408 8.9212992,46.9480387 C9.78326051,46.7327835 10.6883198,47.206345 10.9900063,48.0243149 C14.5240474,57.9691064 23.9625234,64.6420185 34.521549,64.6420185 C45.0805746,64.6420185 54.5621487,57.9691064 58.0530918,48.0243149 C58.3547783,47.163294 59.2598376,46.6897325 60.1217989,46.9480387 C60.5096815,47.0341408 60.854466,47.0771919 61.1992504,47.0771919 C63.612742,47.0771919 65.5521549,45.1398948 65.5521549,42.7290363 C65.5521549,40.3181777 63.612742,38.3808807 61.1992504,38.3808807 L61.0699562,38.3808807 C60.1648968,38.3808807 59.3891318,37.735115 59.3029356,36.8740941 C58.1392879,26.7140474 50.7264209,18.1468893 40.8138663,15.5638266 C39.908807,15.3055203 39.3485322,14.4014484 39.5640225,13.4543253 C39.7795128,12.5072023 40.7276702,11.9905898 41.6758276,12.205845 C52.4934416,15.004163 60.7251718,24.0879335 62.5352904,35.0228992 C66.1986258,35.6686649 69,38.8544422 69,42.6859852 C69,46.9910898 65.5090569,50.4782245 61.1992504,50.4782245 L60.8113679,50.4782245 C56.4153654,61.0257306 46.0287321,68 34.478451,68 Z" id="Shape"></path>
                <path d="M20.5789474,37.0357143 C20.5789474,38.712293 21.9338751,40.0714286 23.6052632,40.0714286 C25.2766512,40.0714286 26.6315789,38.712293 26.6315789,37.0357143 C26.6315789,35.3591356 25.2766512,34 23.6052632,34 C21.9338751,34 20.5789474,35.3591356 20.5789474,37.0357143 Z" id="Shape"></path>
                <path d="M42.3684211,37.0357143 C42.3682423,38.1202108 42.9450157,39.1224036 43.8814345,39.6647036 C44.8178533,40.2070036 45.9716204,40.2070036 46.9080392,39.6647036 C47.844458,39.1224036 48.4212314,38.1202108 48.4210526,37.0357143 C48.4212314,35.9512178 47.844458,34.949025 46.9080392,34.406725 C45.9716204,33.864425 44.8178533,33.864425 43.8814345,34.406725 C42.9450157,34.949025 42.3682423,35.9512178 42.3684211,37.0357143 Z" id="Shape"></path>
                <path d="M33.8731753,24.2857143 C29.2158832,24.2857143 25.4210526,20.7241488 25.4210526,16.3145916 C25.4210526,10.5058479 28.8277755,4.824303 34.9943752,0.329946558 C35.5118521,-0.0516497575 36.2018213,-0.0940493481 36.8055444,0.160348196 C37.3661444,0.45714533 37.7542521,1.0507396 37.754252,1.68673338 C37.754252,5.62989514 38.8323289,7.32587869 39.9966519,9.10666149 C41.1178518,10.802645 42.3684211,12.7530261 42.3684211,16.3145916 C42.325298,20.7241488 38.5304674,24.2857143 33.8731753,24.2857143 Z M34.5631445,5.07870055 C31.8032677,7.6226759 28.8708987,11.4810385 28.8708986,16.3145916 C28.8708986,18.8585669 31.1132985,20.8937472 33.8731753,20.8937472 C36.6330521,20.8937472 38.875452,18.8161673 38.875452,16.3145916 C38.875452,13.7282166 38.0561136,12.4986286 37.0642828,10.9722434 C36.1586982,9.5306574 35.0806214,7.87707336 34.5631445,5.07870055 Z" id="Shape"></path>
            </g>
            <path d="M34,19 C35.6568542,19 37,17.6568542 37,16" id="Oval-6" stroke="#FFFFFF" stroke-linecap="round"></path>
        </g>
    </g>
</svg>