<?xml version="1.0" encoding="UTF-8"?>
<svg width="60px" height="60px" viewBox="0 0 60 60" version="1.1" xmlns="http://www.w3.org/2000/svg" xmlns:xlink="http://www.w3.org/1999/xlink">
    <!-- Generator: Sketch 51.3 (57544) - http://www.bohemiancoding.com/sketch -->
    <title>关系接续 copy</title>
    <desc>Created with Sketch.</desc>
    <defs></defs>
    <g id="关系接续-copy" stroke="none" stroke-width="1" fill="none" fill-rule="evenodd">
        <g id="jieru" transform="translate(6.000000, 6.000000)" fill="#DFDFDF" fill-rule="nonzero">
            <path d="M8.74893615,2.21276594 C8.74893615,1.12340426 7.65957447,0.0340425191 6.57021278,0.0340425702 C5.4808511,0.0340426213 4.39148936,1.12340426 4.39148936,2.21276594 L4.39148936,10.9276596 L0.0340425702,10.9276596 L0.0340425702,24 L13.106383,24 L13.106383,10.9276596 L8.74893615,10.9276596 L8.74893615,2.21276594 Z M17.4638298,32.7148936 C17.4638298,35.5472341 19.2068085,37.9438298 21.8212766,38.8153191 L21.8212766,47.9659574 L26.1787234,47.9659574 L26.1787234,38.8153191 C28.7931915,37.9438298 30.5361702,35.547234 30.5361702,32.7148936 L30.5361702,28.3574468 L17.4638298,28.3574468 L17.4638298,32.7148936 Z M0.0340425702,32.7148936 C0.0340425702,35.5472341 1.77702128,37.9438298 4.39148936,38.8153191 L4.39148936,47.9659574 L8.74893615,47.9659574 L8.74893615,38.8153191 C11.3634042,37.9438298 13.1063829,35.547234 13.106383,32.7148936 L13.106383,28.3574468 L0.0340425702,28.3574468 L0.0340425702,32.7148936 Z M34.893617,32.7148936 C34.893617,35.5472341 36.6365957,37.9438298 39.2510638,38.8153191 L39.2510638,47.9659574 L43.6085106,47.9659574 L43.6085106,38.8153191 C46.2229787,37.9438298 47.9659574,35.547234 47.9659574,32.7148936 L47.9659574,28.3574468 L34.893617,28.3574468 L34.893617,32.7148936 Z M43.6085106,10.9276596 L43.6085106,2.21276594 C43.6085106,1.12340426 42.519149,0.0340425191 41.4297872,0.0340425702 C40.3404255,0.0340426213 39.2510638,1.12340426 39.2510638,2.21276594 L39.2510638,10.9276596 L34.893617,10.9276596 L34.893617,24 L47.9659574,24 L47.9659574,10.9276596 L43.6085106,10.9276596 Z M26.1787234,2.21276594 C26.1787234,1.12340426 25.0893617,0.0340425191 24,0.0340425702 C22.9106383,0.0340426213 21.8212766,1.12340426 21.8212766,2.21276594 L21.8212766,10.9276596 L17.4638298,10.9276596 L17.4638298,24 L30.5361702,24 L30.5361702,10.9276596 L26.1787234,10.9276596 L26.1787234,2.21276594 Z" id="Shape"></path>
        </g>
    </g>
</svg>