<?xml version="1.0" encoding="UTF-8"?>
<svg width="60px" height="60px" viewBox="0 0 60 60" version="1.1" xmlns="http://www.w3.org/2000/svg" xmlns:xlink="http://www.w3.org/1999/xlink">
    <!-- Generator: Sketch 51.3 (57544) - http://www.bohemiancoding.com/sketch -->
    <title>特药备案</title>
    <desc>Created with Sketch.</desc>
    <defs></defs>
    <g id="特药备案" stroke="none" stroke-width="1" fill="none" fill-rule="evenodd">
        <g id="yao-7" transform="translate(11.000000, 6.000000)" fill="#5FC3FF" fill-rule="nonzero">
            <path d="M32.8437757,12.0349346 L28.7394393,12.0349346 C31.0058131,12.0349346 32.8437196,10.2467103 32.8437196,8.04123364 L32.8437196,4.04753271 C32.8437196,1.84149533 31.0058131,0.0537757009 28.7394393,0.0537757009 L8.21607477,0.0537757009 C5.94964486,0.0537757009 4.11168224,1.84143925 4.11168224,4.04753271 L4.11168224,8.04123364 C4.11168224,10.2467664 5.94964486,12.0349346 8.21601869,12.0349346 L4.11168224,12.0349346 C1.84474766,12.0349346 0.0068411215,13.8231589 0.0068411215,16.0286355 L0.0068411215,43.9845981 C0.0068411215,46.1901308 1.84474766,47.978243 4.11168224,47.978243 L32.8437757,47.978243 C35.1107103,47.978243 36.9486168,46.1901308 36.9486168,43.9845981 L36.9486168,16.0286355 C36.9486168,13.8231028 35.1106542,12.0349907 32.8437196,12.0349907 L32.8437757,12.0349346 Z M24.6349907,35.9971963 L20.4746355,35.9971963 L20.4746355,39.9909533 C20.4746355,41.0937196 19.6112523,41.9878879 18.477757,41.9878879 C17.3448224,41.9878879 16.4252523,41.0937196 16.4252523,39.9909533 L16.4252523,35.9971963 L12.3209159,35.9971963 C11.1874206,35.9971963 10.2684673,35.1030841 10.2684673,34.0003178 C10.2684673,32.8975514 11.1874206,32.0034953 12.3209159,32.0034953 L16.4252523,32.0034953 L16.4252523,28.0096822 C16.4252523,26.9068598 17.3447103,26.0128598 18.477757,26.0128598 C19.6112523,26.0128598 20.4746355,26.9068598 20.4746355,28.0096822 L20.4746355,32.0034953 L24.6350467,32.0034953 C25.7680374,32.0034953 26.6870467,32.8975514 26.6870467,34.0003178 C26.6870467,35.1030841 25.7680374,35.9971402 24.6350467,35.9971402 L24.6349907,35.9971963 Z M33.4542056,22.019215 L3.50130841,22.019215 L3.50130841,16.0286355 L33.4542056,16.0286355 L33.4542056,22.019215 Z" id="Shape"></path>
        </g>
    </g>
</svg>