<?xml version="1.0" encoding="UTF-8"?>
<svg width="60px" height="60px" viewBox="0 0 60 60" version="1.1" xmlns="http://www.w3.org/2000/svg" xmlns:xlink="http://www.w3.org/1999/xlink">
    <!-- Generator: Sketch 51.3 (57544) - http://www.bohemiancoding.com/sketch -->
    <title>信息变更</title>
    <desc>Created with Sketch.</desc>
    <defs></defs>
    <g id="信息变更" stroke="none" stroke-width="1" fill="none" fill-rule="evenodd">
        <g id="biangeng-2" transform="translate(7.000000, 6.000000)" fill="#5FC3FF" fill-rule="nonzero">
            <path d="M42.7403517,42.2355203 L42.7403517,10.1442391 L46.2889068,10.1442391 L46.2889068,42.2355203 L42.7403517,42.2355203 Z M46.2889068,42.2355203 C45.7334808,43.2422299 45.0546268,44.2797966 44.5146293,45.2980776 C43.9746318,44.2797966 43.2919206,43.2422299 42.7403517,42.2355203 L46.2889068,42.2355203 Z M42.7403517,7.08168177 C42.7403517,6.03254372 43.5349195,5.18397618 44.5146293,5.18397618 C45.4943391,5.18397618 46.2889068,6.03254372 46.2889068,7.08168177 L46.2889068,9.12595808 L42.7403517,9.12595808 L42.7403517,7.08168177 Z M38.2390866,47.2073546 L1.39968442,47.2073546 C0.645582517,47.2073546 0.0342621314,46.5960342 0.0342621043,45.8419323 L0.0342621043,4.36626565 C0.0342621043,3.61412625 0.647545017,3.00084333 1.39968442,3.00084338 L9.44950461,3.00084338 L9.44950461,4.23126627 C9.44950461,4.90626315 10.0010735,5.45783205 10.6760704,5.4578321 L28.9588436,5.4578321 C29.2848168,5.45885717 29.5977904,5.33008274 29.828651,5.09994583 C30.0595116,4.86980892 30.1892681,4.55724114 30.1892664,4.23126627 L30.1892664,3.00084338 L38.2390866,3.00084338 C38.991226,3.00084338 39.6006518,3.61412629 39.6006518,4.36626565 L39.6006518,45.8419323 C39.6006548,46.5945305 38.9916818,47.2052286 38.2390866,47.2073546 Z M7.89894029,29.7924346 L11.1774967,33.070991 C11.6567987,33.550293 12.4339009,33.550293 12.913203,33.070991 C13.392505,32.5916889 13.392505,31.8145867 12.913203,31.3352847 L11.7329227,30.1511472 L30.8719776,30.1511472 C31.5504563,30.1511472 32.100472,29.6011316 32.100472,28.9226529 C32.100472,28.2441742 31.5504563,27.6941585 30.8719776,27.6941585 L8.77065056,27.6941585 C8.61595596,27.6948235 8.46280201,27.7249307 8.31936692,27.7828724 L8.30393842,27.7905867 C8.27916479,27.8000325 8.25472201,27.8103242 8.23065306,27.8214437 L8.19208177,27.8407293 L8.14579631,27.8677291 L8.08793941,27.9063004 L8.0725109,27.9140146 C7.77248436,28.1208914 7.57998881,28.4504715 7.54719589,28.8134296 C7.51440296,29.1763877 7.64470898,29.5351326 7.9027974,29.7924346 L7.89894029,29.7924346 Z M31.7398308,23.0077515 L28.4612744,19.7291951 C27.9734814,19.3061123 27.2416204,19.3320759 26.7850347,19.7886617 C26.328449,20.2452474 26.3024853,20.9771084 26.7255681,21.4649014 L27.9097055,22.6490388 L8.76679345,22.6490388 C8.08831475,22.6490388 7.53829909,23.1990545 7.53829909,23.8775332 C7.53829909,24.5560119 8.08831475,25.1060275 8.76679345,25.1060275 L30.8681205,25.1060275 C31.0241039,25.1057586 31.1785952,25.0756459 31.3232612,25.0173137 L31.3386897,25.0134566 C31.3648667,25.0015467 31.3905982,24.988681 31.4158323,24.9748853 L31.4505464,24.9594568 L31.500689,24.9285998 L31.5546888,24.8977428 L31.5739744,24.8823143 C31.8721245,24.6747364 32.0629162,24.3456685 32.0949344,23.9837888 C32.1269526,23.6219091 31.9969026,23.264454 31.7398308,23.0077515 Z M25.9580002,3.81855387 L13.6807709,3.81855387 C12.9281727,3.81855687 12.3174746,3.20958388 12.3153486,2.45698871 L12.3153486,1.36542231 C12.3153486,0.609425799 12.9247743,0 13.6807709,0 L25.9580002,0 C26.7139967,0 27.3234225,0.60942575 27.3234225,1.36542231 L27.3234225,2.45698871 C27.3212965,3.20958388 26.7105983,3.81855687 25.9580002,3.81855387 Z" id="Shape"></path>
        </g>
    </g>
</svg>