<?xml version="1.0" encoding="UTF-8"?>
<svg width="60px" height="60px" viewBox="0 0 60 60" version="1.1" xmlns="http://www.w3.org/2000/svg" xmlns:xlink="http://www.w3.org/1999/xlink">
    <!-- Generator: Sketch 51.3 (57544) - http://www.bohemiancoding.com/sketch -->
    <title>社保卡挂失</title>
    <desc>Created with Sketch.</desc>
    <defs></defs>
    <g id="社保卡挂失" stroke="none" stroke-width="1" fill="none" fill-rule="evenodd">
        <g id="Group-2" transform="translate(5.000000, 9.000000)">
            <g id="cardb" transform="translate(5.882353, 0.000000)" fill="#5FC3FF" fill-rule="nonzero">
                <path d="M37.6865951,0.0167722394 L6.41033819,0.0167722394 C2.87691871,0.0167722394 0.00219549304,2.75721675 0.00219549304,6.12557163 L0.00219549304,9.34886522 L44.0946369,9.34886522 L44.0946369,6.12557163 C44.0946874,2.75721675 41.2200146,0.0167722394 37.6865951,0.0167722394 Z M0.00219554228,28.4767033 C0.00219554228,31.845159 2.87686839,34.5855531 6.41033824,34.5855531 L37.6865951,34.5855531 C41.2200146,34.5855531 44.0946874,31.8451086 44.0946874,28.4767033 L44.0946874,15.59673 L0.00219554228,15.59673 L0.00219554228,28.4767033 Z M26.6080223,25.1700712 L35.7782755,25.1700712 C36.6966109,25.1700712 37.4410137,25.9144741 37.4410137,26.8328095 C37.4410137,27.7511448 36.6966109,28.4955477 35.7782755,28.4955477 L26.6080223,28.4955477 C25.689687,28.4955477 24.9452841,27.7511448 24.9452841,26.8328095 C24.9452841,25.9144741 25.689687,25.1700712 26.6080223,25.1700712 Z" id="Shape"></path>
            </g>
            <g id="Group" transform="translate(0.000000, 12.500000)">
                <circle id="Oval-11" stroke="#FFFFFF" fill="#5FC3FF" cx="14.7058824" cy="14.7058824" r="14.7058824"></circle>
                <path d="M13.1882353,8.70588235 L16.5588235,8.70588235 L16.5588235,6.83529412 L18.3764706,6.83529412 L18.3764706,8.70588235 L21.8176471,8.70588235 L21.8176471,10.4529412 L18.3764706,10.4529412 L18.3764706,12.5352941 L22.6117647,12.5352941 L22.6117647,14.3 L12.3941176,14.3 L12.3941176,12.5352941 L16.5588235,12.5352941 L16.5588235,10.4529412 L13.1882353,10.4529412 L13.1882353,8.70588235 Z M13.0294118,16.6470588 L16.5235294,16.6470588 L16.5235294,14.8647059 L18.3411765,14.8647059 L18.3411765,16.6470588 L21.8882353,16.6470588 L21.8882353,18.3941176 L18.3411765,18.3941176 L18.3411765,20.7941176 L22.8235294,20.7941176 L22.8235294,22.5588235 L11.9176471,22.5588235 L11.9176471,20.7941176 L16.5235294,20.7941176 L16.5235294,18.3941176 L13.0294118,18.3941176 L13.0294118,16.6470588 Z M8.67058824,22.9647059 L7.18823529,22.9647059 L6.8,21.2529412 C7.24117647,21.3235294 7.66470588,21.3588235 8.05294118,21.3588235 C8.42352941,21.3588235 8.61764706,21.1294118 8.61764706,20.6882353 L8.61764706,17.2117647 C8.08823529,17.4235294 7.55882353,17.6 7.02941176,17.7764706 L6.57058824,15.9588235 C7.25882353,15.8 7.94705882,15.6058824 8.61764706,15.3941176 L8.61764706,11.6529412 L6.81764706,11.6529412 L6.81764706,9.87058824 L8.61764706,9.87058824 L8.61764706,6.85294118 L10.4529412,6.85294118 L10.4529412,9.87058824 L12.3411765,9.87058824 L12.3411765,11.6529412 L10.4529412,11.6529412 L10.4529412,14.6882353 C11,14.4411765 11.5470588,14.1588235 12.0764706,13.8764706 L12.0764706,15.6764706 C11.5294118,15.9588235 10.9823529,16.2058824 10.4529412,16.4529412 L10.4529412,21.1294118 C10.4529412,22.3470588 9.85294118,22.9647059 8.67058824,22.9647059 Z" id="挂" fill="#FFFFFF"></path>
            </g>
        </g>
    </g>
</svg>