<?xml version="1.0" encoding="UTF-8"?>
<svg width="60px" height="60px" viewBox="0 0 60 60" version="1.1" xmlns="http://www.w3.org/2000/svg" xmlns:xlink="http://www.w3.org/1999/xlink">
    <!-- Generator: Sketch 51.3 (57544) - http://www.bohemiancoding.com/sketch -->
    <title>打印信息</title>
    <desc>Created with Sketch.</desc>
    <defs></defs>
    <g id="打印信息" stroke="none" stroke-width="1" fill="none" fill-rule="evenodd">
        <g id="dayin-2" transform="translate(6.000000, 8.000000)" fill="#C3DB61" fill-rule="nonzero">
            <path d="M40.8,12.3064615 L7.2,12.3064615 C3.12184615,12.3064615 1.42108547e-14,15.5086154 1.42108547e-14,19.6910769 L1.42108547e-14,34.4603077 L9.6,34.4603077 L9.6,44.3076923 L38.4,44.3076923 L38.4,34.4603077 L48,34.4603077 L48,19.6910769 C48,15.5086154 44.8781538,12.3064615 40.8,12.3064615 Z M33.6,39.3858462 L14.4036923,39.3858462 L14.4036923,27.0793846 L33.6018462,27.0793846 L33.6018462,39.3858462 L33.6,39.3858462 Z M40.8461538,22.1058462 C39.3775385,22.1058462 38.3990769,21.1310769 38.3990769,19.6670769 C38.3990769,18.2030769 39.3775385,17.232 40.8452308,17.232 C42.3129231,17.232 43.2876923,18.2030769 43.2876923,19.6670769 C43.2876923,21.1310769 42.3138462,22.1058462 40.8452308,22.1058462 L40.8461538,22.1058462 Z M38.3981538,0 L9.60092308,0 L9.60092308,9.84738462 L38.3990769,9.84738462 L38.3990769,0 L38.3981538,0 Z" id="Shape"></path>
        </g>
    </g>
</svg>