<?xml version="1.0" encoding="UTF-8"?>
<svg width="60px" height="60px" viewBox="0 0 60 60" version="1.1" xmlns="http://www.w3.org/2000/svg" xmlns:xlink="http://www.w3.org/1999/xlink">
    <!-- Generator: Sketch 51.3 (57544) - http://www.bohemiancoding.com/sketch -->
    <title>排队叫号 copy</title>
    <desc>Created with Sketch.</desc>
    <defs></defs>
    <g id="排队叫号-copy" stroke="none" stroke-width="1" fill="none" fill-rule="evenodd">
        <path d="M29.8426966,53.5505618 C28.6685393,53.5505618 27.2865169,52.8033708 25.8988764,51.4157303 L15.3426966,40.8651685 L10.5449438,40.8651685 C7.45505618,40.8651685 5,38.4157303 5,35.3202247 L5,24.2359551 C5,21.1460674 7.4494382,18.6910112 10.5449438,18.6910112 L15.3426966,18.6910112 L25.8988764,8.13483146 C27.2865169,6.74719101 28.6685393,6 29.8426966,6 C31.2303371,6 32.7191011,6.85393258 32.7191011,9.41011236 L32.7191011,50.1348315 C32.6123596,52.6966292 31.1235955,53.5505618 29.8426966,53.5505618 Z M39.1179775,42.3595506 C38.6910112,42.3595506 38.3707865,42.252809 38.0505618,42.0393258 C37.1966292,41.3988764 36.9831461,40.3314607 37.6235955,39.4831461 L38.3707865,38.4157303 C40.2921348,35.8595506 41.994382,33.511236 41.994382,29.7808989 C41.994382,25.8370787 40.5,23.8089888 38.6910112,21.3595506 L37.7303371,20.0786517 C37.0898876,19.2247191 37.3033708,18.0505618 38.1573034,17.5224719 C39.011236,16.988764 40.1853933,17.0955056 40.7134831,17.9494382 L41.6741573,19.2303371 C43.7022472,21.8932584 45.7247191,24.5617978 45.7247191,29.7865169 C45.7247191,34.7977528 43.488764,37.994382 41.4606742,40.6573034 L40.7191011,41.6123596 C40.2921348,42.0393258 39.6516854,42.3595506 39.1179775,42.3595506 Z M45.4101124,48.6460674 C44.9831461,48.6460674 44.5561798,48.5393258 44.2359551,48.2191011 C43.488764,47.5786517 43.3820225,46.4044944 44.0224719,45.5561798 C47.752809,41.2921348 51.1629213,36.494382 51.1629213,29.7808989 C51.1629213,23.0674157 47.752809,18.1629213 44.0224719,14.005618 C43.3820225,13.258427 43.3820225,12.0842697 44.2359551,11.3426966 C44.9831461,10.7022472 46.1573034,10.7022472 46.8988764,11.5561798 C50.8426966,16.1404494 55,21.7921348 55,29.7865169 C55,37.7808989 50.9494382,43.5393258 46.8988764,48.0168539 C46.4719101,48.4325843 45.9382022,48.6460674 45.4101124,48.6460674 Z" id="Shape" fill="#DFDFDF" fill-rule="nonzero"></path>
    </g>
</svg>