<?xml version="1.0" encoding="UTF-8"?>
<svg width="100px" height="100px" viewBox="0 0 100 100" version="1.1" xmlns="http://www.w3.org/2000/svg" xmlns:xlink="http://www.w3.org/1999/xlink">
    <!-- Generator: Sketch 51.3 (57544) - http://www.bohemiancoding.com/sketch -->
    <title>缴费支付</title>
    <desc>Created with Sketch.</desc>
    <defs></defs>
    <g id="缴费支付" stroke="none" stroke-width="1" fill="none" fill-rule="evenodd">
        <g id="jiaofei-" transform="translate(12.000000, 16.000000)" fill="#FFFFFF" fill-rule="nonzero">
            <path d="M64.6582857,33.1580953 L64.6582857,64.6582857 C64.6582857,66.4895567 63.1737473,67.9740952 61.3424762,67.9740953 L14.9211429,67.9740953 C13.0898718,67.9740952 11.6053334,66.4895567 11.6053334,64.6582857 L11.6053334,16.5790477 L64.6582857,16.5790477 L64.6582857,33.1580953 Z M6.6316191,33.1580953 L3.31580955,33.1580953 C1.4845385,33.1580953 0,31.6735568 0,29.8422857 L0,3.31580955 C-2.76096606e-16,1.4845385 1.4845385,0 3.31580955,0 L72.9478095,0 C74.7790806,0 76.2636191,1.4845385 76.2636191,3.31580955 L76.2636191,29.8422857 C76.2636191,31.6735568 74.7790806,33.1580953 72.9478095,33.1580953 L69.632,33.1580953 L69.632,14.9211429 C69.632,13.0898719 68.1474615,11.6053334 66.3161905,11.6053334 L9.94742857,11.6053334 C8.11615758,11.6053334 6.63161914,13.0898719 6.6316191,14.9211429 L6.6316191,33.1580953 Z M34.2125227,34.1876541 L26.5264762,34.1876541 L26.5264762,39.1613684 L36.4739048,39.1613684 L36.4739048,42.477178 L26.5264762,42.477178 L26.5264762,47.4508922 L36.4739048,47.4508922 L36.4739048,54.0825113 L41.4476191,54.0825113 L41.4476191,47.4508922 L51.3950477,47.4508922 L51.3950477,42.477178 L41.4476191,42.477178 L41.4476191,39.1613684 L51.3950477,39.1613684 L51.3950477,34.1876541 L43.7090011,34.1876541 L49.5116678,28.3849874 L45.9952518,24.8685714 L38.960762,31.9030614 L31.926272,24.8685714 L28.409856,28.3849874 L34.2125227,34.1876541 Z" id="Shape"></path>
        </g>
    </g>
</svg>