<?xml version="1.0" encoding="UTF-8"?>
<svg width="80px" height="100px" viewBox="0 0 80 100" version="1.1" xmlns="http://www.w3.org/2000/svg" xmlns:xlink="http://www.w3.org/1999/xlink">
    <!-- Generator: Sketch 51.3 (57544) - http://www.bohemiancoding.com/sketch -->
    <title>内科</title>
    <desc>Created with Sketch.</desc>
    <defs>
        <filter x="-7.7%" y="-50.0%" width="115.4%" height="200.0%" filterUnits="objectBoundingBox" id="filter-1">
            <feGaussianBlur stdDeviation="1" in="SourceGraphic"></feGaussianBlur>
        </filter>
    </defs>
    <g id="内科" stroke="none" stroke-width="1" fill="none" fill-rule="evenodd">
        <g id="Group-5" transform="translate(8.000000, 4.000000)">
            <path d="M0.111570772,13.7177734 C0.828020196,19.7916391 5.92234066,30.9257812 8.07489269,33.4174805 C10.2274447,35.9091797 14.2125277,38.8075931 16.9351962,39.4381239 C18.7503085,39.8584778 20.9165088,39.8584778 23.4337973,39.4381239 L29.0986942,40.3227539 C31.3571929,34.714681 33.3975161,30.7664388 35.2196638,28.4780273 C37.9528853,25.0454102 40,14.4140625 40,11.1385367 C40,8.95485288 39.632752,6.28041876 38.898256,3.11523437 L35.9511036,0.806152344 L30.7365277,0 L22.6922958,3.99157266 L17.7949945,0.806152344 L11.8292988,0 C8.80337569,0.240122379 6.45321916,0.796437483 4.77882923,1.66894531 C2.26724433,2.97770706 -0.604878651,7.64390782 0.111570772,13.7177734 Z" id="Path-4" fill="#F3F6FB"></path>
            <circle id="Oval-3" fill="#E0E9F8" cx="54.5" cy="60.5" r="6.5"></circle>
            <path d="M54.5,64 C56.4329966,64 58,62.4329966 58,60.5" id="Oval-7" stroke="#FFFFFF" stroke-width="2" stroke-linecap="round"></path>
            <ellipse id="Oval-4" fill="#E9EDF3" filter="url(#filter-1)" cx="30.5" cy="89" rx="19.5" ry="3"></ellipse>
            <g id="tijian" transform="translate(3.000000, 8.000000)" fill="#278DFF" fill-rule="nonzero">
                <path d="M22.9093852,45 L19.3495146,45 C16.9021036,45 14.8996764,42.975 14.8996764,40.5 L14.8996764,34.65 C14.8996764,32.175 16.9021036,30.15 19.3495146,30.15 L22.9093852,30.15 C25.3567962,30.15 27.3592234,32.175 27.3592234,34.65 L27.3592234,40.5 C27.3592234,42.975 25.3567962,45 22.9093852,45 Z M19.3495146,33.75 C18.8600323,33.75 18.4595469,34.155 18.459547,34.65 L18.459547,40.5 C18.459547,40.995 18.8600324,41.4 19.3495146,41.4 L22.9093852,41.4 C23.3988674,41.4 23.7993528,40.995 23.7993528,40.5 L23.7993528,34.65 C23.7993528,34.155 23.3988673,33.75 22.9093852,33.75 L19.3495146,33.75 Z M12.2297734,12.6000001 C8.80339808,12.6000001 6,9.76500003 6,6.29999998 C6,2.83499994 8.80339808,0 12.2297734,0 C15.6561488,0 18.4595469,2.83500002 18.459547,6.29999998 C18.4595471,9.76499994 15.6561489,12.6 12.2297734,12.6000001 Z M12.2297734,3.60000005 C10.7613269,3.60000005 9.55987052,4.81500001 9.5598706,6.29999998 C9.55987069,7.78499995 10.7613269,9 12.2297734,9 C13.69822,9 14.8996764,7.78500004 14.8996764,6.29999998 C14.8996764,4.81499993 13.6982201,3.59999997 12.2297734,3.60000005 Z M52.5453075,72 C47.8729773,72 44.0906149,68.175 44.0906149,63.45 C44.0906149,58.725 47.8729773,54.9 52.5453075,54.8999999 C57.2176376,54.8999999 61,58.7249999 61,63.45 C61,68.1750001 57.1731392,72 52.5453075,72 Z M52.5453075,58.5 C49.8309061,58.5 47.6504854,60.705 47.6504854,63.45 C47.6504854,66.195 49.8309061,68.4 52.5453075,68.3999999 C55.2597088,68.3999999 57.4401295,66.195 57.4401295,63.45 C57.4401295,60.7050001 55.2152104,58.5 52.5453075,58.5 Z" id="Shape"></path>
                <path d="M28.9998227,72 C23.4906611,72 19,67.5779412 19,62.1529411 L19,42.8235294 C19,41.8205882 19.8333186,41 20.851819,41 C21.8703194,41 22.703638,41.8205883 22.7036381,42.8235294 L22.7036381,62.1529411 C22.7036381,65.5720587 25.5276621,68.3529411 28.9998227,68.3529411 C32.4719833,68.3529411 35.2960073,65.5720587 35.2960073,62.1529411 C35.2960073,61.1499999 36.1293258,60.3294117 37.1478262,60.3294117 C38.1663267,60.3294117 38.9996452,61.15 38.9996452,62.1529411 C39.0459407,67.5779412 34.5552796,72 28.9998227,72 Z" id="Shape"></path>
                <path d="M37.2258862,64 C36.2283594,64 35.4122012,63.1910112 35.4122012,62.2022472 L35.4122012,51.1011236 C35.4122012,45.752809 39.8103875,41.3932584 45.2061006,41.3932585 C50.6018138,41.3932585 55.0000001,45.7528091 55,51.1011236 L55,56.6292135 C55,57.6179776 54.1838417,58.4269663 53.1863149,58.4269663 C52.1887882,58.4269663 51.3726299,57.6179775 51.3726299,56.6292135 L51.3726299,51.0561798 C51.3726299,47.6853933 48.6067601,44.9438203 45.2061006,44.9438203 C41.8054411,44.9438203 39.0395714,47.6853933 39.0395713,51.0561798 L39.0395713,62.1573034 C39.0395713,63.1910113 38.223413,64 37.2258862,64 Z M15.8697445,39.3707865 C14.2374279,39.3707865 11.063479,39.0112359 8.7510305,36.5842697 C5.84913435,33.4382023 0,21.4831461 0,13.9775281 C0,5.61797758 3.85408077,4.49438203 7.57213524,4.49438203 C8.56966207,4.49438203 9.3858203,5.30337082 9.3858203,6.29213482 C9.3858203,7.28089882 8.56966199,8.08988761 7.57213524,8.0898877 C5.35037102,8.0898877 3.62737021,8.0898877 3.62737013,13.9775281 C3.62737013,20.6741573 9.15910966,31.7303371 11.426216,34.1123596 C13.2399011,36.0898877 16.41385,35.7303371 16.4591921,35.7303371 C17.456719,35.5955056 18.3635614,36.3146068 18.4542457,37.3033708 C18.5902721,38.2921349 17.864798,39.1910112 16.8672712,39.3258427 C16.8672712,39.3258427 16.459192,39.3707865 15.8697445,39.3707865 Z M30.2885408,12.5842697 C26.797197,12.5842697 23.940643,9.75280902 23.940643,6.29213482 C23.940643,2.83146061 26.797197,0 30.2885408,0 C33.7798845,0 36.6364386,2.8314607 36.6364386,6.29213482 C36.6364386,9.75280894 33.7798845,12.5842696 30.2885408,12.5842697 Z M30.2885408,3.59550567 C28.7922506,3.59550567 27.5680131,4.80898878 27.5680132,6.29213482 C27.5680133,7.77528086 28.7922506,8.98876405 30.2885408,8.98876405 C31.7848309,8.98876405 33.0090684,7.77528094 33.0090684,6.29213482 C33.0090684,4.80898869 31.784831,3.59550559 30.2885408,3.59550567 Z" id="Shape"></path>
                <path d="M26.7147614,40 C26.108148,40 25.7348473,39.954955 25.6415222,39.954955 C24.6149455,39.8198198 23.915007,38.9189189 24.0083321,37.9279279 C24.1483198,36.9369369 25.0815714,36.2612613 26.108148,36.3513514 C26.108148,36.3513514 29.3745282,36.7117118 31.2410312,34.7297298 C33.5741599,32.2972973 39.266994,21.2612613 39.266994,14.5045045 C39.266994,8.60360366 37.4471536,8.60360366 35.20735,8.60360366 C34.1807733,8.60360366 33.340847,7.79279282 33.340847,6.80180179 C33.340847,5.81081076 34.1807734,5 35.20735,5 C39.0803437,5 43,6.12612608 43,14.5045045 C43,22.0270271 36.9805279,34.009009 33.9941231,37.1621622 C31.7076569,39.6396397 28.3946141,40.0000001 26.7147614,40 Z" id="Shape"></path>
            </g>
        </g>
    </g>
</svg>