<?xml version="1.0" encoding="UTF-8"?>
<svg width="60px" height="60px" viewBox="0 0 60 60" version="1.1" xmlns="http://www.w3.org/2000/svg" xmlns:xlink="http://www.w3.org/1999/xlink">
    <!-- Generator: Sketch 51.3 (57544) - http://www.bohemiancoding.com/sketch -->
    <title>办事进度 copy</title>
    <desc>Created with Sketch.</desc>
    <defs></defs>
    <g id="办事进度-copy" stroke="none" stroke-width="1" fill="none" fill-rule="evenodd">
        <g id="diannao" transform="translate(6.000000, 6.000000)" fill="#DFDFDF" fill-rule="nonzero">
            <path d="M41.7706832,38.9664671 L30.9535152,38.9664671 L30.9535152,44.9528222 L34.0438904,44.9528222 C34.8974275,44.9528222 35.5894199,45.6225474 35.5894199,46.4506665 C35.5894199,47.2763022 34.8973705,47.946524 34.0438904,47.946524 L15.5014681,47.946524 C14.6469623,47.946524 13.9555398,47.2763022 13.9555398,46.4506665 C13.9555398,45.6225473 14.6469623,44.9528222 15.5014681,44.9528222 L18.5908747,44.9528222 L18.5908747,38.9664671 L6.22920284,38.9664671 C2.81630812,38.9664671 0.0489082691,36.2861316 0.0489082691,32.9800569 L0.0489082691,6.03894801 C0.0489082691,2.73386675 2.81630812,0.0535863371 6.22920284,0.0535863371 L41.7706832,0.0535863371 C45.1836919,0.0535863371 47.9510348,2.73386675 47.9510348,6.03894801 L47.9510348,32.9800569 C47.9510348,36.2860764 45.1837489,38.9664671 41.7706832,38.9664671 Z M44.8620841,29.9853617 L3.13934044,29.9853617 L3.13934044,32.9800569 C3.13934044,34.6323216 4.52172974,35.9727653 6.22920284,35.9727653 L41.7706832,35.9727653 C43.4781563,35.9727653 44.8620841,34.6323768 44.8620841,32.9800569 L44.8620841,29.9853617 Z" id="Shape"></path>
        </g>
    </g>
</svg>