<?xml version="1.0" encoding="UTF-8"?>
<svg width="60px" height="60px" viewBox="0 0 60 60" version="1.1" xmlns="http://www.w3.org/2000/svg" xmlns:xlink="http://www.w3.org/1999/xlink">
    <!-- Generator: Sketch 51.3 (57544) - http://www.bohemiancoding.com/sketch -->
    <title>缴费信息</title>
    <desc>Created with Sketch.</desc>
    <defs></defs>
    <g id="缴费信息" stroke="none" stroke-width="1" fill="none" fill-rule="evenodd">
        <g id="参保" transform="translate(10.000000, 7.000000)" fill="#5FC3FF" fill-rule="nonzero">
            <g id="CombinedShape" transform="translate(0.500000, 0.000000)">
                <path d="M34.9413722,0 C37.5950365,0 39.7664233,2.08007301 39.7664233,4.62216059 L39.7664233,41.3778394 C39.7664233,43.9200949 37.5952117,46 34.9413722,46 L4.82505108,46 C2.17121166,46 0,43.919927 0,41.3778394 L0,4.62216059 C0,2.07990509 2.17121166,0 4.82505108,0 L34.9413722,0 Z M31.6064233,39.1167883 C32.4364379,39.1167883 33.1093138,38.4754745 33.1093139,37.6842409 C33.1093139,36.8930073 32.4366131,36.2515256 31.6064233,36.2515256 L8.16,36.2515256 C7.32998541,36.2515256 6.6571095,36.8928394 6.65710945,37.6842409 C6.65710945,38.4754744 7.32981019,39.1167883 8.16,39.1167883 L31.6064233,39.1167883 Z M31.6064233,31.2375256 C32.4364379,31.2375256 33.1093138,30.5962117 33.1093139,29.8048102 C33.1093139,29.0135767 32.4366131,28.3722628 31.6064233,28.3722628 L8.16,28.3722628 C7.32963502,28.3722628 6.65693428,29.0135766 6.65693428,29.8048102 C6.65693428,30.5960438 7.32963502,31.2375256 8.15982478,31.2375256 L31.6064233,31.2375256 Z M25.4844963,18.438781 L21.3764671,18.438781 L21.3764671,15.992219 L25.4844963,15.992219 C26.3092554,15.992219 26.977927,15.3463723 26.977927,14.5497664 C26.977927,13.7531606 26.3092554,13.1074818 25.4844963,13.1074818 L22.0001168,13.1074818 L25.895124,9.34555474 C26.4784817,8.78230657 26.4784817,7.86902189 25.895124,7.30577373 C25.616137,7.0354296 25.2358773,6.88329868 24.839124,6.88329868 C24.4423708,6.88329868 24.062111,7.0354296 23.783124,7.30577373 L19.8832117,11.0724015 L15.983124,7.30577373 C15.704137,7.0354296 15.3238773,6.88329868 14.927124,6.88329868 C14.5303708,6.88329868 14.150111,7.0354296 13.871124,7.30577373 C13.2877664,7.86902189 13.2877664,8.78230657 13.871124,9.34555474 L17.7663066,13.1074818 L14.281927,13.1074818 C13.4568175,13.1074818 12.7883212,13.7531606 12.7883212,14.5497664 C12.7883212,15.3463723 13.4569927,15.992219 14.2817518,15.992219 L18.389781,15.992219 L18.389781,18.438781 L14.2817518,18.438781 C13.4569927,18.438781 12.7883212,19.0846277 12.7883212,19.8812336 C12.7883212,20.6778394 13.4569927,21.3236861 14.2817518,21.3236861 L18.389781,21.3236861 L18.389781,22.8292628 C18.389781,23.5726496 19.0584525,24.1751825 19.8832117,24.1751825 C20.7079708,24.1751825 21.3766423,23.5724818 21.3766423,22.8292628 L21.3766423,21.3236861 L25.4846715,21.3236861 C26.3094306,21.3236861 26.9781022,20.6778395 26.9781022,19.8812336 C26.9781022,19.0846277 26.3094306,18.438781 25.4846715,18.438781 L25.4844963,18.438781 Z" id="Shape"></path>
            </g>
        </g>
    </g>
</svg>