<?xml version="1.0" encoding="UTF-8"?>
<svg width="60px" height="60px" viewBox="0 0 60 60" version="1.1" xmlns="http://www.w3.org/2000/svg" xmlns:xlink="http://www.w3.org/1999/xlink">
    <!-- Generator: Sketch 51.3 (57544) - http://www.bohemiancoding.com/sketch -->
    <title>慢病备案</title>
    <desc>Created with Sketch.</desc>
    <defs></defs>
    <g id="慢病备案" stroke="none" stroke-width="1" fill="none" fill-rule="evenodd">
        <g id="bingjia" transform="translate(5.000000, 5.000000)" fill="#F7DD68" fill-rule="nonzero">
            <path d="M43.4696117,25 L48.0861572,29.6171789 C50.6379476,32.1693194 50.6379476,36.2993963 48.0861572,38.8515368 L38.8530663,48.079034 C36.3012759,50.6311745 32.1717657,50.6311745 29.6199753,48.079034 L25.0034298,43.4687157 L20.3868843,48.0858946 C17.835094,50.6380351 13.7055838,50.6380351 11.1537934,48.0858946 L1.91384278,38.8515368 C-0.637947592,36.2993963 -0.637947592,32.1693194 1.91384278,29.6171789 L6.53038826,25 L1.91384278,20.3828211 C-0.637947592,17.8306806 -0.637947592,13.7006037 1.91384278,11.1484632 L11.1469337,1.91410538 C13.6987241,-0.638035126 17.8282343,-0.638035126 20.3800247,1.91410538 L24.9965702,6.5312843 L29.6131157,1.91410538 C32.164906,-0.638035126 36.2944162,-0.638035126 38.8462066,1.91410538 L48.0792976,11.1484632 C50.6310879,13.7006037 50.6310879,17.8306806 48.0792976,20.3828211 L43.4696117,25 Z M36.3081355,22.187157 L27.8364659,22.187157 L27.8364659,13.7143249 L22.1909727,13.7143249 L22.1909727,22.187157 L13.7193031,22.187157 L13.7193031,27.8334248 L22.1909727,27.8334248 L22.1909727,36.3062569 L27.8364659,36.3062569 L27.8364659,27.8334248 L36.3081355,27.8334248 L36.3081355,22.187157 Z" id="Shape"></path>
        </g>
    </g>
</svg>