<?xml version="1.0" encoding="UTF-8"?>
<svg width="60px" height="60px" viewBox="0 0 60 60" version="1.1" xmlns="http://www.w3.org/2000/svg" xmlns:xlink="http://www.w3.org/1999/xlink">
    <!-- Generator: Sketch 51.3 (57544) - http://www.bohemiancoding.com/sketch -->
    <title>社保卡补换</title>
    <desc>Created with Sketch.</desc>
    <defs></defs>
    <g id="社保卡补换" stroke="none" stroke-width="1" fill="none" fill-rule="evenodd">
        <g id="yichangbulu" transform="translate(5.000000, 6.000000)" fill="#9BE5F6" fill-rule="nonzero">
            <path d="M45.2469667,8.0888454 L28.5816047,8.0888454 C29.709838,10.2742388 30.298709,12.6978966 30.2990215,15.1573386 C30.2990215,23.6818004 23.4121331,30.5921722 14.9142857,30.5921722 C12.2640097,30.5927611 9.65917987,29.9037869 7.35577299,28.592955 L7.35577299,42.6579256 C7.35317742,45.2771555 9.47392182,47.4028058 12.0931507,47.4062622 L45.2454012,47.4062622 C46.5032057,47.4050178 47.7089533,46.9039484 48.5971806,46.0133721 C49.4854078,45.1227959 49.9832909,43.9157291 49.9812133,42.6579256 L49.9812133,12.8403131 C49.9845392,11.582112 49.4873725,10.3742359 48.5993036,9.48293651 C47.7112346,8.59163715 46.5051716,8.09008799 45.2469667,8.0888454 Z M37.0136986,36.0027397 L35.5671233,37.8187867 C34.74497,37.1659669 33.9146369,36.5235155 33.0763209,35.8915851 L33.0763209,42.0144814 L30.6575342,42.0144814 L30.6575342,35.3248532 C30.0203523,35.9714286 29.3393346,36.6289628 28.6223092,37.2990215 C28.4019581,36.4074846 28.1402267,35.526688 27.8379648,34.6594912 C29.5068493,33.3084149 30.9252446,31.8727984 32.0853229,30.3448141 L28.169863,30.3448141 L28.169863,28.0763209 L31.2947162,28.0763209 C30.734009,27.246077 30.1444782,26.4356679 29.5272016,25.6465753 L31.5264188,24.5131115 C32.3170254,25.4446184 33.009002,26.3291585 33.5992172,27.1651663 L32.0665362,28.0763209 L34.9048924,28.0763209 L34.9048924,30.1726027 C34.3370594,31.0269283 33.7256852,31.8514997 33.0731898,32.6430528 L33.0731898,33.4618395 C33.3189824,33.609002 33.5585127,33.7561644 33.7886497,33.9080235 C34.3992172,33.0344423 34.9800391,32.1608611 35.532681,31.290411 L37.2704501,32.3894325 C36.6270059,33.2504892 35.9726027,34.0802348 35.3119374,34.8786693 L37.0136986,36.0027397 Z M43.5264188,35.7272016 C42.5263762,34.6017593 41.4990656,33.5008456 40.4454012,32.4254403 L40.4454012,42.016047 L37.9217221,42.016047 L37.9217221,24.7949119 L40.4454012,24.7949119 L40.4454012,30.776908 L41.2970646,30.0176125 C42.7133845,31.2478253 44.0891977,32.5239116 45.4223092,33.8438356 L43.5264188,35.7272016 Z" id="Shape"></path>
            <path d="M14.6434442,0.0371819961 C6.57142857,0.0371819961 0.0273972603,6.60313112 0.0273972603,14.7017613 C0.0273972603,22.8003914 6.57142857,29.364775 14.6434442,29.364775 C22.7154599,29.364775 29.2594912,22.8003914 29.2594912,14.7017613 C29.2594912,6.60313112 22.7154599,0.0371819961 14.6434442,0.0371819961 Z M16.4500978,5.91585127 L15.992955,18.2367906 L12.9917808,18.2367906 L12.5549902,5.91585127 L16.4500978,5.91585127 Z M16.0837573,23.4203523 C15.7031106,23.7969511 15.1866544,24.0040981 14.651272,23.9949119 C13.9483366,23.9949119 13.3894325,23.8039139 12.9729941,23.4203523 C12.5693764,23.0668288 12.3410578,22.5541133 12.3483366,22.0176125 C12.3483366,21.4430528 12.5581213,20.97182 12.9776908,20.6039139 C13.4066273,20.2327183 13.9589948,20.0355639 14.5260274,20.051272 C15.1444227,20.051272 15.6594912,20.2375734 16.0665362,20.6086106 C16.4735812,20.9796477 16.6802348,21.4508806 16.6802348,22.016047 C16.6889975,22.5474471 16.4722703,23.0576946 16.0837573,23.4203523 Z" id="Shape"></path>
        </g>
    </g>
</svg>