<?xml version="1.0" encoding="UTF-8"?>
<svg width="60px" height="60px" viewBox="0 0 60 60" version="1.1" xmlns="http://www.w3.org/2000/svg" xmlns:xlink="http://www.w3.org/1999/xlink">
    <!-- Generator: Sketch 51.3 (57544) - http://www.bohemiancoding.com/sketch -->
    <title>药品名录</title>
    <desc>Created with Sketch.</desc>
    <defs></defs>
    <g id="药品名录" stroke="none" stroke-width="1" fill="none" fill-rule="evenodd">
        <g id="shejimulu" transform="translate(5.000000, 14.000000)" fill="#5FC3FF" fill-rule="nonzero">
            <path d="M0,3.125 C0,1.39911032 1.38707751,0 3.125,0 C4.85088968,0 6.25,1.38707751 6.25,3.125 C6.25,4.85088968 4.86292249,6.25 3.125,6.25 C1.39911032,6.25 0,4.86292249 0,3.125 Z M12.5,3.125 C12.5,1.39911032 13.9242531,0 15.6327291,0 L46.8672709,0 C48.5974294,0 50,1.38707751 50,3.125 C50,4.85088968 48.5757469,6.25 46.8672709,6.25 L15.6327291,6.25 C13.9025706,6.25 12.5,4.86292249 12.5,3.125 Z M0,15.625 C0,13.8991103 1.38707751,12.5 3.125,12.5 C4.85088968,12.5 6.25,13.8870775 6.25,15.625 C6.25,17.3508897 4.86292249,18.75 3.125,18.75 C1.39911032,18.75 0,17.3629225 0,15.625 Z M12.5,15.625 C12.5,13.8991103 13.9242531,12.5 15.6327291,12.5 L46.8672709,12.5 C48.5974294,12.5 50,13.8870775 50,15.625 C50,17.3508897 48.5757469,18.75 46.8672709,18.75 L15.6327291,18.75 C13.9025706,18.75 12.5,17.3629225 12.5,15.625 Z M0,28.125 C0,26.3991103 1.38707751,25 3.125,25 C4.85088968,25 6.25,26.3870775 6.25,28.125 C6.25,29.8508897 4.86292249,31.25 3.125,31.25 C1.39911032,31.25 0,29.8629225 0,28.125 Z M12.5,28.125 C12.5,26.3991103 13.9242531,25 15.6327291,25 L46.8672709,25 C48.5974294,25 50,26.3870775 50,28.125 C50,29.8508897 48.5757469,31.25 46.8672709,31.25 L15.6327291,31.25 C13.9025706,31.25 12.5,29.8629225 12.5,28.125 Z" id="Shape"></path>
        </g>
    </g>
</svg>