<?xml version="1.0" encoding="UTF-8"?>
<svg width="60px" height="60px" viewBox="0 0 60 60" version="1.1" xmlns="http://www.w3.org/2000/svg" xmlns:xlink="http://www.w3.org/1999/xlink">
    <!-- Generator: Sketch 51.3 (57544) - http://www.bohemiancoding.com/sketch -->
    <title>参保登记</title>
    <desc>Created with Sketch.</desc>
    <defs></defs>
    <g id="参保登记" stroke="none" stroke-width="1" fill="none" fill-rule="evenodd">
        <g id="dengji-2" transform="translate(5.000000, 5.000000)" fill-rule="nonzero">
            <path d="M25.0017595,0.0261974585 C11.2132942,0.0261974585 0.027370479,11.2121212 0.027370479,25.0005865 C0.027370479,38.7890518 11.2132942,49.9749756 25.0017595,49.9749756 C38.7902248,49.9749756 49.9761486,38.7890518 49.9761486,25.0005865 C49.9761486,11.2121212 38.7902248,0.0261974585 25.0017595,0.0261974585 Z" id="Shape" fill="#5FC3FF"></path>
            <path d="M43.9702835,20.0957967 C44.3706745,20.4961877 44.3706745,21.1718475 43.9702835,21.5722385 L42.744086,22.798436 L38.8152493,18.8695992 L40.0414467,17.6434018 C40.4418377,17.2430108 41.1174976,17.2430108 41.5178886,17.6434018 L43.9702835,20.0957967 Z" id="Shape" fill="#FFFFFF"></path>
            <path d="M40.3167155,30.0304985 L40.3167155,36.0864125 C40.3167155,38.3886608 38.4649071,40.2404692 36.1626588,40.2404692 L15.3173021,40.2404692 C13.0150538,40.2404692 11.1632454,38.3636364 11.1632454,36.0864125 L11.1632454,13.8647116 C11.1632454,11.5624633 13.0400782,9.71065494 15.3173021,9.71065494 L36.1376344,9.71065494 C38.4398827,9.71065494 40.2916911,11.5874878 40.2916911,13.8647116 L40.2916911,15.4662757 L37.5139785,15.8666667 L37.5139785,14.5904203 C37.5139785,13.4392962 36.5880743,12.513392 35.4369501,12.513392 L16.0179863,12.513392 C14.8668622,12.513392 13.940958,13.4392962 13.940958,14.5904203 L13.940958,35.4107527 C13.940958,36.5618768 14.8668622,37.487781 16.0179863,37.487781 L35.4369501,37.487781 C36.5880743,37.487781 37.5139785,36.5618768 37.5139785,35.4107527 L37.5139785,30.455914 L40.3167155,30.0304985 Z" id="Shape" fill="#FFFFFF"></path>
            <path d="M36.8633431,21.8224829 L32.9345064,25.7513196 C32.6592375,26.0265885 32.6592375,26.4520039 32.9345064,26.7272727 C33.2097752,27.0025415 33.6351906,27.0025415 33.9104594,26.7272727 L37.8392962,22.798436 C38.114565,22.5231672 38.114565,22.0977517 37.8392962,21.8224829 C37.5640274,21.5472141 37.1386119,21.5472141 36.8633431,21.8224829 Z M30.9826002,26.7272727 L37.8392962,19.8455523 L41.7681329,23.7743891 L34.8864125,30.6561095 L34.3859238,30.1556207 L31.4330401,27.202737 L30.9826002,26.7272727 Z M34.7612903,16.6424242 C35.5370479,16.6424242 36.1376344,17.2680352 36.1376344,18.0437928 C36.1376344,18.7945259 35.5120235,19.4201369 34.7612903,19.4201369 L16.7186706,19.4201369 C15.9679374,19.4201369 15.3423265,18.7945259 15.3423265,18.0437928 C15.3423265,17.2680352 15.9679374,16.6674487 16.7186706,16.6424242 L34.7612903,16.6424242 Z" id="Shape" fill="#FFFFFF"></path>
            <polygon id="Shape" fill="#FFFFFF" points="31.4580645 27.202737 34.4109482 30.1556207 32.9345064 31.6320626 31.9585533 31.6320626 31.4580645 30.1556207 29.9816227 29.6801564 29.9816227 28.6791789"></polygon>
            <path d="M32.9345064,31.6320626 L34.4109482,30.1556207 L34.911437,30.6561095 L32.7092864,32.85826 C32.5591398,33.0084066 32.3088954,33.1085044 32.1086999,33.1085044 L28.8805474,33.1085044 C28.6803519,33.1085044 28.5302053,32.9583578 28.5302053,32.7581623 L28.5302053,29.5300098 C28.5302053,29.3298143 28.630303,29.0795699 28.7804497,28.9294233 L30.9826002,26.7272727 L31.483089,27.2277615 L30.0066471,28.7042033 L30.0066471,29.6801564 L31.483089,30.1806452 L31.9835777,31.657087 L32.9345064,31.657087 L32.9345064,31.6320626 Z M28.5302053,23.5741935 C29.3059629,23.5741935 29.9065494,24.1998045 29.9065494,24.9505376 C29.9065494,25.7262952 29.2809384,26.3519062 28.5302053,26.3519062 L16.7186706,26.3519062 C15.942913,26.3519062 15.3423265,25.7262952 15.3423265,24.9755621 C15.3423265,24.1998045 15.9679374,23.599218 16.7186706,23.599218 L28.5302053,23.599218 L28.5302053,23.5741935 Z M25.0518084,31.9073314 C25.0518084,32.683089 24.4261975,33.3086999 23.6504399,33.3086999 L16.7186706,33.3086999 C15.942913,33.3086999 15.3423265,32.683089 15.3173021,31.9323558 C15.3173021,31.1565982 15.942913,30.5560117 16.7186706,30.5560117 L23.6504399,30.5560117 C24.4261975,30.5309873 25.0518084,31.1315738 25.0518084,31.9073314 Z" id="Shape" fill="#FFFFFF"></path>
        </g>
    </g>
</svg>