<?xml version="1.0" encoding="UTF-8"?>
<svg width="60px" height="60px" viewBox="0 0 60 60" version="1.1" xmlns="http://www.w3.org/2000/svg" xmlns:xlink="http://www.w3.org/1999/xlink">
    <!-- Generator: Sketch 51.3 (57544) - http://www.bohemiancoding.com/sketch -->
    <title>缴费年限 copy</title>
    <desc>Created with Sketch.</desc>
    <defs></defs>
    <g id="缴费年限-copy" stroke="none" stroke-width="1" fill="none" fill-rule="evenodd">
        <g id="nianxiantongji" transform="translate(5.000000, 6.000000)" fill="#DFDFDF" fill-rule="nonzero">
            <path d="M33.8716303,10.6706033 C34.8575096,10.6706033 35.6462131,9.88189987 35.6462131,8.89602054 L35.6462131,1.79768935 C35.6462131,0.811810013 34.8575096,0.0231065469 33.8716303,0.0231065469 C32.885751,0.0231065469 32.0970475,0.811810013 32.0970475,1.79768935 L32.0970475,8.89602054 C32.1299101,9.84903723 32.885751,10.6706033 33.8716303,10.6706033 Z M16.0272144,10.6706033 C17.0130937,10.6706033 17.8017972,9.88189987 17.8017972,8.89602054 L17.8017972,1.79768935 C17.8017972,0.811810013 17.0130937,0.0231065469 16.0272144,0.0231065469 C15.041335,0.0231065469 14.2526316,0.811810013 14.2526316,1.79768935 L14.2526316,8.89602054 C14.2854942,9.84903723 15.1070603,10.6706033 16.0272144,10.6706033 Z M27.6605905,29.829525 L33.7073171,29.829525 L33.7073171,27.1347882 L27.6605905,27.1347882 L27.6605905,24.3086008 L34.5617458,24.3086008 L34.5617458,21.6138639 L21.7781772,21.6138639 C22.0739409,21.0223363 22.3368421,20.4308087 22.5668806,19.8064185 L19.2477535,19.3134788 C18.0646983,22.2711168 16.4215661,24.6700899 14.2526316,26.41181 C14.9756098,27.430552 15.6657253,28.350706 16.1915276,29.1394095 C16.618742,28.7779204 16.9802311,28.3835687 17.4074454,27.9892169 L17.4074454,33.2143774 L14.3840822,33.2143774 L14.3840822,35.9091142 L24.5386393,35.9091142 L24.5386393,40.3784339 L27.6605905,40.3784339 L27.6605905,35.9091142 L35.1861361,35.9091142 L35.1861361,33.2143774 L27.6605905,33.2143774 L27.6605905,29.829525 Z M24.5386393,33.1486521 L20.3979461,33.1486521 L20.3979461,29.7966624 L24.5715019,29.7966624 L24.5386393,33.1486521 Z M24.5715019,27.1347882 L18.1632863,27.1347882 C18.8862644,26.2146341 19.6092426,25.2944801 20.2664955,24.3086008 L24.5715019,24.3086008 L24.5715019,27.1347882 Z" id="Shape"></path>
            <path d="M42.7774069,4.85391528 L36.9935815,4.85391528 L36.9935815,10.4405648 C36.9935815,12.182285 35.4818999,13.6282413 33.6744544,13.4967908 C32.0313222,13.3982028 30.7825417,11.9193838 30.7825417,10.2762516 L30.7825417,4.85391528 L19.2148909,4.85391528 L19.2148909,10.4405648 C19.2148909,12.182285 17.7032092,13.6282413 15.8957638,13.4967908 C14.2526316,13.3982028 13.0038511,11.9193838 13.0038511,10.2762516 L13.0038511,4.85391528 L7.15430039,4.85391528 C6.82567394,4.85391528 6.46418485,4.88677792 6.13555841,4.91964056 L6.13555841,4.85391528 L2.12631579,4.85391528 C0.976123235,4.85391528 0.0231065469,5.80693196 0.0231065469,6.95712452 L0.0231065469,40.2469833 C0.0231065469,40.4112965 0.0231065469,40.5756098 0.0559691913,40.739923 L0.0231065469,40.739923 L0.0231065469,45.2749679 C0.0231065469,46.4251605 0.976123235,47.3781772 2.12631579,47.3781772 L47.8382542,47.3781772 C48.9884467,47.3781772 49.9414634,46.4251605 49.9414634,45.2749679 L49.9414634,40.3127086 L49.9414634,6.95712452 C49.9414634,5.80693196 48.9884467,4.85391528 47.8382542,4.85391528 L42.7774069,4.85391528 Z M43.138896,43.1060334 L7.15430039,43.1060334 C5.18254172,43.1060334 4.29525032,42.1858793 4.29525032,40.279846 L4.29525032,19.017715 L45.636457,19.017715 L45.636457,40.641335 L45.6693196,40.641335 C45.636457,42.5802311 45.077792,43.1060334 43.138896,43.1060334 Z" id="Shape"></path>
        </g>
    </g>
</svg>