<?xml version="1.0" encoding="UTF-8"?>
<svg width="60px" height="60px" viewBox="0 0 60 60" version="1.1" xmlns="http://www.w3.org/2000/svg" xmlns:xlink="http://www.w3.org/1999/xlink">
    <!-- Generator: Sketch 51.3 (57544) - http://www.bohemiancoding.com/sketch -->
    <title>零星报销</title>
    <desc>Created with Sketch.</desc>
    <defs></defs>
    <g id="零星报销" stroke="none" stroke-width="1" fill="none" fill-rule="evenodd">
        <g id="iconfontqian" transform="translate(5.000000, 5.000000)" fill="#5FC3FF" fill-rule="nonzero">
            <path d="M25.0000244,0 C11.1941525,0 0.000673046875,11.192282 0.000673046875,24.9993015 C0.000673046875,38.8063209 11.1941525,50 25.0000244,50 C38.8057964,50 49.9993258,38.8063708 49.9993258,24.9993513 C49.9993258,11.1923318 38.8057465,0 25.0000244,0 Z M37.1066636,22.8814354 L37.1066636,25.7732494 L28.4300742,25.7732494 L28.4300742,31.557975 L37.1066636,31.557975 L37.1066636,34.449789 L28.4300742,34.4497889 L28.4300742,40.2345645 L22.6489411,40.2345645 L22.6489411,34.4497889 L13.9675616,34.4497889 L13.9675616,31.557975 L22.6489411,31.557975 L22.6489411,25.7732494 L13.9675616,25.7732494 L13.9675616,22.8814354 L22.6489411,22.8814354 L11.0769951,11.3131817 L16.8629681,11.3131817 L25.5395077,19.9896713 L34.2160472,11.3131817 L39.9996252,11.3131817 L28.4300742,22.8814354 L37.1066636,22.8814354 Z" id="Shape"></path>
        </g>
    </g>
</svg>