<?xml version="1.0" encoding="UTF-8"?>
<svg width="60px" height="60px" viewBox="0 0 60 60" version="1.1" xmlns="http://www.w3.org/2000/svg" xmlns:xlink="http://www.w3.org/1999/xlink">
    <!-- Generator: Sketch 51.3 (57544) - http://www.bohemiancoding.com/sketch -->
    <title>审核</title>
    <desc>Created with Sketch.</desc>
    <defs></defs>
    <g id="审核" stroke="none" stroke-width="1" fill="none" fill-rule="evenodd">
        <g id="shenhe" transform="translate(11.000000, 9.000000)" fill="#5FC3FF" fill-rule="nonzero">
            <path d="M0.015421875,37.8 L38.9494219,37.8 L38.9494219,42 L0.015421875,42 L0.015421875,37.8 Z M36.0514219,26.586 L26.6014219,26.586 C25.7614219,25.62 25.1314219,24.486 25.0474219,23.268 C24.6274219,18.186 30.2554219,15.75 30.2554219,9.534 C30.2974219,4.242 26.1394219,0 19.4614219,0 C12.8254219,0 8.66742187,4.242 8.66742187,9.534 C8.66742187,15.792 14.2954219,18.186 13.8754219,23.268 C13.7914219,24.528 13.1614219,25.62 12.3214219,26.586 L2.87142187,26.586 C1.27542187,26.586 0.015421875,27.846 0.015421875,29.4 L0.015421875,34.986 L38.9494219,34.986 L38.9494219,29.4 C38.9494219,27.846 37.6474219,26.586 36.0514219,26.586 Z" id="Shape"></path>
        </g>
    </g>
</svg>