<?xml version="1.0" encoding="UTF-8"?>
<svg width="60px" height="60px" viewBox="0 0 60 60" version="1.1" xmlns="http://www.w3.org/2000/svg" xmlns:xlink="http://www.w3.org/1999/xlink">
    <!-- Generator: Sketch 51.3 (57544) - http://www.bohemiancoding.com/sketch -->
    <title>送达</title>
    <desc>Created with Sketch.</desc>
    <defs></defs>
    <g id="送达" stroke="none" stroke-width="1" fill="none" fill-rule="evenodd">
        <g id="shouhuo" transform="translate(7.000000, 9.000000)" fill="#5FC3FF" fill-rule="nonzero">
            <path d="M43.8437654,41.7209302 L2.15623379,41.7209302 C0.965412908,41.7209302 0,40.7019225 0,39.4452944 L0,25.0336663 L0,25.0324641 C0,24.744612 0.0512008455,24.4694616 0.143559095,24.2160034 L5.877329,8.33072124 C6.17697561,7.45394077 6.97227125,6.82690735 7.9062078,6.82690735 L18.6873767,6.82690735 L18.6873767,11.3783357 L9.39232658,11.3783357 L5.28518009,22.7567237 L12.2186754,22.7567237 C13.4095998,22.7567237 14.3750127,23.7757314 14.3750127,25.0325163 L14.3750127,27.3082044 L31.6250383,27.3082044 L31.6250383,25.0325163 C31.6250383,23.7757314 32.5904512,22.7567237 33.7813756,22.7567237 L40.7149227,22.7567237 L36.6076726,11.3783357 L27.3124672,11.3783357 L27.3124672,6.82690735 L38.0937914,6.82690735 C39.027728,6.82690735 39.8230754,7.45394077 40.1225149,8.33072124 L45.8564401,24.2161602 C45.951621,24.4776145 46.0002234,24.7540126 45.9999992,25.0325686 L45.9999992,39.4453467 C45.9999992,40.7019748 45.0345863,41.7209302 43.8437654,41.7209302 Z M30.1874283,16.6882048 C30.1874283,17.3165973 29.9460233,17.8856108 29.555934,18.2973432 L24.5245837,23.6073168 C24.1344944,24.0192061 23.5954101,24.2738665 22.9999478,24.2738665 C22.4045374,24.2738665 21.8654013,24.0191538 21.4753119,23.6073168 L16.4439617,18.2973955 C16.0539241,17.885663 15.8125191,17.3165973 15.8125191,16.6882571 C15.8125191,15.4314722 16.7778803,14.4126736 17.9688047,14.4126736 C18.5642151,14.4126736 19.1031959,14.6673863 19.4934924,15.0790665 L20.8438694,16.5042137 L20.8438694,2.27558351 C20.8438694,1.01895544 21.809127,0 23.0000514,0 C24.190924,0 25.1561816,1.01895544 25.1561816,2.27553124 L25.1561816,16.5043182 L26.5066104,15.079171 C26.8969586,14.6674908 27.4358876,14.4127259 28.0312981,14.4127259 C29.2220672,14.4127259 30.1874801,15.4314722 30.1874801,16.6882571 L30.1874283,16.6882048 Z" id="Shape"></path>
        </g>
    </g>
</svg>