<?xml version="1.0" encoding="UTF-8"?>
<svg width="60px" height="60px" viewBox="0 0 60 60" version="1.1" xmlns="http://www.w3.org/2000/svg" xmlns:xlink="http://www.w3.org/1999/xlink">
    <!-- Generator: Sketch 51.3 (57544) - http://www.bohemiancoding.com/sketch -->
    <title>受理</title>
    <desc>Created with Sketch.</desc>
    <defs></defs>
    <g id="受理" stroke="none" stroke-width="1" fill="none" fill-rule="evenodd">
        <g id="shoulidan-mian" transform="translate(10.000000, 10.000000)" fill="#5FC3FF" fill-rule="nonzero">
            <path d="M38.19,39.095 L21.1175,30.56 C20.4139731,30.2084465 19.5860269,30.2084465 18.8825,30.56 L1.8075,39.095 C1.42022756,39.2879803 0.960695729,39.266955 0.592663678,39.0394165 C0.224631628,38.811878 0.000446837472,38.4101906 0,37.9775 L0,7.5 C-5.07265313e-16,3.35786438 3.35786438,7.6089797e-16 7.5,0 L32.5,0 C36.6421356,2.53632657e-16 40,3.35786438 40,7.5 L40,37.9775 C39.9999855,38.4109101 39.7754631,38.8133826 39.4066784,39.0410714 C39.0378938,39.2687603 38.5774832,39.2891677 38.19,39.095 Z M8.75,10 C8.05964406,10 7.5,10.5596441 7.5,11.25 C7.5,11.9403559 8.05964406,12.5 8.75,12.5 L31.25,12.5 C31.9403559,12.5 32.5,11.9403559 32.5,11.25 C32.5,10.5596441 31.9403559,10 31.25,10 L8.75,10 Z M8.75,17.5 C8.05964406,17.5 7.5,18.0596441 7.5,18.75 C7.5,19.4403559 8.05964406,20 8.75,20 L31.25,20 C31.9403559,20 32.5,19.4403559 32.5,18.75 C32.5,18.0596441 31.9403559,17.5 31.25,17.5 L8.75,17.5 Z" id="Shape"></path>
        </g>
    </g>
</svg>