<?xml version="1.0" encoding="UTF-8"?>
<svg width="60px" height="60px" viewBox="0 0 60 60" version="1.1" xmlns="http://www.w3.org/2000/svg" xmlns:xlink="http://www.w3.org/1999/xlink">
    <!-- Generator: Sketch 51.3 (57544) - http://www.bohemiancoding.com/sketch -->
    <title>办结</title>
    <desc>Created with Sketch.</desc>
    <defs></defs>
    <g id="办结" stroke="none" stroke-width="1" fill="none" fill-rule="evenodd">
        <g id="banjie" transform="translate(9.000000, 10.000000)" fill="#5FC3FF" fill-rule="nonzero">
            <path d="M11.15625,5.25 L11.15625,3.28125 L30.84375,3.28125 L30.84375,5.25 L34.125,5.25 L34.125,1.640625 C34.125,0.721875 33.403125,0 32.484375,0 L9.515625,0 C8.596875,0 7.875,0.721875 7.875,1.640625 L7.875,5.25 L11.15625,5.25 Z" id="Shape"></path>
            <path d="M38.0625,5.25 L3.9375,5.25 C1.3125,5.25 0,6.5625 0,9.05625 L0,34.846875 C0,37.471875 1.3125,38.71875 3.9375,38.71875 L38.0625,38.71875 C40.228125,38.71875 42,36.946875 42,34.78125 L42,9.1875 C42,7.021875 40.228125,5.25 38.0625,5.25 Z M31.5,17.0625 L19.95,28.6125 C19.621875,28.940625 19.228125,29.071875 18.76875,29.071875 C18.375,29.071875 17.915625,28.940625 17.5875,28.6125 L10.63125,21.65625 C9.975,21 9.975,19.95 10.63125,19.359375 C11.2875,18.703125 12.3375,18.703125 12.928125,19.359375 L18.703125,25.134375 L29.1375,14.7 C29.79375,14.04375 30.84375,14.04375 31.434375,14.7 C32.15625,15.35625 32.15625,16.40625 31.5,17.0625 Z" id="Shape"></path>
        </g>
    </g>
</svg>