<?xml version="1.0" encoding="UTF-8"?>
<svg width="60px" height="60px" viewBox="0 0 60 60" version="1.1" xmlns="http://www.w3.org/2000/svg" xmlns:xlink="http://www.w3.org/1999/xlink">
    <!-- Generator: Sketch 51.3 (57544) - http://www.bohemiancoding.com/sketch -->
    <title>收件</title>
    <desc>Created with Sketch.</desc>
    <defs></defs>
    <g id="收件" stroke="none" stroke-width="1" fill="none" fill-rule="evenodd">
        <g id="shoujianxiang" transform="translate(7.000000, 12.000000)" fill="#5FC3FF" fill-rule="nonzero">
            <path d="M45.4036744,11.4165768 C45.4036744,11.4165768 37.0145468,17.2662003 26.1070667,24.904782 C22.5537938,27.0365057 19.3528735,24.7250641 19.3528735,24.7250641 L0.596555107,11.4165768 C0.438320113,11.4165162 0.286548437,11.4787376 0.174659392,11.5895402 C0.0627703467,11.7003429 -6.1156265e-05,11.8506409 4.4667606e-08,12.0073394 L4.4667606e-08,31.5310517 C4.4667606e-08,33.8160038 1.87221904,35.6734694 4.18303399,35.6734694 L41.8169649,35.6734694 C44.1245515,35.6734694 45.9999989,33.8194292 45.9999989,31.5310517 L45.9999989,12.0105364 C46.0006372,11.6835764 45.7338384,11.4178356 45.4036744,11.4165768 Z M19.9067681,21.5878792 C22.1154284,22.9523194 22.78785,22.7271582 22.8602575,22.6977 C23.024904,22.7433716 23.7667353,22.8216985 25.7807716,21.5780598 C31.1273992,18.2810241 43.9137856,9.92448433 45.2916041,6.32396066 C45.2916041,6.32396066 47.5067212,-0.302537463 40.8184789,0.0107699811 L4.88520259,0.014195354 C-1.79635246,-0.295915076 0.418764634,6.33058304 0.418764634,6.33058304 C1.79335479,9.93430373 14.5665972,18.2844495 19.9067681,21.5878792 Z" id="Shape"></path>
        </g>
    </g>
</svg>