<?xml version="1.0" encoding="UTF-8"?>
<svg width="120px" height="120px" viewBox="0 0 120 120" version="1.1" xmlns="http://www.w3.org/2000/svg" xmlns:xlink="http://www.w3.org/1999/xlink">
    <!-- Generator: Sketch 51.3 (57544) - http://www.bohemiancoding.com/sketch -->
    <title>icon/面性/移动支付 copy</title>
    <desc>Created with Sketch.</desc>
    <defs></defs>
    <g id="icon/面性/移动支付-copy" stroke="none" stroke-width="1" fill="none" fill-rule="evenodd">
        <g id="shouji-4" transform="translate(23.000000, 5.000000)" fill="#C9C9C9" fill-rule="nonzero">
            <path d="M2,9.58962084e-14 L72,9.58962084e-14 C73.1045695,9.56933022e-14 74,0.8954305 74,2 L74,108 C74,109.104569 73.1045695,110 72,110 L2,110 C0.8954305,110 -9.43724642e-14,109.104569 -9.4507735e-14,108 L-9.4507735e-14,2 C-9.46430057e-14,0.8954305 0.8954305,9.60991145e-14 2,9.58962084e-14 Z M64.2490554,20.3877889 L9.72076811,20.3877889 L9.72076811,89.5132505 L64.2490554,89.5132505 L64.2490554,20.3877889 Z M36.9849117,92.8911089 C35.2959825,92.8911089 33.8282225,93.494298 32.5816318,94.700676 C31.3350411,95.907054 30.7117458,97.3949203 30.7117459,99.1642748 C30.7117459,100.853204 31.3350412,102.320964 32.5816318,103.567555 C33.8282224,104.814145 35.2959824,105.437441 36.9849117,105.437441 C38.7542661,105.437441 40.2421324,104.814145 41.4485105,103.567555 C42.6548886,102.320964 43.2580776,100.853204 43.2580775,99.1642748 C43.2580775,97.3949203 42.6548885,95.9070541 41.4485105,94.700676 C40.2421325,93.4942979 38.7542662,92.8911089 36.9849117,92.8911089 Z M46.635936,10.1335755 C46.635936,9.49017387 46.434873,8.98751637 46.032747,8.62560296 C45.630621,8.26368955 45.1882824,8.08273285 44.7057312,8.08273285 L29.3847301,8.08273285 C28.9826041,8.08273285 28.5603718,8.26368955 28.1180331,8.62560296 C27.6756945,8.98751637 27.4545252,9.49017387 27.4545252,10.1335755 C27.4545252,10.7769771 27.6555882,11.2796346 28.0577142,11.641548 C28.4598403,12.0034614 28.9021789,12.1844181 29.3847301,12.1844181 L44.7057312,12.1844181 C45.1882824,12.1844181 45.630621,12.0034614 46.032747,11.641548 C46.434873,11.2796346 46.635936,10.7769771 46.635936,10.1335755 Z" id="Shape"></path>
        </g>
    </g>
</svg>