<?xml version="1.0" encoding="UTF-8"?>
<svg width="120px" height="120px" viewBox="0 0 120 120" version="1.1" xmlns="http://www.w3.org/2000/svg" xmlns:xlink="http://www.w3.org/1999/xlink">
    <!-- Generator: Sketch 51.3 (57544) - http://www.bohemiancoding.com/sketch -->
    <title>icon/面性/费用信息 copy</title>
    <desc>Created with Sketch.</desc>
    <defs></defs>
    <g id="icon/面性/费用信息-copy" stroke="none" stroke-width="1" fill="none" fill-rule="evenodd">
        <g id="Group" transform="translate(9.000000, 7.000000)" fill-rule="nonzero">
            <g id="qitafeiyong-2">
                <path d="M24.2822266,-1.66755498e-13 L84,-1.67199588e-13 C85.1045695,-1.67402494e-13 86,0.8954305 86,2 L86,105 C86,106.104569 85.1045695,107 84,107 L2,107 C0.8954305,107 2.85569802e-14,106.104569 2.84217094e-14,105 L2.84217094e-14,24.6259766 L24.2822266,-1.66755498e-13 Z M17.5,31 C15.5670034,31 14,32.5670034 14,34.5 C14,36.4329966 15.5670034,38 17.5,38 L68.5,38 C70.4329966,38 72,36.4329966 72,34.5 C72,32.5670034 70.4329966,31 68.5,31 L17.5,31 Z M17.5,55 C15.5670034,55 14,56.5670034 14,58.5 C14,60.4329966 15.5670034,62 17.5,62 L44.5,62 C46.4329966,62 48,60.4329966 48,58.5 C48,56.5670034 46.4329966,55 44.5,55 L17.5,55 Z M17.5,82 C15.5670034,82 14,83.5670034 14,85.5 C14,87.4329966 15.5670034,89 17.5,89 L29.5,89 C31.4329966,89 33,87.4329966 33,85.5 C33,83.5670034 31.4329966,82 29.5,82 L17.5,82 Z" id="Combined-Shape" fill="#C9C9C9"></path>
                <circle id="Path" fill="#FFFFFF" cx="74.5" cy="75.5" r="34.5"></circle>
                <path d="M69.9698792,71.0010812 L63.8130769,71.0010812 C62.2594574,71.0010812 61,72.2605387 61,73.8141581 C61,75.3677776 62.2594574,76.6272351 63.8130769,76.6272351 L72.2167549,76.6272351 L72.2167549,80.2818994 L63.8130769,80.2818994 C62.2594574,80.2818994 61,81.5413568 61,83.0949763 C61,84.6485957 62.2594574,85.9080532 63.8130769,85.9080532 L72.2167549,85.9080532 L72.2167549,90.1869231 C72.2167549,91.7405426 73.4762123,93 75.0298318,93 C76.5834513,93 77.8429087,91.7405426 77.8429087,90.1869231 L77.8429087,85.9080532 L86.3176922,85.9080532 C87.8713116,85.9080532 89.1307691,84.6485957 89.1307691,83.0949763 C89.1307691,81.5413568 87.8713116,80.2818994 86.3176922,80.2818994 L77.8429087,80.2818994 L77.8429087,76.6272351 L86.3176922,76.6272351 C87.8713116,76.6272351 89.1307691,75.3677776 89.1307691,73.8141581 C89.1307691,72.2605387 87.8713116,71.0010812 86.3176922,71.0010812 L79.9816084,71.0010812 L81.6994619,69.2832277 L85.180467,65.8022227 C86.2790418,64.7036478 86.2790418,62.922506 85.180467,61.8239311 C84.0818921,60.7253563 82.3007503,60.7253563 81.2021755,61.8239311 L77.7211704,65.3049362 L74.9919138,68.0341928 C74.981318,68.0343328 74.9707364,68.0345313 74.9601692,68.0347882 L72.2303172,65.3049362 L68.7493122,61.8239311 C67.6507373,60.7253563 65.8695955,60.7253563 64.7710206,61.8239311 C63.6724458,62.922506 63.6724458,64.7036478 64.7710206,65.8022227 L68.5628297,69.5940318 L69.9698792,71.0010812 Z M75.7870915,49.001723 C90.8431767,49.1699684 102.960066,61.4230154 102.960066,76.4800405 C102.960066,91.5370656 90.8431767,103.790113 75.7870915,103.958358 C65.8968664,104.068877 56.7102605,98.8558449 51.7329688,90.3086035 C46.7556771,81.7613621 46.7556771,71.1987189 51.7329688,62.6514775 C56.7102605,54.1042361 65.8968664,48.891204 75.7870915,49.001723 Z" id="Combined-Shape" fill="#C9C9C9"></path>
            </g>
        </g>
    </g>
</svg>