<?xml version="1.0" encoding="UTF-8"?>
<svg width="120px" height="120px" viewBox="0 0 120 120" version="1.1" xmlns="http://www.w3.org/2000/svg" xmlns:xlink="http://www.w3.org/1999/xlink">
    <!-- Generator: Sketch 51.3 (57544) - http://www.bohemiancoding.com/sketch -->
    <title>icon/面性/就医凭证</title>
    <desc>Created with Sketch.</desc>
    <defs></defs>
    <g id="icon/面性/就医凭证" stroke="none" stroke-width="1" fill="none" fill-rule="evenodd">
        <g id="pingzheng" transform="translate(5.000000, 15.000000)" fill="#EB594A">
            <path d="M3.26178436,0.0588963451 C2.46697673,0.0588963451 1.79259455,0.400917925 1.33497812,1.1482985 C0.889404158,1.87034417 0.648553366,3.54244987 0.576298119,4.44184019 C0.528127921,5.3412304 0.720808614,6.84865906 1.14229752,7.72271427 C1.53970129,8.59676958 2.21408356,9.21747542 3.14135901,9.5468296 C4.05659198,9.88885118 4.80322941,10.4335523 5.36922881,11.2189354 C5.93522812,11.9789835 6.24833416,15.5132069 6.3687595,16.437932 C6.44101475,17.3879922 6.23629158,18.3000498 5.74254752,19.1867726 C5.21267584,20.0734953 4.35765554,20.7322037 3.12931644,21.1628976 C2.22612594,21.5935915 1.46744604,22.2649672 0.925531782,23.1643574 C0.37157495,24.0637477 0.0343838614,24.9631379 0.0102988119,25.9005305 C-0.0499138614,26.863258 0.154809307,27.7373133 0.600383168,28.5860336 C1.04595713,29.3967515 1.79259455,29.9921226 2.82825297,30.3214767 C4.03250693,30.6508309 4.98386752,31.3095392 5.64620723,32.196262 C6.29650436,33.1589895 6.64573802,34.1090497 6.71799317,35.1351145 C6.76616337,36.1231769 6.50122743,37.1112395 5.95931317,38.1246369 C5.36922871,39.1126993 4.56237861,39.8220776 3.41833743,40.2654389 C2.40676416,40.7341352 1.63604158,41.3928436 1.13025495,42.2668988 C0.612425743,43.166289 0.347489901,44.1036816 0.287277228,45.1044116 C0.227064554,46.1051415 0.419745149,47.0552016 0.817148911,47.9292568 C1.21455267,48.8159795 1.82872218,49.5000228 2.63557238,49.9307168 C5.17654822,51.2734684 6.50122752,52.8822368 6.58552525,54.757022 C6.70595059,56.6318072 5.74254752,58.1265684 3.70735832,59.253973 C2.79212535,59.6846669 2.04548792,60.3813777 1.50357366,61.3187703 C0.925531782,62.2561629 0.624468317,63.2568929 0.564255545,64.3082926 C0.516085347,65.3596925 0.70876604,66.3097525 1.13025495,67.1204705 C1.52765871,67.9945258 2.20204099,68.5392268 3.10523139,68.893916 C4.3335704,69.2359376 5.27288851,69.8313087 5.94727069,70.7180314 C6.58552525,71.5794192 6.92271634,72.5294793 6.98292901,73.5048742 C7.05518426,74.5309391 6.80229089,75.5063341 6.22424911,76.4943966 C5.67029228,77.5077941 4.79118693,78.3311795 3.5748904,79.0025552 C2.74395515,79.4332491 2.16591327,80.1426273 1.80463713,81.0673525 C1.43131842,82.0300801 1.31089297,82.9294703 1.40723337,83.816193 C1.52765871,84.7029157 1.79259465,86.5143636 2.26225366,87.2110744 C2.70782762,87.958455 3.34608218,88.3004767 4.17701743,88.3004765 L83.8745427,88.3004765 L83.8745427,0.0588963451 L3.26178436,0.0588963451 Z M27.19031,36.1611793 C30.5140509,32.7156281 33.9582171,28.1680072 37.4264685,22.6069889 L37.7636596,22.0749552 L41.5570595,24.3677669 L41.1716982,24.9758054 C41.1114855,25.0644777 41.0633153,25.1531499 41.0031027,25.2418221 L41.0753579,25.2418221 C49.697816,25.0138077 57.1160203,24.4944416 63.1372899,23.6710562 L63.7394169,23.5950513 L64.5583096,28.0033301 L63.8598423,28.0793349 C60.9696329,28.3960216 57.9228704,28.6747059 54.8038528,28.9153878 L54.8038528,33.1209871 L68.0988161,33.1209871 L68.0988161,37.4152586 L54.7918102,37.4152586 L54.7918102,41.4308459 L65.8348187,41.4308459 L65.8348187,45.6997826 L40.1119548,45.6997826 L40.1119548,41.405511 L50.432411,41.405511 L50.432411,37.3899237 L38.4500844,37.3899237 L38.4500844,33.0956522 L50.432411,33.0956522 L50.432411,29.1940721 C47.6144568,29.3587491 44.6640347,29.4980914 41.6654423,29.5994311 L41.1114855,29.624766 L41.0151451,29.0420624 C40.8585922,28.1046698 40.6659115,27.1039399 40.4611884,26.0652075 C39.4616576,27.5979711 38.4741694,29.0547299 37.5228088,30.410149 L37.5228088,47.2325462 L33.1995371,47.2325462 L33.1995371,36.0725071 C32.1518362,37.3139189 31.1402629,38.4286561 30.1648172,39.4167186 L29.6590306,39.9234172 L29.2014142,39.3660487 C28.683585,38.6820054 28.0092028,37.9346249 27.2023526,37.1365744 L26.7086085,36.6552106 L27.19031,36.1611793 Z M68.4239648,53.4142704 C68.1229013,55.6564123 67.7977527,57.6705396 67.448519,59.3806478 C66.8825197,62.3448352 64.9557134,63.9156012 61.8848658,63.9156011 L57.1401053,63.9156011 C53.828407,63.9156011 52.0822388,62.015481 52.0822388,58.4305876 L52.0822388,52.2995333 L42.1591864,52.2995333 L42.1591864,52.4262079 C42.1591864,56.112441 41.2559959,58.9246189 39.4616576,60.7867366 L39.449615,60.7994041 C37.4866812,62.6868567 34.3676635,64.2196204 30.1527748,65.3850274 L29.7072008,65.5117021 L29.4543074,65.1063431 C28.8762655,64.1689505 28.1898408,63.1808881 27.4311608,62.1801581 L26.8049488,61.3567727 L27.7803945,61.1034234 C31.7905601,60.0520235 34.512174,58.924619 35.8609383,57.7465444 L35.8729809,57.7338769 C37.0772349,56.7331469 37.6914044,54.8710292 37.6914044,52.1855261 L37.6914044,48.1066015 L56.574106,48.1066015 L56.574106,57.6832071 C56.574106,59.2919754 57.2966584,59.5199899 58.0794235,59.5199899 L60.7889948,59.5199899 C62.6555883,59.5199899 63.0770772,58.5572624 63.2336303,57.8352167 C63.5226513,56.4544627 63.7875871,54.4783377 64.0284378,51.9575116 L64.1247782,51.0074516 L64.9436709,51.4128105 C65.7866486,51.8308369 66.8102645,52.2615308 68.0024758,52.7048922 L68.4962199,52.8949042 L68.4239648,53.4142704 Z" id="Shape" fill-rule="nonzero"></path>
            <path d="M110,36.0144618 C109.834559,36.004865 109.667847,36 109.5,36 C104.80558,36 101,39.8055796 101,44.5 C101,49.1944204 104.80558,53 109.5,53 C109.667847,53 109.834559,52.995135 110,52.9855382 L110,86 C110,87.1045695 109.104569,88 108,88 L93,88 L91,88 L91,0 L93,0 L108,0 C109.104569,-2.02906125e-16 110,0.8954305 110,2 L110,36.0144618 Z" id="Combined-Shape"></path>
        </g>
    </g>
</svg>