<?xml version="1.0" encoding="UTF-8"?>
<svg width="47px" height="41px" viewBox="0 0 47 41" version="1.1" xmlns="http://www.w3.org/2000/svg" xmlns:xlink="http://www.w3.org/1999/xlink">
    <!-- Generator: Sketch 51.3 (57544) - http://www.bohemiancoding.com/sketch -->
    <title>全省零星报销</title>
    <desc>Created with Sketch.</desc>
    <defs></defs>
    <g id="全省零星报销" stroke="none" stroke-width="1" fill="none" fill-rule="evenodd">
        <g id="Group-4" transform="translate(1.000000, 0.000000)">
            <g id="iconfontqian" transform="translate(0.416667, 8.416667)" fill="#0284FD" fill-rule="nonzero">
                <path d="M12.862466,12.4666667 L9.47917682,12.4666667 C8.62543104,12.4666667 7.93333333,13.1587644 7.93333333,14.0125102 C7.93333333,14.8662559 8.62543104,15.5583536 9.47917682,15.5583536 L14.0971703,15.5583536 L14.0971703,17.5666667 L9.47917682,17.5666667 C8.62543104,17.5666667 7.93333333,18.2587644 7.93333333,19.1125102 C7.93333333,19.9662559 8.62543104,20.6583536 9.47917682,20.6583536 L14.0971703,20.6583536 L14.0971703,23.0096805 C14.0971703,23.8634262 14.789268,24.555524 15.6430138,24.555524 C16.4967596,24.555524 17.1888573,23.8634262 17.1888573,23.0096805 L17.1888573,20.6583536 L21.8459247,20.6583536 C22.6996705,20.6583536 23.3917682,19.9662559 23.3917682,19.1125102 C23.3917682,18.2587644 22.6996705,17.5666667 21.8459247,17.5666667 L17.1888573,17.5666667 L17.1888573,15.5583536 L21.8459247,15.5583536 C22.6996705,15.5583536 23.3917682,14.8662559 23.3917682,14.0125102 C23.3917682,13.1587644 22.6996705,12.4666667 21.8459247,12.4666667 L18.3641167,12.4666667 L19.3081124,11.5226709 L21.2209961,9.6097872 C21.8246856,9.00609776 21.8246856,8.02732381 21.2209961,7.42363437 C20.6173067,6.81994494 19.6385327,6.81994494 19.0348433,7.42363437 L17.1219596,9.33651809 L15.6221771,10.8363006 C15.6163545,10.8363775 15.6105397,10.8364866 15.6047328,10.8366277 L14.1046231,9.33651809 L12.1917394,7.42363437 C11.58805,6.81994494 10.609276,6.81994494 10.0055866,7.42363437 C9.40189713,8.02732381 9.40189713,9.00609776 10.0055866,9.6097872 L12.0892635,11.6934641 L12.862466,12.4666667 Z M15.5833485,0 C24.1889153,0 31.1662464,6.97655351 31.1662464,15.582929 C31.1662464,24.1893045 24.1889464,31.1666667 15.5833485,31.1666667 C6.97768842,31.1666667 0.000419532552,24.1892734 0.000419532552,15.5828979 C0.000419532552,6.97652244 6.97768842,0 15.5833485,0 Z" id="Combined-Shape"></path>
            </g>
            <g id="Group-2" transform="translate(21.000000, 0.000000)">
                <g>
                    <path d="M7,0 L18,0 C21.8659932,-7.10171439e-16 25,3.13400675 25,7 L25,7 C25,10.8659932 21.8659932,14 18,14 L0,14 L8.8817842e-16,7 C4.14730794e-16,3.13400675 3.13400675,7.10171439e-16 7,0 Z" id="Rectangle" fill="#F24B36"></path>
                    <text id="全省" font-family="PingFangSC-Regular, PingFang SC" font-size="8" font-weight="normal" fill="#FFFFFF">
                        <tspan x="5" y="10">全省</tspan>
                    </text>
                </g>
            </g>
        </g>
    </g>
</svg>