<?xml version="1.0" encoding="UTF-8"?>
<svg width="120px" height="120px" viewBox="0 0 120 120" version="1.1" xmlns="http://www.w3.org/2000/svg" xmlns:xlink="http://www.w3.org/1999/xlink">
    <!-- Generator: Sketch 51.3 (57544) - http://www.bohemiancoding.com/sketch -->
    <title>icon/面性/缴费支付 copy 2</title>
    <desc>Created with Sketch.</desc>
    <defs></defs>
    <g id="icon/面性/缴费支付-copy-2" stroke="none" stroke-width="1" fill="none" fill-rule="evenodd">
        <g id="erweima-2" transform="translate(5.000000, 5.000000)" fill-rule="nonzero">
            <rect id="Rectangle" fill="#26A88F" x="0" y="0" width="110" height="110" rx="2"></rect>
            <path d="M70.562,91.608 L77.652,91.608 L77.652,84.034 L70.66,84.034 C70.43,86.364 70.626,89.116 70.562,91.608 Z M49.978,18.392 L20.628,18.392 C19.474,18.742 18.766,19.534 18.364,20.624 L18.364,49.95 C18.914,53.03 23.828,52.184 27.424,52.184 L42.986,52.184 C44.956,52.184 49.044,52.634 50.568,51.99 C52.908,51 52.242,46.732 52.242,43.25 L52.242,27.228 C52.242,23.864 52.962,18.682 49.978,18.392 Z M50.272,57.912 C48.256,57.326 45.014,57.816 42.788,57.816 L27.72,57.816 C25.41,57.816 22.26,57.378 20.332,57.912 C19.312,58.196 18.65,59.194 18.364,60.05 L18.364,89.278 C18.706,90.494 19.52,91.244 20.726,91.608 L49.782,91.608 C53.068,91.27 52.242,86.354 52.242,82.578 L52.242,67.138 C52.242,63.638 53.002,58.706 50.272,57.912 Z M91.636,21.014 C91.392,19.638 90.57,18.83 89.372,18.392 L60.022,18.392 C56.856,18.958 57.758,23.762 57.758,27.81 L57.758,42.764 C57.758,46.27 57.024,51.284 59.628,52.086 C61.474,52.656 64.842,52.184 67.114,52.184 L82.182,52.184 C84.474,52.184 87.654,52.618 89.568,52.086 C90.74,51.76 91.368,50.748 91.636,49.562 L91.636,21.014 Z M91.636,60.438 C91.45,57.676 88.508,57.63 85.334,57.816 C85.104,61.926 85.3,66.458 85.236,70.73 L78.636,70.73 L78.636,57.816 L64.356,57.816 C61.442,57.816 58.528,57.488 57.856,59.66 C57.292,61.482 57.758,64.874 57.758,67.138 L57.758,82.188 C57.758,86.07 56.82,90.954 60.122,91.608 L63.962,91.608 C64.028,85.296 63.83,78.726 64.062,72.576 C66.194,72.64 68.59,72.446 70.562,72.672 L70.562,77.43 L91.54,77.43 C91.604,74.518 91.408,71.346 91.636,68.594 L91.636,60.438 Z M91.636,84.034 L84.35,84.034 C84.12,86.364 84.316,89.116 84.25,91.608 L89.274,91.608 C90.544,91.21 91.364,90.366 91.636,88.986 L91.636,84.034 Z M64.06,24.994 C64.052,24.858 64.044,24.72 64.16,24.704 L85.236,24.704 L85.236,45.872 L64.06,45.872 L64.06,24.994 Z M73.712,39.56 C80.526,40.678 80.66,29.832 73.712,31.112 C69.238,31.936 69.376,38.848 73.712,39.56 Z M24.666,64.418 C24.658,64.282 24.65,64.144 24.766,64.126 L45.84,64.126 L45.84,85.296 L24.666,85.296 L24.666,64.418 Z M39.342,76.362 C40.562,73.078 37.96,70.094 34.81,70.438 C32.698,70.67 31.488,71.86 31.068,73.45 C29.552,79.202 37.648,80.912 39.342,76.362 Z M24.666,24.994 C24.658,24.858 24.65,24.72 24.766,24.704 L45.84,24.704 L45.84,45.872 L24.666,45.872 L24.666,24.994 Z M33.236,39.172 C36.066,40.63 39.702,38.702 39.636,35.19 C39.586,32.528 37.266,30.564 34.318,31.112 C30.21,31.876 29.996,37.502 33.236,39.172 Z" id="Shape" fill="#FFFFFF"></path>
        </g>
    </g>
</svg>