<?xml version="1.0" encoding="UTF-8"?>
<svg width="100px" height="100px" viewBox="0 0 100 100" version="1.1" xmlns="http://www.w3.org/2000/svg" xmlns:xlink="http://www.w3.org/1999/xlink">
    <!-- Generator: Sketch 51.3 (57544) - http://www.bohemiancoding.com/sketch -->
    <title>客服</title>
    <desc>Created with Sketch.</desc>
    <defs></defs>
    <g id="客服" stroke="none" stroke-width="1" fill="none" fill-rule="evenodd">
        <g id="kefu-2" transform="translate(5.000000, 1.000000)" fill="#3DB7FF" fill-rule="nonzero">
            <path d="M69.8682527,29.9804051 C67.5129455,17.5637417 55.8766229,8 42.5000351,8 C28.7538317,8 16.8836089,17.296137 15.1318175,29.9804051 C11.6869206,30.7841223 10,32.684727 10,35.0525284 L10,48.5792094 C10,51.5346018 12.228377,53.6513327 15.1318175,53.6513327 C17.503852,53.6513327 19.3010459,53.1577368 20.2631431,51.9603239 C22.5883694,58.1556644 27.3777706,62.7492671 28.8159615,63.7959961 C30.5997314,65.0952544 34.2580763,65.7343239 33.947287,65.4870049 C32.1132651,64.0239325 28.7023147,59.3280675 27.1051448,51.9603239 C26.3015346,48.2469961 27.6848349,44.0399335 30.5262159,43.5065998 C35.0883938,42.6514041 40.645561,44.0611223 44.2107816,41.815591 C47.0388089,40.0358669 48.3766364,37.9403943 49.3421071,36.7434677 C49.7732903,36.2082583 50.6666512,34.6631399 51.0528535,33.3619364 C51.3837435,32.5029892 52.7264205,33.3137926 52.7631782,33.3619364 C52.7631782,33.3619364 58.7534263,35.3054746 59.6052502,46.8881311 C60.1934445,54.8367965 53.9324682,64.3410705 52.7631782,65.4869354 C52.585996,65.6587387 52.6862892,65.5049286 52.7631782,65.4869354 C59.6186039,63.8473356 63.4373334,56.3659364 64.7369975,50.2697319 C65.6202377,51.3495294 66.2271271,53.2812573 68.1579983,53.6512632 C66.2151791,63.2546037 56.0924604,70.6497192 47.6313607,72.250137 C46.4057041,69.9101243 45.7706314,68.8685362 42.5000351,68.8685362 C38.9219529,68.8685362 37.3682176,71.4657329 37.3682176,73.9406595 C37.3682176,76.2687926 38.956813,79 42.4632071,79 C45.7873587,79 47.32767,77.864 47.6312904,75.631182 C62.3481655,71.7465372 67.4513077,66.2213894 71.5789289,53.6512632 C74.4250891,52.8881869 75,51.4387309 75,48.5786536 L75,35.0524589 C75.0000703,30.0233386 69.8835743,30.0596722 69.8682527,29.9804051 Z M63.0262511,35.0524589 C58.937215,23.7585959 50.9392067,19.8356722 42.5000351,19.8356722 C33.9973282,19.8356722 24.3287048,23.8577319 20.2630728,35.0524589 C20.0892642,34.8409873 18.7495391,33.5469393 18.5523264,33.3619364 C20.5103969,22.039729 30.8403787,13.0726096 42.5000351,13.0726096 C54.1029033,13.0726096 62.7153915,22.1190656 64.7369975,33.3620059 C64.0168829,34.3360675 63.0262511,35.0524589 63.0262511,35.0524589 Z" id="Shape"></path>
        </g>
    </g>
</svg>