<?xml version="1.0" encoding="UTF-8"?>
<svg width="120px" height="120px" viewBox="0 0 120 120" version="1.1" xmlns="http://www.w3.org/2000/svg" xmlns:xlink="http://www.w3.org/1999/xlink">
    <!-- Generator: Sketch 51.3 (57544) - http://www.bohemiancoding.com/sketch -->
    <title>icon/面性/备案信息 copy</title>
    <desc>Created with Sketch.</desc>
    <defs></defs>
    <g id="icon/面性/备案信息-copy" stroke="none" stroke-width="1" fill="none" fill-rule="evenodd">
        <g id="beian" transform="translate(11.000000, 5.000000)" fill-rule="nonzero">
            <path d="M96.7942894,17.2143975 C96.1090201,16.5258216 76.2362103,0 49.1680727,0 C21.9286178,0 2.5697599,16.5258216 1.88449059,17.2143975 L0,18.9358372 L0,57.4960876 C0,83.3013823 31.9558978,101.781181 43.066715,107.383136 C45.1490632,108.433033 46.6265673,109 48.9967554,109 C51.3669434,109 53.0722182,108.359677 55.406831,107.18957 C67.0275764,101.365261 98.5074627,83.0116313 98.5074627,57.4960876 L98.5074627,18.9358372 L96.7942894,17.2143975 Z" id="Path" fill="#C9C9C9"></path>
            <path d="M77.5756019,47.7055086 C78.0733244,46.9222504 78.6260584,46.0854976 79.2322871,45.1935953 C79.8368615,44.3034854 80.4614274,43.3597428 81.1028139,42.3611267 C76.3279866,42.1472852 71.8737146,41.6847204 67.7419283,40.9716398 C63.6083496,40.2602137 59.7954641,39.2981339 56.3049264,38.0856764 C59.5816227,36.3754963 62.5210809,34.5049696 65.1231632,32.4740961 C67.7235911,30.4432228 69.9865052,28.2520028 71.9105268,25.9005741 L71.9105268,21.7319756 L37.9204902,21.7319757 C38.4182127,20.9487175 38.9175897,20.1821422 39.4169667,19.4339039 C39.9146892,18.6856656 40.4140662,17.9207446 40.9134432,17.1358321 L36.2104478,15.1049588 C34.2145942,18.6689829 31.7913336,22.0893431 28.9421823,25.3661774 C26.0912386,28.644666 22.7777303,31.7793528 19.0016569,34.7723059 C19.5712114,35.2716829 20.1591031,35.8060798 20.7653319,36.3756343 C21.3699062,36.9468433 21.9577978,37.5514175 22.5290068,38.1926661 C24.4530284,36.5543179 26.3050801,34.8791577 28.0870922,33.1689776 C29.8674499,31.4587974 31.5426101,29.7134597 33.1107808,27.9314475 C34.5354254,29.8554691 36.2104478,31.6725009 38.1344694,33.382681 C40.0584909,35.0928612 42.2663935,36.6611697 44.7614863,38.0856764 C40.913581,39.5821529 36.7265075,40.8831252 32.2021959,41.9870764 C27.6762298,43.0926822 22.81275,44.0362869 17.6120322,44.8195451 C18.1097546,45.6044576 18.573974,46.3693786 19.0015191,47.1176169 C19.4290642,47.8658552 19.8199349,48.5972729 20.1773023,49.3088368 C26.0912386,48.3117373 31.5608093,47.1176169 36.5844979,45.72813 C41.6081865,44.3386431 46.1859929,42.7536519 50.3195716,40.9716398 C54.0238129,42.5398105 58.1390544,43.8759403 62.6650205,44.9798917 C67.1891944,46.0854976 72.1593881,46.9940825 77.5756019,47.7055086 Z M71.9105269,77.7407882 L71.9105269,48.4537468 L27.2317267,48.4537468 L27.2317267,77.7407882 L31.7210184,77.7407882 L31.7210184,74.9616766 L67.421373,74.9616766 L67.421373,77.7407882 L71.9105269,77.7407882 Z M37.0654002,25.7935845 L65.2836478,25.7935845 C63.2161001,27.7176061 60.9547027,29.5179553 58.4962843,31.1913233 C56.0378659,32.8664836 53.3122491,34.3812974 50.3194339,35.733972 C47.6104998,34.4513369 45.1353987,32.9916726 42.8908217,31.3515321 C40.6461071,29.7133218 38.7037484,27.86127 37.0654002,25.7935845 Z" id="Shape" fill="#FFFFFF"></path>
            <path d="M31.7210184,52.1948003 L47.3266188,52.1948003 L47.3266188,59.8907487 L31.7210184,59.8907487 L31.7210184,52.1948003 Z M31.7210184,71.2207609 L31.7210184,63.5248125 L47.3266188,63.5248125 L47.3266188,71.2207609 L31.7210184,71.2207609 Z M51.8157726,52.1948003 L67.421373,52.1948003 L67.421373,59.8907487 L51.8157726,59.8907487 L51.8157726,52.1948003 Z M51.8157726,71.2207609 L51.8157726,63.5248125 L67.421373,63.5248125 L67.421373,71.2207609 L51.8157726,71.2207609 Z" id="Combined-Shape" fill="#C9C9C9"></path>
        </g>
    </g>
</svg>