<?xml version="1.0" encoding="UTF-8"?>
<svg width="120px" height="120px" viewBox="0 0 120 120" version="1.1" xmlns="http://www.w3.org/2000/svg" xmlns:xlink="http://www.w3.org/1999/xlink">
    <!-- Generator: Sketch 51.3 (57544) - http://www.bohemiancoding.com/sketch -->
    <title>icon/面性/医保账户 copy</title>
    <desc>Created with Sketch.</desc>
    <defs></defs>
    <g id="icon/面性/医保账户-copy" stroke="none" stroke-width="1" fill="none" fill-rule="evenodd">
        <g id="yibaoxinxi" transform="translate(5.000000, 12.000000)">
            <path d="M73,63.805519 L66.2370299,63.805519 L66.2371525,63.805519 C63.9507457,63.805519 62.097545,66.0439294 62.097545,68.805445 C62.097545,71.5669605 63.9507457,73.805519 66.2371525,73.805519 L73,73.805519 L73,80.2307692 C73,82.6948089 74.9974988,84.6923077 77.4615385,84.6923077 L78.5384615,84.6923077 C81.0025012,84.6923077 83,82.6948089 83,80.2307692 L83,73.805519 L89.0668979,73.805519 C91.3533048,73.805519 93.2065054,71.5671086 93.2065054,68.805593 C93.2065054,66.0440775 91.3531822,63.805519 89.0670205,63.805519 L83,63.805519 L83,58.6923077 C83,56.228268 81.0025012,54.2307692 78.5384615,54.2307692 L77.4615385,54.2307692 C74.9974988,54.2307692 73,56.228268 73,58.6923077 L73,63.805519 Z M110,25 L110,29 L-2.13162821e-14,29 L-2.13162821e-14,25 L-2.13162821e-14,2 C-2.14515528e-14,0.8954305 0.8954305,2.02906125e-16 2,0 L108,0 C109.104569,-2.02906125e-16 110,0.8954305 110,2 L110,25 Z M-2.13162821e-14,41 L110,41 L110,95 C110,96.1045695 109.104569,97 108,97 L2,97 C0.8954305,97 -2.11810113e-14,96.1045695 -2.13162821e-14,95 L-2.13162821e-14,41 Z" id="Combined-Shape" fill="#C9C9C9" fill-rule="nonzero"></path>
            <g id="Group" transform="translate(62.000000, 54.000000)"></g>
        </g>
    </g>
</svg>