<?xml version="1.0" encoding="UTF-8"?>
<svg width="120px" height="120px" viewBox="0 0 120 120" version="1.1" xmlns="http://www.w3.org/2000/svg" xmlns:xlink="http://www.w3.org/1999/xlink">
    <!-- Generator: Sketch 51.3 (57544) - http://www.bohemiancoding.com/sketch -->
    <title>icon/面性/平产</title>
    <desc>Created with Sketch.</desc>
    <defs></defs>
    <g id="icon/面性/平产" stroke="none" stroke-width="1" fill="none" fill-rule="evenodd">
        <g id="fenmianyuyan" transform="translate(5.000000, 5.000000)" fill="#FD9933" fill-rule="nonzero">
            <path d="M55.00033,0.0180580581 C24.67135,0.0180580581 0.08415,24.6295395 0.08415,54.9886587 C0.08415,85.348989 24.67146,109.959259 55.00033,109.959259 C85.32876,109.959259 109.91596,85.3488789 109.91596,54.9886587 C109.91596,24.6295395 85.32876,0.0180580581 55.00033,0.0180580581 Z M18.81066,39.4386887 C18.81066,32.5753053 24.36885,27.0121021 31.2246,27.0121021 C38.08046,27.0121021 43.63865,32.5753053 43.63865,39.4386887 C43.63865,46.3018519 38.08046,51.8650551 31.2246,51.8650551 C24.36885,51.8651652 18.81066,46.3018519 18.81066,39.4386887 Z M79.44211,65.5516316 C72.96509,65.7308909 79.98177,73.1154254 76.38323,85.1822823 C72.7848,97.2489189 58.03204,92.2058759 48.13688,86.4431532 C38.24194,80.6805405 32.84402,73.1154254 32.1244,66.6321421 C31.405,60.1487487 42.37959,54.9886587 42.37959,54.9886587 C55.53416,51.1464765 52.9947,36.0164665 52.9947,36.0164665 C53.8945,29.8929129 59.11158,32.5943544 59.11158,32.5943544 C60.55104,45.561031 56.23321,54.2056657 56.23321,54.2056657 C54.18644,58.7928529 49.7563,62.1306206 49.7563,62.1306206 C57.60403,78.5162162 64.76184,70.4142042 64.76184,70.4142042 C68.4332,66.2713113 65.5886,62.6708208 65.5886,62.6708208 C60.01149,54.3406607 68.10749,54.9886587 68.10749,54.9886587 C97.88295,56.0112513 97.43327,62.6708208 97.43327,62.6708208 C96.73653,71.6298198 85.91913,65.372042 79.44211,65.5516316 Z" id="Shape"></path>
        </g>
    </g>
</svg>