<?xml version="1.0" encoding="UTF-8"?>
<svg width="120px" height="120px" viewBox="0 0 120 120" version="1.1" xmlns="http://www.w3.org/2000/svg" xmlns:xlink="http://www.w3.org/1999/xlink">
    <!-- Generator: Sketch 51.3 (57544) - http://www.bohemiancoding.com/sketch -->
    <title>icon/面性/电子社保卡 copy</title>
    <desc>Created with Sketch.</desc>
    <defs></defs>
    <g id="icon/面性/电子社保卡-copy" stroke="none" stroke-width="1" fill="none" fill-rule="evenodd">
        <path d="M2,17 L118,17 C119.104569,17 120,17.8954305 120,19 L120,102 C120,103.104569 119.104569,104 118,104 L2,104 C0.8954305,104 1.3527075e-16,103.104569 0,102 L0,19 C-1.3527075e-16,17.8954305 0.8954305,17 2,17 Z M32.381646,38.6666667 C30.9298373,38.6666667 29.5727118,38.9363104 28.2787084,39.4755978 C26.984705,40.0148853 25.8485069,40.7603709 24.8543335,41.7120546 C23.8601602,42.6637384 23.0869143,43.8216203 22.5188152,45.1539775 C21.9507162,46.4863348 21.6666667,47.9297218 21.6666667,49.4524158 C21.6666667,50.9751098 21.9507162,52.386774 22.5188152,53.6874084 C23.0869143,54.9880429 23.8759408,56.1300634 24.8543335,57.1293313 C25.8485069,58.1285993 26.984705,58.9058076 28.2787084,59.476818 C29.5727118,60.0478282 30.9456179,60.3333333 32.381646,60.3333333 C33.9754795,60.3333333 35.4430686,60.0478282 36.7686332,59.476818 C38.0941976,58.9058077 39.2461762,58.1127379 40.193008,57.1293313 C41.1398398,56.1300634 41.8973052,54.9880429 42.4811848,53.6874084 C43.0492838,52.386774 43.3333333,50.9751097 43.3333333,49.4524158 C43.3333333,46.3118594 42.3075989,43.7423133 40.2561301,41.7120546 C38.1888808,39.681796 35.5693129,38.6666667 32.381646,38.6666667 Z M46.6666667,74.5079715 C46.6666667,73.0412068 46.4005913,71.6541574 45.8684405,70.2989944 C45.3362897,68.9597744 44.6267554,67.7959284 43.7250554,66.8393427 C42.8381374,65.8827569 41.7738359,65.1174883 40.5173688,64.5275938 C39.2756837,63.9536424 37.9748707,63.6666667 36.6149298,63.6666667 L23.2668145,63.6666667 C20.4878048,63.6666667 18.1374723,64.7189109 16.2158167,66.8393427 C14.2941612,68.9438313 13.3333333,71.5106696 13.3333333,74.5079715 L13.3333333,85.3333333 L46.6666667,85.3333333 L46.6666667,74.5079715 Z M94.2255402,82 C95.6239379,82 96.6581694,81.6787148 97.328235,81.0361446 C97.9983005,80.3935743 98.3333333,79.6171352 98.3333333,78.7202142 C98.3333333,77.8232932 97.940034,77.0334672 97.1825686,76.3507363 C96.4105365,75.6680054 95.3180383,75.3333334 93.9196407,75.3333333 L62.543093,75.3333333 C61.1446953,75.3333333 60.0813304,75.6680054 59.3821316,76.3507363 C58.6829328,77.0334673 58.3333333,77.8232932 58.3333333,78.7202142 C58.3333333,79.6171352 58.6829328,80.3935743 59.3821316,81.0361446 C60.0813304,81.6787148 61.1009954,82 62.4411265,82 L94.2255402,82 Z M94.3405929,70.3333333 C95.7344223,70.3333333 96.7507562,70.0120482 97.3895947,69.3694779 C98.0139141,68.7269077 98.3333333,67.9504685 98.3333333,67.0535475 C98.3333333,66.0896921 98.0429522,65.2864792 97.4476709,64.6305221 C96.8523895,63.9879518 95.8505747,63.6666667 94.4567454,63.6666667 L62.3260738,63.6666667 C60.9322443,63.6666667 59.9159105,63.9879518 59.277072,64.6305221 C58.6527525,65.2730923 58.3333333,66.0763052 58.3333333,67.0535475 C58.3333333,67.9504685 58.6237144,68.7269077 59.2189957,69.3694779 C59.8142771,70.0120482 60.8160919,70.3333333 62.2099213,70.3333333 L94.3405929,70.3333333 Z M94.0793651,57 C95.2222223,57 96.2222223,56.6588486 97.063492,55.9765458 C97.9047619,55.2942431 98.3333333,54.4697939 98.3333333,53.5174129 C98.3333333,52.565032 97.9047619,51.7832268 97.063492,51.2004265 C96.2222222,50.6176261 95.2222222,50.3333333 94.0793651,50.3333333 L70.7936507,50.3333333 C69.6507936,50.3333333 68.6666666,50.6318408 67.8730158,51.2004265 C67.063492,51.7832268 66.6666667,52.5508174 66.6666667,53.5174129 C66.6666667,54.4697939 67.0634921,55.2942431 67.8730158,55.9765458 C68.6825397,56.6588486 69.6507936,57 70.7936507,57 L94.0793651,57 Z" id="Shape-Copy" fill="#C9C9C9" fill-rule="nonzero"></path>
    </g>
</svg>