<?xml version="1.0" encoding="UTF-8"?>
<svg width="120px" height="120px" viewBox="0 0 120 120" version="1.1" xmlns="http://www.w3.org/2000/svg" xmlns:xlink="http://www.w3.org/1999/xlink">
    <!-- Generator: Sketch 51.3 (57544) - http://www.bohemiancoding.com/sketch -->
    <title>icon/面性/特药备案 copy</title>
    <desc>Created with Sketch.</desc>
    <defs></defs>
    <g id="icon/面性/特药备案-copy" stroke="none" stroke-width="1" fill="none" fill-rule="evenodd">
        <g id="yao-7" transform="translate(18.000000, 10.000000)" fill="#C9C9C9" fill-rule="nonzero">
            <path d="M10,23 L10,2 C10,0.8954305 10.8954305,2.02906125e-16 12,0 L73,0 C74.1045695,-2.02906125e-16 75,0.8954305 75,2 L75,23 L83,23 C84.1045695,23 85,23.8954305 85,25 L85,103.370082 C85,104.474651 84.1045695,105.370082 83,105.370082 L2,105.370082 C0.8954305,105.370082 1.3527075e-16,104.474651 0,103.370082 L0,25 C-1.3527075e-16,23.8954305 0.8954305,23 2,23 L10,23 Z M55.9232827,77.880771 L55.9234112,77.8806425 C58.5198481,77.8806425 60.6259112,75.831764 60.6259112,73.3045911 C60.6259112,70.7774182 58.5198481,68.7285397 55.9234112,68.7285397 L46.3891355,68.7285397 L46.3891355,59.5760514 C46.3891355,57.04875 44.4105491,55 41.8129556,55 C39.2163902,55 37.1092991,57.04875 37.1092991,59.5760514 L37.1092991,68.7285397 L27.703528,68.7285397 C25.1059346,68.7285397 23,70.7774182 23,73.3045911 C23,75.831764 25.1059346,77.880771 27.703528,77.880771 L37.1092991,77.880771 L37.1092991,87.0331308 C37.1092991,89.5603037 39.2166472,91.6094393 41.8129556,91.6094393 C44.4105491,91.6094393 46.3891355,89.5603037 46.3891355,87.0331308 L46.3891355,77.880771 L55.9232827,77.880771 Z M9,32 C8.44771525,32 8,32.4477153 8,33 L8,44 C8,44.5522847 8.44771525,45 9,45 L76,45 C76.5522847,45 77,44.5522847 77,44 L77,33 C77,32.4477153 76.5522847,32 76,32 L9,32 Z" id="Combined-Shape"></path>
        </g>
    </g>
</svg>