<?xml version="1.0" encoding="UTF-8"?>
<svg width="120px" height="120px" viewBox="0 0 120 120" version="1.1" xmlns="http://www.w3.org/2000/svg" xmlns:xlink="http://www.w3.org/1999/xlink">
    <!-- Generator: Sketch 51.3 (57544) - http://www.bohemiancoding.com/sketch -->
    <title>icon/面性/出国带药</title>
    <desc>Created with Sketch.</desc>
    <defs></defs>
    <g id="icon/面性/出国带药" stroke="none" stroke-width="1" fill="none" fill-rule="evenodd">
        <g id="chuguochujing" transform="translate(5.000000, 5.000000)" fill="#26A88F" fill-rule="nonzero">
            <path d="M94.7906764,0.239257294 C89.3286074,0.892838196 85.0803316,3.84956233 81.532321,7.98885942 C78.1710477,11.9103448 74.6697215,15.7073873 71.2306897,19.5665782 C69.4722944,21.542931 67.7604377,23.5814324 65.9553581,25.5421751 C65.3328515,26.2268302 64.8349337,27.269496 63.5744562,26.9583156 C62.8275066,26.7715782 62.0649469,26.6315252 61.3179973,26.4447878 C54.2375862,24.6863926 47.1726393,22.9434615 40.0922281,21.1694562 C28.3744562,18.2594164 16.6722944,15.3339125 4.96998674,12.4084085 C3.10261273,11.941565 1.43758621,12.5951459 0.597267905,14.2601724 C-0.0252387268,15.5206499 -0.289734748,17.1546021 1.43758621,18.6641114 C2.57362069,19.6600928 3.78741379,20.5625597 4.96998674,21.4807825 C8.82917772,24.4685809 12.7039788,27.4563793 16.5633156,30.4285676 C19.8156101,32.9339125 23.0991247,35.408183 26.3514191,37.9136737 C30.1951459,40.8703979 34.0076525,43.8425862 37.8513793,46.7993103 C39.5943103,48.1375464 41.3370955,49.4759284 43.1733952,50.8764589 C39.3296684,55.1247347 35.5638462,59.2796419 31.8134881,63.4501592 C30.8798011,64.4772149 30.0861671,65.6287135 29.0901857,66.5936207 C28.1098143,67.5429178 27.0827586,68.8033952 25.8689655,69.0835013 C19.6443369,70.5930106 13.3731698,71.837878 7.10185676,73.1606499 C5.40561008,73.5185146 4.40977454,74.7946021 4.33187003,76.5219231 C4.22289125,78.9961936 5.42122016,79.7587533 7.36635279,80.5367772 C12.2215252,82.4819098 17.0766976,84.3959682 21.9162599,86.387931 C22.3831034,86.5746684 22.8810212,87.0725862 23.0833687,87.5550398 C25.2152387,92.643634 27.3160345,97.7322281 29.385756,102.851897 C30.3505172,105.217188 32.9804509,105.699642 34.7544562,104.625902 C36.186061,103.754509 36.3261141,102.338369 36.6374403,100.875544 C37.6178117,96.1604244 38.7071618,91.4609151 39.8119761,86.7612599 C40.2788196,84.7382228 40.3098939,82.5440584 42.3018568,81.1435279 C43.4066711,80.3809682 44.4026525,79.4472812 45.398634,78.5602785 C49.5224668,74.8722149 53.6306897,71.1530769 57.7543767,67.4650133 C58.0967772,67.1692971 58.4857162,66.9358753 58.9058753,66.640305 C59.4350133,67.309496 59.8862467,67.8384881 60.3064058,68.3987003 C63.1230769,72.0400796 65.9396021,75.6658488 68.7562732,79.3072281 C70.8259947,81.9838462 72.9111804,84.6448541 74.996366,87.3058621 C77.8441114,90.9316313 80.6918568,94.5419363 83.5396021,98.1522414 C86.2783687,101.637958 89.0016711,105.154894 91.7560477,108.625146 C92.6119761,109.714496 94.4948143,110.243488 95.6464589,109.776645 C96.8913263,109.263117 98.5098143,108.064934 98.1518037,106.275318 C97.8560875,104.765809 97.5605172,103.256446 97.1714324,101.778011 C94.8682891,92.8302255 92.5340716,83.8979045 90.2310743,74.9655836 C87.7724138,65.4419761 85.3292175,55.9027586 82.9016313,46.363687 C82.8082626,45.9902122 82.8860212,45.4610743 83.1039788,45.165504 C83.539748,44.5742175 84.1154244,44.0761538 84.6601724,43.5782361 C88.2704775,40.372626 91.8806366,37.1514058 95.5065517,33.9612599 C97.280557,32.3896021 99.132321,30.9111671 100.875252,29.2928249 C102.586963,27.705557 104.360968,26.1493634 105.839403,24.3442838 C109.076233,20.3917241 110.227732,15.7387533 109.791963,10.6968435 C109.542931,7.77133952 108.375822,5.15701592 106.181658,3.16505305 C102.929363,0.192864721 98.8832891,-0.258514589 94.7906764,0.239549072 L94.7906764,0.239257294 Z M103.193859,14.7737003 C103.551724,18.5707427 101.995676,21.3561936 99.0233422,23.4880637 C98.3230769,23.9859814 97.6538859,24.0015915 96.9848408,23.4257692 C95.3664987,22.0408488 93.7480106,20.6713926 92.1140584,19.3175464 C90.2622944,17.7769629 88.3949204,16.2674536 86.5586207,14.72687 C85.8739655,14.1510477 85.3448276,13.6998143 85.8427454,12.5016313 C87.1342971,9.43607427 90.7602122,6.49496021 94.3549072,6.83721485 C98.5564987,6.61940318 102.75809,10.2607825 103.193859,14.7735544 L103.193859,14.7737003 Z" id="Shape"></path>
        </g>
    </g>
</svg>