<?xml version="1.0" encoding="UTF-8"?>
<svg width="46px" height="46px" viewBox="0 0 46 46" version="1.1" xmlns="http://www.w3.org/2000/svg" xmlns:xlink="http://www.w3.org/1999/xlink">
    <!-- Generator: Sketch 51.3 (57544) - http://www.bohemiancoding.com/sketch -->
    <title>chenggong-3</title>
    <desc>Created with Sketch.</desc>
    <defs></defs>
    <g id="Symbols" stroke="none" stroke-width="1" fill="none" fill-rule="evenodd">
        <g id="成功" transform="translate(-2.000000, -2.000000)" fill="#21B589" fill-rule="nonzero">
            <g id="chenggong-3" transform="translate(2.000000, 2.000000)">
                <path d="M23,0 C10.2973836,0 0,10.2973836 0,23 C0,35.7026164 10.2973836,46 23,46 C35.7026164,46 46,35.7026164 46,23 C46,10.2973836 35.7026164,0 23,0 Z M36.8583346,16.6876804 L21.1156869,33.1346095 C21.0620301,33.216939 21.0022959,33.2955504 20.9319135,33.3684252 C20.3148858,34.0092671 19.3146246,34.0092671 18.6971813,33.3684252 L10.8775145,25.2490941 C10.2609543,24.6081991 10.2609543,23.5696794 10.8775145,22.9297405 C11.4944903,22.2888455 12.4947515,22.2888455 13.1117793,22.9297405 L19.7909394,29.8639524 L34.6236023,14.3674238 C35.2410975,13.726582 36.2408913,13.726582 36.8583346,14.3674238 C37.4748948,15.0082657 37.4748948,16.0467323 36.8583346,16.6876804 Z" id="Shape"></path>
            </g>
        </g>
    </g>
</svg>