<?xml version="1.0" encoding="UTF-8"?>
<svg width="120px" height="120px" viewBox="0 0 120 120" version="1.1" xmlns="http://www.w3.org/2000/svg" xmlns:xlink="http://www.w3.org/1999/xlink">
    <!-- Generator: Sketch 51.3 (57544) - http://www.bohemiancoding.com/sketch -->
    <title>icon/面性/缴费支付</title>
    <desc>Created with Sketch.</desc>
    <defs></defs>
    <g id="icon/面性/缴费支付" stroke="none" stroke-width="1" fill="none" fill-rule="evenodd">
        <g id="Group" transform="translate(0.000000, 9.000000)" fill="#26A88F">
            <g id="jiaofei-">
                <rect id="Shape" fill-rule="nonzero" x="18.5454545" y="26.1818182" width="82.9090909" height="75.2727273" rx="2"></rect>
                <path d="M109.090909,52.3636364 L109.090909,19.4545455 C109.090909,18.349976 108.195479,17.4545455 107.090909,17.4545455 L12.9090909,17.4545455 C11.8045214,17.4545455 10.9090909,18.349976 10.9090909,19.4545455 L10.9090909,52.3636364 L2,52.3636364 C0.8954305,52.3636364 1.3527075e-16,51.4682059 0,50.3636364 L0,2 C-1.3527075e-16,0.8954305 0.8954305,2.02906125e-16 2,0 L118,0 C119.104569,-2.02906125e-16 120,0.8954305 120,2 L120,50.3636364 C120,51.4682059 119.104569,52.3636364 118,52.3636364 L109.090909,52.3636364 Z" id="Combined-Shape"></path>
            </g>
            <rect id="Rectangle-4" x="18.5454545" y="26.1818182" width="82.9090909" height="5.45454545"></rect>
        </g>
        <path d="M53.2401164,64.6472739 L51.3200851,62.7272426 L46.1458588,57.5530163 C44.6467657,56.0539231 44.6467657,53.623413 46.1458588,52.1243198 C47.6449519,50.6252267 50.0754621,50.6252267 51.5745552,52.1243198 L57.1728984,57.722663 L60.0497655,60.5995301 C60.0641853,60.5991797 60.0786248,60.5989087 60.0930836,60.5987177 L62.9691383,57.722663 L68.5674815,52.1243198 C70.0665746,50.6252267 72.4970848,50.6252267 73.9961779,52.1243198 C75.4952711,53.623413 75.4952711,56.0539231 73.9961779,57.5530163 L68.3978347,63.1513595 L66.9019203,64.6472739 L75.5480125,64.6472739 C77.6680503,64.6472739 79.3866806,66.3659041 79.3866806,68.485942 C79.3866806,70.6059798 77.6680503,72.32461 75.5480125,72.32461 L63.9834938,72.32461 L63.9834938,77.3116913 L75.5480125,77.3116913 C77.6680503,77.3116913 79.3866806,79.0303215 79.3866806,81.1503593 C79.3866806,83.2703972 77.6680503,84.9890274 75.5480125,84.9890274 L63.9834938,84.9890274 L63.9834938,90.8278871 C63.9834938,92.9479249 62.2648636,94.6665551 60.1448257,94.6665551 C58.0247879,94.6665551 56.3061577,92.9479249 56.3061577,90.8278871 L56.3061577,84.9890274 L44.8386681,84.9890274 C42.7186302,84.9890274 41,83.2703972 41,81.1503593 C41,79.0303215 42.7186302,77.3116913 44.8386681,77.3116913 L56.3061577,77.3116913 L56.3061577,72.32461 L44.8386681,72.32461 C42.7186302,72.32461 41,70.6059798 41,68.485942 C41,66.3659041 42.7186302,64.6472739 44.8386681,64.6472739 L53.2401164,64.6472739 Z" id="Combined-Shape" fill="#FFFFFF"></path>
    </g>
</svg>