<?xml version="1.0" encoding="UTF-8"?>
<svg width="160px" height="88px" viewBox="0 0 160 88" version="1.1" xmlns="http://www.w3.org/2000/svg" xmlns:xlink="http://www.w3.org/1999/xlink">
    <!-- Generator: Sketch 51.3 (57544) - http://www.bohemiancoding.com/sketch -->
    <title>定点药店</title>
    <desc>Created with Sketch.</desc>
    <defs>
        <rect id="path-1" x="0" y="0" width="160" height="88" rx="4"></rect>
        <linearGradient x1="98.7439184%" y1="0%" x2="0.973053892%" y2="0%" id="linearGradient-3">
            <stop stop-color="#5F9CEF" offset="0%"></stop>
            <stop stop-color="#4487DF" offset="100%"></stop>
        </linearGradient>
        <linearGradient x1="50%" y1="0%" x2="50%" y2="100%" id="linearGradient-4">
            <stop stop-color="#6A48B0" offset="0%"></stop>
            <stop stop-color="#19115A" offset="100%"></stop>
        </linearGradient>
        <linearGradient x1="7.66405428%" y1="58.3957115%" x2="82.7792724%" y2="58.3957115%" id="linearGradient-5">
            <stop stop-color="#EF9D60" offset="0%"></stop>
            <stop stop-color="#FF5A45" offset="100%"></stop>
        </linearGradient>
        <linearGradient x1="50%" y1="0%" x2="50%" y2="100%" id="linearGradient-6">
            <stop stop-color="#6F5FA7" offset="0%"></stop>
            <stop stop-color="#3E0565" offset="100%"></stop>
        </linearGradient>
    </defs>
    <g id="定点药店" stroke="none" stroke-width="1" fill="none" fill-rule="evenodd">
        <g>
            <g id="Group-4">
                <mask id="mask-2" fill="white">
                    <use xlink:href="#path-1"></use>
                </mask>
                <use id="Mask" fill="#00AB6B" xlink:href="#path-1"></use>
                <g mask="url(#mask-2)">
                    <g transform="translate(42.000000, 15.000000)">
                        <g id="Group-14">
                            <rect id="Rectangle-18" fill="#F0F6FF" opacity="0.471372768" x="0" y="57.9333333" width="69.3150685" height="17.6809524"></rect>
                            <rect id="Rectangle-17" fill="#E9F8FD" opacity="0.692299107" x="45.9589041" y="47.7761905" width="64.0410959" height="31.2238095"></rect>
                            <g id="Group-11" transform="translate(16.198630, 16.147619)">
                                <rect id="Rectangle-8" fill="#F0F6FF" opacity="0.384821429" x="0" y="0.785416667" width="21.8493151" height="56.78125"></rect>
                                <g id="Group-9" transform="translate(4.143836, 5.763125)" fill="#FFFFFF">
                                    <g id="Group-8">
                                        <rect id="Rectangle-10" x="0" y="0" width="2.6369863" height="2.27125"></rect>
                                        <rect id="Rectangle-10-Copy" x="10.9246575" y="0" width="2.6369863" height="2.27125"></rect>
                                    </g>
                                    <g id="Group-8-Copy" transform="translate(0.000000, 6.813750)">
                                        <rect id="Rectangle-10" x="0" y="0" width="2.6369863" height="2.27125"></rect>
                                        <rect id="Rectangle-10-Copy" x="10.9246575" y="0" width="2.6369863" height="2.27125"></rect>
                                    </g>
                                    <g id="Group-8-Copy-2" transform="translate(0.000000, 13.627500)">
                                        <rect id="Rectangle-10" x="0" y="0" width="2.6369863" height="2.27125"></rect>
                                        <rect id="Rectangle-10-Copy" x="10.9246575" y="0" width="2.6369863" height="2.27125"></rect>
                                    </g>
                                    <g id="Group-8-Copy-3" transform="translate(0.000000, 20.441250)">
                                        <rect id="Rectangle-10" x="0" y="0" width="2.6369863" height="2.27125"></rect>
                                        <rect id="Rectangle-10-Copy" x="10.9246575" y="0" width="2.6369863" height="2.27125"></rect>
                                    </g>
                                </g>
                            </g>
                            <rect id="Rectangle-12" fill="#E9F8FD" opacity="0.356473214" x="45.9589041" y="10.9095238" width="25.9931507" height="47.0238095"></rect>
                            <g id="Group-13" transform="translate(52.739726, 15.800000)" fill="#FFFFFF">
                                <g id="Group-12">
                                    <rect id="Rectangle-13" x="0" y="0" width="2.6369863" height="2.63594966"></rect>
                                    <rect id="Rectangle-13-Copy" x="10.9246575" y="0" width="2.6369863" height="2.63594966"></rect>
                                </g>
                                <g id="Group-12-Copy" transform="translate(0.000000, 6.778156)">
                                    <rect id="Rectangle-13" x="0" y="0" width="2.6369863" height="2.63594966"></rect>
                                    <rect id="Rectangle-13-Copy" x="10.9246575" y="0" width="2.6369863" height="2.63594966"></rect>
                                </g>
                                <g id="Group-12-Copy-2" transform="translate(0.000000, 13.556313)">
                                    <rect id="Rectangle-13" x="0" y="0" width="2.6369863" height="2.63594966"></rect>
                                    <rect id="Rectangle-13-Copy" x="10.9246575" y="0" width="2.6369863" height="2.63594966"></rect>
                                </g>
                                <g id="Group-12-Copy-3" transform="translate(0.000000, 20.334469)">
                                    <rect id="Rectangle-13" x="0" y="0" width="2.6369863" height="2.63594966"></rect>
                                    <rect id="Rectangle-13-Copy" x="10.9246575" y="0" width="2.6369863" height="2.63594966"></rect>
                                </g>
                            </g>
                            <path d="M51.2328767,7.9 L45.9589041,7.9 L45.9589041,6.3952381 L51.2328767,6.3952381 L52.739726,6.3952381 L52.739726,1.88095238 L51.2328767,1.88095238 L51.2328767,0 L67.8082192,0 L67.8082192,1.88095238 L66.3013699,1.88095238 L66.3013699,6.3952381 L71.9520548,6.3952381 L71.9520548,10.9095238 L51.2328767,10.9095238 L51.2328767,7.9 Z M64.7945205,6.3952381 L64.7945205,1.88095238 L54.2465753,1.88095238 L54.2465753,6.3952381 L64.7945205,6.3952381 Z" id="Combined-Shape" fill="#E9F8FD" opacity="0.347935268"></path>
                            <polygon id="Rectangle-16" fill="#E5F2F8" opacity="0.241462054" points="85.890411 16.552381 110 25.5890346 110 67.3380952 85.890411 67.3380952"></polygon>
                        </g>
                        <g id="Group-53" transform="translate(14.000000, 4.000000)">
                            <path d="" id="Path-67" stroke="#979797"></path>
                            <g id="Group-17" transform="translate(3.009404, 12.727273)">
                                <rect id="Rectangle-58" fill="#3B75D8" x="3.38557994" y="51.2834225" width="109.79857" height="5.98930481"></rect>
                                <rect id="Rectangle-57" fill="url(#linearGradient-3)" x="0" y="48.2887701" width="116.687892" height="3.46936337" rx="1.73468168"></rect>
                                <g id="Group-3" transform="translate(26.332288, 0.000000)">
                                    <path d="M5.19498931,17.0164013 C2.65522732,18.7446264 1.38534633,19.8635161 1.38534633,20.3730704 C1.38534633,21.1374018 0.334641971,25.2055538 0.334641971,27.4378116 C0.334641971,28.9259836 0.334641971,35.6950624 0.334641971,47.7450482 L25.2547887,47.7450482 L25.2547887,41.1930164 L23.2735057,26.6273364 L18.2092608,17.0164013 L5.19498931,17.0164013 Z" id="Path-68" fill="#F6F6F6"></path>
                                    <path d="M17.6802508,29.9465241 L18.8087774,47.1657754" id="Path-70" stroke="#DEDEDE"></path>
                                    <path d="M30.3809932,32.9411765 L31.9583493,33.9638322 L34.8308684,33.9638322 L34.8308684,35.5717788 L39.1222571,38.4401055 L37.9567289,39.3048128 C34.6486682,38.7283413 32.9946378,38.4401055 32.9946378,38.4401055 C32.9946378,38.4401055 32.6492083,38.0430965 31.9583493,37.2490785 L28.2131661,36.1229947 L29.2229744,32.9411765 L30.3809932,32.9411765 Z" id="Path-73" fill="#FFEAD6"></path>
                                    <path d="M25.1613774,36.684492 L28.090994,36.684492 L31.2801769,36.684492 L31.2801769,37.5354038 L30.4160112,37.5354038 C32.3440292,38.4483612 33.7704566,38.90484 34.6952932,38.90484 C35.6201299,38.90484 36.3434334,38.90484 36.8652038,38.90484 L36.0386277,40.3065652 C34.5007504,40.8865021 33.323206,41.1764706 32.5059944,41.1764706 C31.6887827,41.1764706 29.9940842,40.8865021 27.4218987,40.3065652 L24.0752351,40.3065652 L24.0752351,37.5354038 L25.1613774,36.684492 Z" id="Path-72" fill="#FFEAD6"></path>
                                    <polygon id="Path-64" fill="#E79460" points="9.40438871 18.6312917 18.0564263 29.197861 18.0564263 16.8449198"></polygon>
                                    <polygon id="Path-61" fill="#F4DBC4" points="9.78056426 9.35828877 9.78056426 15.8937725 14.3517234 20.2139037 16.1755486 18.4238718 16.1755486 12.1129302"></polygon>
                                    <path d="M10.0999252,10.7216525 C12.2261419,13.0569501 13.8070763,14.2245989 14.8427282,14.2245989 C16.396206,14.2245989 17.5028203,13.6233469 18.3587452,12.4731257 C19.2146701,11.3229045 19.1848262,7.18242033 19.1848262,6.67363863 C19.1848262,6.33445083 18.9094658,4.85856772 18.3587452,2.2459893 L12.0186932,2.2459893 L8.27586207,8.23529412 L10.0999252,10.7216525 Z" id="Path-60" fill="#FFEAD6"></path>
                                    <polygon id="Path-62" fill="#E7AC60" points="9.76742624 14.5989305 7.89968652 15.5505396 9.76742624 19.5982742 13.1953787 21.7112299 15.4231975 19.5982742 13.1953787 16.8337338"></polygon>
                                    <path d="M10.62277,9.02022048 C12.1644831,8.24257886 12.9353397,7.60492825 12.9353397,7.10726864 C12.9353397,6.36077922 11.7086688,4.63590394 12.3220042,3.98403448 C12.9353397,3.33216502 13.7073926,3.32208257 14.4124492,3.32712379 C15.1175058,3.33216502 17.3507167,3.87971985 17.8683431,3.32712379 C18.3859695,2.77452773 20.2283686,1.19507246 19.3071691,1.19507246 C18.3859695,1.19507246 17.7870246,0.627352721 16.4394869,0.627352721 C15.0919492,0.627352721 12.3762394,-0.784190902 10.62277,0.627352721 C9.45379038,1.5683818 8.82197778,2.68727572 8.72733217,3.98403448 C7.67400101,4.42094084 7.14733542,4.96694453 7.14733542,5.62204554 C7.14733542,6.60469706 7.14733542,8.0216697 7.14733542,9.02022048 C7.14733542,9.68592099 7.8509298,10.2977192 9.25811856,10.855615 L9.25811856,10.2227471 C8.78196608,9.23001309 8.78196608,8.46258319 9.25811856,7.92045737 C9.73427104,7.37833155 10.1891548,7.74491925 10.62277,9.02022048 Z" id="Path-59" fill="url(#linearGradient-4)"></path>
                                    <polygon id="Path-63" fill="#E7AC60" points="15.4231975 19.0425065 18.0564263 16.8449198 18.0564263 19.8395722"></polygon>
                                    <polygon id="Path-65" fill="#FFFFFF" points="7.41729791 14.973262 4.89028213 16.8775236 6.80992953 21.4729185 10.0007855 21.4729185 10.0007855 25.8811526 13.5423197 29.9465241 13.5423197 22.459893"></polygon>
                                    <polygon id="Path-66" fill="#FFFFFF" points="18.0564263 16.8449198 21.4420063 23.4305067 19.0023582 25.1885846 18.0564263 28.8235294"></polygon>
                                    <path d="M0.834374628,28.5505362 C1.62713417,31.667832 5.6879003,35.498009 13.016673,40.0410672 L24.8275862,40.802139 L24.8275862,34.6763376 L15.7404262,32.3574714 L5.62783482,20.0712028 L5.62783482,16.8449198 L1.54220499,20.0712028 C0.277558544,22.6067959 0.0416150898,25.4332404 0.834374628,28.5505362 Z" id="Path-69" fill="#FFFFFF"></path>
                                    <polygon id="Path-71" fill="#FFFFFF" points="23.6990596 28.0748663 30.846395 33.0836898 29.5408936 36.684492 25.048457 35.4969849"></polygon>
                                </g>
                                <g id="Group-39" transform="translate(10.909091, 29.946524)">
                                    <rect id="Rectangle-53" stroke="#FFFFFF" stroke-width="4" x="7.66392618" y="2" width="6.51872006" height="1" rx="0.5"></rect>
                                    <rect id="Rectangle-52" stroke="#EEEEEE" fill="#FFFFFF" x="1.30913231" y="4.0887003" width="18.8237416" height="13.7535457" rx="4"></rect>
                                    <rect id="Rectangle-40" stroke="#EEEEEE" fill="#FFFFFF" x="0.5" y="3.29121135" width="20.4420063" height="2.98744478" rx="1.49372239"></rect>
                                    <g id="Group-40" transform="translate(7.282191, 8.650974)" fill="#DD0000">
                                        <rect id="Rectangle-54" x="0" y="2.5138717" width="6.4730585" height="1.59497791" rx="0.797488956"></rect>
                                        <rect id="Rectangle-54-Copy" transform="translate(3.236529, 3.311361) rotate(90.000000) translate(-3.236529, -3.311361) " x="0" y="2.5138717" width="6.4730585" height="1.59497791" rx="0.797488956"></rect>
                                    </g>
                                </g>
                                <g id="Group-2" transform="translate(59.059561, 2.620321)">
                                    <path d="M15.8408846,17.2820886 C14.2979719,17.0462021 13.1212989,17.4744408 12.3108655,18.5668045 C11.5004321,19.6591683 9.96849622,23.4241804 7.71505786,29.8618408 L5.7397734,22.6333276 L1.88087774,17.2820886 C1.88087774,18.6064634 1.88087774,19.5724871 1.88087774,20.1801597 C1.88087774,20.7878323 2.39082656,21.6055549 3.4107242,22.6333276 C3.30729796,28.6359027 3.76409718,32.4060821 4.78112186,33.9438657 C6.30665889,36.2505411 7.51564894,36.4024593 8.79691983,35.1731625 C9.65110042,34.3536313 11.2145324,32.8341915 13.4872159,30.6148432 L17.6623898,30.6148432 L18.4326019,20.1801597 L15.8408846,17.2820886 Z" id="Path-123" fill="#F8DDC8"></path>
                                    <path d="M31.369901,29.8450301 C32.3510972,32.2556126 32.5963962,33.9851341 32.1057981,35.0335944 C31.6152001,36.0820548 30.4039285,38.3792346 28.4719835,41.9251337 L25.9561129,32.3018758 L28.4719835,29.197861 L31.369901,29.8450301 Z" id="Path-124" fill="#F8DDC8"></path>
                                    <path d="M16.2174388,17.9679144 L20.9340439,18.497776 L28.3130953,21.9568871 L28.3130953,33.0956772 C27.8806409,36.9685924 27.8806409,39.4628538 28.3130953,40.5784613 C28.7062118,41.8424872 29.4252531,43.6639271 30.4702194,46.0427807 L13.5423197,46.0427807 C14.8959181,41.4930151 15.3530578,38.3133257 14.913739,36.5037126 C14.4744202,34.6940995 14.0172804,32.8825369 13.5423197,31.0690249 C15.9815425,29.7272807 17.2011539,27.7891335 17.2011539,25.2545835 C17.2011539,22.7200334 16.8732488,20.2911437 16.2174388,17.9679144 Z" id="Path-76" fill="url(#linearGradient-5)"></path>
                                    <path d="M15.0470219,5.98930481 C15.0470219,8.22588013 15.0470219,9.60574928 15.0470219,10.1289123 C15.0470219,10.9136567 15.6534843,13.4813631 16.3205152,14.0924346 C16.7652025,14.4998156 17.5114385,14.7733237 18.5592232,14.9129589 L18.5592232,18.6387137 L21.0658307,18.6387137 L21.0658307,7.27255498 L15.0470219,5.98930481 Z" id="Path-75" fill="#FFEAD6"></path>
                                    <path d="M15.6651864,7.05045753 C14.5626925,4.46780845 14.9349188,2.64430324 16.7818654,1.57994192 C19.5522852,-0.0166000547 24.6258061,-1.356541 26.3441678,2.55720968 C28.0625295,6.47096037 28.8017284,11.0730102 28.8017284,13.5547867 C28.8017284,16.0365633 32.2258428,21.5367167 32.9276089,23.3376035 C33.629375,25.1384904 34.3618755,28.6423814 30.3530216,30.8351893 C26.3441678,33.0279972 20.0467919,34.1983007 20.0467919,27.6666735 C20.0467919,21.1350464 20.0467919,16.3169525 20.0467919,14.1549523 C20.0467919,12.7136189 19.4038675,11.21054 18.1180186,9.64571568 C18.5968955,8.79713841 18.5968955,8.10519956 18.1180186,7.56989913 C17.6391417,7.0345987 16.821531,6.8614515 15.6651864,7.05045753 Z" id="Path-74" fill="url(#linearGradient-6)"></path>
                                    <path d="M0.0379008214,13.853833 C0.08843525,13.7861452 0.176408697,13.7075433 0.301821163,13.6180272 L3.50850116,12.0521982 C3.56475464,11.9967371 3.63836161,11.9726253 3.72932208,11.9798628 C3.82028255,11.9871003 3.89687585,12.0231632 3.959102,12.0880514 L9.02821317,19.9886283 L6.32453877,22.8342246 L5.83316402,22.8342246 L0.0379008214,14.2830369 C-0.0126336071,14.0645886 -0.0126336071,13.9215207 0.0379008214,13.853833 Z" id="Path-125" fill="#E9E9E9"></path>
                                    <polygon id="Path-125-Copy" fill="#F5F5F5" points="0 13.8878044 3.73602864 11.9786096 9.02821317 20.0964285 6.0372341 22.8342246"></polygon>
                                    <polygon id="Path-126" fill="#FFFFFF" points="0.752351097 14.5341895 4.02247808 12.7272727 8.27586207 19.1198244 5.50677417 21.3368984"></polygon>
                                    <ellipse id="Oval-23" fill="#FFFFFF" cx="7.3354232" cy="20.7754011" rx="1" ry="1"></ellipse>
                                </g>
                            </g>
                        </g>
                    </g>
                </g>
            </g>
            <path d="M14.264,18.504 L23.768,18.504 L23.768,19.944 L19.832,19.944 L19.832,22.344 L24.44,22.344 L24.44,23.784 L19.832,23.784 L19.832,26.728 C20.92,26.888 22.248,26.968 23.848,26.984 C24.648,26.984 25.48,26.936 26.312,26.872 L26.024,28.376 L24.52,28.376 C21.16,28.376 18.744,28.072 17.304,27.464 C16.28,26.984 15.448,26.28 14.808,25.352 C14.2,26.632 13.448,27.72 12.552,28.616 L11.56,27.4 C13.064,25.832 14.088,23.72 14.6,21.096 L16.072,21.352 C15.88,22.28 15.64,23.16 15.368,23.96 C16.12,25.208 17.064,26.024 18.184,26.376 L18.328,26.408 L18.328,19.944 L14.264,19.944 L14.264,18.504 Z M25.704,15.384 L25.704,19.016 L24.216,19.016 L24.216,16.792 L13.784,16.792 L13.784,19.096 L12.296,19.096 L12.296,15.384 L18.312,15.384 C18.088,14.872 17.832,14.408 17.576,13.992 L19.208,13.736 C19.432,14.232 19.656,14.776 19.864,15.384 L25.704,15.384 Z M33.992,13.976 L35.496,13.976 L35.496,15.384 L41.592,15.384 L41.592,16.808 L35.496,16.808 L35.496,18.504 L40.584,18.504 L40.584,23.928 L29.672,23.928 L29.672,18.504 L33.992,18.504 L33.992,13.976 Z M39.064,22.52 L39.064,19.928 L31.176,19.928 L31.176,22.52 L39.064,22.52 Z M29.64,24.456 L30.904,25.08 C30.328,26.456 29.64,27.64 28.872,28.632 L27.624,27.72 C28.392,26.808 29.064,25.72 29.64,24.456 Z M33.448,24.968 C33.768,25.992 34.056,27.112 34.312,28.312 L32.776,28.664 C32.584,27.384 32.328,26.248 32.024,25.272 L33.448,24.968 Z M36.776,24.76 C37.24,25.848 37.64,27.016 37.992,28.28 L36.488,28.632 C36.184,27.288 35.8,26.088 35.352,25.048 L36.776,24.76 Z M39.976,24.408 C40.984,25.72 41.752,26.856 42.296,27.832 L41.032,28.712 C40.472,27.656 39.72,26.472 38.76,25.192 L39.976,24.408 Z M43.912,15.08 L47.544,15.08 L47.544,13.864 L49.064,13.864 L49.064,15.08 L52.936,15.08 L52.936,13.864 L54.456,13.864 L54.456,15.08 L58.088,15.08 L58.088,16.488 L54.456,16.488 L54.456,17.576 L52.936,17.576 L52.936,16.488 L49.064,16.488 L49.064,17.608 L47.544,17.608 L47.544,16.488 L43.912,16.488 L43.912,15.08 Z M50.376,26.008 L50.376,27.384 C48.664,27.896 46.712,28.296 44.52,28.6 L44.328,27.176 C46.632,26.888 48.648,26.488 50.376,26.008 Z M46.728,17.384 L48.056,17.896 C47.32,19.16 46.6,20.216 45.864,21.048 C46.472,20.984 47.08,20.904 47.672,20.84 C48.008,20.328 48.36,19.784 48.728,19.208 L50.088,19.72 C48.664,21.816 47.464,23.336 46.488,24.28 C47.56,24.088 48.648,23.816 49.752,23.48 L49.752,24.776 C48.008,25.272 46.344,25.608 44.776,25.784 L44.392,24.472 C44.648,24.376 44.856,24.232 45.032,24.056 C45.512,23.672 46.088,23.016 46.76,22.12 C45.976,22.216 45.16,22.328 44.328,22.44 L44.008,21.24 C44.2,21.144 44.392,20.984 44.552,20.744 C45.384,19.736 46.12,18.616 46.728,17.384 Z M52.568,22.328 C53.432,23.352 54.104,24.232 54.568,25 L53.464,25.784 C52.968,24.952 52.296,24.04 51.464,23.016 L52.568,22.328 Z M51.928,17.576 L53.352,17.736 C53.24,18.2 53.112,18.648 52.968,19.096 L57.528,19.096 C57.528,23.448 57.432,26.12 57.272,27.144 C57.08,28.152 56.264,28.664 54.792,28.664 C54.392,28.664 53.704,28.632 52.728,28.6 L52.392,27.256 C53.224,27.304 53.96,27.336 54.568,27.336 C55.288,27.336 55.72,27.048 55.848,26.472 C55.96,25.88 56.024,23.88 56.056,20.456 L52.408,20.456 C51.88,21.512 51.208,22.44 50.408,23.272 L49.544,22.152 C50.712,20.904 51.512,19.368 51.928,17.576 Z M67.192,17.288 L68.712,17.288 L68.712,19.016 L73.816,19.016 L73.816,20.456 L68.712,20.456 L68.712,22.488 L72.904,22.488 L72.904,28.632 L71.4,28.632 L71.4,27.928 L65.096,27.928 L65.096,28.632 L63.592,28.632 L63.592,22.488 L67.192,22.488 L67.192,17.288 Z M65.096,26.504 L71.4,26.504 L71.4,23.896 L65.096,23.896 L65.096,26.504 Z M67.624,13.8 C67.88,14.264 68.104,14.776 68.328,15.32 L74.168,15.32 L74.168,16.792 L62.552,16.792 L62.552,20.12 C62.504,23.64 61.928,26.456 60.824,28.568 L59.672,27.544 C60.552,25.768 61.016,23.288 61.048,20.12 L61.048,15.32 L66.776,15.32 C66.552,14.856 66.296,14.44 66.04,14.056 L67.624,13.8 Z" fill="#FFFFFF"></path>
        </g>
    </g>
</svg>