<?xml version="1.0" encoding="UTF-8"?>
<svg width="120px" height="120px" viewBox="0 0 120 120" version="1.1" xmlns="http://www.w3.org/2000/svg" xmlns:xlink="http://www.w3.org/1999/xlink">
    <!-- Generator: Sketch 51.3 (57544) - http://www.bohemiancoding.com/sketch -->
    <title>icon/面性/就诊信息</title>
    <desc>Created with Sketch.</desc>
    <defs></defs>
    <g id="icon/面性/就诊信息" stroke="none" stroke-width="1" fill="none" fill-rule="evenodd">
        <g id="yisheng-11" transform="translate(5.000000, 5.000000)" fill="#0284FD" fill-rule="nonzero">
            <path d="M55.1564063,0 C62.9613728,0 70.0342746,3.17060268 75.146942,8.28842634 C80.265625,13.4122656 83.4299665,20.4892188 83.4299665,28.3049888 C83.4299665,36.1178125 80.2655022,43.1947656 75.146942,48.3155357 C70.0342746,53.4363058 62.9613728,56.6069085 55.1564063,56.6069085 C47.3484933,56.6069085 40.2785379,53.4363058 35.1658705,48.3155357 C30.0473103,43.1947656 26.882846,36.1178125 26.882846,28.3049888 C26.882846,20.4892188 30.0473103,13.4122656 35.1658705,8.28842634 C40.2785379,3.17060268 47.3483705,0 55.1564063,0 M77.6847991,60.8169866 L77.6847991,73.1493862 C81.5403237,73.942221 84.0097991,75.9009821 85.4480246,77.6414621 C89.3419754,82.357221 89.44375,88.8467299 89.2457254,91.8635045 C89.8205246,92.5486719 90.2439509,93.3719531 90.4392746,94.2835045 C90.5135491,94.6288504 90.5603237,94.9824219 90.5603237,95.3526897 C90.5603237,98.3031696 88.2585491,100.698371 85.4205246,100.698371 C83.8365737,100.698371 82.4367746,99.9358594 81.4907254,98.756183 C80.7427009,97.8307589 80.2807254,96.6566071 80.2807254,95.3526897 C80.2807254,93.6453571 81.1002009,92.1922768 82.2992746,91.214308 C82.4203237,88.8771763 82.1728237,84.7883929 80.1460491,82.3518192 C78.8315737,80.7715513 76.8653237,80.0036384 74.12625,80.0036384 C71.0132254,80.0036384 68.8572991,80.8296205 67.54,82.5148549 C65.5875,85.0067969 65.6727009,89.1838504 65.9285491,91.090067 C67.2210491,92.0652121 68.1203237,93.5654353 68.1203237,95.3528125 C68.1203237,98.3032924 65.8240737,100.698493 62.9833482,100.698493 C60.1453237,100.698493 57.8435491,98.3032924 57.8435491,95.3528125 C57.8435491,94.0930915 58.3247991,92.988058 59.0260491,92.0708594 C58.6795982,89.4739509 58.2642746,82.8740737 62.1335491,77.9289844 C64.2070982,75.2823549 67.0945982,73.6662388 70.7135491,73.0557143 L70.7135491,60.2727567 L38.5,60.2727567 C38.3872991,60.2727567 38.2744754,60.2893304 38.1617746,60.292154 L38.1617746,83.1003348 C40.9997991,84.6806027 42.9522991,87.7497991 42.9522991,91.3302009 C42.9522991,96.5046205 38.9235491,100.698248 33.94875,100.698248 C28.9739509,100.698248 24.9425,96.5046205 24.9425,91.3302009 C24.9425,87.4929688 27.1672991,84.2108929 30.3352009,82.7605134 L30.3352009,61.1623326 C12.9992746,64.9250446 0,80.4039844 0,98.9495424 L0,110 L110,110 L110,98.9495424 C110,79.7105915 95.9997991,63.7950893 77.6847991,60.8169866" id="Shape"></path>
        </g>
    </g>
</svg>