<?xml version="1.0" encoding="UTF-8"?>
<svg width="120px" height="120px" viewBox="0 0 120 120" version="1.1" xmlns="http://www.w3.org/2000/svg" xmlns:xlink="http://www.w3.org/1999/xlink">
    <!-- Generator: Sketch 51.3 (57544) - http://www.bohemiancoding.com/sketch -->
    <title>icon/面性/转移接续 copy</title>
    <desc>Created with Sketch.</desc>
    <defs></defs>
    <g id="icon/面性/转移接续-copy" stroke="none" stroke-width="1" fill="none" fill-rule="evenodd">
        <g id="Group-3" transform="translate(6.000000, 11.000000)">
            <g id="Group-2">
                <path d="M2,20 L107,20 C108.104569,20 109,20.8954305 109,22 L109,88.4111328 L87.4287109,99 L2,99 C0.8954305,99 1.3527075e-16,98.1045695 0,97 L0,22 C-1.3527075e-16,20.8954305 0.8954305,20 2,20 Z" id="Rectangle" fill="#C9C9C9"></path>
                <circle id="Oval" fill="#FFFFFF" cx="88" cy="73" r="26"></circle>
                <path d="M106.395722,64.7170984 C105.326203,62.184456 103.882353,60.0290155 102.117647,58.1430052 C100.299465,56.2569948 98.2139037,54.7481865 95.7540107,53.6704663 C93.3475936,52.5927461 90.7272727,52 87.9465241,52 C85.2192513,52 82.6524064,52.5388601 80.2459893,53.6704663 C77.8395722,54.7481865 75.7005348,56.2569948 73.8823529,58.1430052 C72.0641711,60.0290155 70.6203209,62.238342 69.6042781,64.7170984 C68.5347594,67.2497409 68,69.8901554 68,72.746114 C68,75.6559585 68.5347594,78.3502591 69.6042781,80.8829016 C70.6737968,83.415544 72.1176471,85.5709845 73.8823529,87.4569948 C75.7005348,89.3430052 77.7860963,90.8518135 80.2459893,91.9295337 C82.6524064,93.0072539 85.2192513,93.6 87.9465241,93.6 C90.7272727,93.6 93.3475936,93.0611399 95.7540107,91.9295337 C98.1604278,90.8518135 100.299465,89.3430052 102.117647,87.4569948 C103.935829,85.5709845 105.379679,83.361658 106.395722,80.8829016 C107.465241,78.3502591 108,75.6559585 108,72.746114 C108,69.8901554 107.465241,67.1958549 106.395722,64.7170984 Z" id="Combined-Shape" fill="#C9C9C9" fill-rule="nonzero"></path>
                <path d="M89.5805264,76 L78,76 L78,75.9645556 C77.8366985,75.987914 77.6697607,76 77.5,76 C75.5670034,76 74,74.4329966 74,72.5 C74,70.5670034 75.5670034,69 77.5,69 C77.6697607,69 77.8366985,69.012086 78,69.0354444 L78,69 L89.5781559,69 L89.5754468,61 L98.8512064,70.2677125 C99.8975072,71.2150572 100.420658,72.0863309 100.420658,72.8815336 C100.420658,73.6767363 99.9814132,74.4662525 99.1029243,75.250082 L89.5834939,84.7630673 L89.5805264,76 Z" id="Combined-Shape" fill="#FFFFFF"></path>
                <path d="M36,0 L73,0 C74.1045695,-2.02906125e-16 75,0.8954305 75,2 L75,23 L34,23 L34,2 C34,0.8954305 34.8954305,2.02906125e-16 36,0 Z" id="Rectangle-3" fill="#C9C9C9"></path>
                <rect id="Rectangle-4" fill="#FFFFFF" x="42" y="7" width="24" height="13"></rect>
            </g>
            <g id="Group" transform="translate(11.000000, 55.000000)" fill="#FFFFFF" fill-rule="nonzero">
                <path d="M11,9.80551901 L11,4.69230769 C11,2.22826804 12.9974988,0.230769231 15.4615385,0.230769231 L16.5384615,0.230769231 C19.0025012,0.230769231 21,2.22826804 21,4.69230769 L21,9.80551901 L27.0670205,9.80551901 C29.3531822,9.80551901 31.2065054,12.0440775 31.2065054,14.805593 C31.2065054,17.5671086 29.3533048,19.805519 27.0668979,19.805519 L21,19.805519 L21,26.2307692 C21,28.6948089 19.0025012,30.6923077 16.5384615,30.6923077 L15.4615385,30.6923077 C12.9974988,30.6923077 11,28.6948089 11,26.2307692 L11,19.805519 L4.2371525,19.805519 C1.95074565,19.805519 0.097544988,17.5669605 0.097544988,14.805445 C0.097544988,12.0439294 1.95074565,9.80551901 4.2371525,9.80551901 L4.23702992,9.80551901 L11,9.80551901 Z" id="Combined-Shape"></path>
            </g>
        </g>
    </g>
</svg>