<?xml version="1.0" encoding="UTF-8"?>
<svg width="45px" height="40px" viewBox="0 0 45 40" version="1.1" xmlns="http://www.w3.org/2000/svg" xmlns:xlink="http://www.w3.org/1999/xlink">
    <!-- Generator: Sketch 51.3 (57544) - http://www.bohemiancoding.com/sketch -->
    <title>全省转移接续</title>
    <desc>Created with Sketch.</desc>
    <defs></defs>
    <g id="全省转移接续" stroke="none" stroke-width="1" fill="none" fill-rule="evenodd">
        <g id="Group-4">
            <g id="Group-2" transform="translate(0.000000, 11.000000)" fill="#FD9933">
                <path d="M6.23333333,18.3615637 L4.31715848,18.3615637 L4.31719321,18.3615637 C3.66937793,18.3615637 3.14430441,18.99578 3.14430441,19.7782094 C3.14430441,20.5606388 3.66937793,21.1948971 4.31719321,21.1948971 L6.23333333,21.1948971 L6.23333333,22.8628205 C6.23333333,23.6452239 6.8675966,24.2794872 7.65,24.2794872 C8.4324034,24.2794872 9.06666667,23.6452239 9.06666667,22.8628205 L9.06666667,21.1948971 L10.7856211,21.1948971 C11.4334364,21.1948971 11.9585099,20.5606808 11.9585099,19.7782514 C11.9585099,18.995822 11.4334016,18.3615637 10.7856558,18.3615637 L9.06666667,18.3615637 L9.06666667,17.0653846 C9.06666667,16.2829812 8.4324034,15.6487179 7.65,15.6487179 C6.8675966,15.6487179 6.23333333,16.2829812 6.23333333,17.0653846 L6.23333333,18.3615637 Z M30.8833333,16.3390574 C29.5432439,14.5067704 27.3772704,13.3166667 24.9333333,13.3166667 C20.8648357,13.3166667 17.5666667,16.6148357 17.5666667,20.6833333 C17.5666667,24.698878 20.7795406,27.9640157 24.7748713,28.0483294 L24.7714681,28.05 L2,28.05 C0.8954305,28.05 1.3527075e-16,27.1545695 0,26.05 L-2.22044605e-16,7.66666667 C-3.57315355e-16,6.56209717 0.8954305,5.66666667 2,5.66666667 L28.8833333,5.66666667 C29.9879028,5.66666667 30.8833333,6.56209717 30.8833333,7.66666667 L30.8833333,16.3390574 Z M30.8833333,25.0276093 L30.8833333,25.049821 L30.8577457,25.0623814 C30.866308,25.0508166 30.8748373,25.0392258 30.8833333,25.0276093 Z" id="Combined-Shape"></path>
                <path d="M25.3811491,21.5333333 L25.3819899,24.0162024 L28.0791619,21.3208566 C28.3280671,21.0987715 28.4525196,20.8750753 28.4525196,20.6497679 C28.4525196,20.4244604 28.3042937,20.1775995 28.0078418,19.9091852 L25.3797099,17.2833333 L25.3804775,19.55 L22.1,19.55 L22.1,19.5600426 C22.0537312,19.5534244 22.0064322,19.55 21.9583333,19.55 C21.410651,19.55 20.9666667,19.9939843 20.9666667,20.5416667 C20.9666667,21.089349 21.410651,21.5333333 21.9583333,21.5333333 C22.0064322,21.5333333 22.0537312,21.529909 22.1,21.5232907 L22.1,21.5333333 L25.3811491,21.5333333 Z M30.1454545,18.3365112 C30.4484848,19.0388256 30.6,19.8022107 30.6,20.611399 C30.6,21.4358549 30.4484848,22.1992401 30.1454545,22.9168221 C29.8575758,23.6191364 29.4484848,24.2451123 28.9333333,24.7794819 C28.4181818,25.3138515 27.8121212,25.7413472 27.130303,26.0467012 C26.4484848,26.367323 25.7060606,26.52 24.9181818,26.52 C24.1454545,26.52 23.4181818,26.3520553 22.7363636,26.0467012 C22.0393939,25.7413472 21.4484848,25.3138515 20.9333333,24.7794819 C20.4333333,24.2451123 20.0242424,23.6344041 19.7212121,22.9168221 C19.4181818,22.1992401 19.2666667,21.4358549 19.2666667,20.611399 C19.2666667,19.8022107 19.4181818,19.0540933 19.7212121,18.3365112 C20.0090909,17.6341969 20.4181818,17.0082211 20.9333333,16.4738515 C21.4484848,15.9394819 22.0545455,15.5119862 22.7363636,15.2066321 C23.4181818,14.8860104 24.1454545,14.7333333 24.9181818,14.7333333 C25.7060606,14.7333333 26.4484848,14.9012781 27.130303,15.2066321 C27.8272727,15.5119862 28.4181818,15.9394819 28.9333333,16.4738515 C29.4333333,17.0082211 29.8424242,17.6189292 30.1454545,18.3365112 Z" id="Combined-Shape" fill-rule="nonzero"></path>
                <path d="M11.6333333,0 L19.25,0 C20.3545695,-2.02906125e-16 21.25,0.8954305 21.25,2 L21.25,6.51666667 L9.63333333,6.51666667 L9.63333333,2 C9.63333333,0.8954305 10.5287638,2.02906125e-16 11.6333333,0 Z M11.9,1.98333333 L11.9,5.66666667 L18.7,5.66666667 L18.7,1.98333333 L11.9,1.98333333 Z" id="Combined-Shape"></path>
            </g>
            <g id="全省" transform="translate(19.300000, 0.883333)">
                <g id="Group-2">
                    <path d="M7,0 L18,0 C21.8659932,-7.10171439e-16 25,3.13400675 25,7 L25,7 C25,10.8659932 21.8659932,14 18,14 L0,14 L8.8817842e-16,7 C4.14730794e-16,3.13400675 3.13400675,7.10171439e-16 7,0 Z" id="Rectangle" fill="#F24B36"></path>
                    <text id="全省" font-family="PingFangSC-Regular, PingFang SC" font-size="8" font-weight="normal" fill="#FFFFFF">
                        <tspan x="5" y="10">全省</tspan>
                    </text>
                </g>
            </g>
        </g>
    </g>
</svg>