<?xml version="1.0" encoding="UTF-8"?>
<svg width="120px" height="120px" viewBox="0 0 120 120" version="1.1" xmlns="http://www.w3.org/2000/svg" xmlns:xlink="http://www.w3.org/1999/xlink">
    <!-- Generator: Sketch 51.3 (57544) - http://www.bohemiancoding.com/sketch -->
    <title>icon/面性/参保信息</title>
    <desc>Created with Sketch.</desc>
    <defs></defs>
    <g id="icon/面性/参保信息" stroke="none" stroke-width="1" fill="none" fill-rule="evenodd">
        <g id="canbao-on" transform="translate(11.000000, 5.000000)">
            <path d="M64.8507463,39.3283582 L64.8507463,32.6119403 L45.1492537,32.6119403 L45.1492537,41.5671642 L63.3088903,41.5671642 C64.3367943,41.380597 64.8507463,40.8208955 64.8507463,39.3283582 Z" id="Shape" fill="#0284FD" fill-rule="nonzero"></path>
            <path d="M96.7942894,17.2143975 C96.1090201,16.5258216 76.2362103,0 49.1680727,0 C21.9286178,0 2.5697599,16.5258216 1.88449059,17.2143975 L0,18.9358372 L0,57.4960876 C0,83.3013823 31.9558978,101.781181 43.066715,107.383136 C45.1490632,108.433033 46.6265673,109 48.9967554,109 C51.3669434,109 53.0722182,108.359677 55.406831,107.18957 C67.0275764,101.365261 98.5074627,83.0116313 98.5074627,57.4960876 L98.5074627,18.9358372 L96.7942894,17.2143975 Z" id="Shape-Copy" fill="#0284FD" fill-rule="nonzero"></path>
            <path d="M32.6215054,17 L37.3010753,19.1333333 C35.6494624,24.2258065 33.5849462,28.9741935 31.1763441,33.516129 L31.1763441,80.655914 L26.1526882,80.655914 L26.1526882,41.6365591 C23.8129032,44.8709677 21.3354839,47.9677419 18.6516129,50.8580645 L17,45.5591398 C24.1569892,37.3010753 29.3870968,27.7354839 32.6215054,17 Z M41.3612903,20.5096774 L73.8430108,20.5096774 L73.8430108,42.1870968 L60.0107527,42.1870968 L60.0107527,49.688172 L79.8301075,49.688172 L79.8301075,54.5053763 L64.8967742,54.5053763 C68.8193548,61.3870968 74.1870968,67.3741935 81,72.4666667 L77.8344086,76.8021505 C70.9526882,70.8150538 65.3096774,63.3827957 60.8365591,54.5053763 L60.0107527,54.5053763 L60.0107527,80.5182796 L55.055914,80.5182796 L55.055914,54.5053763 L54.2301075,54.5053763 C49.6193548,64.0709677 43.8387097,71.5032258 36.888172,76.8709677 L34.0666667,72.3978495 C40.6731183,67.855914 46.0408602,61.9376344 50.1698925,54.5053763 L35.9247312,54.5053763 L35.9247312,49.688172 L55.055914,49.688172 L55.055914,42.1870968 L41.3612903,42.1870968 L41.3612903,20.5096774 Z M68.9569892,37.4387097 L68.9569892,25.2580645 L46.2473118,25.2580645 L46.2473118,37.4387097 L68.9569892,37.4387097 Z" id="保" fill="#FFFFFF"></path>
        </g>
    </g>
</svg>