<?xml version="1.0" encoding="UTF-8"?>
<svg width="150px" height="150px" viewBox="0 0 150 150" version="1.1" xmlns="http://www.w3.org/2000/svg" xmlns:xlink="http://www.w3.org/1999/xlink">
    <!-- Generator: Sketch 51.3 (57544) - http://www.bohemiancoding.com/sketch -->
    <title>Group 12</title>
    <desc>Created with Sketch.</desc>
    <defs></defs>
    <g id="Symbols" stroke="none" stroke-width="1" fill="none" fill-rule="evenodd">
        <g id="图片">
            <g id="Group-12">
                <rect id="Rectangle-3" fill="#EFEFEF" x="0" y="0" width="150" height="150"></rect>
                <g id="tupian-2" transform="translate(52.000000, 54.000000)" fill="#CCCCCC">
                    <g id="Shape">
                        <path d="M4.80913737,2.70792453 L41.1909556,2.70792453 C42.2364101,2.70792453 43.0727737,3.54113208 43.0727737,4.58264151 L43.0727737,19.3720755 C41.1909556,17.9139623 37.6364101,15.6226415 34.9182283,15.6226415 C30.945501,15.6226415 27.3909556,24.7879245 23.0000465,24.7879245 C19.6545919,24.5796226 15.0545919,20.8301887 9.82731919,21.4550943 C7.7364101,21.8716981 4.80913737,25.2045283 2.92731919,27.7041509 L2.92731919,4.58264151 C2.92731919,3.54113208 3.76368283,2.70792453 4.80913737,2.70792453 Z M13.5909091,17.7056604 C11.9181818,17.7056604 10.4545455,17.0807547 9.40909091,16.0392453 C8.36363636,14.9977358 7.73636364,13.3313208 7.73636364,11.8732075 C7.73636364,10.4150943 8.36363636,8.74867925 9.40909091,7.70716981 C10.4545455,6.66566038 11.9181818,6.04075472 13.5909091,6.04075472 C15.0545455,6.04075472 16.5181818,6.66566038 17.7727273,7.70716981 C18.8181818,8.74867925 19.4454545,10.4150943 19.4454545,11.8732075 C19.4454545,13.3313208 18.8181818,14.9977358 17.7727273,16.0392453 C16.5181818,17.0807547 15.0545455,17.7056604 13.5909091,17.7056604 Z M42.2363636,0 L3.76363636,0 C1.67272727,0 0,1.66641509 0,3.74943396 L0,37.9109434 C0,39.9939623 1.67272727,41.6603774 3.76363636,41.6603774 L42.2363636,41.6603774 C44.3272727,41.6603774 46,39.9939623 46,37.9109434 L46,3.74943396 C46,1.66641509 44.3272727,1.31562127e-15 42.2363636,0 Z" fill-rule="nonzero"></path>
                    </g>
                </g>
            </g>
        </g>
    </g>
</svg>