<?xml version="1.0" encoding="UTF-8"?>
<svg width="120px" height="120px" viewBox="0 0 120 120" version="1.1" xmlns="http://www.w3.org/2000/svg" xmlns:xlink="http://www.w3.org/1999/xlink">
    <!-- Generator: Sketch 51.3 (57544) - http://www.bohemiancoding.com/sketch -->
    <title>icon/面性/零星报销</title>
    <desc>Created with Sketch.</desc>
    <defs></defs>
    <g id="icon/面性/零星报销" stroke="none" stroke-width="1" fill="none" fill-rule="evenodd">
        <g id="iconfontqian" transform="translate(5.000000, 5.000000)" fill="#0284FD" fill-rule="nonzero">
            <path d="M55.0000536,0 C24.6271356,0 0.00148070312,24.6230204 0.00148070312,54.9984632 C0.00148070312,85.3739061 24.6271356,110 55.0000536,110 C85.3727522,110 109.998517,85.3740158 109.998517,54.9985729 C109.998517,24.62313 85.3726424,0 55.0000536,0 Z" id="Shape"></path>
        </g>
        <path d="M50.3969389,49 L47.6679887,46.2710498 L40.3138349,38.916896 C38.1831663,36.7862274 38.1831663,33.3317311 40.3138349,31.2010625 C42.4445035,29.0703939 45.8989998,29.0703939 48.0296684,31.2010625 L55.9866217,39.1580158 L60.0755274,43.2469215 C60.0960223,43.2464233 60.1165453,43.2460382 60.1370956,43.2457668 L64.2248466,39.1580158 L72.1817999,31.2010625 C74.3124685,29.0703939 77.7669648,29.0703939 79.8976334,31.2010625 C82.028302,33.3317311 82.028302,36.7862274 79.8976334,38.916896 L71.9406801,46.8738493 L69.8145294,49 L82.1032637,49 C85.1164841,49 87.5591818,51.4426978 87.5591818,54.4559182 C87.5591818,57.4691386 85.1164841,59.9118364 82.1032637,59.9118364 L65.6665551,59.9118364 L65.6665551,67 L82.1032637,67 C85.1164841,67 87.5591818,69.4426978 87.5591818,72.4559182 C87.5591818,75.4691386 85.1164841,77.9118364 82.1032637,77.9118364 L65.6665551,77.9118364 L65.6665551,86.2106369 C65.6665551,89.2238573 63.2238573,91.6665551 60.2106369,91.6665551 C57.1974165,91.6665551 54.7547188,89.2238573 54.7547188,86.2106369 L54.7547188,77.9118364 L38.4559182,77.9118364 C35.4426978,77.9118364 33,75.4691386 33,72.4559182 C33,69.4426978 35.4426978,67 38.4559182,67 L54.7547188,67 L54.7547188,59.9118364 L38.4559182,59.9118364 C35.4426978,59.9118364 33,57.4691386 33,54.4559182 C33,51.4426978 35.4426978,49 38.4559182,49 L50.3969389,49 Z" id="Combined-Shape" fill="#FFFFFF"></path>
    </g>
</svg>