<?xml version="1.0" encoding="UTF-8"?>
<svg width="120px" height="120px" viewBox="0 0 120 120" version="1.1" xmlns="http://www.w3.org/2000/svg" xmlns:xlink="http://www.w3.org/1999/xlink">
    <!-- Generator: Sketch 51.3 (57544) - http://www.bohemiancoding.com/sketch -->
    <title>icon/面性/费用信息</title>
    <desc>Created with Sketch.</desc>
    <defs></defs>
    <g id="icon/面性/费用信息" stroke="none" stroke-width="1" fill="none" fill-rule="evenodd">
        <g id="Group" transform="translate(9.000000, 7.000000)">
            <g id="qitafeiyong-2">
                <path d="M24.2822266,-1.66755498e-13 L84,-1.67199588e-13 C85.1045695,-1.67402494e-13 86,0.8954305 86,2 L86,105 C86,106.104569 85.1045695,107 84,107 L2,107 C0.8954305,107 2.85569802e-14,106.104569 2.84217094e-14,105 L2.84217094e-14,24.6259766 L24.2822266,-1.66755498e-13 Z" id="Shape" fill="#26A88F" fill-rule="nonzero"></path>
                <circle id="Path" fill="#FFFFFF" fill-rule="nonzero" cx="74.5" cy="75.5" r="34.5"></circle>
                <rect id="Rectangle" fill="#FFFFFF" x="14" y="31" width="58" height="7" rx="3.5"></rect>
                <rect id="Rectangle-Copy" fill="#FFFFFF" x="14" y="55" width="34" height="7" rx="3.5"></rect>
                <rect id="Rectangle-Copy-2" fill="#FFFFFF" x="14" y="82" width="19" height="7" rx="3.5"></rect>
                <path d="M75.7870915,49.001723 C65.8968664,48.891204 56.7102605,54.1042361 51.7329688,62.6514775 C46.7556771,71.1987189 46.7556771,81.7613621 51.7329688,90.3086035 C56.7102605,98.8558449 65.8968664,104.068877 75.7870915,103.958358 C90.8431767,103.790113 102.960066,91.5370656 102.960066,76.4800405 C102.960066,61.4230154 90.8431767,49.1699684 75.7870915,49.001723 Z" id="Path" fill="#26A88F" fill-rule="nonzero"></path>
            </g>
        </g>
        <path d="M78.9698792,78.0010812 L77.5628297,76.5940318 L73.7710206,72.8022227 C72.6724458,71.7036478 72.6724458,69.922506 73.7710206,68.8239311 C74.8695955,67.7253563 76.6507373,67.7253563 77.7493122,68.8239311 L81.8519253,72.9265443 L83.9601692,75.0347882 C83.9707364,75.0345313 83.981318,75.0343328 83.9919138,75.0341928 L86.0995623,72.9265443 L90.2021755,68.8239311 C91.3007503,67.7253563 93.0818921,67.7253563 94.180467,68.8239311 C95.2790418,69.922506 95.2790418,71.7036478 94.180467,72.8022227 L90.0778538,76.9048358 L88.9816084,78.0010812 L95.3176922,78.0010812 C96.8713116,78.0010812 98.1307691,79.2605387 98.1307691,80.8141581 C98.1307691,82.3677776 96.8713116,83.6272351 95.3176922,83.6272351 L86.8429087,83.6272351 L86.8429087,87.2818994 L95.3176922,87.2818994 C96.8713116,87.2818994 98.1307691,88.5413568 98.1307691,90.0949763 C98.1307691,91.6485957 96.8713116,92.9080532 95.3176922,92.9080532 L86.8429087,92.9080532 L86.8429087,97.1869231 C86.8429087,98.7405426 85.5834513,100 84.0298318,100 C82.4762123,100 81.2167549,98.7405426 81.2167549,97.1869231 L81.2167549,92.9080532 L72.8130769,92.9080532 C71.2594574,92.9080532 70,91.6485957 70,90.0949763 C70,88.5413568 71.2594574,87.2818994 72.8130769,87.2818994 L81.2167549,87.2818994 L81.2167549,83.6272351 L72.8130769,83.6272351 C71.2594574,83.6272351 70,82.3677776 70,80.8141581 C70,79.2605387 71.2594574,78.0010812 72.8130769,78.0010812 L78.9698792,78.0010812 Z" id="Combined-Shape" fill="#FFFFFF"></path>
    </g>
</svg>