<?xml version="1.0" encoding="UTF-8"?>
<svg width="100px" height="100px" viewBox="0 0 100 100" version="1.1" xmlns="http://www.w3.org/2000/svg" xmlns:xlink="http://www.w3.org/1999/xlink">
    <!-- Generator: Sketch 51.3 (57544) - http://www.bohemiancoding.com/sketch -->
    <title>指南</title>
    <desc>Created with Sketch.</desc>
    <defs></defs>
    <g id="指南" stroke="none" stroke-width="1" fill="none" fill-rule="evenodd">
        <g id="zhinan" transform="translate(21.000000, 17.000000)" fill="#FFE77C" fill-rule="nonzero">
            <path d="M52.2124538,0.0363748459 L11.8218249,0.0363748459 C8.11159063,0.0218249075 5.09247842,3.01183724 5.07792848,6.71479655 L5.07792848,50.1972873 L11.2180025,50.1972873 L10.2358816,48.9678175 C10.2358816,48.9678175 9.76300863,44.5737361 14.0043157,46.4288533 C16.4559803,47.5273736 17.3289766,49.8335388 17.3289766,49.8335388 L17.3944513,36.7895191 C15.1755857,35.8510481 13.6114673,33.6467324 13.6114673,31.0932182 C13.6114673,27.6812577 16.3832306,24.9094945 19.7951911,24.9094945 C23.2071517,24.9094945 25.9789149,27.6812577 25.9789149,31.0932182 C25.9789149,33.6612824 24.4002466,35.872873 22.1668311,36.8040691 L22.188656,43.2569667 C22.188656,43.2569667 24.9240444,39.5321825 28.1468557,43.5188656 C28.1468557,43.5188656 30.5621455,39.4594328 33.9595561,43.7152898 C33.9595561,43.7152898 36.3675709,39.0229346 38.7828607,44.122688 L38.7828607,50.1972873 L49.7025894,50.1972873 L48.858693,52.1106042 C47.7165228,53.7547472 47.1345253,55.7117139 47.1709001,57.7123305 C47.1709001,61.8736128 49.4261406,65.2346486 52.2124538,65.2346486 C56.4246609,65.2346486 58.9418002,61.8663379 58.9418002,57.7123305 C58.9418002,57.4286067 58.9272503,57.1521578 58.9418002,56.882984 L58.9418002,53.5364982 L58.9563502,53.5364982 L58.9563502,6.72934649 C58.9418002,3.01911221 55.922688,0.0290998767 52.2124538,0.0363748459 Z M42.6822441,33.9086313 L31.3405672,33.9086313 C29.9510481,33.9086313 28.8379778,32.795561 28.8379778,31.4205919 L28.8379778,31.4060419 C28.8379778,30.0165228 29.965598,28.9034525 31.3405672,28.9034525 L42.6822441,28.9034525 C44.0717633,28.9034525 45.1848335,30.0310727 45.1848335,31.4060419 C45.1848335,32.795561 44.0572133,33.9086313 42.6822441,33.9086313 Z M42.6822441,18.8421702 L21.3229346,18.8421702 C19.9334155,18.8421702 18.8203453,17.7290999 18.8203453,16.3541307 C18.8057953,16.3541307 18.8057953,16.3395808 18.8057953,16.3395808 C18.8057953,14.9500617 19.9334155,13.8369914 21.3083847,13.8369914 L42.6822441,13.8369914 C44.0717633,13.8369914 45.1848335,14.9646116 45.1848335,16.3395808 C45.1848335,17.7145499 44.0572133,18.8421702 42.6822441,18.8421702 Z" id="Shape"></path>
            <path d="M22.1450062,31.9080148 L22.1522811,34.3160296 C23.1489519,33.5885327 23.7891492,32.4099877 23.7891492,31.0859433 C23.7891492,28.8816276 21.9922318,27.0847102 19.7879162,27.0847102 C17.5836005,27.0847102 15.7866831,28.8816276 15.7866831,31.0859433 C15.7866831,32.3954377 16.4196054,33.5594328 17.3944513,34.2942047 L17.4090012,31.9080148 C17.4090012,31.9080148 19.9406905,28.1323058 22.1450062,31.9080148 Z M36.6803946,60.7387176 L19.6569667,60.7387176 L13.9097411,53.5583231 L0.872996301,53.5583231 C0.290998767,54.8750925 1.14318277e-15,56.2937115 0.0145499383,57.7341554 C0.0145499383,61.8808878 2.28434032,65.2491985 5.07065351,65.2491985 L46.1305795,65.2491985 C44.5810111,63.0739827 43.7662145,60.4622688 43.8025894,57.7850801 C43.8025894,56.3446363 44.0062885,54.9187423 44.4282367,53.5583231 L38.7755857,53.5583231 L38.7755857,58.3743527 C38.7755857,58.3670777 38.6373613,59.480148 36.6803946,60.7387176 Z" id="Shape"></path>
        </g>
    </g>
</svg>