<?xml version="1.0" encoding="UTF-8"?>
<svg width="160px" height="88px" viewBox="0 0 160 88" version="1.1" xmlns="http://www.w3.org/2000/svg" xmlns:xlink="http://www.w3.org/1999/xlink">
    <!-- Generator: Sketch 51.3 (57544) - http://www.bohemiancoding.com/sketch -->
    <title>定点医院</title>
    <desc>Created with Sketch.</desc>
    <defs>
        <rect id="path-1" x="0" y="0" width="160" height="88" rx="4"></rect>
    </defs>
    <g id="定点医院" stroke="none" stroke-width="1" fill="none" fill-rule="evenodd">
        <g>
            <mask id="mask-2" fill="white">
                <use xlink:href="#path-1"></use>
            </mask>
            <use id="Mask" fill="#008EFF" xlink:href="#path-1"></use>
            <g id="Group-3" mask="url(#mask-2)">
                <g transform="translate(81.000000, 12.000000)">
                    <rect id="Rectangle-6" fill="#83C0FE" x="0" y="39" width="68" height="39"></rect>
                    <rect id="Rectangle" fill="#ABE0F8" x="12" y="21" width="45" height="60"></rect>
                    <g id="Group-2" stroke-width="1" fill="none" transform="translate(18.000000, 38.000000)">
                        <g id="Group-6" fill="#FFFFFF">
                            <rect id="Rectangle-4" x="0" y="0" width="7.33333333" height="7"></rect>
                            <rect id="Rectangle-4-Copy" x="8.55555556" y="0" width="7.33333333" height="7"></rect>
                            <rect id="Rectangle-4-Copy-2" x="17.1111111" y="0" width="7.33333333" height="7"></rect>
                            <rect id="Rectangle-4-Copy-3" x="25.6666667" y="0" width="7.33333333" height="7"></rect>
                            <rect id="Rectangle-4" x="0" y="8" width="7.33333333" height="7"></rect>
                            <rect id="Rectangle-4-Copy" x="8.55555556" y="8" width="7.33333333" height="7"></rect>
                            <rect id="Rectangle-4-Copy-2" x="17.1111111" y="8" width="7.33333333" height="7"></rect>
                            <rect id="Rectangle-4-Copy-3" x="25.6666667" y="8" width="7.33333333" height="7"></rect>
                        </g>
                    </g>
                    <g id="Group-2-Copy" stroke-width="1" fill="none" transform="translate(19.000000, 46.000000)"></g>
                    <rect id="Rectangle-5" fill="#5D9EBF" x="28" y="61" width="15" height="15"></rect>
                    <g id="Group-5" stroke-width="1" fill="none" transform="translate(18.000000, 0.000000)">
                        <circle id="Oval" fill="#83C0FE" cx="17" cy="17" r="17"></circle>
                        <rect id="Rectangle-3" fill="#FFFFFF" x="8" y="14" width="20" height="6" rx="3"></rect>
                        <rect id="Rectangle-3-Copy" fill="#FFFFFF" transform="translate(18.000000, 17.000000) rotate(90.000000) translate(-18.000000, -17.000000) " x="8" y="14" width="20" height="6" rx="3"></rect>
                    </g>
                </g>
            </g>
            <path d="M13.264,18.504 L22.768,18.504 L22.768,19.944 L18.832,19.944 L18.832,22.344 L23.44,22.344 L23.44,23.784 L18.832,23.784 L18.832,26.728 C19.92,26.888 21.248,26.968 22.848,26.984 C23.648,26.984 24.48,26.936 25.312,26.872 L25.024,28.376 L23.52,28.376 C20.16,28.376 17.744,28.072 16.304,27.464 C15.28,26.984 14.448,26.28 13.808,25.352 C13.2,26.632 12.448,27.72 11.552,28.616 L10.56,27.4 C12.064,25.832 13.088,23.72 13.6,21.096 L15.072,21.352 C14.88,22.28 14.64,23.16 14.368,23.96 C15.12,25.208 16.064,26.024 17.184,26.376 L17.328,26.408 L17.328,19.944 L13.264,19.944 L13.264,18.504 Z M24.704,15.384 L24.704,19.016 L23.216,19.016 L23.216,16.792 L12.784,16.792 L12.784,19.096 L11.296,19.096 L11.296,15.384 L17.312,15.384 C17.088,14.872 16.832,14.408 16.576,13.992 L18.208,13.736 C18.432,14.232 18.656,14.776 18.864,15.384 L24.704,15.384 Z M32.992,13.976 L34.496,13.976 L34.496,15.384 L40.592,15.384 L40.592,16.808 L34.496,16.808 L34.496,18.504 L39.584,18.504 L39.584,23.928 L28.672,23.928 L28.672,18.504 L32.992,18.504 L32.992,13.976 Z M38.064,22.52 L38.064,19.928 L30.176,19.928 L30.176,22.52 L38.064,22.52 Z M28.64,24.456 L29.904,25.08 C29.328,26.456 28.64,27.64 27.872,28.632 L26.624,27.72 C27.392,26.808 28.064,25.72 28.64,24.456 Z M32.448,24.968 C32.768,25.992 33.056,27.112 33.312,28.312 L31.776,28.664 C31.584,27.384 31.328,26.248 31.024,25.272 L32.448,24.968 Z M35.776,24.76 C36.24,25.848 36.64,27.016 36.992,28.28 L35.488,28.632 C35.184,27.288 34.8,26.088 34.352,25.048 L35.776,24.76 Z M38.976,24.408 C39.984,25.72 40.752,26.856 41.296,27.832 L40.032,28.712 C39.472,27.656 38.72,26.472 37.76,25.192 L38.976,24.408 Z M48.48,18.872 C48.064,19.512 47.616,20.04 47.104,20.488 L45.968,19.448 C46.992,18.52 47.744,17.4 48.192,16.088 L49.568,16.472 C49.44,16.84 49.312,17.176 49.184,17.496 L55.296,17.496 L55.296,18.872 L51.984,18.872 L51.984,19.576 C51.952,19.976 51.92,20.344 51.872,20.696 L56.24,20.696 L56.24,22.12 L51.568,22.12 C51.344,22.856 51.024,23.496 50.624,24.04 C49.824,25.048 48.528,25.832 46.704,26.408 L45.888,25.128 C47.648,24.584 48.848,23.88 49.504,23.048 C49.696,22.76 49.872,22.44 50,22.12 L45.984,22.12 L45.984,20.696 L50.4,20.696 C50.464,20.328 50.496,19.96 50.512,19.576 L50.512,18.872 L48.48,18.872 Z M52.128,22.728 C53.616,23.368 54.976,24.168 56.224,25.112 L55.392,26.392 C54.08,25.304 52.736,24.456 51.36,23.832 L52.128,22.728 Z M43.68,14.408 L56.496,14.408 L56.496,15.832 L45.136,15.832 L45.136,26.648 L57.008,26.648 L57.008,28.104 L43.68,28.104 L43.68,14.408 Z M73.008,15.192 L73.008,18.664 L71.744,18.664 L71.744,19.608 L65.632,19.608 L65.632,18.664 L64.336,18.664 L64.336,15.192 L67.824,15.192 C67.664,14.776 67.504,14.408 67.312,14.056 L68.88,13.8 C69.056,14.216 69.216,14.68 69.376,15.192 L73.008,15.192 Z M65.808,18.248 L71.552,18.248 L71.552,16.632 L65.808,16.632 L65.808,18.248 Z M64.416,21.08 L73.136,21.08 L73.136,22.52 L70.592,22.52 L70.592,26.44 C70.592,26.84 70.72,27.048 70.976,27.048 L71.472,27.048 C71.6,27.048 71.712,26.984 71.792,26.888 C71.904,26.76 71.984,26.104 72.032,24.92 L73.408,25.4 C73.28,26.872 73.12,27.752 72.912,28.024 C72.688,28.264 72.32,28.392 71.776,28.408 L70.496,28.408 C70.032,28.408 69.696,28.248 69.472,27.944 C69.216,27.624 69.088,27.24 69.088,26.792 L69.088,22.52 L67.92,22.52 C67.792,24.12 67.536,25.32 67.12,26.104 C66.608,27.064 65.744,27.896 64.528,28.6 L63.552,27.352 C64.576,26.808 65.312,26.152 65.76,25.4 C66.112,24.776 66.336,23.816 66.432,22.52 L64.416,22.52 L64.416,21.08 Z M59.136,14.424 L63.968,14.424 L63.968,15.608 C63.552,16.984 63.056,18.44 62.48,19.96 C63.36,21.416 63.84,22.696 63.904,23.8 C63.904,24.552 63.744,25.096 63.456,25.432 C63.024,25.848 62.272,26.056 61.184,26.072 L60.688,24.52 C61.008,24.584 61.296,24.616 61.52,24.616 C61.872,24.584 62.128,24.504 62.256,24.408 C62.368,24.28 62.432,24.088 62.432,23.8 C62.432,22.728 61.952,21.528 61.008,20.184 C61.632,18.584 62.128,17.128 62.48,15.848 L60.608,15.848 L60.608,28.664 L59.136,28.664 L59.136,14.424 Z" fill="#FFFFFF" mask="url(#mask-2)"></path>
        </g>
    </g>
</svg>