<?xml version="1.0" encoding="UTF-8"?>
<svg width="120px" height="120px" viewBox="0 0 120 120" version="1.1" xmlns="http://www.w3.org/2000/svg" xmlns:xlink="http://www.w3.org/1999/xlink">
    <!-- Generator: Sketch 51.3 (57544) - http://www.bohemiancoding.com/sketch -->
    <title>icon/面性/缴费年限</title>
    <desc>Created with Sketch.</desc>
    <defs></defs>
    <g id="icon/面性/缴费年限" stroke="none" stroke-width="1" fill="none" fill-rule="evenodd">
        <g id="nianxiantongji" transform="translate(5.000000, 7.000000)">
            <g id="Group">
                <rect id="Rectangle" fill="#0284FD" x="0" y="11" width="110" height="93" rx="2"></rect>
                <rect id="Rectangle-22" fill="#FFFFFF" x="27" y="0" width="17" height="28" rx="8.5"></rect>
                <rect id="Rectangle-22-Copy" fill="#FFFFFF" x="66" y="0" width="17" height="28" rx="8.5"></rect>
                <path d="M94.9055712,94.8332734 L15.7394608,94.8332734 C11.4015918,94.8332734 9.44955071,92.8089345 9.44955071,88.6156611 L9.44955071,41.838973 L100.400205,41.838973 L100.400205,89.4109371 L100.472503,89.4109371 C100.400205,93.6765083 99.1711425,94.8332734 94.9055712,94.8332734 Z" id="Shape" fill="#FFFFFF" fill-rule="nonzero"></path>
            </g>
            <path d="M74.5175866,23.4753273 C76.6865212,23.4753273 78.4216688,21.7401797 78.4216688,19.5712452 L78.4216688,3.95491656 C78.4216688,1.78598203 76.6865212,0.0508344031 74.5175866,0.0508344031 C72.3486521,0.0508344031 70.6135045,1.78598203 70.6135045,3.95491656 L70.6135045,19.5712452 C70.6858023,21.6678819 72.3486521,23.4753273 74.5175866,23.4753273 Z M35.2598716,23.4753273 C37.4288062,23.4753273 39.1639538,21.7401797 39.1639538,19.5712452 L39.1639538,3.95491656 C39.1639538,1.78598203 37.4288062,0.0508344031 35.2598716,0.0508344031 C33.0909371,0.0508344031 31.3557895,1.78598203 31.3557895,3.95491656 L31.3557895,19.5712452 C31.4280873,21.6678819 33.2355327,23.4753273 35.2598716,23.4753273 Z M60.8532991,68.6249551 L74.1560976,68.6249551 L74.1560976,62.696534 L60.8532991,62.696534 L60.8532991,56.4789217 L76.0358408,56.4789217 L76.0358408,50.5505006 L47.9119897,50.5505006 C48.5626701,49.2491399 49.1410526,47.9477792 49.6471374,46.5741207 L42.3450578,45.4896534 C39.7423363,51.996457 36.1274454,57.2741977 31.3557895,61.105982 C32.9463415,63.3472144 34.4645956,65.3715533 35.6213607,67.1067009 C36.5612323,66.3114249 37.3565083,65.4438511 38.29638,64.5762773 L38.29638,76.0716303 L31.6449807,76.0716303 L31.6449807,82.0000513 L53.9850064,82.0000513 L53.9850064,91.8325546 L60.8532991,91.8325546 L60.8532991,82.0000513 L77.4094994,82.0000513 L77.4094994,76.0716303 L60.8532991,76.0716303 L60.8532991,68.6249551 Z M53.9850064,75.9270347 L44.8754814,75.9270347 L44.8754814,68.5526573 L54.0573042,68.5526573 L53.9850064,75.9270347 Z M54.0573042,62.696534 L39.9592298,62.696534 C41.5497818,60.6721951 43.1403338,58.6478562 44.5862901,56.4789217 L54.0573042,56.4789217 L54.0573042,62.696534 Z" id="Shape" fill="#0284FD" fill-rule="nonzero"></path>
        </g>
    </g>
</svg>