<?xml version="1.0" encoding="UTF-8"?>
<svg width="343px" height="100px" viewBox="0 0 343 100" version="1.1" xmlns="http://www.w3.org/2000/svg" xmlns:xlink="http://www.w3.org/1999/xlink">
    <!-- Generator: Sketch 51.3 (57544) - http://www.bohemiancoding.com/sketch -->
    <title>广告</title>
    <desc>Created with Sketch.</desc>
    <defs>
        <path d="M4,0 L339,0 C341.209139,-4.05812251e-16 343,1.790861 343,4 L343,96 C343,98.209139 341.209139,100 339,100 L4,100 C1.790861,100 2.705415e-16,98.209139 0,96 L0,4 C-2.705415e-16,1.790861 1.790861,4.05812251e-16 4,0 Z" id="path-1"></path>
        <linearGradient x1="50%" y1="0%" x2="50%" y2="100%" id="linearGradient-3">
            <stop stop-color="#5B230E" offset="0%"></stop>
            <stop stop-color="#2F0000" offset="100%"></stop>
        </linearGradient>
    </defs>
    <g id="广告" stroke="none" stroke-width="1" fill="none" fill-rule="evenodd">
        <g id="位图">
            <mask id="mask-2" fill="white">
                <use xlink:href="#path-1"></use>
            </mask>
            <use id="Mask" fill="#00B8FF" xlink:href="#path-1"></use>
            <g id="Group-15" opacity="0.2" mask="url(#mask-2)">
                <g transform="translate(71.000000, 13.000000)">
                    <polygon id="Path-22" fill="#B5E4FF" points="45.5939784 33.0654872 45.5939784 27 51.8368898 27 51.8368898 33.0654872 53.3303128 33.0654872 53.3303128 37.7434965 58 37.7434965 58 101 28 101 28 56.7441147 30.6141479 56.7441147 30.6141479 53.9832358 29.8474861 53.9832358 29.8474861 50.7703488 31.8918445 48.953958 33.7342882 50.4674704 33.7342882 53.9832358 32.552397 53.9832358 32.552397 56.3042041 35.2917276 56.3042041 35.2917276 51.4350537 38.2895352 51.4350537 38.2895352 33.0654872"></polygon>
                    <g id="Group-14" stroke-width="1" fill="none" transform="translate(66.000000, 0.000000)">
                        <rect id="Rectangle-18" fill="#3786F7" x="0" y="68.0813397" width="81.9178082" height="20.9138756"></rect>
                        <rect id="Rectangle-17" fill="#3786F7" x="54.3150685" y="56.0669856" width="75.6849315" height="36.9330144"></rect>
                        <g id="Group-11" transform="translate(19.143836, 8.454545)">
                            <rect id="Rectangle-8" fill="#3787F8" x="0" y="4.44976077" width="25.8219178" height="66.7464115"></rect>
                            <rect id="Rectangle-11" fill="#3787F8" x="2.67123288" y="0" width="7.56849315" height="6.22966507"></rect>
                            <rect id="Rectangle-11-Copy" fill="#3787F8" x="16.9178082" y="0" width="7.56849315" height="6.22966507"></rect>
                            <g id="Group-9" transform="translate(4.897260, 17.354067)" fill="#FFFFFF">
                                <g id="Group-8">
                                    <rect id="Rectangle-10" x="0" y="0" width="3.11643836" height="2.66985646"></rect>
                                    <rect id="Rectangle-10-Copy" x="12.9109589" y="0" width="3.11643836" height="2.66985646"></rect>
                                </g>
                                <g id="Group-8-Copy" transform="translate(0.000000, 8.009569)">
                                    <rect id="Rectangle-10" x="0" y="0" width="3.11643836" height="2.66985646"></rect>
                                    <rect id="Rectangle-10-Copy" x="12.9109589" y="0" width="3.11643836" height="2.66985646"></rect>
                                </g>
                                <g id="Group-8-Copy-2" transform="translate(0.000000, 16.019139)">
                                    <rect id="Rectangle-10" x="0" y="0" width="3.11643836" height="2.66985646"></rect>
                                    <rect id="Rectangle-10-Copy" x="12.9109589" y="0" width="3.11643836" height="2.66985646"></rect>
                                </g>
                                <g id="Group-8-Copy-3" transform="translate(0.000000, 24.028708)">
                                    <rect id="Rectangle-10" x="0" y="0" width="3.11643836" height="2.66985646"></rect>
                                    <rect id="Rectangle-10-Copy" x="12.9109589" y="0" width="3.11643836" height="2.66985646"></rect>
                                </g>
                            </g>
                        </g>
                        <rect id="Rectangle-12" fill="#3787F8" opacity="0.379241071" x="54.3150685" y="12.9043062" width="30.7191781" height="55.1770335"></rect>
                        <g id="Group-13" transform="translate(62.328767, 18.244019)" fill="#FFFFFF">
                            <g id="Group-12">
                                <rect id="Rectangle-13" x="0" y="0" width="3.11643836" height="3.11483254"></rect>
                                <rect id="Rectangle-13-Copy" x="12.9109589" y="0" width="3.11643836" height="3.11483254"></rect>
                            </g>
                            <g id="Group-12-Copy" transform="translate(0.000000, 8.009569)">
                                <rect id="Rectangle-13" x="0" y="0" width="3.11643836" height="3.11483254"></rect>
                                <rect id="Rectangle-13-Copy" x="12.9109589" y="0" width="3.11643836" height="3.11483254"></rect>
                            </g>
                            <g id="Group-12-Copy-2" transform="translate(0.000000, 16.019139)">
                                <rect id="Rectangle-13" x="0" y="0" width="3.11643836" height="3.11483254"></rect>
                                <rect id="Rectangle-13-Copy" x="12.9109589" y="0" width="3.11643836" height="3.11483254"></rect>
                            </g>
                            <g id="Group-12-Copy-3" transform="translate(0.000000, 24.028708)">
                                <rect id="Rectangle-13" x="0" y="0" width="3.11643836" height="3.11483254"></rect>
                                <rect id="Rectangle-13-Copy" x="12.9109589" y="0" width="3.11643836" height="3.11483254"></rect>
                            </g>
                        </g>
                        <rect id="Rectangle-14" fill="#3786F7" x="62.3287671" y="2.22488038" width="1.78082192" height="8.45454545"></rect>
                        <rect id="Rectangle-14-Copy" fill="#3786F7" x="76.5753425" y="2.22488038" width="1.78082192" height="8.45454545"></rect>
                        <rect id="Rectangle-14-Copy-2" fill="#3786F7" transform="translate(70.342466, 1.112440) scale(1, -1) translate(-70.342466, -1.112440) " x="60.5479452" y="0" width="19.5890411" height="2.22488038"></rect>
                        <rect id="Rectangle-14-Copy-3" fill="#3786F7" transform="translate(72.791096, 10.234450) scale(1, -1) translate(-72.791096, -10.234450) " x="60.5479452" y="7.5645933" width="24.4863014" height="5.33971292"></rect>
                        <rect id="Rectangle-15" fill="#3786F7" x="54.3150685" y="7.5645933" width="30.7191781" height="1.77990431"></rect>
                    </g>
                    <polygon id="Rectangle-7" fill="#D8F9FF" points="0 87.4642857 17 83 17 108 0 108"></polygon>
                </g>
            </g>
            <g id="Group-2" mask="url(#mask-2)">
                <g transform="translate(207.000000, -4.000000)">
                    <g id="Group-30" stroke-width="1" fill="none" transform="translate(41.000000, 0.000000)">
                        <polygon id="Path-35-Copy" fill="#C3F0FF" opacity="0.300223214" points="14.2000487 48.7270172 11.9537572 45.1923222 13.076903 1.86695838 14.2000487 0 94 45.1923222 94 48.7270172 94 91.3807531 92.2339502 91.3807531"></polygon>
                        <path d="M6.5019249,103.364278 C6.15189404,107.715618 5.97687861,110.866213 5.97687861,112.816063 C5.97687861,114.765913 6.4456352,117.519479 7.38314837,121.076762 L8.79220387,122.784919 L9.30915824,103.891213 L6.5019249,103.364278 Z" id="Path-31" fill="#FBE2DA"></path>
                        <path d="M2.88415734e-13,81.0460251 L2.88415734e-13,83.3910732 C9.6138578e-14,84.0815589 0,84.7265674 0,85.3260987 C0,85.92563 0.799890093,86.312049 2.39967028,86.4853556 C2.01693095,85.9626078 1.76039346,85.5761888 1.6300578,85.3260987 C1.10696965,84.3223891 1.70149151,84.0523593 2.1658491,83.3910732 C2.44286398,82.9965796 2.44286398,81.98724 2.1658491,80.3630545 L2.88415734e-13,81.0460251 Z" id="Path-30" fill="#F4D2C8"></path>
                        <path d="M13.142341,48.9539749 C13.9103218,51.7539376 14.1345078,53.4889636 13.8148991,54.159053 C13.3354859,55.1641871 12.5668861,55.4223116 11.6433458,55.6568609 C11.0276523,55.8132271 10.186181,55.9032186 9.11893176,55.9268354 L7.60693642,48.9539749 L13.142341,48.9539749 Z" id="Path-27" fill="#EFBAAE"></path>
                        <path d="M9.16987203,50.7140137 C12.1702256,49.7569872 13.6704024,48.9385253 13.6704024,48.258628 C13.6704024,47.2387821 15.9206676,44.5235878 13.6704024,43.4603112 C11.4201372,42.3970346 9.10484652,41.2143235 6.7608681,42.3373174 C4.41688969,43.4603112 2.24886266,44.3963979 2.24886266,48.258628 C2.24886266,52.1208582 0.856551728,55.8558984 2.24886266,57.1898414 C3.6411736,58.5237843 4.59930113,60.376569 8.15028902,60.376569 C10.5176143,60.376569 11.7502373,59.9784543 11.8481581,59.1822248 C10.062634,56.1477631 9.16987203,54.6305323 9.16987203,54.6305323 C9.16987203,54.6305323 9.16987203,53.3250261 9.16987203,50.7140137 Z" id="Path-26" fill="url(#linearGradient-3)"></path>
                        <path d="M3.27988112,79.4142259 C2.54223398,82.9830056 2.1734104,85.0685518 2.1734104,85.6708643 C2.1734104,86.5743332 5.5656213,99.7893144 5.5656213,100.63758 C5.5656213,101.485845 6.23894168,106.066946 8.95980213,106.066946 C10.7737091,106.066946 12.449984,105.602901 13.9886267,104.674811 C15.1676925,95.395465 15.7572254,89.993701 15.7572254,88.4695185 C15.7572254,86.9453359 15.3590379,84.5303839 14.5626629,81.2246624 L7.49417791,79.4142259 L3.27988112,79.4142259 Z" id="Path-29" fill="#3F1202"></path>
                        <path d="M2.74607964,57.8623486 L1.58638063,58.9660154 C0.528793542,68.3783796 0,73.0845617 0,73.0845617 C0,73.0845617 0,75.968904 0,81.7375886 L1.58638063,81.7375886 L2.55392426,79.7026788 L3.36978832,71.8228399 L3.36978832,69.1964858 L5.15163231,73.8826036 L3.1195019,79.7026788 C3.93034613,80.5308819 4.90287261,81.2091852 6.03708133,81.7375886 C7.17129005,82.2659921 10.065729,82.2659921 14.7203983,81.7375886 L13.2872083,73.8826036 C14.7693418,72.0361689 15.5104085,70.4741296 15.5104085,69.1964858 C15.5104085,67.918842 16.4079763,67.918842 18.2031118,69.1964858 C21.9515778,70.4420267 24.2738128,71.0647971 25.1698168,71.0647971 C26.5138229,71.0647971 27.5931716,68.7304759 27.5931716,68.166604 C27.5931716,67.7906893 27.5931716,66.5644361 27.5931716,64.4878442 L29.8843931,56.7458666 L27.5931716,56.0251046 C25.1144355,62.0622627 23.8750675,65.2923585 23.8750675,65.7153919 C23.8750675,66.1384254 23.4471331,66.1384254 22.5912642,65.7153919 L11.6863633,59.9322092 L7.74425831,59.9322092 L3.36978832,57.8623486 L2.74607964,57.8623486 Z" id="Path-28" fill="#C54C64"></path>
                        <polygon id="Path-35" fill="#97ECDA" points="23.7353147 45.2128792 22.2774566 42.9195354 23.0063857 14.8096267 23.7353147 13.5983264 75.5260116 42.9195354 75.5260116 45.2128792 75.5260116 72.8870293 74.3798335 72.8870293"></polygon>
                        <ellipse id="Oval-14" fill="#FFFFFF" transform="translate(65.745665, 53.577406) rotate(-2.000000) translate(-65.745665, -53.577406) " cx="65.7456647" cy="53.5774059" rx="4.89017341" ry="7.88702929"></ellipse>
                        <path d="M28.451918,29.0288483 L41.2947977,36.4435146" id="Line-7" stroke="#FFFFFF" stroke-width="4" stroke-linecap="round"></path>
                        <path d="M28.4531228,35.0043584 L44.5549133,44.0585774" id="Line-7-Copy" stroke="#FFFFFF" stroke-width="4" stroke-linecap="round"></path>
                        <path d="M28.4528679,41.5383543 L48.9017341,53.3054393" id="Line-7-Copy-2" stroke="#FFFFFF" stroke-width="4" stroke-linecap="round"></path>
                        <path d="M27.1676301,57.0375425 L27.1676301,51.6037001 L29.875256,48.3562002 L29.875256,49.6965195 L28.521443,51.6037001 C30.1545465,53.190456 30.9710983,53.983834 30.9710983,53.983834 C30.9710983,53.983834 30.6058175,55.0017369 29.875256,57.0375425 L27.1676301,57.0375425 Z" id="Path-36" fill="#F4D2C8"></path>
                    </g>
                    <path d="M0,56 C0,53.0710809 2.86133717,49.5 6.55970521,49.5 C9.0252839,49.5 10.617935,50.0488243 11.3376585,51.146473 C14.7712184,44.3756032 18.7898612,41.8253953 23.3935869,43.4958494 C30.2991754,46.0015306 31,50.6652332 31,56 C31,56 0,56 0,56 Z" id="Path-12" fill="#E3F7FE" transform="translate(15.500000, 49.500000) scale(-1, 1) translate(-15.500000, -49.500000) "></path>
                </g>
            </g>
            <path d="M16.62,27.84 C17.72,28.8 18.64,29.74 19.4,30.68 L18.08,32.02 C17.42,31.12 16.48,30.16 15.28,29.14 L16.62,27.84 Z M16.16,32.62 C17.26,33.58 18.2,34.54 18.96,35.5 L17.64,36.82 C16.96,35.9 16.02,34.94 14.82,33.92 L16.16,32.62 Z M17.32,38 L19,38.64 C18.32,41.2 17.58,43.62 16.78,45.86 L15.02,45.08 C15.9,42.76 16.66,40.4 17.32,38 Z M24.94,35.68 L24.94,37.62 C24.38,37.92 23.8,38.2 23.24,38.46 L23.24,43.88 C23.24,45.2 22.66,45.88 21.5,45.88 L19.88,45.88 L19.48,44.22 C19.98,44.3 20.46,44.34 20.9,44.34 C21.22,44.34 21.4,44.04 21.4,43.46 L21.4,39.26 L19.72,39.86 L19.28,38.04 C20,37.86 20.7,37.64 21.4,37.4 L21.4,32.86 L19.42,32.86 L19.42,31.22 L21.4,31.22 L21.4,27.66 L23.24,27.66 L23.24,31.22 L24.9,31.22 L24.9,32.86 L23.24,32.86 L23.24,36.6 C23.8,36.32 24.38,36 24.94,35.68 Z M31.98,27.94 L32.84,29.52 C31.24,30.1 29.46,30.46 27.5,30.58 L27.5,33.98 L33.14,33.98 L33.14,35.68 L31.42,35.68 L31.42,46.04 L29.62,46.04 L29.62,35.68 L27.5,35.68 L27.5,36.9 C27.4,40.68 26.66,43.7 25.28,45.96 L24,44.6 C25.08,42.74 25.66,40.18 25.74,36.9 L25.74,29.06 C28.06,29.02 30.14,28.64 31.98,27.94 Z M38.66,33.96 L38.66,36.14 L43.04,36.14 L43.04,33.96 L38.66,33.96 Z M43.04,37.88 L36.8,37.88 L36.8,28.22 L51.16,28.22 L51.16,37.88 L44.96,37.88 L44.96,39.82 L52.02,39.82 L52.02,41.62 L44.96,41.62 L44.96,43.64 L52.86,43.64 L52.86,45.48 L35.12,45.48 L35.12,43.64 L43.04,43.64 L43.04,41.62 L35.98,41.62 L35.98,39.82 L43.04,39.82 L43.04,37.88 Z M44.96,36.14 L49.3,36.14 L49.3,33.96 L44.96,33.96 L44.96,36.14 Z M49.3,32.2 L49.3,29.98 L44.96,29.98 L44.96,32.2 L49.3,32.2 Z M43.04,29.98 L38.66,29.98 L38.66,32.2 L43.04,32.2 L43.04,29.98 Z M57.08,34.76 L58.76,35.42 C58.1,37.8 57.24,39.62 56.16,40.9 L54.74,39.66 C55.78,38.42 56.56,36.8 57.08,34.76 Z M61.22,27.66 L63.14,27.66 L63.14,31.38 L69.46,31.38 C69.42,32.78 69.4,34.08 69.36,35.28 L70.68,34.64 C71.6,36.44 72.5,38.42 73.36,40.6 L71.62,41.44 C70.9,39.48 70.12,37.68 69.32,36.08 C69.24,37.56 69.16,38.88 69.08,40 C68.88,42.16 68.54,43.68 68.08,44.56 C67.62,45.4 66.88,45.84 65.86,45.92 L63.52,45.92 L63,44.08 C63.68,44.12 64.32,44.14 64.92,44.14 C65.9,44.14 66.56,43.46 66.9,42.14 C67.22,40.74 67.42,37.76 67.52,33.22 L63.06,33.22 C62.86,36.4 62.3,39 61.38,41.02 C60.34,43.2 58.62,44.88 56.24,46.08 L55.2,44.42 C57.48,43.16 59.04,41.56 59.88,39.64 C60.56,37.9 60.98,35.76 61.14,33.22 L56.38,33.22 L56.38,31.38 L61.22,31.38 L61.22,27.66 Z M82.1,33.84 C81.58,34.64 81.02,35.3 80.38,35.86 L78.96,34.56 C80.24,33.4 81.18,32 81.74,30.36 L83.46,30.84 C83.3,31.3 83.14,31.72 82.98,32.12 L90.62,32.12 L90.62,33.84 L86.48,33.84 L86.48,34.72 C86.44,35.22 86.4,35.68 86.34,36.12 L91.8,36.12 L91.8,37.9 L85.96,37.9 C85.68,38.82 85.28,39.62 84.78,40.3 C83.78,41.56 82.16,42.54 79.88,43.26 L78.86,41.66 C81.06,40.98 82.56,40.1 83.38,39.06 C83.62,38.7 83.84,38.3 84,37.9 L78.98,37.9 L78.98,36.12 L84.5,36.12 C84.58,35.66 84.62,35.2 84.64,34.72 L84.64,33.84 L82.1,33.84 Z M86.66,38.66 C88.52,39.46 90.22,40.46 91.78,41.64 L90.74,43.24 C89.1,41.88 87.42,40.82 85.7,40.04 L86.66,38.66 Z M76.1,28.26 L92.12,28.26 L92.12,30.04 L77.92,30.04 L77.92,43.56 L92.76,43.56 L92.76,45.38 L76.1,45.38 L76.1,28.26 Z M98.94,27.44 L100.74,28.26 C100.28,29.72 99.7,31.1 98.98,32.42 L98.98,46.1 L97.06,46.1 L97.06,35.38 C96.48,36.14 95.86,36.86 95.2,37.56 L94.58,35.54 C96.54,33.22 98,30.52 98.94,27.44 Z M101.58,28.42 L111.26,28.42 L111.26,35.06 L107.34,35.06 L107.34,36.82 L112.94,36.82 L112.94,38.66 L109.04,38.66 C110.08,40.46 111.5,42.04 113.32,43.4 L112.08,45.06 C110.24,43.34 108.72,41.22 107.5,38.66 L107.34,38.66 L107.34,46.06 L105.46,46.06 L105.46,38.66 L105.28,38.66 C104.02,41.4 102.46,43.54 100.6,45.08 L99.52,43.36 C101.24,42.16 102.64,40.6 103.76,38.66 L100.06,38.66 L100.06,36.82 L105.46,36.82 L105.46,35.06 L101.58,35.06 L101.58,28.42 Z M109.38,33.24 L109.38,30.24 L103.46,30.24 L103.46,33.24 L109.38,33.24 Z M114.96,33.52 L120.58,33.52 C120.74,32.84 120.92,32.18 121.08,31.5 L116.32,31.5 L116.32,29.72 L121.48,29.72 C121.64,28.96 121.78,28.18 121.94,27.42 L123.9,27.58 C123.76,28.32 123.62,29.04 123.5,29.72 L131.86,29.72 L131.86,31.5 L123.12,31.5 C122.96,32.2 122.8,32.88 122.64,33.52 L133.04,33.52 L133.04,35.34 L122.14,35.34 C121.9,36.14 121.68,36.88 121.44,37.58 L130.7,37.58 L130.7,39.22 C129.78,40.58 128.36,41.94 126.44,43.32 C127.52,43.72 128.56,44.14 129.56,44.58 L128.52,46.22 C125.54,44.82 122.48,43.7 119.36,42.9 L120.36,41.42 C121.76,41.78 123.1,42.16 124.38,42.6 C126.08,41.52 127.42,40.44 128.4,39.32 L118.72,39.32 C119.2,38.04 119.64,36.72 120.06,35.34 L114.96,35.34 L114.96,33.52 Z M140.84,31.54 C142.6,32.88 144.26,34.22 145.78,35.56 C146.82,34.18 147.72,32.62 148.48,30.86 L150.2,31.78 C149.36,33.72 148.38,35.42 147.26,36.88 C148.7,38.2 150.04,39.54 151.24,40.86 L149.76,42.34 C148.68,41.06 147.42,39.72 145.98,38.36 C144.3,40.16 142.34,41.52 140.12,42.48 L139.02,40.76 C141.12,39.9 142.96,38.66 144.52,37.02 C143,35.66 141.3,34.28 139.46,32.88 L140.84,31.54 Z M136.14,28.36 L152.18,28.36 L152.18,30.18 L137.96,30.18 L137.96,43.44 L152.8,43.44 L152.8,45.26 L136.14,45.26 L136.14,28.36 Z M23.62,60.38 L16.22,60.38 L16.22,58.52 L32.14,58.52 L32.14,60.38 L25.52,60.38 L25.52,65.68 L31.08,65.68 L31.08,67.5 L25.52,67.5 L25.52,73.44 L32.98,73.44 L32.98,75.3 L15.04,75.3 L15.04,73.44 L18.02,73.44 L18.02,64.1 L19.86,64.1 L19.86,73.44 L23.62,73.44 L23.62,60.38 Z M35.26,61.02 L44.84,61.02 C44.78,59.94 44.76,58.8 44.76,57.64 L46.72,57.64 C46.72,58.82 46.74,59.94 46.8,61.02 L49.92,61.02 C49.4,60.06 48.82,59.2 48.2,58.44 L49.76,57.7 C50.38,58.5 50.98,59.36 51.54,60.32 L50.12,61.02 L52.8,61.02 L52.8,62.86 L46.9,62.86 C47.14,65.9 47.6,68.48 48.28,70.56 C49.12,72.78 49.82,73.9 50.38,73.9 C50.68,73.88 51.02,72.8 51.38,70.68 L53.1,71.56 C52.5,74.52 51.64,76.02 50.5,76.04 C48.58,75.92 47.02,73.66 45.82,69.24 C45.4,67.4 45.1,65.28 44.94,62.86 L35.26,62.86 L35.26,61.02 Z M35.54,65.78 L44.14,65.78 L44.14,67.56 L40.78,67.56 L40.78,72.18 C42.18,71.9 43.56,71.58 44.92,71.22 L44.92,73.08 C42,73.78 38.86,74.38 35.52,74.86 L35.08,73.06 C36.36,72.9 37.64,72.72 38.9,72.52 L38.9,67.56 L35.54,67.56 L35.54,65.78 Z M62.08,57.6 L64.04,57.6 L64.04,63.62 L71.44,63.62 L71.44,65.46 L64.04,65.46 L64.04,73.5 L72.98,73.5 L72.98,75.34 L55.06,75.34 L55.06,73.5 L62.08,73.5 L62.08,57.6 Z M81.94,71.8 L81.94,73.58 C79.98,74.34 77.76,74.94 75.26,75.4 L75.02,73.54 C77.66,73.1 79.98,72.52 81.94,71.8 Z M78.1,57.48 L79.92,58.2 C78.96,60.62 78,62.58 77.04,64.08 C77.74,64 78.44,63.92 79.16,63.82 C79.52,63.14 79.88,62.4 80.26,61.64 L81.96,62.28 C80.34,65.4 78.98,67.68 77.86,69.12 C79.14,68.84 80.42,68.48 81.74,68.04 L81.74,69.74 C79.58,70.46 77.54,70.96 75.62,71.2 L75.1,69.48 C75.44,69.34 75.72,69.16 75.96,68.94 C76.56,68.28 77.32,67.14 78.24,65.52 C77.28,65.64 76.3,65.78 75.28,65.92 L74.82,64.2 C75.1,64.08 75.36,63.84 75.6,63.5 C76.56,61.7 77.38,59.68 78.1,57.48 Z M91.68,60.98 L91.94,62.74 L86.94,63.44 C86.98,64.24 87.02,64.98 87.1,65.7 L92.22,64.9 L92.5,66.7 L87.32,67.52 L87.4,68.1 C87.56,69.04 87.78,69.88 88.04,70.62 C88.96,69.74 89.8,68.74 90.54,67.62 L92.04,68.64 C91.04,70.08 89.98,71.34 88.82,72.38 C89.42,73.3 89.96,73.78 90.44,73.78 C90.9,73.78 91.28,72.82 91.6,70.92 L93.22,72 C92.62,74.56 91.78,75.86 90.66,75.86 C89.66,75.84 88.7,75.22 87.8,74.02 C87.66,73.84 87.54,73.66 87.44,73.5 C86,74.54 84.48,75.3 82.88,75.78 L81.78,74.26 C83.58,73.7 85.18,72.9 86.58,71.86 C86.22,71.02 85.94,70.1 85.7,69.1 C85.6,68.68 85.52,68.24 85.44,67.8 L82.02,68.34 L81.76,66.54 L85.2,66 C85.12,65.26 85.08,64.5 85.04,63.7 L82.38,64.08 L82.1,62.32 L85,61.9 L85,57.6 L86.9,57.6 L86.9,61.64 L91.68,60.98 Z M89.14,57.52 C90.1,58.44 90.86,59.22 91.38,59.88 L89.9,60.92 C89.36,60.16 88.62,59.34 87.7,58.44 L89.14,57.52 Z" id="浙里办医保专区-正式上线" fill="#BBF39B" mask="url(#mask-2)"></path>
        </g>
    </g>
</svg>