<?xml version="1.0" encoding="UTF-8"?>
<svg width="375px" height="170px" viewBox="0 0 375 170" version="1.1" xmlns="http://www.w3.org/2000/svg" xmlns:xlink="http://www.w3.org/1999/xlink">
    <!-- Generator: Sketch 51.3 (57544) - http://www.bohemiancoding.com/sketch -->
    <title>背景</title>
    <desc>Created with Sketch.</desc>
    <defs>
        <linearGradient x1="66.0346441%" y1="181.265193%" x2="66.0346441%" y2="6.07791753%" id="linearGradient-1">
            <stop stop-color="#62D7ED" offset="0%"></stop>
            <stop stop-color="#2D7CFC" offset="99.8216221%"></stop>
        </linearGradient>
        <polygon id="path-2" points="0 0 375 0 375 170 0 170"></polygon>
        <linearGradient x1="62.6607073%" y1="100%" x2="62.6607073%" y2="11.6193042%" id="linearGradient-4">
            <stop stop-color="#EDF3FB" offset="0%"></stop>
            <stop stop-color="#D6E3F6" offset="100%"></stop>
        </linearGradient>
        <linearGradient x1="62.6607073%" y1="100%" x2="62.6607073%" y2="11.6193042%" id="linearGradient-5">
            <stop stop-color="#EDF3FB" offset="0%"></stop>
            <stop stop-color="#C2DBFF" offset="100%"></stop>
        </linearGradient>
        <linearGradient x1="50%" y1="100%" x2="50%" y2="0%" id="linearGradient-6">
            <stop stop-color="#B8D9FF" offset="0%"></stop>
            <stop stop-color="#65B2FE" offset="100%"></stop>
        </linearGradient>
        <linearGradient x1="50%" y1="100%" x2="50%" y2="0%" id="linearGradient-7">
            <stop stop-color="#B8D9FE" offset="0%"></stop>
            <stop stop-color="#68B3FE" offset="100%"></stop>
        </linearGradient>
    </defs>
    <g id="背景" stroke="none" stroke-width="1" fill="none" fill-rule="evenodd">
        <g>
            <mask id="mask-3" fill="white">
                <use xlink:href="#path-2"></use>
            </mask>
            <use id="Mask" fill="url(#linearGradient-1)" xlink:href="#path-2"></use>
            <g id="Group-10" mask="url(#mask-3)">
                <g transform="translate(196.000000, 5.000000)">
                    <g id="Group-24-Copy" stroke-width="1" fill="none" transform="translate(56.000000, 0.000000)">
                        <g id="Group-2" transform="translate(19.000000, 0.000000)">
                            <polygon id="Path-2" fill="#81ACF0" opacity="0.797935268" points="0.354492188 4.45019531 12.8232422 4.45019531 12.8232422 9.99707031 23.7919922 9.99707031 23.7919922 0.76953125 36.1289062 0.76953125 36.1289062 9.99707031 46.6347656 9.99707031 46.6347656 4.45019531 58.9589844 4.45019531 58.9589844 47.0332031 29.6567383 69.7910156 0.354492188 47.0332031"></polygon>
                            <g id="Group-16" transform="translate(20.000000, 22.000000)" fill="#FFFFFF">
                                <rect id="Rectangle-20" x="0" y="7" width="20" height="7"></rect>
                                <rect id="Rectangle-20-Copy" transform="translate(10.000000, 10.500000) rotate(-270.000000) translate(-10.000000, -10.500000) " x="0" y="7" width="20" height="7"></rect>
                            </g>
                        </g>
                        <g id="Group-21" transform="translate(0.000000, 38.000000)">
                            <path d="M19.2138672,25.7641602 C20.6514495,28.9415603 21.8106292,30.9067295 22.6914062,31.659668 C23.5721833,32.4126064 24.7118318,32.4126064 26.1103516,31.659668 L26.1103516,29.4824219 L24.1992188,28.7119141 L21.3442383,22.1308594 L19.2138672,25.7641602 Z" id="Path-37" fill="#FFEFCD"></path>
                            <path d="M2.54882812,25.0358887 C2.75624314,29.8727678 2.9315361,32.8547014 3.07470703,33.9816895 C3.21787796,35.1086775 3.87852249,35.6387882 5.05664062,35.5720215 L5.48999023,34.7927246 L5.05664062,26.8115234 L2.54882812,25.0358887 Z" id="Path-38" fill="#FFEFCD"></path>
                            <polygon id="Path-40" fill="#FFEFCD" points="11.7966309 9.61157227 11.7966309 13.9443359 14.682373 13.5554199 14.682373 8.75219727"></polygon>
                            <path d="M16.8632813,3.19165039 C17.2203655,3.3565634 17.0264599,4.14336274 17.3190918,4.64526367 C17.9025087,5.64589767 18.8356934,6.60421821 18.8356934,6.87509122 C18.8356934,7.14625007 18.4581299,7.29221576 17.7030029,7.31298828 C18.0297445,8.60725911 18.0297445,9.47412109 17.7030029,9.91357422 C17.2128906,10.5727539 15.4956055,11.3513184 14.1745605,9.91357422 C12.8535156,8.47583008 11.9770508,4.42016602 12.4152832,3.91430664 C12.8535156,3.40844727 15.7942824,2.69795226 16.8632813,3.19165039 Z" id="Path-39" fill="#FFEFCD"></path>
                            <path d="M12.784668,9.99023437 C10.9731445,9.58056641 9.90771484,8.8359375 9.58837891,7.75634766 C9.109375,6.13696289 9.11547852,3.41088867 10.2402344,2.1184082 C11.3649902,0.825927734 12.9160156,-0.12890625 14.6660156,0.308837891 C16.4160156,0.746582031 17.4379883,1.87573242 17.4379883,2.55395508 C17.4379883,3.23217773 14.3427734,4.81738281 14.6660156,6.33325195 C14.9892578,7.84912109 15.652832,8.89501953 15.3210449,9.44262695 C15.0998535,9.80769857 14.2543945,9.99023437 12.784668,9.99023437 Z" id="Path-18" fill="#0C303E"></path>
                            <path d="M3.78369141,76.5576172 L0.16796875,77.4072266 C3.23079427,59.3336589 4.76220703,49.4498698 4.76220703,47.7558594 C4.76220703,46.061849 5.09554036,42.2091471 5.76220703,36.1977539 L18.6523438,36.1977539 C17.6933594,53.6964518 17.2138672,63.1964518 17.2138672,64.6977539 C17.2138672,66.199056 16.8325195,70.3299967 16.0698242,77.0905762 L13.0810547,77.4072266 L13.0810547,52.0146484 L11.9726562,45.2978516 L10.4487305,45.2978516 C8.57340495,54.3883464 7.63574219,58.9335938 7.63574219,58.9335938 C7.63574219,58.9335938 6.35172526,64.8082682 3.78369141,76.5576172 Z" id="Path-20" fill="#124361"></path>
                            <path d="M3.44335937,18.6813965 C5.82008475,14.3953288 8.65429687,13.690918 10.4438477,13.3303223 C12.2333984,12.9697266 15.2121582,13.4082031 16.3427734,13.9980469 C17.4733887,14.5878906 20.3256836,16.1484375 21.3874512,19.2370605 C22.0952962,21.2961426 22.2989095,22.8540039 21.998291,23.9106445 L19.2614746,25.4199219 L19.2614746,36.4125977 L4.57543945,36.4125977 L4.57543945,26.9985352 L2.60888672,26.9985352 C1.58071824,24.3111545 1.85887579,21.5387749 3.44335937,18.6813965 Z" id="Path-19" fill="#98C8EC"></path>
                            <polygon id="Path-24" fill="#000000" points="3.31201172 76.2792969 5.07226562 76.2792969 2.21972656 78.5849609 0.111816406 78.5849609 0.111816406 77.4321289"></polygon>
                            <polygon id="Path-25" fill="#000000" points="13.0327148 76.8720703 16.0532227 76.8720703 20.5825195 79.1103516 13.0327148 79.1103516"></polygon>
                            <path d="M24.9975586,33.0759277 C25.8032227,33.9978027 26.547526,34.4587402 27.2304688,34.4587402 C27.9134115,34.4587402 28.4995931,33.2572428 28.9890137,30.854248 L26.1652832,30.854248 L24.9975586,33.0759277 Z" id="Path-41" fill="#FFEFCD"></path>
                        </g>
                        <g id="Group-19" transform="translate(38.000000, 70.000000)">
                            <path d="M11.0087891,41.831543 L11.0087891,48.3955078 L10.0354004,48.6717529 C9.04465385,48.7048081 9.04465385,48.9033351 10.0354004,49.267334 C11.5215202,49.8133322 10.9238281,49.267334 11.8999023,49.267334 C12.4099642,49.267334 12.5637207,49.267334 12.5637207,48.6717529 C12.5637207,48.5004293 12.5637207,48.4083476 12.5637207,48.3955078 L12.5637207,41.4172363 L11.0087891,41.831543 Z" id="Path-14" fill="#FFEFCD"></path>
                            <polygon id="Path-15" fill="#FFEFCD" points="14.9310303 41.7111816 14.9310303 48.7712402 14.2001953 48.9628906 14.4528809 49.449585 16.3017578 49.449585 16.4763184 40.8991699"></polygon>
                            <path d="M0.212402344,0.782958984 L2.57910156,11.8862305 C2.47951258,13.3001806 2.47951258,14.0977202 2.57910156,14.2788494 C2.67869055,14.4599785 2.92631524,14.4599785 3.32197565,14.2788494 L7.20507813,21.3413086 L8.02807617,18.9165039 L4.47583008,13.598877 L4.8425293,12.3435059 L3.75593591,11.50589 L2.94262695,1.56201172 L0.212402344,0.782958984 Z" id="Path-17" fill="#FFEFCD"></path>
                            <polygon id="Path-16" fill="#FFEFCD" points="19.3088379 29.5737305 20.4360352 33.8476562 19.3088379 34.8884277 21.3271484 35.5822754 21.9245605 33.8476562 21.3271484 32.9921875 20.4360352 27.0422363"></polygon>
                            <polygon id="Path-13" fill="#4884D8" points="10.0546875 35.0178223 10.0546875 41.748291 12.7907715 41.748291 14.2116699 39.519043 14.8303223 41.748291 17.5703125 41.748291 17.5703125 33.8771973 10.0546875 33.3608398"></polygon>
                            <path d="M12.9365234,18.6066895 L9.64501953,19.0454102 L7.78955078,18.6066895 L6.04882812,19.4099121 L7.14208984,21.3056641 L9.23193359,22.0029297 L9.69177246,34.5249023 L17.9831543,34.5249023 L17.9831543,28.4064941 L19.2209473,29.6120605 L21.2460938,28.4064941 C19.8959961,24.7696126 19.2209473,22.9511719 19.2209473,22.9511719 C19.2209473,22.9511719 18.3072917,21.5030111 16.4799805,18.6066895 L12.9365234,18.6066895 Z" id="Path-11" fill="#CCD7EA"></path>
                            <path d="M11.7277832,18 C11.1142442,16.5817766 11.7277832,14.8237305 11.7277832,14.2956543 C11.7277832,13.7675781 11.7312012,11.6162109 12.7766113,11.2287598 C13.8220215,10.8413086 14.9509277,10.7944336 15.9060059,11.2287598 C16.861084,11.6630859 18.9216309,13.3754883 18.9216309,14.2956543 C18.9216309,15.2158203 17.6599121,18.2712402 17.177002,18.7722168 C16.6940918,19.2731934 14.6672363,20.1105957 14.0622559,19.6918945 C13.4572754,19.2731934 12.3413222,19.4182234 11.7277832,18 Z" id="Path-10" fill="#1F3649"></path>
                            <path d="M10.1890869,48.3293457 C10.5679118,48.1822103 10.8474057,48.0724284 11.0275686,48 C11.705303,48.2195638 12.0441701,48.3293457 12.0441701,48.3293457 C12.0441701,48.3293457 12.287497,48.2744548 12.7741506,48.1646729 L12.7741506,49.1555176 C12.4936202,49.4637858 12.2502933,49.6179199 12.0441701,49.6179199 C11.8380469,49.6179199 11.4589779,49.6179199 10.9069631,49.6179199 C9.4497006,49.6293945 8.82613118,49.4752604 9.03625488,49.1555176 C9.35144043,48.6759033 9.62084961,48.5500488 10.1890869,48.3293457 Z" id="Path-42" fill="#000000"></path>
                            <path d="M13.855957,48.4984131 C14.1584473,48.4984131 14.6508789,48.5591634 15.333252,48.6806641 L16.5944824,48.4984131 C16.6737872,49.0006917 16.6070961,49.359375 16.3944092,49.5744629 C16.0753788,49.8970947 15.7622835,49.855835 15.126954,49.855835 C14.4916245,49.855835 14.1929389,49.7248247 13.855957,49.3720703 C13.5189751,49.0193159 13.4022217,48.4984131 13.855957,48.4984131 Z" id="Path-43" fill="#000000"></path>
                        </g>
                        <g id="Group-20" transform="translate(23.000000, 41.000000)">
                            <polygon id="Path-6" fill="#FFEFCD" points="3.04614258 74.0109863 3.04614258 76.7443848 0.83203125 77.8249512 0.118652344 78.3056641 4.40136719 78.9619141 4.40136719 72.2685547"></polygon>
                            <polygon id="Path-7" fill="#FFEFCD" points="10.6760254 71.9980469 10.6760254 77.6572266 12.0078125 77.6572266 12.0078125 70.5146484"></polygon>
                            <path d="M4.27929688,34.6328125 L1.89550781,73.9951172 L4.27929688,73.9951172 C5.52148437,62.6539714 6.56119792,55.9075521 7.3984375,53.7558594 C8.23567708,51.6041667 9.01139323,47.1598307 9.72558594,40.4228516 L9.72558594,72.4580078 L12.5810547,72.4580078 C12.851237,63.5426432 13.4440104,56.8235677 14.359375,52.3007812 C15.2747396,47.7779948 15.5007324,41.6514486 15.0373535,33.9211426 L7.3984375,33.0390625 L4.27929688,34.6328125 Z" id="Path-5" fill="#124361"></path>
                            <path d="M4.55639648,16.847168 C3.60662742,18.9093582 4.21582441,19.9307387 3.64648438,22.2094727 C3.25469025,23.7775946 2.49785431,26.4475164 1.37597656,30.2192383 L4.10351562,30.2192383 L4.10351563,35.4121094 L15.2724609,35.4121094 L15.2724609,30.8339844 L18.2431641,30.8339844 C17.2390951,26.2666016 16.7370605,22.6570638 16.7370605,20.0053711 C16.7370605,17.3536784 16.044515,15.6222331 14.6594238,14.8110352 L7.35253906,13.8535156 C6.4226888,13.8208008 5.49064128,14.8186849 4.55639648,16.847168 Z" id="Path-4" fill="#0069DB"></path>
                            <path d="M5.09667969,11.3928223 C6.30083644,8.6332832 6.626013,6.62211226 6.68969727,5.45416191 C6.82273826,3.01422989 6.32435671,0.676424046 9.36376953,0.254638672 C13.8552451,-0.368652344 13.8552451,2.91147306 14.2506206,5.45416191 C14.6459961,7.99685076 14.0420941,7.99685076 15.1018066,10.9504395 C15.553373,12.2090274 16.7522843,14.562891 16.1235352,16.1484375 C15.2767685,18.2837691 9.16870117,18.2837691 10.7092285,18.7043457 C12.8918457,18.2837691 1.37695312,19.9172363 5.09667969,11.3928223 Z" id="Path-3" fill="#004795"></path>
                            <path d="M1.97663021,77 L0.678720165,77 C-0.064390022,78.0129171 -0.064390022,78.5193756 0.678720165,78.5193756 C1.12536893,78.5193756 2.55822572,78.2950091 3.50040168,78.5193756 C3.82678531,78.5970995 3.14215998,79.3098145 3.50040168,79.3098145 C3.71917867,79.3098145 3.9998065,79.3098145 4.34228516,79.3098145 L4.34228516,77 L1.97663021,77 Z" id="Path-8" fill="#000000"></path>
                            <path d="M10.3349609,77.0556641 C10.485943,77.0556641 10.6654128,77.0166046 10.8733705,76.9384856 C11.1454314,76.8362864 11.8214303,76.7310587 12.9013672,76.6228027 L13.8393555,76.6228027 L13.5029297,77.7727051 L11.4914551,78.232666 L11.4914551,78.9226074 L10.3349609,78.9226074 C9.88769531,77.6779785 9.88769531,77.0556641 10.3349609,77.0556641 Z" id="Path-9" fill="#000000"></path>
                        </g>
                        <g id="Group-23-Copy" transform="translate(80.000000, 79.000000) scale(-1, 1) translate(-80.000000, -79.000000) translate(62.000000, 41.000000)">
                            <g id="Group-22">
                                <path d="M15.5223501,10.046984 C18.950348,11.3057183 21.004015,11.9350854 21.6833512,11.9350854 C22.7023555,11.9350854 25.4160867,12.5164039 26.250803,12.5164039 C26.8072805,12.5164039 27.3744981,12.3226311 27.9524558,11.9350854 C27.8279912,10.1909324 28.0574478,9.31885593 28.6408257,9.31885593 C29.2242037,9.31885593 30.0964601,9.8517806 31.257595,10.9176299 C30.1886041,13.192685 29.0868911,14.7410425 27.9524558,15.5627025 C26.8180206,16.3843625 24.0731732,16.3843625 19.7179135,15.5627025 C19.7179135,19.6023336 19.7179135,21.6221492 19.7179135,21.6221492 C19.7179135,21.6221492 18.8115297,26.2872009 19.7179135,31.0662076 C20.6242974,35.8452144 20.5249264,40.9859172 20.5249264,42.15625 C20.5249264,42.9364718 19.8414748,43.4067952 18.4745717,43.5672202 L18.4745717,29.3506667 C17.7239695,24.7239947 17.3486684,22.4106586 17.3486684,22.4106586 C17.3486684,22.4106586 17.3486684,21.0575046 17.3486684,18.3511964 L16.8481999,12.9236821 L14.937868,10.046984 L15.5223501,10.046984 Z" id="Path-47" fill="#FFFFFF"></path>
                                <path d="M17.9366134,26.5677966 C18.5193891,36.5188809 18.742773,42.4569728 18.6067653,44.3820725 C18.4707575,46.3071722 18.0028105,55.7479748 17.2029243,72.7044803 L14.9333512,72.7044803 L12.3960787,46.2142323 L2.79021681,71.8831163 L0.720891328,71.2772308 L8.71603988,35.5888896 C8.36392532,32.0050785 8.18786804,29.9372144 8.18786804,29.3852972 C8.18786804,28.8333801 8.54058485,27.6162814 9.24601847,25.7340011 L17.9366134,26.5677966 Z" id="Path-49" fill="#0B48B2"></path>
                                <path d="M16.3992238,12.2443918 C17.8829631,14.5098766 18.6248327,16.1049508 18.6248327,17.0296143 C18.6248327,17.9542778 18.2559054,19.0482459 17.5180507,20.3115186 L18.0421574,26.7738036 C16.7091809,26.7738036 15.3035332,26.7738036 13.8252141,26.7738036 C12.3468951,26.7738036 10.7573608,26.5286277 9.05661135,26.0382758 L11.7866033,17.0296143 L11.1286469,11.8048511 L11.7866033,11.282138 L16.3992238,12.2443918 Z" id="Path-48" fill="#6096E8"></path>
                                <path d="M12.60536,17.2240778 C13.6394205,17.5960348 14.3991569,17.5960348 14.8845691,17.2240778 C15.3699813,16.8521207 16.5786938,16.534428 18.5107066,16.2709995 L16.5347297,11.6982957 C15.7562232,11.6982957 15.0341274,11.6982957 14.3684422,11.6982957 C13.702757,11.6982957 12.908291,11.5426066 11.9850442,11.2312282 L12.60536,17.2240778 Z" id="Path-54" fill="#C5DDFF"></path>
                                <path d="M3.38433485,25.2758132 C1.38888517,24.4415244 0.890022752,22.8485221 1.88774759,20.4968065 C3.38433485,16.9692329 7.59555675,12.2612631 8.67418362,11.3999408 C9.3932682,10.8257259 10.5031116,10.238093 12.0037139,9.637042 L12.0037139,11.3999408 C12.3484007,12.1833198 12.5207441,12.9201302 12.5207441,13.610372 C12.5207441,14.6457347 12.7068389,20.0395065 11.4490431,22.3923075 C10.1912473,24.7451084 7.8189909,31.0946224 6.50669165,32.6775611 C5.1943924,34.2604998 3.01666221,38.1500654 1.88774759,40.6795707 C1.13513785,42.3659075 0.588998929,43.7719446 0.249330835,44.897682 C-0.170837794,42.8770771 0.375301124,40.1863576 1.88774759,36.8255234 C3.40019406,33.4646893 4.87807066,29.8599618 6.3213774,26.011341 L4.57859342,24.3082316 L3.38433485,25.2758132 Z" id="Path-51" fill="#FFFFFF"></path>
                                <path d="M11.0716032,16.3429052 C11.0893048,16.4247728 11.036136,16.5052448 10.9528475,16.5226444 C10.869559,16.540044 10.7876904,16.4877824 10.7699888,16.4059147 C10.2394681,13.9523236 10.2394681,12.6242161 10.8583122,12.3545531 C11.3361013,12.1463552 11.7045742,12.5194918 11.9404642,13.2648713 C12.1363677,13.8838991 12.2446509,14.7671205 12.2446509,15.6761396 C12.2446509,15.7598357 12.1756241,15.8276849 12.0904753,15.8276849 C12.0053264,15.8276849 11.9362997,15.7598357 11.9362997,15.6761396 C11.9362997,14.7952969 11.8315942,13.9412569 11.6460296,13.3548988 C11.4577554,12.7599788 11.226401,12.5256961 10.9832797,12.6316368 C10.579506,12.8075823 10.579506,14.0670181 11.0716032,16.3429052 Z" id="Path-57" fill="#000000" fill-rule="nonzero"></path>
                                <path d="M11.0548656,12.3715829 C11.0678843,12.4542951 11.0102228,12.5317202 10.9260751,12.5445168 C10.8419274,12.5573134 10.7631585,12.5006357 10.7501398,12.4179235 C10.4779744,10.6887664 10.9139391,9.60188675 12.0715314,9.21247338 C13.9301423,8.58723769 15.7624439,8.86548282 16.6210526,10.1186107 C17.208537,10.9760363 17.7235938,11.7051595 18.1661287,12.3058722 C18.2160683,12.373662 18.200644,12.4684099 18.1316777,12.5174975 C18.0627113,12.5665852 17.966319,12.5514241 17.9163794,12.4836343 C17.4716016,11.879877 16.9546054,11.1480083 16.3652964,10.2879197 C15.5990764,9.16963194 13.9125122,8.91351784 12.1713755,9.49923525 C11.179744,9.83281954 10.8030748,10.7718726 11.0548656,12.3715829 Z" id="Path-77" fill="#000000" fill-rule="nonzero"></path>
                                <path d="M11.9886577,8.4175754 L11.9886577,11.3821816 L16.2998528,12.2831661 L16.2998528,11.3821816 C15.268402,10.5190834 14.7526767,9.80920779 14.7526767,9.25255484 C14.7526767,8.69590188 14.7526767,7.68352754 14.7526767,6.21543183 L11.9886577,6.62803776 L11.9886577,8.4175754 Z" id="Path-46" fill="#F9E4C9"></path>
                                <ellipse id="Oval-3" fill="#000000" cx="18.4239829" cy="12.8434696" rx="1" ry="1"></ellipse>
                                <path d="M16.0779243,3.19843594 C16.2826987,5.13447691 16.9478721,6.07513397 16.0779243,7.13920738 C15.497959,7.84858965 15.1512647,8.10895958 15.0378413,7.92031717 C13.8933686,7.92031717 13.1277101,7.92031717 12.7408659,7.92031717 C12.3540217,7.92031717 11.2744914,7.13333697 9.50227516,5.55937656 L10.4092612,3.19843594 L12.7900997,1.74987537 L15.5078961,1.74987537 C15.7513985,1.42488844 15.9414079,1.90774197 16.0779243,3.19843594 Z" id="Path-45" fill="#F9E4C9"></path>
                                <path d="M12.8411403,8.31871573 C12.1403245,8.59869536 10.0271346,8.45901358 8.98675054,7.25227443 C7.94636643,6.04553527 7.94636643,3.11555957 8.98675054,1.88721336 C9.68033994,1.06831589 10.4597497,0.599669741 11.3249799,0.481274925 C12.1777637,-0.138521934 13.155815,-0.138521934 14.2591341,0.481274925 C15.9141127,1.41097021 16.4519205,2.30129923 16.1830166,2.78494205 C16.0037473,3.1073706 15.1902101,2.93619143 13.742405,2.27140454 L12.8411403,1.88721336 C13.2458787,2.58687739 13.0943699,3.14185309 12.3866139,3.55214045 C11.3249799,4.1675715 10.3758365,4.46970027 10.3758365,4.92966413 C10.3758365,5.2363067 10.5085319,5.54640246 10.7739226,5.8599514 L11.3249799,5.8599514 C12.802964,7.31247453 13.3083508,8.13206264 12.8411403,8.31871573 Z" id="Path-44" fill="#000000"></path>
                                <path d="M16.6654176,30.9910269 L17.3908257,30.3220962 C17.6326285,33.3151171 17.6326285,35.4829262 17.3908257,36.8255234 C17.0281217,38.8394192 15.8984542,40.2048075 15.8984542,41.3775081 C15.8984542,42.5502087 17.5721778,43.367133 16.735316,44.6416532 C15.8984542,45.9161734 14.864996,47.0725947 14.864996,49.3475511 C14.864996,51.6225075 15.8984542,52.2390485 15.8984542,55.2223018 C15.8984542,57.2111374 15.2810493,59.2700233 14.0462393,61.3989594 L12.411436,45.8605278 C13.5272517,41.8757529 14.3873754,38.8640848 14.9918069,36.8255234 C15.5962385,34.786962 16.1541087,32.8421299 16.6654176,30.9910269 Z" id="Path-50" fill="#00219F"></path>
                                <path d="M9.05209449,17.5188809 C9.35101044,19.2754653 9.50046842,20.323654 9.50046842,20.6634472 C9.50046842,21.1731368 7.98731933,21.2305583 7.98731933,21.8846897 C7.98731933,22.3207773 8.23951084,23.086989 8.74389387,24.183325 L6.90959582,24.183325 L5.86710385,23.1926564 L9.05209449,17.5188809 Z" id="Path-52" fill="#C5DDFF"></path>
                                <path d="M0.156283458,44.7482085 C1.87891461,43.6465447 2.98464267,43.0957129 3.47346761,43.0957129 C3.96229256,43.0957129 5.1296507,43.0957129 6.97554202,43.0957129 L8.94850776,35.2488005 L8.18033994,29.4906686 C6.06062634,32.8716299 4.85131156,34.7910072 4.55239561,35.2488005 C4.25347966,35.7065938 3.28777436,37.3833603 1.65527971,40.2791002 L0.156283458,44.7482085 Z" id="Path-53" fill="#C5DDFF"></path>
                                <path d="M2.34184288,23.5972707 C2.34184288,21.9867065 3.09736349,21.4250218 4.60840471,21.9122165 C6.87496654,22.6430085 7.61633431,24.9676907 8.78891194,26.0983612 C9.96148956,27.2290317 11.6688638,28.3641419 11.6688638,28.9762431 C11.6688638,29.3843106 11.2210921,30.0014436 10.3255487,30.8276421 L9.53991569,30.8276421 L9.53991569,28.4230434 C8.3548916,27.235346 7.35455701,26.5509747 6.53891194,26.3699293 C5.72326686,26.1888839 4.32424384,25.2646643 2.34184288,23.5972707 Z" id="Path-55" fill="#F9E4C9"></path>
                                <path d="M28.2264789,11.2273804 C28.2264789,10.0386964 29.8757361,9.03914818 31.1693656,7.43874626 C32.0317853,6.37181165 33.4442586,4.73204345 35.4067853,2.51944167 C33.7630487,4.61325399 33.3521146,5.66016014 34.1739829,5.66016014 C34.9958512,5.66016014 35.5868576,5.66016014 35.9470021,5.66016014 L32.0867405,8.45131792 C30.8684924,10.8249366 30.2593683,12.011746 30.2593683,12.011746 C30.2593683,12.011746 28.2264789,12.4160643 28.2264789,11.2273804 Z" id="Path-56" fill="#F9E4C9"></path>
                                <path d="M0.665484475,71.4157527 C0.867343801,71.1683986 1.50341848,71.3239891 2.57370851,71.8825243 L7.84187634,75.2218501 L7.84187634,75.9949682 C3.92547844,75.3659828 1.53334782,74.7746007 0.665484475,74.2208219 C-0.636310538,73.3901538 0.362695486,71.786784 0.665484475,71.4157527 Z" id="Path-78" fill="#000000"></path>
                                <path d="M15.0643402,71.9060475 L16.9249866,71.9060475 L23.0110078,73.9850604 L23.0110078,74.6397838 C18.2502342,75.076266 15.601345,75.076266 15.0643402,74.6397838 C14.5273354,74.2033016 14.5273354,73.2920561 15.0643402,71.9060475 Z" id="Path-79" fill="#000000"></path>
                            </g>
                        </g>
                    </g>
                    <path d="M30,12 C30,9.29638233 32.7675414,6 36.3446755,6 C38.7294316,6 40.2698749,6.50660709 40.9660057,7.51982127 C44.2870121,1.26978753 48.1739222,-1.08425051 52.6267359,0.457707141 C59.3059565,2.77064362 59.9838079,7.07559989 59.9838079,12 C59.9838079,12 30,12 30,12 Z" id="Path-12" fill="url(#linearGradient-4)" opacity="0.227064732"></path>
                    <g id="Group-7" stroke-width="1" fill="none" transform="translate(0.000000, 90.000000)">
                        <path d="M0,21 C0,16.9445735 4.15355396,12 9.52215272,12 C13.1012186,12 15.4131315,12.7599106 16.4578914,14.2797319 C21.4420913,4.9046813 27.275605,1.37362423 33.9584325,3.68656071 C43.9826739,7.15596543 45,13.6133998 45,21 C45,21 0,21 0,21 Z" id="Path-12-Copy" fill="url(#linearGradient-5)" opacity="0.119308036"></path>
                        <g id="Group-5" transform="translate(18.000000, 0.000000)">
                            <polygon id="Triangle" fill="url(#linearGradient-6)" points="6 0 12 14.35 0 14.35"></polygon>
                            <rect id="Rectangle-4" fill="#D8D8D8" x="5.29411765" y="14.35" width="1.41176471" height="6.65"></rect>
                        </g>
                        <g id="Group-6" transform="translate(29.000000, 5.000000)">
                            <rect id="Rectangle-4-Copy" fill="#D8D8D8" x="4.28571429" y="9.24444444" width="1.42857143" height="6.75555556"></rect>
                            <ellipse id="Oval-4" fill="url(#linearGradient-7)" cx="5" cy="4.97777778" rx="5" ry="4.97777778"></ellipse>
                        </g>
                    </g>
                </g>
            </g>
        </g>
    </g>
</svg>