<?xml version="1.0" encoding="UTF-8"?>
<svg width="120px" height="120px" viewBox="0 0 120 120" version="1.1" xmlns="http://www.w3.org/2000/svg" xmlns:xlink="http://www.w3.org/1999/xlink">
    <!-- Generator: Sketch 51.3 (57544) - http://www.bohemiancoding.com/sketch -->
    <title>icon/面性/流产</title>
    <desc>Created with Sketch.</desc>
    <defs></defs>
    <g id="icon/面性/流产" stroke="none" stroke-width="1" fill="none" fill-rule="evenodd">
        <g id="lishifenmianjilu01" transform="translate(11.000000, 5.000000)" fill-rule="nonzero">
            <path d="M41.8196591,38.5893125 C52.4753722,38.5893125 61.1139789,29.950033 61.1139789,19.2949927 C61.1139789,8.63871882 52.4753722,2.84217094e-14 41.8196591,2.84217094e-14 C31.1639459,2.84217094e-14 22.5253392,8.63860673 22.5253392,19.2948805 C22.5253392,29.9499209 31.1639459,38.5893125 41.8196591,38.5893125 Z" id="Shape" fill="#0284FD"></path>
            <path d="M46.9713594,96.4413242 C42.2412678,96.1569625 33.3893899,93.0111556 33.3893899,86.2343552 C33.3893899,86.0743457 33.4073307,85.9189336 33.4134978,85.760606 C31.2731605,87.5826062 28.5038861,88.6877594 25.4727882,88.6877594 C18.6991275,88.6877594 13.2099159,83.1973143 13.2099159,76.4243264 C13.2099159,69.6518992 18.6991275,64.1607813 25.4727882,64.1607813 C32.2458883,64.1607813 37.7363333,69.6518992 37.7363333,76.4243264 C37.7363333,76.5828783 37.7183925,76.737057 37.7125618,76.8941511 C39.8544689,75.0693476 42.6262102,73.9621761 45.6604478,73.9621761 C48.3256655,73.9621761 52.4555253,75.862331 56.4867107,78.1662659 C60.7585269,69.6791468 69.5470514,63.8393047 79.6790054,63.8393047 C79.7050195,63.8393047 79.7303609,63.8413231 79.756375,63.8413231 C79.1399965,60.8778395 78.5601722,57.979055 78.1144555,55.3506159 C75.9786034,42.7436166 67.7485984,40.8921261 54.9609577,40.8921261 L32.5789143,40.8921261 C19.7918343,40.8921261 13.6468864,42.600763 8.65407428,55.3506158 C5.91754181,62.3394539 1.1323944,76.317018 0.164376225,83.7014508 C-1.49716597,96.3802132 10.530794,106.722635 23.317874,106.722635 L60.0347277,106.722635 C57.2036696,103.442048 55.1733319,99.452575 54.2636213,95.0549489 C51.5172214,95.987534 48.9017893,96.5571544 46.9713594,96.4413242 Z" id="Shape" fill="#0284FD"></path>
            <g id="guanbi-7" transform="translate(61.592775, 70.925014)">
                <path d="M18.6644773,0 C8.36168582,0 0,8.36168582 0,18.6644773 C0,28.9672687 8.36168582,37.3289546 18.6644773,37.3289546 C28.9672687,37.3289546 37.3289546,28.9672687 37.3289546,18.6644773 C37.3289546,8.36168582 28.9672687,0 18.6644773,0 Z" id="Shape" fill="#0284FD"></path>
                <g id="Group" transform="translate(10.000000, 10.000000)" fill="#FFFFFF">
                    <rect id="Rectangle" transform="translate(9.000000, 9.000000) rotate(45.000000) translate(-9.000000, -9.000000) " x="7" y="-1" width="4" height="20" rx="2"></rect>
                    <rect id="Rectangle-Copy" transform="translate(9.000000, 9.000000) scale(-1, 1) rotate(45.000000) translate(-9.000000, -9.000000) " x="7" y="-1" width="4" height="20" rx="2"></rect>
                </g>
            </g>
        </g>
    </g>
</svg>