<?xml version="1.0" encoding="UTF-8"?>
<svg width="120px" height="120px" viewBox="0 0 120 120" version="1.1" xmlns="http://www.w3.org/2000/svg" xmlns:xlink="http://www.w3.org/1999/xlink">
    <!-- Generator: Sketch 51.3 (57544) - http://www.bohemiancoding.com/sketch -->
    <title>icon/面性/家庭共济</title>
    <desc>Created with Sketch.</desc>
    <defs></defs>
    <g id="icon/面性/家庭共济" stroke="none" stroke-width="1" fill="none" fill-rule="evenodd">
        <path d="M20.4567014,76.4011204 L53.4414621,43.0305735 C55.9979344,40.2960798 58.4771514,38.928833 60.8791131,38.928833 C63.2810748,38.928833 65.7440893,40.2885062 68.2681564,43.0078526 L101.300978,76.4010219 C101.671367,76.7754517 101.879113,77.2808685 101.879113,77.8075429 L101.879113,113.985464 C101.879113,115.090034 100.983683,115.985464 99.8791131,115.985464 L21.8791131,115.985464 C20.7745436,115.985464 19.8791131,115.090034 19.8791131,113.985464 L19.8791131,77.8070881 C19.8791131,77.2806832 20.0866473,76.7755026 20.4567014,76.4011204 Z" id="Combined-Shape" fill="#0284FD"></path>
        <path d="M105.426996,70.9444492 L61.5952195,27.112673 C60.8141709,26.3316244 59.547841,26.3316244 58.7667924,27.112673 L14.9350161,70.9444492 L9.58578644,65.5952195 C8.80473785,64.8141709 8.80473785,63.547841 9.58578644,62.7667924 L58.7667924,13.5857864 C59.547841,12.8047379 60.8141709,12.8047379 61.5952195,13.5857864 L110.776225,62.7667924 C111.557274,63.547841 111.557274,64.8141709 110.776225,65.5952195 L105.426996,70.9444492 Z" id="Combined-Shape" fill="#0284FD"></path>
        <path d="M75.4238477,81.7370508 C75.0290723,86.7914648 71.2128027,93.0259082 60.0612305,100.847939 C48.9092285,93.0260156 45.0939258,86.7914648 44.6991504,81.7370508 L44.6991504,79.9791992 C45.1230371,74.6983398 48.6036133,71.9426465 51.6134668,71.6486328 C52.1081445,71.6005078 52.5708105,71.576875 53.0049023,71.576875 C56.4826855,71.576875 58.1512695,74.5570801 60.0612305,76.8333496 C61.9711914,74.5571875 63.6388086,71.576875 67.1171289,71.576875 C67.5511133,71.576875 68.0141016,71.600293 68.5085645,71.6487402 C71.5185254,71.9426465 74.9989941,74.6984473 75.4238477,79.9793066 L75.4238477,81.7369434 L75.4238477,81.7370508 Z" id="Path" fill="#FFFFFF" fill-rule="nonzero"></path>
    </g>
</svg>