<?xml version="1.0" encoding="UTF-8"?>
<svg width="120px" height="120px" viewBox="0 0 120 120" version="1.1" xmlns="http://www.w3.org/2000/svg" xmlns:xlink="http://www.w3.org/1999/xlink">
    <!-- Generator: Sketch 51.3 (57544) - http://www.bohemiancoding.com/sketch -->
    <title>icon/面性/信息查询 copy</title>
    <desc>Created with Sketch.</desc>
    <defs></defs>
    <g id="icon/面性/信息查询-copy" stroke="none" stroke-width="1" fill="none" fill-rule="evenodd">
        <g id="list" transform="translate(2.000000, 6.000000)" fill="#C9C9C9" fill-rule="nonzero">
            <path d="M74.3667955,100.533333 L2,100.533333 C0.8954305,100.533333 1.3527075e-16,99.6379028 0,98.5333333 L0,2 C-1.3527075e-16,0.8954305 0.8954305,2.02906125e-16 2,0 L78.3,0 L78.3,15.4 C78.3,16.5045695 79.1954305,17.4 80.3,17.4 L99.5,17.4 C99.8781318,17.4 100.231754,17.2950622 100.533333,17.1127198 L100.533333,52.0843121 C96.8850377,50.3009548 92.7844116,49.3 88.45,49.3 C78.2714111,49.3 69.3820584,54.8198761 64.6120887,63.0294813 C64.2029115,62.9020108 63.7678093,62.8333333 63.3166667,62.8333333 L18.85,62.8333333 C16.4475613,62.8333333 14.5,64.7808947 14.5,67.1833333 C14.5,69.585772 16.4475613,71.5333333 18.85,71.5333333 L61.4125787,71.5333333 C61.0762417,73.2536278 60.9,75.0312322 60.9,76.85 C60.9,86.9196427 66.3023449,95.7275002 74.3667955,100.533333 Z M18.85,26.1 C16.4475613,26.1 14.5,28.0475613 14.5,30.45 C14.5,32.8524387 16.4475613,34.8 18.85,34.8 L63.3166667,34.8 C65.7191053,34.8 67.6666667,32.8524387 67.6666667,30.45 C67.6666667,28.0475613 65.7191053,26.1 63.3166667,26.1 L18.85,26.1 Z M18.85,44.4666667 C16.4475613,44.4666667 14.5,46.414228 14.5,48.8166667 C14.5,51.2191053 16.4475613,53.1666667 18.85,53.1666667 L63.3166667,53.1666667 C65.7191053,53.1666667 67.6666667,51.2191053 67.6666667,48.8166667 C67.6666667,46.414228 65.7191053,44.4666667 63.3166667,44.4666667 L18.85,44.4666667 Z" id="Combined-Shape"></path>
            <path d="M115.941818,99.1338182 L106.285212,89.2786667 C108.494545,85.8281212 109.810182,81.7072727 109.810182,77.2637576 C109.810182,65.1991515 100.252848,55.3934545 88.4861818,55.3934545 C76.7195152,55.3934545 67.1621818,65.174303 67.1621818,77.2637576 C67.1621818,89.3532121 76.7195152,99.1338182 88.4861818,99.1338182 C92.1105455,99.1338182 95.4369697,98.1161212 98.4407273,96.5025455 L108.221455,106.556364 L115.941818,99.1338182 Z M75.7513939,77.2637576 C75.7513939,70.0647273 81.4609697,64.2061818 88.4861818,64.2061818 C95.5113939,64.2061818 101.196364,70.0647273 101.196364,77.2637576 C101.196364,84.4627879 95.5113939,90.3212121 88.4860606,90.3212121 C81.4608485,90.3212121 75.7512727,84.4627879 75.7512727,77.2637576 L75.7513939,77.2637576 Z" id="Shape"></path>
            <path d="M81.4856472,0.134787879 L81.4858182,8.68513184 C81.4788954,10.3391954 81.6822447,11.4757053 82.0958659,12.0946615 C82.5094871,12.7136176 83.5187916,13.0464274 85.1237793,13.0930909 L100.600485,13.0930909 L81.4856472,0.134787879 Z" id="Path"></path>
        </g>
    </g>
</svg>