<?xml version="1.0" encoding="UTF-8"?>
<svg width="120px" height="120px" viewBox="0 0 120 120" version="1.1" xmlns="http://www.w3.org/2000/svg" xmlns:xlink="http://www.w3.org/1999/xlink">
    <!-- Generator: Sketch 51.3 (57544) - http://www.bohemiancoding.com/sketch -->
    <title>icon/面性/未就业配偶</title>
    <desc>Created with Sketch.</desc>
    <defs></defs>
    <g id="icon/面性/未就业配偶" stroke="none" stroke-width="1" fill="none" fill-rule="evenodd">
        <g id="banliETC-peiou" transform="translate(8.000000, 5.000000)" fill="#26A88F" fill-rule="nonzero">
            <path d="M25.5440975,23.7969095 C25.5440975,36.8757183 36.1465669,47.4781877 49.2253758,47.4781877 C62.3041846,47.4781877 72.906654,36.8757183 72.906654,23.7969095 C72.906654,10.7181007 62.3041846,0.115631247 49.2253758,0.115631247 C36.1465669,0.115631247 25.5440975,10.7181007 25.5440975,23.7969095 Z" id="Shape"></path>
            <path d="M69.6504783,102.833176 C64.6182067,101.353096 46.561232,80.0399454 51.0014717,64.9431304 C51.0014717,64.6471145 51.2974877,64.3510985 51.2974877,63.7590665 L51.2974877,63.1670346 C52.1855356,59.6148429 54.5536635,56.6546831 57.2178073,54.5825712 C58.6978871,53.3985073 58.1058552,50.7343635 56.3297593,50.7343635 C53.9616314,50.4383476 51.5935036,50.4383476 49.2253758,50.4383475 C22.2879217,50.4383475 0.0867233444,67.9032902 0.0867234658,89.2164407 C0.0867234658,110.825607 21.9919059,109.937559 49.2253758,109.937559 C72.3146221,109.937559 91.5556606,110.233575 96.8839483,97.504888 C97.7719963,95.4327761 95.4038685,93.6566803 93.6277725,94.8407442 C83.8592452,100.761064 71.7225901,103.721224 69.6504783,102.833176 Z" id="Shape"></path>
            <path d="M101.91622,77.9678335 C103.988332,70.86345 99.8441081,63.4630506 92.7397246,61.0949227 C89.1875328,59.9108588 85.3393251,60.5028908 82.3791654,62.2789867 C80.6030695,59.0228108 77.9389256,56.654683 74.3867339,55.4706191 C67.2823504,53.3985072 59.8819509,57.542731 57.5138232,64.6471145 L57.5138232,65.2391464 C57.5138232,65.5351623 57.2178073,65.8311783 57.2178073,66.1271944 C53.6656155,78.5598654 68.4664144,95.7287922 72.3146221,96.9128561 C75.2747819,97.8009041 98.0680123,91.5845685 101.620204,79.1518975 C101.620204,78.8558815 101.620204,78.5598656 101.91622,78.2638495 C101.620204,78.2638495 101.91622,78.2638495 101.91622,77.9678335 Z" id="Shape"></path>
        </g>
    </g>
</svg>