<?xml version="1.0" encoding="UTF-8"?>
<svg width="120px" height="120px" viewBox="0 0 120 120" version="1.1" xmlns="http://www.w3.org/2000/svg" xmlns:xlink="http://www.w3.org/1999/xlink">
    <!-- Generator: Sketch 51.3 (57544) - http://www.bohemiancoding.com/sketch -->
    <title>icon/面性/信息变更</title>
    <desc>Created with Sketch.</desc>
    <defs></defs>
    <g id="icon/面性/信息变更" stroke="none" stroke-width="1" fill="none" fill-rule="evenodd">
        <g id="biangeng-2" transform="translate(6.000000, 5.000000)">
            <rect id="Rectangle-2" fill="#0284FD" x="0" y="7" width="91" height="101" rx="2"></rect>
            <path d="M97.9466392,96.789734 L97.9466392,23.2472147 L106.078745,23.2472147 L106.078745,96.789734 L97.9466392,96.789734 Z M106.078745,96.789734 C104.805894,99.096777 103.250186,101.474534 102.012692,103.808095 C100.775198,101.474534 99.2106514,99.096777 97.9466392,96.789734 L106.078745,96.789734 Z M97.9466392,16.2288541 C97.9466392,13.8245794 99.7675238,11.8799454 102.012692,11.8799454 C104.25786,11.8799454 106.078745,13.8245794 106.078745,16.2288541 L106.078745,20.9136539 L97.9466392,20.9136539 L97.9466392,16.2288541 Z" id="Shape" fill="#0284FD" fill-rule="nonzero"></path>
            <path d="M18.1017382,68.2743292 L25.6150965,75.7876876 C26.7134971,76.8860882 28.4943562,76.8860882 29.5927568,75.7876876 C30.6911573,74.6892871 30.6911573,72.9084279 29.5927568,71.8100273 L26.8879478,69.0963791 L70.748282,69.0963791 C72.303129,69.0963791 73.5635816,67.8359265 73.5635816,66.2810795 C73.5635816,64.7262325 72.303129,63.4657799 70.748282,63.4657799 L20.0994075,63.4657799 C19.7448991,63.4673039 19.3939213,63.5362995 19.0652159,63.6690825 L19.0298589,63.6867611 C18.973086,63.7084078 18.9170713,63.731993 18.8619133,63.7574751 L18.7735207,63.8016713 L18.6674499,63.8635459 L18.5348611,63.9519384 L18.4995041,63.9696169 C17.8119433,64.4437095 17.3708077,65.1989973 17.2956572,66.0307762 C17.2205068,66.8625551 17.5191247,67.6846789 18.1105774,68.2743292 L18.1017382,68.2743292 Z" id="Path" fill="#FFFFFF" fill-rule="nonzero"></path>
            <path d="M72.7371122,52.7260972 L65.2237538,45.2127387 C64.1058948,44.243174 62.4287134,44.302674 61.3823711,45.3490163 C60.3360288,46.3953586 60.2765288,48.07254 61.2460935,49.190399 L63.9597418,51.9040473 L20.0905683,51.9040473 C18.5357213,51.9040473 17.2752688,53.1644999 17.2752688,54.7193469 C17.2752688,56.2741939 18.5357213,57.5346464 20.0905683,57.5346464 L70.7394428,57.5346464 C71.0969048,57.5340302 71.4509474,57.4650219 71.7824737,57.3313438 L71.8178307,57.3225046 C71.8778196,57.2952112 71.9367875,57.2657272 71.9946156,57.2341121 L72.0741688,57.1987551 L72.189079,57.1280411 L72.3128284,57.0573273 L72.3570246,57.0219703 C73.0402854,56.5462709 73.4775164,55.7921571 73.5508913,54.9628493 C73.6242663,54.1335416 73.3262352,53.3143737 72.7371122,52.7260972 Z" id="Path" fill="#FFFFFF" fill-rule="nonzero"></path>
            <rect id="Rectangle-9" fill="#FFFFFF" x="21" y="0" width="49" height="15" rx="2"></rect>
            <rect id="Rectangle" fill="#0284FD" x="28" y="0" width="35" height="9" rx="2"></rect>
        </g>
    </g>
</svg>