<?xml version="1.0" encoding="UTF-8"?>
<svg width="120px" height="120px" viewBox="0 0 120 120" version="1.1" xmlns="http://www.w3.org/2000/svg" xmlns:xlink="http://www.w3.org/1999/xlink">
    <!-- Generator: Sketch 51.3 (57544) - http://www.bohemiancoding.com/sketch -->
    <title>icon/面性/办事进度 copy</title>
    <desc>Created with Sketch.</desc>
    <defs></defs>
    <g id="icon/面性/办事进度-copy" stroke="none" stroke-width="1" fill="none" fill-rule="evenodd">
        <g id="diannao" transform="translate(5.000000, 5.000000)">
            <path d="M70.935139,90 L70.935139,103.016884 L78.0172489,103.016884 C79.9732714,103.016884 81.5590873,104.551671 81.5590873,106.449444 C81.5590873,108.341526 79.9731407,109.877451 78.0172489,109.877451 L35.5241978,109.877451 C33.5659554,109.877451 31.9814453,108.341526 31.9814453,106.449444 C31.9814453,104.551671 33.5659554,103.016884 35.5241978,103.016884 L42.6040877,103.016884 L42.6040877,90 L2,90 C0.8954305,90 4.14216895e-14,89.1045695 4.12864187e-14,88 L4.12864187e-14,2 C4.1151148e-14,0.8954305 0.8954305,1.89028338e-16 2,-1.38777878e-17 L108,-1.38777878e-17 C109.104569,-2.16783913e-16 110,0.8954305 110,2 L110,88 C110,89.1045695 109.104569,90 108,90 L70.935139,90 Z" id="Shape" fill="#C9C9C9" fill-rule="nonzero"></path>
            <path d="M103,71 L103,77 C103,77.5522847 102.552285,78 102,78 L8,78 C7.44771525,78 7,77.5522847 7,77 L7,71 L7,64 L103,64 L103,71 Z" id="Combined-Shape" fill="#FFFFFF"></path>
        </g>
    </g>
</svg>