<?xml version="1.0" encoding="UTF-8"?>
<svg width="120px" height="120px" viewBox="0 0 120 120" version="1.1" xmlns="http://www.w3.org/2000/svg" xmlns:xlink="http://www.w3.org/1999/xlink">
    <!-- Generator: Sketch 51.3 (57544) - http://www.bohemiancoding.com/sketch -->
    <title>icon/面性/零星报销 copy</title>
    <desc>Created with Sketch.</desc>
    <defs></defs>
    <g id="icon/面性/零星报销-copy" stroke="none" stroke-width="1" fill="none" fill-rule="evenodd">
        <g id="iconfontqian" transform="translate(5.000000, 5.000000)" fill="#C9C9C9" fill-rule="nonzero">
            <path d="M45.3969389,44 L33.4559182,44 C30.4426978,44 28,46.4426978 28,49.4559182 C28,52.4691386 30.4426978,54.9118364 33.4559182,54.9118364 L49.7547188,54.9118364 L49.7547188,62 L33.4559182,62 C30.4426978,62 28,64.4426978 28,67.4559182 C28,70.4691386 30.4426978,72.9118364 33.4559182,72.9118364 L49.7547188,72.9118364 L49.7547188,81.2106369 C49.7547188,84.2238573 52.1974165,86.6665551 55.2106369,86.6665551 C58.2238573,86.6665551 60.6665551,84.2238573 60.6665551,81.2106369 L60.6665551,72.9118364 L77.1032637,72.9118364 C80.1164841,72.9118364 82.5591818,70.4691386 82.5591818,67.4559182 C82.5591818,64.4426978 80.1164841,62 77.1032637,62 L60.6665551,62 L60.6665551,54.9118364 L77.1032637,54.9118364 C80.1164841,54.9118364 82.5591818,52.4691386 82.5591818,49.4559182 C82.5591818,46.4426978 80.1164841,44 77.1032637,44 L64.8145294,44 L68.1462791,40.6682503 L74.8976334,33.916896 C77.028302,31.7862274 77.028302,28.3317311 74.8976334,26.2010625 C72.7669648,24.0703939 69.3124685,24.0703939 67.1817999,26.2010625 L60.4304456,32.9524168 L55.1370956,38.2457668 C55.1165453,38.2460382 55.0960223,38.2464233 55.0755274,38.2469215 L49.7810227,32.9524168 L43.0296684,26.2010625 C40.8989998,24.0703939 37.4445035,24.0703939 35.3138349,26.2010625 C33.1831663,28.3317311 33.1831663,31.7862274 35.3138349,33.916896 L42.6679887,41.2710498 L45.3969389,44 Z M55.0000536,0 C85.3726424,0 109.998517,24.62313 109.998517,54.9985729 C109.998517,85.3740158 85.3727522,110 55.0000536,110 C24.6271356,110 0.00148070312,85.3739061 0.00148070312,54.9984632 C0.00148070312,24.6230204 24.6271356,0 55.0000536,0 Z" id="Combined-Shape"></path>
        </g>
    </g>
</svg>