<?xml version="1.0" encoding="UTF-8"?>
<svg width="60px" height="60px" viewBox="0 0 60 60" version="1.1" xmlns="http://www.w3.org/2000/svg" xmlns:xlink="http://www.w3.org/1999/xlink">
    <!-- Generator: Sketch 51.3 (57544) - http://www.bohemiancoding.com/sketch -->
    <title>搜索</title>
    <desc>Created with Sketch.</desc>
    <defs></defs>
    <g id="搜索" stroke="none" stroke-width="1" fill="none" fill-rule="evenodd">
        <path d="M28.3359166,13.2044117 C30.3832075,13.2044117 32.3724566,13.6103038 34.2403456,14.4114067 C36.0449164,15.1858062 37.6700854,16.2913282 39.0630874,17.7012693 C40.4560894,19.1112105 41.5536062,20.7561418 42.3134255,22.5826564 C43.1049039,24.4732593 43.5059196,26.486698 43.5059196,28.5588842 C43.5059196,30.6310704 43.1049039,32.644509 42.3134255,34.5351119 C41.5483297,36.3616265 40.4560894,38.0065579 39.0630874,39.416499 C37.6700854,40.8264401 36.0449164,41.9373028 34.2403456,42.7063616 C32.3724566,43.5074645 30.3832075,43.9133567 28.3359166,43.9133567 C26.2886258,43.9133567 24.2993767,43.5074645 22.4314876,42.7063616 C20.6269169,41.9319621 19.0017478,40.8264401 17.6087458,39.416499 C16.2157438,38.0065579 15.1182271,36.3616265 14.3584078,34.5351119 C13.5669294,32.644509 13.1659137,30.6310704 13.1659137,28.5588842 C13.1659137,26.486698 13.5669294,24.4732593 14.3584078,22.5826564 C15.1235036,20.7561418 16.2157438,19.1112105 17.6087458,17.7012693 C19.0017478,16.2913282 20.6269169,15.1804655 22.4314876,14.4114067 C24.2993767,13.6103038 26.2833493,13.2044117 28.3359166,13.2044117 Z M28.3359166,10 C18.2102694,10 10,18.3101076 10,28.5588842 C10,38.8076608 18.2049929,47.123109 28.3359166,47.123109 C38.4668404,47.123109 46.6718333,38.8130015 46.6718333,28.5642249 C46.6718333,18.3154482 38.4615638,10 28.3359166,10 Z M40.9573591,40.1962392 C40.5510668,40.1962392 40.1447746,40.3511191 39.8387363,40.6662195 C39.2213831,41.2910798 39.2213831,42.3058102 39.8387363,42.9306704 L47.2997395,50.4824006 C47.6110543,50.7975011 48.01207,50.952381 48.4183623,50.952381 C48.8246546,50.952381 49.2309468,50.7975011 49.5369851,50.4824006 C50.1543383,49.8575403 50.1543383,48.8428099 49.5369851,48.2179497 L42.0759819,40.6662195 C41.7699436,40.3564597 41.3636514,40.1962392 40.9573591,40.1962392 Z" id="Shape" fill="#1492FF" fill-rule="nonzero"></path>
    </g>
</svg>