<?xml version="1.0" encoding="UTF-8"?>
<svg width="120px" height="120px" viewBox="0 0 120 120" version="1.1" xmlns="http://www.w3.org/2000/svg" xmlns:xlink="http://www.w3.org/1999/xlink">
    <!-- Generator: Sketch 51.3 (57544) - http://www.bohemiancoding.com/sketch -->
    <title>icon/面性/更多</title>
    <desc>Created with Sketch.</desc>
    <defs></defs>
    <g id="icon/面性/更多" stroke="none" stroke-width="1" fill="none" fill-rule="evenodd">
        <g id="gengduo-6" transform="translate(6.000000, 6.000000)" fill="#0284FD" fill-rule="nonzero">
            <path d="M22.9384463,0.0981042215 C9.79183543,1.23921925 2.3087e-06,12.8156905 2.3087e-06,25.9969809 L2.3087e-06,26.4667332 C2.3087e-06,39.6722169 10.6638354,50.0014648 23.8165018,50.0014648 L46.3512421,50.0014648 C47.4219309,50.0014648 48.448767,49.9045238 49.2058583,49.1483379 C49.9629496,48.3921521 50.0288086,47.366544 50.0288086,46.2971357 L50.0288086,25.1643298 C50.0288086,10.5233799 37.8694274,-1.19825093 22.9384463,0.0981042215 Z M83.8048524,0.00133121183 C69.8912046,0.00133121183 59.0071412,11.2673224 59.0071411,25.1643298 L59.0071411,46.2971357 C59.0071411,47.366544 59.0350342,48.3921521 59.7921255,49.148338 C60.5492168,49.9045238 61.576053,50.0089722 62.6467418,50.0089722 L83.8048524,50.0089722 C97.7205188,50.0089722 109,39.0613372 109,25.1643298 C109,11.2673224 97.7205188,0.0013310937 83.8048524,0.00133121183 Z M2.30870005e-06,83.8470796 C-0.00605324673,69.8230577 11.9011873,59.0092163 25.9420018,59.0092163 L46.3572977,59.0092163 C48.5857421,59.0092163 50.0089111,60.4703495 50.0089111,64.8049738 L50.0089111,83.0890244 C50.0089111,97.1130463 39.2238533,109.006046 25.1830388,108.999998 C11.2774651,108.993949 0.00605786413,97.7360227 2.30870005e-06,83.8470796 Z M82.9712042,59.0049133 C96.8424633,59.0049134 108.74163,69.5125776 108.993944,83.3652307 C109.252315,97.4779612 97.8759447,108.999998 83.8048524,108.999998 C69.8912045,108.999998 59.0028229,97.7340065 59.0028229,83.8369992 L59.0028229,62.7041932 C59.0028228,61.6347849 59.0370527,60.6091768 59.794144,59.852991 C60.5512353,59.0968051 61.5780714,59.0049133 62.6487602,59.0049133 L82.9712042,59.0049133 Z" id="Shape"></path>
        </g>
        <rect id="Rectangle-6" fill="#0284FD" x="29" y="29" width="27" height="27" rx="2"></rect>
        <rect id="Rectangle-6-Copy" fill="#0284FD" x="65" y="30" width="26" height="26" rx="2"></rect>
        <rect id="Rectangle-6-Copy-2" fill="#0284FD" x="65" y="65" width="26" height="26" rx="2"></rect>
        <rect id="Rectangle-6-Copy-3" fill="#0284FD" x="28" y="65" width="28" height="28" rx="2"></rect>
    </g>
</svg>