<?xml version="1.0" encoding="UTF-8"?>
<svg width="120px" height="120px" viewBox="0 0 120 120" version="1.1" xmlns="http://www.w3.org/2000/svg" xmlns:xlink="http://www.w3.org/1999/xlink">
    <!-- Generator: Sketch 51.3 (57544) - http://www.bohemiancoding.com/sketch -->
    <title>icon/面性/规定病种</title>
    <desc>Created with Sketch.</desc>
    <defs></defs>
    <g id="icon/面性/规定病种" stroke="none" stroke-width="1" fill="none" fill-rule="evenodd">
        <g id="bingdu-" transform="translate(5.000000, 6.000000)" fill-rule="nonzero">
            <path d="M76.4863326,107.531891 C71.023918,107.531891 66.1879271,104.249431 64.0580866,99.4134396 C60.8758542,100.115034 57.6309795,100.47836 54.3485194,100.47836 C51.5671982,100.47836 48.7984055,100.215262 46.0797267,99.714123 C45.2027335,101.580866 43.9123007,103.234624 42.2835991,104.537585 C39.8906606,106.46697 36.8712984,107.531891 33.7892938,107.531891 C26.309795,107.531891 20.2209567,101.443052 20.2209567,93.9635535 C20.2209567,91.4202733 20.9225513,88.9646925 22.238041,86.8348519 C18.9430524,83.4271071 16.2494305,79.5558087 14.1947608,75.308656 C13.9817768,75.3211845 13.7813212,75.3211845 13.5683371,75.3211845 C6.08883827,75.308656 0,69.2198178 0,61.7403189 C0,55.4009112 4.39749431,50.001139 10.3610478,48.547836 C10.7369021,46.2551253 11.3006834,44 12.0273349,41.7949886 C8.61958998,39.2642369 6.52733485,35.2175399 6.52733485,30.8952164 C6.52733485,23.4157175 12.6161731,17.3268793 20.095672,17.3268793 C22.952164,17.3268793 25.7334852,18.2414579 28.0261959,19.8952164 C31.9225513,17.0387244 36.1822323,14.8712984 40.7676538,13.405467 C40.88041,6.0261959 46.9316629,0.0501138952 54.3359909,0.0501138952 C61.7403189,0.0501138952 67.8041002,6.01366743 67.9168565,13.405467 C72.1389522,14.7460137 76.1230068,16.7129841 79.7813212,19.2562642 C81.8735763,18.0034169 84.2915718,17.3268793 86.7596811,17.3268793 C94.23918,17.3268793 100.328018,23.4157175 100.328018,30.8952164 C100.328018,34.5785877 98.8371298,38.0615034 96.2437358,40.5922551 C97.1583144,43.0854214 97.8348519,45.666287 98.285877,48.284738 C104.888383,49.1993166 110,54.8747153 110,61.7277904 C110,69.2072893 103.911162,75.2961276 96.4316629,75.2961276 C95.8052392,75.2961276 95.1788155,75.2585421 94.5523918,75.1708428 C92.6856492,79.0671982 90.2801822,82.6378132 87.3610478,85.8451025 C89.0899772,88.1628702 90.0546697,91.0068337 90.0546697,93.9510251 C90.0546697,101.443052 83.9658314,107.531891 76.4863326,107.531891 Z" id="Shape" fill="#0284FD"></path>
            <path d="M46.6059226,52.3189066 C40.1788155,52.3189066 34.9544419,47.094533 34.9544419,40.667426 C34.9544419,34.2403189 40.1788155,29.0159453 46.6059226,29.0159453 C53.0330296,29.0159453 58.2574032,34.2403189 58.2574032,40.667426 C58.2574032,47.094533 53.0330296,52.3189066 46.6059226,52.3189066 Z M46.6059226,34.7164009 C43.3234624,34.7164009 40.6548975,37.3849658 40.6548975,40.667426 C40.6548975,43.9498861 43.3234624,46.618451 46.6059226,46.618451 C49.8883827,46.618451 52.5569476,43.9498861 52.5569476,40.667426 C52.5569476,37.3849658 49.8883827,34.7164009 46.6059226,34.7164009 Z M46.6059226,81.4476082 C40.1788155,81.4476082 34.9544419,76.2232346 34.9544419,69.7961276 C34.9544419,63.3690205 40.1788155,58.1446469 46.6059226,58.1446469 C53.0330296,58.1446469 58.2574032,63.3690205 58.2574032,69.7961276 C58.2574032,76.2232346 53.0330296,81.4476082 46.6059226,81.4476082 Z M46.6059226,63.8451025 C43.3234624,63.8451025 40.6548975,66.5136674 40.6548975,69.7961276 C40.6548975,73.0785877 43.3234624,75.7471526 46.6059226,75.7471526 C49.8883827,75.7471526 52.5569476,73.0785877 52.5569476,69.7961276 C52.5569476,66.5261959 49.8883827,63.8451025 46.6059226,63.8451025 Z M71.9259681,65.4362187 C65.498861,65.4362187 60.2744875,60.2118451 60.2744875,53.784738 C60.2744875,47.357631 65.498861,42.1332574 71.9259681,42.1332574 C78.3530752,42.1332574 83.5774487,47.357631 83.5774487,53.784738 C83.5774487,60.2118451 78.3530752,65.4362187 71.9259681,65.4362187 Z M71.9259681,47.833713 C68.643508,47.833713 65.9749431,50.5022779 65.9749431,53.784738 C65.9749431,57.0671982 68.643508,59.7357631 71.9259681,59.7357631 C75.2084282,59.7357631 77.8769932,57.0671982 77.8769932,53.784738 C77.8769932,50.5022779 75.2084282,47.833713 71.9259681,47.833713 Z" id="Shape" fill="#FFFFFF"></path>
        </g>
    </g>
</svg>