<?xml version="1.0" encoding="UTF-8"?>
<svg width="60px" height="60px" viewBox="0 0 60 60" version="1.1" xmlns="http://www.w3.org/2000/svg" xmlns:xlink="http://www.w3.org/1999/xlink">
    <!-- Generator: Sketch 51.3 (57544) - http://www.bohemiancoding.com/sketch -->
    <title>客服</title>
    <desc>Created with Sketch.</desc>
    <defs></defs>
    <g id="客服" stroke="none" stroke-width="1" fill="none" fill-rule="evenodd" opacity="0.5">
        <g id="wodekefu-" transform="translate(9.000000, 6.000000)" fill="#000000" fill-rule="nonzero">
            <path d="M41.2454756,25.3197216 C41.2454756,25.1359629 41.2454756,24.9577726 41.2399072,24.7907193 C41.362413,18.6487239 39.5025522,13.4366589 35.8719258,9.72807425 C34.3406032,8.16334107 32.5141531,6.91044084 30.437123,5.99721578 C29.4793503,2.53921114 25.7262181,0.0389791183 21.2436195,0.0389791183 C16.7610209,0.0389791183 13.0078886,2.53364269 12.050116,5.99721578 C9.97308585,6.91044084 8.14663573,8.16334107 6.61531323,9.72807425 C2.97911833,13.4366589 1.11925754,18.637587 1.24176334,24.7016241 C1.2361949,25.0301624 1.2361949,25.3419954 1.2361949,25.6482599 C0.116937355,27.0793503 -0.228306265,28.8445476 0.267285383,30.6932715 C0.746171694,32.475174 2.04361949,33.9229698 3.7587007,34.5967517 C4.34895592,34.9364269 4.98932715,35.1703016 5.6575406,35.287239 C8.06310905,42.8324826 14.349884,47.9554524 21.4719258,47.9554524 C28.5271462,47.9554524 34.8696056,42.8102088 37.2863109,35.2928074 C38.2106729,35.1313225 39.0960557,34.7526682 39.8477958,34.1791183 C41.1563805,33.399536 42.0918794,32.1633411 42.4816705,30.6932715 C43.0329466,28.6886311 42.587471,26.8064965 41.2454756,25.3197216 Z M21.4774942,44.6199536 C15.47471,44.6199536 10.1902552,39.9034803 8.51415313,33.1044084 L9.2324826,30.1587007 C9.26589327,30.0194896 9.28259861,29.87471 9.28259861,29.7299304 L9.26589327,28.9169374 C9.26032483,28.8111369 9.26589327,28.54942 9.30487239,27.9034803 C13.0802784,26.0993039 14.9457077,22.5466357 15.4468677,21.4385151 C16.9781903,23.0923434 19.3169374,25.0802784 22.463109,26.2719258 C24.0723898,26.8844548 25.7206497,27.2296984 27.1740139,27.5359629 C29.7522042,28.0816705 32.0018561,28.5605568 33.5109049,30.2366589 C33.4941995,30.8714617 33.4385151,31.4951276 33.3438515,32.0965197 L32.787007,34.4185615 C32.6366589,35.0477958 32.8649652,35.7104408 33.3661253,36.1113689 C29.9805104,39.3132251 24.0222738,38.9791183 23.9443155,38.9735499 C23.7215777,38.962413 23.5044084,39.0180974 23.3206497,39.1238979 C22.8807425,38.7897912 22.2180974,38.5781903 21.4719258,38.5781903 C20.1466357,38.5781903 19.0719258,39.2519722 19.0719258,40.087239 C19.0719258,40.9225058 20.1466357,41.5962877 21.4719258,41.5962877 C22.212529,41.5962877 22.8807425,41.3846868 23.3206497,41.05058 C23.4654292,41.1341067 23.6269142,41.1842227 23.799536,41.1953596 C23.8663573,41.2009281 24.150348,41.2176334 24.6013921,41.2176334 C25.8320186,41.2176334 28.2765661,41.0895592 30.737819,40.2208817 C28.287703,42.9716937 24.9856148,44.6199536 21.4774942,44.6199536 Z M39.263109,29.8301624 C39.0904872,30.4705336 38.6728538,31.0106729 38.0881671,31.3392111 C38.0102088,31.3837587 37.937819,31.4338747 37.8709977,31.4895592 C37.5313225,31.762413 37.1470998,31.9350348 36.7294664,32.0074246 C36.812993,31.2835267 36.8575406,30.5429234 36.8575406,29.8190255 L36.863109,29.6965197 C36.8742459,29.2566125 36.712761,28.8334107 36.4176334,28.5160093 C34.1512761,25.6148492 30.9605568,24.9354988 27.8645012,24.2784223 C26.4612529,23.9832947 25.0134571,23.6770302 23.6491879,23.1591647 C18.8547564,21.3382831 16.2821346,17.1396752 16.1596288,16.9392111 C16.1540603,16.9280742 16.1484919,16.9225058 16.1429234,16.9113689 C16.0259861,16.7276102 15.8867749,16.5772622 15.72529,16.4547564 C15.5638051,16.3322506 15.3689095,16.237587 15.1573086,16.1819026 L15.1517401,16.1819026 C15.1461717,16.1819026 15.1406032,16.1763341 15.1350348,16.1763341 C14.9178654,16.1206497 14.7006961,16.1150812 14.4890951,16.1429234 C14.2774942,16.1763341 14.0714617,16.2487239 13.8765661,16.3600928 C13.6815494,16.4739996 13.5126919,16.6276789 13.3809745,16.8111369 C13.2640371,16.9726218 13.174942,17.1563805 13.1192575,17.3568445 C13.1192575,17.3679814 13.1136891,17.3735499 13.1136891,17.3791183 L12.4566125,19.9684455 C12.2060325,20.5364269 10.574478,23.9721578 7.14988399,25.1860789 C6.52064965,25.4088167 6.08074246,25.987935 6.04176334,26.6561485 C5.95823666,27.9925754 5.93039443,28.6774942 5.94153132,28.9948956 L5.95266821,29.5684455 L5.43480278,31.6900232 C5.41809745,31.6788863 5.40139211,31.6677494 5.38468677,31.662181 C5.28445476,31.6009281 5.17865429,31.5508121 5.07285383,31.5118329 C4.30440835,31.2334107 3.71972158,30.6041763 3.50812065,29.824594 C3.25197216,28.8723898 3.44686775,28.1095128 4.12064965,27.4301624 C4.44361949,27.1016241 4.62180974,26.6561485 4.60510441,26.1939675 C4.58839907,25.7317865 4.58283063,25.2584687 4.59396752,24.6904872 C4.48816705,19.4784223 6.01948956,15.112761 9.00974478,12.0556845 C10.412993,10.624594 12.1336427,9.51090487 14.1215777,8.74802784 C14.7062645,8.52529002 15.112761,7.9962877 15.1851508,7.37262181 C15.4357309,5.12853828 18.0974478,3.36890951 21.2547564,3.36890951 C24.4064965,3.36890951 27.0737819,5.12853828 27.3243619,7.37262181 C27.3911833,7.99071926 27.8032483,8.52529002 28.387935,8.74802784 C30.3758701,9.51090487 32.0965197,10.624594 33.499768,12.0556845 C36.4900232,15.112761 38.0213457,19.4895592 37.9155452,24.7795824 C37.9266821,25.1693735 37.9211137,25.5591647 37.9155452,25.9433875 L37.9155452,26.0157773 C37.9211137,26.2440835 37.9656613,26.4612529 38.0547564,26.6617169 C38.1438515,26.8677494 38.2774942,27.0570766 38.450116,27.2185615 C38.4668213,27.2296984 38.4779582,27.2464037 38.4946636,27.2575406 C39.2909513,27.987007 39.5415313,28.8 39.263109,29.8301624 Z" id="Shape"></path>
            <path d="M12.3953596,31.5062645 C12.3953596,32.4432785 12.8952506,33.3091151 13.7067285,33.7776221 C14.5182064,34.2461291 15.5179885,34.2461291 16.3294664,33.7776221 C17.1409443,33.3091151 17.6408353,32.4432785 17.6408353,31.5062645 C17.6408353,30.0577664 16.4665955,28.8835267 15.0180974,28.8835267 C13.5695993,28.8835267 12.3953596,30.0577664 12.3953596,31.5062645 Z" id="Shape"></path>
            <path d="M24.6960557,31.5062645 C24.6960557,32.9301597 25.8503508,34.0844548 27.2742459,34.0844548 C28.6981411,34.0844548 29.8524362,32.9301597 29.8524362,31.5062645 C29.8524362,30.0823693 28.6981411,28.9280742 27.2742459,28.9280742 C25.8503508,28.9280742 24.6960557,30.0823693 24.6960557,31.5062645 Z" id="Shape"></path>
        </g>
    </g>
</svg>