<?xml version="1.0" encoding="UTF-8"?>
<svg width="60px" height="60px" viewBox="0 0 60 60" version="1.1" xmlns="http://www.w3.org/2000/svg" xmlns:xlink="http://www.w3.org/1999/xlink">
    <!-- Generator: Sketch 51.3 (57544) - http://www.bohemiancoding.com/sketch -->
    <title>失败</title>
    <desc>Created with Sketch.</desc>
    <defs></defs>
    <g id="失败" stroke="none" stroke-width="1" fill="none" fill-rule="evenodd">
        <g id="shibai" fill="#F76260" fill-rule="nonzero">
            <path d="M60,30.37 C60,46.57 46.569,60 29.63,60 C13.43,60 0,46.569 0,30.37 C0,13.431 13.431,0 29.63,0 C46.569,0 60,13.431 60,30.37 Z M28.235,15.294 C27.9280184,15.2902458 27.6331912,15.4138003 27.4206044,15.6352922 C27.2080176,15.8567841 27.0966588,16.1564306 27.113,16.463 L28.011,35.871 C28.027,36.202 28.309,36.471 28.635,36.471 L31.365,36.471 C31.6988241,36.4672012 31.972118,36.2044185 31.989,35.871 L32.887,16.463 C32.9042457,16.1561939 32.7931871,15.8560241 32.5804024,15.6343259 C32.3676177,15.4126278 32.0722552,15.2893519 31.765,15.294 L28.235,15.294 Z M30,45.882 C31.050817,45.8821483 32.0218754,45.3216293 32.5473267,44.4116199 C33.072778,43.5016104 33.072778,42.3803896 32.5473267,41.4703802 C32.0218754,40.5603707 31.050817,39.9998517 30,40 C28.3758927,40.0002293 27.0594151,41.3168927 27.0594151,42.941 C27.0594151,44.5651074 28.3758927,45.8817708 30,45.882 Z" id="Shape"></path>
        </g>
    </g>
</svg>