<?xml version="1.0" encoding="UTF-8"?>
<svg width="60px" height="60px" viewBox="0 0 60 60" version="1.1" xmlns="http://www.w3.org/2000/svg" xmlns:xlink="http://www.w3.org/1999/xlink">
    <!-- Generator: Sketch 51.3 (57544) - http://www.bohemiancoding.com/sketch -->
    <title>成功</title>
    <desc>Created with Sketch.</desc>
    <defs></defs>
    <g id="成功" stroke="none" stroke-width="1" fill="none" fill-rule="evenodd">
        <g id="chenggong" fill="#09BB07" fill-rule="nonzero">
            <path d="M60,30.35894 C60,13.4317343 46.5667636,0 29.6443749,0 C13.4332364,0.006709158 0,13.4384435 0,30.35894 C0,46.5682657 13.4332364,60 29.6443749,60 C46.5667636,60 60,46.5682657 60,30.35894 Z M16.1507493,32.5997987 C15.8823529,32.3314324 15.8488034,31.8550822 16.0903601,31.5263334 L16.9827779,30.3052667 C17.2243346,29.9765179 17.6403489,29.9161355 17.9691344,30.1576652 L25.3701633,35.8604495 C25.6653992,36.1019792 26.1753523,36.1019792 26.4772981,35.8336129 L45.4327891,20.0469641 C45.734735,19.8054344 46.2111384,19.8054344 46.4795348,20.0738007 L47.2243346,20.7916806 C47.4927309,21.060047 47.4927309,21.5095606 47.2243346,21.7779269 L26.4504585,42.2140221 C26.1820622,42.4823885 25.7324983,42.4823885 25.464102,42.2140221 L16.1507493,32.5997987 Z" id="Shape"></path>
        </g>
    </g>
</svg>