<?xml version="1.0" encoding="UTF-8"?>
<svg width="60px" height="60px" viewBox="0 0 60 60" version="1.1" xmlns="http://www.w3.org/2000/svg" xmlns:xlink="http://www.w3.org/1999/xlink">
    <!-- Generator: Sketch 51.3 (57544) - http://www.bohemiancoding.com/sketch -->
    <title>待遇报销</title>
    <desc>Created with Sketch.</desc>
    <defs></defs>
    <g id="待遇报销" stroke="none" stroke-width="1" fill="none" fill-rule="evenodd">
        <g id="baoxiao-2" transform="translate(9.000000, 10.000000)" fill="#59C3FF" fill-rule="nonzero">
            <path d="M5.28950495,7.65148515 L36.6605941,7.65148515 C37.4590099,7.65148515 38.1243564,6.98613861 38.1243564,6.18772277 C38.1243564,5.38930693 37.4590099,4.7239604 36.6605941,4.7239604 L5.28950495,4.7239604 C4.49108911,4.7239604 3.82574257,5.38930693 3.82574257,6.18772277 C3.82574257,6.98613861 4.49108911,7.65148515 5.28950495,7.65148515 Z M9.2150495,2.92752475 L32.7683168,2.92752475 C33.5667327,2.92752475 34.2320792,2.26217822 34.2320792,1.46376238 C34.2320792,0.665346535 33.5667327,0 32.7683168,0 L9.2150495,0 C8.41663366,0 7.75128713,0.665346535 7.75128713,1.46376238 C7.7180198,2.26217822 8.38336634,2.92752475 9.2150495,2.92752475 Z M36.8269307,9.48118812 L5.15643564,9.48118812 C2.32871287,9.48118812 0,11.7766337 0,14.6376238 L0,34.1655446 C0,36.9932673 2.32871287,39.3219802 5.15643564,39.3219802 L36.8269307,39.3219802 C39.6546535,39.3219802 41.9833663,36.9932673 41.9833663,34.1655446 L41.9833663,14.6376238 C41.9833663,11.7766337 39.6546535,9.48118812 36.8269307,9.48118812 Z M27.8447525,25.6158416 C28.4768317,25.6158416 29.0091089,26.1481188 29.0091089,26.780198 C29.0091089,27.4122772 28.4768317,27.9445545 27.8447525,27.9445545 L22.1560396,27.9445545 L22.1560396,33.3671287 C22.1560396,33.9992079 21.6237624,34.5314851 20.9916832,34.5314851 C20.359604,34.5314851 19.8273267,33.9992079 19.8273267,33.3671287 L19.8273267,27.9112871 L14.1386139,27.9112871 C13.5065347,27.9112871 12.9742574,27.3790099 12.9742574,26.7469307 C12.9742574,26.1148515 13.5065347,25.5825743 14.1386139,25.5825743 L19.8273267,25.5825743 L19.8273267,23.0542574 L14.1386139,23.0542574 C13.5065347,23.0542574 12.9742574,22.5219802 12.9742574,21.889901 C12.9742574,21.2578218 13.5065347,20.7255446 14.1386139,20.7255446 L18.5964356,20.7255446 L14.1718812,16.3675248 C13.7061386,15.9017822 13.7061386,15.169901 14.1718812,14.7374257 C14.6376238,14.2716832 15.369505,14.2716832 15.8019802,14.7374257 L21.0582178,19.960396 L26.2811881,14.7041584 C26.7469307,14.2384158 27.4788119,14.2384158 27.9112871,14.7041584 C28.3770297,15.169901 28.3770297,15.9017822 27.9112871,16.3342574 L23.52,20.7588119 L27.8447525,20.7588119 C28.4768317,20.7588119 29.0091089,21.2910891 29.0091089,21.9231683 C29.0091089,22.5552475 28.4768317,23.0875248 27.8447525,23.0875248 L22.1560396,23.0875248 L22.1560396,25.6158416 L27.8447525,25.6158416 Z" id="Shape"></path>
        </g>
    </g>
</svg>