<?xml version="1.0" encoding="UTF-8"?>
<svg width="60px" height="60px" viewBox="0 0 60 60" version="1.1" xmlns="http://www.w3.org/2000/svg" xmlns:xlink="http://www.w3.org/1999/xlink">
    <!-- Generator: Sketch 51.3 (57544) - http://www.bohemiancoding.com/sketch -->
    <title>其他服务</title>
    <desc>Created with Sketch.</desc>
    <defs></defs>
    <g id="其他服务" stroke="none" stroke-width="1" fill="none" fill-rule="evenodd">
        <g id="Other" transform="translate(11.000000, 11.000000)" fill="#59C3FF" fill-rule="nonzero">
            <path d="M38,16.5641231 C38,17.2098738 37.4764838,17.7333333 36.8307862,17.7333333 L21.4358805,17.7333333 C20.7901829,17.7333333 20.2666667,17.2098739 20.2666667,16.5641232 L20.2666667,1.16921015 C20.2666667,0.523514578 20.7901829,0 21.4358805,0 L36.8307862,0 C37.4764838,0 38,0.523514578 38,1.16921015 L38,16.5641231 Z" id="Shape"></path>
            <path d="M38,37.6751791 C38,38.3209298 37.4764838,38.8444444 36.8307862,38.8444444 L21.4358805,38.8444444 C20.7901829,38.8444444 20.2666667,38.3209298 20.2666667,37.6751791 L20.2666667,22.2803213 C20.2666667,21.6345706 20.7901829,21.1111111 21.4358805,21.1111111 L36.8307862,21.1111111 C37.4764838,21.1111111 38,21.6345706 38,22.2803213 L38,37.6751791 Z" id="Shape"></path>
            <path d="M17.7333333,37.6751791 C17.7333333,38.3209298 17.2097652,38.8444444 16.5641819,38.8444444 L1.16931681,38.8444444 C0.523568124,38.8444444 0,38.3209298 0,37.6751791 L0,22.2803213 C0,21.6345706 0.523568124,21.1111111 1.16931681,21.1111111 L16.5641819,21.1111111 C17.2097652,21.1111111 17.7333333,21.6345706 17.7333333,22.2803213 L17.7333333,37.6751791 Z" id="Shape"></path>
            <path d="M0,8.86666667 C1.49041833e-15,13.7635914 3.96974188,17.7333333 8.86666667,17.7333333 C13.7635914,17.7333333 17.7333333,13.7635914 17.7333333,8.86666667 C17.7333333,3.96974188 13.7635914,0 8.86666667,0 C3.96974188,0 1.49041833e-15,3.96974188 0,8.86666667 Z" id="Shape"></path>
        </g>
    </g>
</svg>