<?xml version="1.0" encoding="UTF-8"?>
<svg width="80px" height="80px" viewBox="0 0 80 80" version="1.1" xmlns="http://www.w3.org/2000/svg" xmlns:xlink="http://www.w3.org/1999/xlink">
    <!-- Generator: Sketch 51.3 (57544) - http://www.bohemiancoding.com/sketch -->
    <title>医保账户</title>
    <desc>Created with Sketch.</desc>
    <defs></defs>
    <g id="医保账户" stroke="none" stroke-width="1" fill="none" fill-rule="evenodd">
        <g id="zhanghu-4" transform="translate(10.000000, 10.000000)" fill="#5FC3FF" fill-rule="nonzero">
            <path d="M48.2861756,0 L11.7088402,0 C5.2389292,0 0,5.23887568 0,11.7036915 L0,48.2837013 C0,54.7485172 5.24397204,60 11.7087816,60 L48.2862342,60 C54.7510438,60 60,54.7485172 60,48.2837013 L60,11.7036915 C59.9974786,5.23893432 54.7510438,0 48.2862342,0 L48.2861756,0 Z M30.0876048,13.2524327 C35.4967007,13.2524327 39.8799881,17.6357245 39.8799881,23.0397828 C39.8799881,28.4488253 35.4967007,32.8321171 30.0876048,32.8321171 C24.6785089,32.8321171 20.2952214,28.448884 20.2952214,23.0397828 C20.2952214,17.6357245 24.6785089,13.2524327 30.0875461,13.2524327 L30.0876048,13.2524327 Z M13.1899706,46.7425831 C13.1899706,43.2049654 15.8869543,35.4541057 21.9315072,33.2374215 C24.2232456,35.0738396 27.0828317,36.097069 30.0876048,36.097069 C33.0598339,36.097069 35.8869934,35.1038622 38.1687047,33.2974666 C44.0881247,35.5391891 46.8051625,43.2399722 46.8051625,46.7451045 L13.189912,46.7451045 L13.189912,46.7425831 L13.1899706,46.7425831 Z" id="Shape"></path>
        </g>
    </g>
</svg>