<?xml version="1.0" encoding="UTF-8"?>
<svg width="60px" height="60px" viewBox="0 0 60 60" version="1.1" xmlns="http://www.w3.org/2000/svg" xmlns:xlink="http://www.w3.org/1999/xlink">
    <!-- Generator: Sketch 51.3 (57544) - http://www.bohemiancoding.com/sketch -->
    <title>备案服务</title>
    <desc>Created with Sketch.</desc>
    <defs></defs>
    <g id="备案服务" stroke="none" stroke-width="1" fill="none" fill-rule="evenodd">
        <g id="beian" transform="translate(9.000000, 8.000000)" fill="#59C3FF" fill-rule="nonzero">
            <path d="M34.9148981,0.0138089606 L41.9986265,8.84658517 L41.9986265,19.4721777 C41.1821409,24.8655735 39.6223806,29.22319 37.319853,32.5464373 C35.016705,35.8696846 32.633578,38.4351616 30.1705283,40.2423042 C27.7068018,42.0494468 24.5660172,43.5654951 20.7474414,44.789885 C16.0536647,43.1863561 12.3368958,40.9788671 9.59713443,38.165331 C6.85669628,35.3524718 4.77966669,32.5758231 3.36610213,29.8354413 C1.95180432,27.09568 0.836779283,23.6993912 0.0210269528,19.6471389 L0.0210269528,7.44734691 L7.4545649,0.0138089606 L34.9148981,0.0138089606 Z M32.5536553,19.5158899 C32.7572691,19.1954661 32.9833875,18.8531581 33.2313902,18.488289 C33.4787161,18.1241531 33.7342203,17.7380766 33.9966057,17.3295518 C32.0432672,17.2420712 30.2210651,17.0528402 28.5307888,16.7611254 C26.8397794,16.4700874 25.2799626,16.0765093 23.8520153,15.580504 C25.192482,14.8808849 26.3949876,14.1156694 27.4594759,13.2848575 C28.5232873,12.4540457 29.4490249,11.5576375 30.2361246,10.5956894 L30.2361246,8.89035364 L16.3311096,8.89035369 C16.5347234,8.56992991 16.739014,8.2563309 16.9433046,7.95023341 C17.1469183,7.64413592 17.3512089,7.33121371 17.5554995,7.01011313 L15.6315468,6.17930131 C14.8150613,7.6373112 13.8237274,9.03654946 12.6581655,10.3770726 C11.4918703,11.7182724 10.1363442,13.0006443 8.59158691,14.2250342 C8.82458649,14.4293248 9.06508764,14.6479417 9.31309031,14.8809413 C9.56041618,15.1146177 9.80091728,15.3619435 10.0345937,15.6242725 C10.8216934,14.9540391 11.5793509,14.2687463 12.3083559,13.5691272 C13.036684,12.869508 13.7219769,12.1555062 14.3635012,11.4265013 C14.9463104,12.213601 15.6315468,12.9569322 16.4186466,13.6565513 C17.2057463,14.3561705 18.1089792,14.9977512 19.1296989,15.580504 C17.5555559,16.1926989 15.8426621,16.7249149 13.9918074,17.1765313 C12.1402758,17.6288245 10.1506705,18.0148447 8.02310407,18.3352684 C8.22671781,18.656369 8.41662572,18.9692912 8.59153053,19.2753887 C8.76643534,19.5814862 8.926337,19.8807025 9.07253277,20.1717969 C11.4918703,19.7638925 13.729422,19.2753887 15.7845673,18.7069623 C17.8397126,18.1385358 19.7124516,17.4901303 21.4034611,16.7611254 C22.9188326,17.4026497 24.6023404,17.9492483 26.453872,18.4008648 C28.3046704,18.8531581 30.3379315,19.2248519 32.5536553,19.5158899 Z M30.2361246,31.8030497 L30.2361246,19.8219873 L11.9584336,19.8219873 L11.9584336,31.8030497 L13.7949621,31.8030497 L13.7949621,30.6661404 L28.3996526,30.6661404 L28.3996526,31.8030497 L30.2361246,31.8030497 Z M13.7949621,21.3524183 L13.7949621,24.5007609 L20.1790713,24.5007609 L20.1790713,21.3524183 L13.7949621,21.3524183 Z M13.7949621,29.1357658 L20.1790713,29.1357658 L20.1790713,25.9874233 L13.7949621,25.9874233 L13.7949621,29.1357658 Z M15.9813001,10.5519209 L27.5251287,10.5519209 C26.6793137,11.3390207 25.7541966,12.0755271 24.7484799,12.7600868 C23.7427633,13.4453796 22.6277383,14.0650762 21.4034048,14.6184431 C20.2952044,14.0937287 19.2826631,13.4965933 18.3644271,12.8256268 C17.4461347,12.1554498 16.6515334,11.3977923 15.9813001,10.5519209 Z M22.0155434,21.3524183 L22.0155434,24.5007609 L28.3996526,24.5007609 L28.3996526,21.3524183 L22.0155434,21.3524183 Z M22.0155434,29.1357658 L28.3996526,29.1357658 L28.3996526,25.9874233 L22.0155434,25.9874233 L22.0155434,29.1357658 Z" id="Shape"></path>
        </g>
    </g>
</svg>