<?xml version="1.0" encoding="UTF-8"?>
<svg width="80px" height="80px" viewBox="0 0 80 80" version="1.1" xmlns="http://www.w3.org/2000/svg" xmlns:xlink="http://www.w3.org/1999/xlink">
    <!-- Generator: Sketch 51.3 (57544) - http://www.bohemiancoding.com/sketch -->
    <title>参保信息</title>
    <desc>Created with Sketch.</desc>
    <defs></defs>
    <g id="参保信息" stroke="none" stroke-width="1" fill="none" fill-rule="evenodd">
        <g id="canbao-on" transform="translate(10.000000, 7.000000)" fill="#5FC3FF" fill-rule="nonzero">
            <path d="M39,24.75 L39,21 L28,21 L28,26 L38.1391304,26 C38.7130435,25.8958333 39,25.5833333 39,24.75 Z" id="Shape"></path>
            <path d="M58.9565217,10.485133 C58.5391304,10.0657277 46.4347826,0 29.9478261,0 C13.3565217,0 1.56521739,10.0657277 1.14782609,10.485133 L0,11.5336463 L0,35.0203443 C0,53.6838811 27.4434783,66.056338 28.4869565,66.4757433 L29.8434783,67 L31.2,66.4757433 C32.3478261,66.056338 60,53.6838811 60,35.0203443 L60,11.5336463 L58.9565217,10.485133 Z M20.8695652,46.7636933 L16.2782609,46.7636933 L16.2782609,26.4225352 L14.6086957,26.4225352 L14.6086957,22.228482 L15.8608696,22.228482 C16.2782609,22.228482 16.5913043,21.913928 16.8,21.28482 L18.573913,16.3568075 L23.5826087,16.3568075 L20.8695652,22.85759 L20.8695652,46.7636933 Z M28.6956522,43.9327074 C28.2782609,45.6103286 27.2347826,46.4491393 25.5652174,46.4491393 L22.4347826,46.4491393 L22.4347826,42.5696401 L23.8956522,42.5696401 C24.2086957,42.5696401 24.4173913,42.2550861 24.626087,41.6259781 L25.5652174,36.8028169 L30.4695652,36.8028169 L28.6956522,43.9327074 Z M36.5217391,46.7636933 L31.5130435,46.7636933 L31.5130435,35.5446009 L22.6434783,35.5446009 L22.6434783,31.5602504 L31.5130435,31.5602504 L31.5130435,29.0438185 L23.7913043,29.0438185 L23.7913043,16.7762128 L45.2869565,16.7762128 L45.2869565,26.0031299 C45.2869565,28.1001565 44.1391304,29.1486698 41.9478261,29.1486698 L36.5217391,29.1486698 L36.5217391,31.6651017 L45.4956522,31.6651017 L45.4956522,35.6494523 L36.5217391,35.6494523 L36.5217391,46.7636933 Z M45.7043478,46.5539906 L42.8869565,46.5539906 C41.3217391,46.5539906 40.3826087,45.71518 39.8608696,44.14241 L37.773913,36.8028169 L42.7826087,36.8028169 L44.0347826,41.7308294 C44.2434783,42.3599374 44.4521739,42.6744914 44.7652174,42.6744914 L45.7043478,42.6744914 L45.7043478,46.5539906 Z" id="Shape"></path>
        </g>
    </g>
</svg>