<?xml version="1.0" encoding="UTF-8"?>
<svg width="330px" height="160px" viewBox="0 0 330 160" version="1.1" xmlns="http://www.w3.org/2000/svg" xmlns:xlink="http://www.w3.org/1999/xlink">
    <!-- Generator: Sketch 51.3 (57544) - http://www.bohemiancoding.com/sketch -->
    <title>诊疗记录</title>
    <desc>Created with Sketch.</desc>
    <defs>
        <rect id="path-1" x="0" y="0" width="330" height="160" rx="6"></rect>
    </defs>
    <g id="诊疗记录" stroke="none" stroke-width="1" fill="none" fill-rule="evenodd">
        <g id="Group-14">
            <g id="zhenliaoyizhumoban">
                <g id="zhenliaoguanli">
                    <mask id="mask-2" fill="white">
                        <use xlink:href="#path-1"></use>
                    </mask>
                    <use id="Mask" fill="#FEFFC8" xlink:href="#path-1"></use>
                    <g opacity="0.26953125" mask="url(#mask-2)" fill="#F3D339" fill-rule="nonzero" id="Shape">
                        <g transform="translate(170.000000, 27.000000)">
                            <path d="M94.1898206,40.3803291 C94.1898206,40.3803291 84.1225524,30.4115255 64.4844618,30.7362423 C44.8545095,31.0528411 35.5115637,40.3803291 35.5115637,40.3803291 L35.5115637,10.1492017 C64.8588305,-12.6865022 94.1898206,10.1492017 94.1898206,10.1492017 L94.1898206,40.3803291 Z M62.3114943,25.0942891 L66.9097211,25.0942891 L66.9097211,19.3305672 L72.8019622,19.3305672 L72.8019622,14.7358255 L66.9097211,14.7358255 L66.9097211,8.96398563 L62.3114943,8.96398563 L62.3114943,14.7277076 L56.6552684,14.7277076 L56.6552684,19.3224492 L62.3114943,19.3224492 L62.3114943,25.0861712 L62.3114943,25.0942891 Z M33.3060425,51.7941222 C33.3060425,51.1852783 33.3630116,50.5764345 33.403704,49.9757084 L39.1006221,44.455524 C39.4424371,44.1308072 47.6297225,36.4106671 64.9320766,36.12654 L65.778476,36.12654 C82.3809231,36.12654 90.8856081,44.0333923 91.3332231,44.463642 L96.2732651,49.3587467 C96.3383727,50.1705385 96.3953418,50.9742124 96.3953418,51.7941222 C96.3953418,69.2070568 82.2669848,91.0361388 64.8506922,91.0361387 C47.4343996,91.0361387 33.3060426,69.1989387 33.3060425,51.80224 L33.3060425,51.7941222 Z M94.9141431,75.4172641 C102.906105,80.7507364 121.168797,82.0577212 130.511743,113.644541 C132.464972,120.228173 128.31436,124.895976 122.397704,128.143143 C113.543065,132.997658 96.6801877,138.258069 65.2983071,137.990178 C33.9164265,138.258069 17.0535488,132.997658 8.19891035,128.143143 C2.27411549,124.895976 -1.046374,120.268762 0.296471042,113.644541 C7.78384922,76.6917773 34.7221336,75.4091462 34.7221336,75.4091462 L65.2983071,119.505678 L94.9222816,75.4091462 L94.9141431,75.4172641 Z"></path>
                        </g>
                    </g>
                    <g id="zhenliaoguanli-copy" mask="url(#mask-2)" fill="#F3D339" fill-rule="nonzero">
                        <g transform="translate(217.000000, 77.000000)" id="Shape">
                            <path d="M61,26 C61,26 54.4804438,19.581308 41.7628294,19.790386 C29.0504855,19.994237 23,26 23,26 L23,6.53484631 C42.0052704,-8.16855789 61,6.53484631 61,6.53484631 L61,26 Z M39.5030242,16 L42.3508064,16 L42.3508064,12.426774 L46,12.426774 L46,9.57825869 L42.3508064,9.57825869 L42.3508064,6 L39.5030242,6 L39.5030242,9.57322597 L36,9.57322597 L36,12.4217413 L39.5030242,12.4217413 L39.5030242,15.9949673 L39.5030242,16 Z M21,32.9866943 C21,32.5986103 21.0361197,32.2105264 21.0619195,31.8276168 L24.6738906,28.3089888 C24.8906089,28.1020106 30.0815274,23.1811058 41.0515996,23 L41.5882353,23 C52.1145511,23 57.5067079,28.0399172 57.7905057,28.3141632 L60.9226006,31.4343584 C60.9638803,31.9518037 61,32.4640745 61,32.9866943 C61,44.085896 52.0423117,58.0000001 41,58 C29.9576884,58 21.0000001,44.0807215 21,32.9918687 L21,32.9866943 Z M60.8609772,48.0051879 C65.9855943,51.4136554 77.6960227,52.2489115 83.6869192,72.4351323 C84.9393714,76.6425404 82.2779105,79.625598 78.4840239,81.7007685 C72.8062405,84.8031484 61.9934028,88.1649245 41.8706702,87.9937229 C21.7479376,88.1649244 10.9351,84.8031483 5.25731656,81.7007685 C1.45821146,79.625598 -0.670957374,76.6684801 0.190103569,72.4351323 C4.99117049,48.8196924 22.2645742,48 22.2645742,48 L41.8706702,76.180815 L60.8661958,48 L60.8609772,48.0051879 Z"></path>
                        </g>
                    </g>
                </g>
                <g transform="translate(196.000000, 42.000000)"></g>
            </g>
            <text id="诊疗记录" opacity="0.85" font-family="PingFangSC-Medium, PingFang SC" font-size="30" font-weight="400" fill="#DFB900">
                <tspan x="24" y="58">诊疗记录</tspan>
            </text>
        </g>
    </g>
</svg>