<?xml version="1.0" encoding="UTF-8"?>
<svg width="80px" height="80px" viewBox="0 0 80 80" version="1.1" xmlns="http://www.w3.org/2000/svg" xmlns:xlink="http://www.w3.org/1999/xlink">
    <!-- Generator: Sketch 51.3 (57544) - http://www.bohemiancoding.com/sketch -->
    <title>备案信息</title>
    <desc>Created with Sketch.</desc>
    <defs></defs>
    <g id="备案信息" stroke="none" stroke-width="1" fill="none" fill-rule="evenodd">
        <g id="CombinedShape" transform="translate(14.000000, 8.000000)" fill="#5FC3FF" fill-rule="nonzero">
            <path d="M45.6905903,0 C49.1606168,0 52,2.83823791 52,6.30688988 L52,56.45963 C52,59.9285111 49.1608458,62.7665199 45.6905903,62.7665199 L6.30940968,62.7665199 C2.83915416,62.7665199 0,59.928282 0,56.45963 L0,6.30688988 C0,2.83800879 2.83915416,0 6.30940968,0 L45.6905903,0 Z M41.3296916,53.3744494 C42.4150484,53.3744494 43.2949251,52.4993834 43.2949251,51.4197534 C43.2949251,50.3401234 42.4152776,49.4648283 41.3296916,49.4648283 L10.6703084,49.4648283 C9.58495156,49.4648283 8.70507491,50.3398943 8.70507485,51.4197534 C8.70507485,52.4993833 9.58472244,53.3744494 10.6703084,53.3744494 L41.3296916,53.3744494 Z M41.3296916,42.6232776 C42.4150484,42.6232776 43.2949251,41.7482115 43.2949251,40.6683525 C43.2949251,39.5887226 42.4152776,38.7136564 41.3296916,38.7136564 L10.6703084,38.7136564 C9.58449338,38.7136564 8.70484579,39.5887225 8.70484579,40.6683525 C8.70484579,41.7479824 9.58449338,42.6232776 10.6700793,42.6232776 L41.3296916,42.6232776 Z M33.3244405,25.1595242 L27.9526344,25.1595242 L27.9526344,21.8212159 L33.3244405,21.8212159 C34.4029251,21.8212159 35.277304,20.9399648 35.277304,19.8530045 C35.277304,18.7660441 34.4029251,17.8850221 33.3244405,17.8850221 L28.768141,17.8850221 L33.8613921,12.7519119 C34.6242115,11.9833657 34.6242115,10.7371982 33.8613921,9.968652 C33.4965787,9.59977026 32.9993374,9.39218921 32.4805286,9.39218921 C31.9617198,9.39218921 31.4644786,9.59977026 31.0996652,9.968652 L26,15.1081762 L20.9001057,9.968652 C20.5352923,9.59977026 20.038051,9.39218921 19.5192423,9.39218921 C19.0004335,9.39218921 18.5031922,9.59977026 18.1383788,9.968652 C17.3755594,10.7371982 17.3755594,11.9833657 18.1383788,12.7519119 L23.231859,17.8850221 L18.6755595,17.8850221 C17.5966167,17.8850221 16.722467,18.7660441 16.722467,19.8530045 C16.722467,20.9399648 17.5968458,21.8212159 18.6753304,21.8212159 L24.0471366,21.8212159 L24.0471366,25.1595242 L18.6753304,25.1595242 C17.5968458,25.1595242 16.722467,26.0407753 16.722467,27.1277357 C16.722467,28.2146961 17.5968458,29.0959471 18.6753304,29.0959472 L24.0471366,29.0959472 L24.0471366,31.1502908 C24.0471366,32.1646344 24.9215154,32.9867842 26,32.9867842 C27.0784846,32.9867842 27.9528634,32.1644053 27.9528634,31.1502908 L27.9528634,29.0959472 L33.3246696,29.0959472 C34.4031542,29.0959472 35.277533,28.2146961 35.277533,27.1277357 C35.277533,26.0407753 34.4031542,25.1595242 33.3246696,25.1595242 L33.3244405,25.1595242 Z" id="Shape"></path>
        </g>
    </g>
</svg>