<?xml version="1.0" encoding="UTF-8"?>
<svg width="60px" height="60px" viewBox="0 0 60 60" version="1.1" xmlns="http://www.w3.org/2000/svg" xmlns:xlink="http://www.w3.org/1999/xlink">
    <!-- Generator: Sketch 51.3 (57544) - http://www.bohemiancoding.com/sketch -->
    <title>参保服务</title>
    <desc>Created with Sketch.</desc>
    <defs></defs>
    <g id="参保服务" stroke="none" stroke-width="1" fill="none" fill-rule="evenodd">
        <g id="baoxian-14" transform="translate(9.000000, 6.000000)" fill="#59C3FF" fill-rule="nonzero">
            <path d="M38.0348788,7.30903176 C30.3700051,7.30903176 23.1579275,0.974976102 23.0864846,0.910568763 C22.4286832,0.313685476 21.5992814,0.0173316374 20.7698796,0.0173316374 C19.9154461,0.0168507133 19.0912359,0.333473645 18.4568782,0.905878353 C18.348484,1.00197456 11.2101946,7.30908896 3.50436556,7.30908896 C1.59782825,7.30908896 0.051480111,8.8553799 0.051480111,10.7619744 L0.051480111,21.2037425 C0.051480111,30.6591517 5.6569206,38.5952112 18.7965325,47.7396233 C19.3899266,48.1526082 20.0793025,48.3587575 20.7693648,48.3587575 C21.4594271,48.3587575 22.1481166,48.152551 22.7414534,47.7396233 C35.8811226,38.5952112 41.4865631,30.6591517 41.4865631,21.2037425 L41.4865631,10.7619744 C41.4871351,8.8560091 39.9419881,7.30908896 38.0348788,7.30908896 L38.0348788,7.30903176 Z M29.1247584,26.7781805 L23.3588144,26.7781805 L23.3588144,33.1285954 L18.1798008,33.1285954 L18.1798008,26.7781233 L12.414486,26.7781233 L12.414486,21.5985378 L18.1798008,21.5985378 L18.1798008,15.8332229 L23.3588144,15.8332229 L23.3588144,21.5985378 L29.1247584,21.5985378 L29.1247584,26.7781233 L29.1247584,26.7781805 Z" id="Shape"></path>
        </g>
    </g>
</svg>