<?xml version="1.0" encoding="UTF-8"?>
<svg width="750px" height="1334px" viewBox="0 0 750 1334" version="1.1" xmlns="http://www.w3.org/2000/svg" xmlns:xlink="http://www.w3.org/1999/xlink">
    <!-- Generator: Sketch 51.3 (57544) - http://www.bohemiancoding.com/sketch -->
    <title>01</title>
    <desc>Created with Sketch.</desc>
    <defs>
        <linearGradient x1="50%" y1="0%" x2="50%" y2="100%" id="linearGradient-1">
            <stop stop-color="#EEF8FF" offset="0%"></stop>
            <stop stop-color="#FFFFFF" stop-opacity="0" offset="100%"></stop>
        </linearGradient>
        <filter x="-4.1%" y="-27.3%" width="108.2%" height="154.5%" filterUnits="objectBoundingBox" id="filter-2">
            <feGaussianBlur stdDeviation="1" in="SourceGraphic"></feGaussianBlur>
        </filter>
        <linearGradient x1="62.6607073%" y1="100%" x2="62.6607073%" y2="11.6193042%" id="linearGradient-3">
            <stop stop-color="#EDF3FB" offset="0%"></stop>
            <stop stop-color="#C2DBFF" offset="100%"></stop>
        </linearGradient>
        <linearGradient x1="50%" y1="100%" x2="50%" y2="0%" id="linearGradient-4">
            <stop stop-color="#B8D9FF" offset="0%"></stop>
            <stop stop-color="#65B2FE" offset="100%"></stop>
        </linearGradient>
        <linearGradient x1="50%" y1="100%" x2="50%" y2="0%" id="linearGradient-5">
            <stop stop-color="#B8D9FE" offset="0%"></stop>
            <stop stop-color="#68B3FE" offset="100%"></stop>
        </linearGradient>
        <linearGradient x1="50%" y1="0%" x2="50%" y2="100%" id="linearGradient-6">
            <stop stop-color="#FFCFB0" offset="0%"></stop>
            <stop stop-color="#FFB08E" offset="100%"></stop>
        </linearGradient>
        <linearGradient x1="50%" y1="0%" x2="50%" y2="93.4704777%" id="linearGradient-7">
            <stop stop-color="#EB5346" offset="0%"></stop>
            <stop stop-color="#D9473F" offset="100%"></stop>
        </linearGradient>
        <linearGradient x1="50%" y1="0%" x2="50%" y2="100%" id="linearGradient-8">
            <stop stop-color="#1D3E64" offset="0%"></stop>
            <stop stop-color="#000141" offset="100%"></stop>
        </linearGradient>
        <linearGradient x1="50%" y1="4.49421758%" x2="50%" y2="100%" id="linearGradient-9">
            <stop stop-color="#2A578C" offset="0%"></stop>
            <stop stop-color="#093969" offset="100%"></stop>
        </linearGradient>
        <linearGradient x1="50%" y1="0%" x2="50%" y2="100%" id="linearGradient-10">
            <stop stop-color="#C4F09C" offset="0%"></stop>
            <stop stop-color="#82B247" offset="100%"></stop>
        </linearGradient>
        <linearGradient x1="50%" y1="0%" x2="50%" y2="100%" id="linearGradient-11">
            <stop stop-color="#FFAB6F" offset="0%"></stop>
            <stop stop-color="#FD9357" offset="100%"></stop>
        </linearGradient>
        <linearGradient x1="50%" y1="0%" x2="50%" y2="100%" id="linearGradient-12">
            <stop stop-color="#FFAA6E" offset="0%"></stop>
            <stop stop-color="#FD9458" offset="100%"></stop>
        </linearGradient>
        <linearGradient x1="62.6607073%" y1="100%" x2="62.6607073%" y2="11.6193042%" id="linearGradient-13">
            <stop stop-color="#EDF3FB" offset="0%"></stop>
            <stop stop-color="#D6E3F6" offset="100%"></stop>
        </linearGradient>
    </defs>
    <g id="01" stroke="none" stroke-width="1" fill="none" fill-rule="evenodd">
        <rect fill="#FFFFFF" x="0" y="0" width="750" height="1334"></rect>
        <g id="Group-3" opacity="0.3" transform="translate(140.000000, 318.000000)" stroke="#56A4EE" stroke-width="2">
            <path d="M89,240.5 C89,283.006051 106.505103,321.423566 134.699514,348.936751 M240.5,392 C254.690966,392 268.426221,390.048866 281.452134,386.400228 M392,240.5 C392,200.294357 376.338362,163.746685 350.783086,136.624985" id="Oval-5"></path>
            <path d="M393.485903,55.487117 C351.881176,20.8405413 298.374373,0 240,0 C107.45166,0 0,107.45166 0,240 M54.869006,392.740619 C74.5269953,416.540172 98.6857472,436.48503 126.041844,451.271774 M240,480 C372.54834,480 480,372.54834 480,240 C480,228.173684 479.144611,216.547154 477.492328,205.178906" id="Oval-5-Copy"></path>
        </g>
        <g id="Group-9-Copy" transform="translate(-182.000000, 789.000000)">
            <ellipse id="Oval-2" fill="url(#linearGradient-1)" cx="557" cy="324.5" rx="557" ry="313.5"></ellipse>
            <ellipse id="Oval-3" fill="#C3D3DD" opacity="0.5796875" filter="url(#filter-2)" cx="494.5" cy="34.5" rx="36.5" ry="5.5"></ellipse>
            <g id="Group-7" transform="translate(667.000000, 0.000000)">
                <path d="M0,59.6278655 C0,47.9960314 11.9068547,33.8139328 27.2968378,33.8139328 C37.5568265,33.8139328 44.1843102,35.9935197 47.1792888,40.3526935 C61.4673283,13.463035 78.1900675,3.33520503 97.3475066,9.96920356 C126.083665,19.9202014 129,38.44151 129,59.6278655 C129,59.6278655 0,59.6278655 0,59.6278655 Z" id="Path-12-Copy" fill="url(#linearGradient-3)"></path>
                <g id="Group-5" transform="translate(51.000000, 0.000000)">
                    <polygon id="Triangle" fill="url(#linearGradient-4)" points="17 0 34 41 0 41"></polygon>
                    <rect id="Rectangle-4" fill="#D8D8D8" x="15" y="41" width="4" height="19"></rect>
                </g>
                <g id="Group-6" transform="translate(83.000000, 15.000000)">
                    <rect id="Rectangle-4-Copy" fill="#D8D8D8" x="12" y="26" width="4" height="19"></rect>
                    <circle id="Oval-4" fill="url(#linearGradient-5)" cx="14" cy="14" r="14"></circle>
                </g>
            </g>
            <g id="Group-7-Copy" transform="translate(295.000000, 60.000000)">
                <path d="M0,48.9038504 C0,42.8423733 6.08633566,35.4519252 13.9531154,35.4519252 C19.1976352,35.4519252 22.5853552,36.587732 24.1162755,38.8593456 C31.4197831,24.8468478 39.9678176,19.5691239 49.7603789,23.0261737 C64.4492209,28.2117485 65.9399414,37.8634067 65.9399414,48.9038504 C65.9399414,48.9038504 0,48.9038504 0,48.9038504 Z" id="Path-12-Copy" fill="url(#linearGradient-3)"></path>
                <g id="Group-5" transform="translate(24.000000, 0.000000)">
                    <polygon id="Triangle" fill="url(#linearGradient-4)" points="14 0 28 33 0 33"></polygon>
                    <rect id="Rectangle-4" fill="#D8D8D8" x="12" y="33" width="3" height="16"></rect>
                </g>
            </g>
        </g>
        <g id="Group-10" transform="translate(299.000000, 1218.000000)">
            <rect id="Rectangle-2" fill="#278DFF" x="0" y="0" width="50" height="16" rx="8"></rect>
            <rect id="Rectangle-2-Copy" fill="#BAD5F2" x="72" y="0" width="30" height="16" rx="8"></rect>
            <rect id="Rectangle-2-Copy-2" fill="#BAD5F2" x="122" y="0" width="30" height="16" rx="8"></rect>
        </g>
        <g id="Group-2-Copy" transform="translate(414.334398, 612.946109) rotate(19.000000) translate(-414.334398, -612.946109) translate(316.334398, 549.446109)">
            <rect id="Rectangle-5" fill="#3594FA" x="0" y="0" width="196" height="127" rx="10"></rect>
            <circle id="Oval" fill="#FFFFFF" cx="46.0733593" cy="67.9020247" r="32.5"></circle>
            <g id="Group" transform="translate(89.000000, 17.000000)" fill="#FFFFFF">
                <text id="健康卡" font-family="PingFangSC-Regular, PingFang SC" font-size="24" font-weight="normal">
                    <tspan x="0" y="25">健康卡</tspan>
                </text>
                <rect id="Rectangle" x="0" y="47" width="60" height="8" rx="4"></rect>
                <rect id="Rectangle-Copy" x="0" y="71" width="88" height="8" rx="4"></rect>
            </g>
        </g>
        <g id="Group-2" transform="translate(353.213892, 494.739610) rotate(-10.000000) translate(-353.213892, -494.739610) translate(232.713892, 416.739610)">
            <rect id="Rectangle-5" fill="#7DE4F2" x="0" y="0" width="241" height="156" rx="10"></rect>
            <circle id="Oval" fill="#FFFFFF" cx="54" cy="78" r="40"></circle>
            <g id="Group" transform="translate(107.000000, 23.000000)" fill="#FFFFFF">
                <text id="社保卡" font-family="PingFangSC-Regular, PingFang SC" font-size="28" font-weight="normal">
                    <tspan x="2.79263276" y="30.878462">社保卡</tspan>
                </text>
                <rect id="Rectangle" x="2" y="55.7088608" width="73.6363636" height="9.82278481" rx="4.91139241"></rect>
                <rect id="Rectangle-Copy" x="2" y="85.1772152" width="108" height="9.82278481" rx="4.91139241"></rect>
            </g>
        </g>
        <circle id="Oval-2" fill="#8DEAEE" cx="584" cy="443" r="46"></circle>
        <circle id="Oval-2-Copy" fill="#5EADFA" cx="165.5" cy="636.5" r="43.5"></circle>
        <g id="Group-4" transform="translate(277.000000, 685.000000)">
            <path d="M43.3374023,6.57861328 C44.2316081,8.48714193 44.9729818,9.68033854 45.5615234,10.1582031 C46.4443359,10.875 46.8457031,12.3242188 46.2036133,12.3242188 C45.7755534,12.3242188 45.3503775,12.3242188 44.9280856,12.3242188 L44.9280856,17.6699219 L39.9648438,17.6699219 C39.2402344,19.3873698 39.2402344,20.2460937 39.9648438,20.2460938 C40.6894531,20.2460938 41.4156901,20.7810872 42.1435547,21.8510742 L35.2075195,21.8510742 L35.2075195,16.090332 L34.4248047,13.5463867 L31.2407227,11.0234375 L31.2407227,7.28515625 L33.6455078,6.57861328 L37.6225586,7.28515625 L43.3374023,6.57861328 Z" id="Path-14" fill="url(#linearGradient-6)"></path>
            <path d="M34.6831055,15.9018555 C30.7143555,13.1619466 29.1910807,10.1157227 30.1132812,6.76318359 C31.496582,1.734375 35.0629883,0.553222656 37.6508789,0.553222656 C40.2387695,0.553222656 45.1567383,0.382324219 45.1567383,2.32861328 C45.1567383,4.27490234 43.2143555,6.70893803 41.3862305,7.46728516 C39.5581055,8.22563229 38.8060698,9.01367188 37.5045974,9.01367188 C36.203125,9.01367188 35.6035156,8.98397942 34.6831055,8.22563229 C33.7626953,7.46728516 32.0996094,7.88476563 32.0996094,9.01367188 C32.0996094,10.1425781 32.5004883,12.1171875 33.5917969,12.1171875 C34.3193359,12.1171875 34.6831055,12.5188802 34.6831055,13.3222656 L34.6831055,15.9018555 Z" id="Path-13" fill="url(#linearGradient-7)"></path>
            <path d="M20.0571289,70.3745117 C19.4412435,90.2091471 18.8759766,102.05485 18.3613281,105.911621 C17.8466797,109.768392 15.684082,120.915365 11.8735352,139.352539 C14.6736654,139.340495 18.8815104,133.542318 24.4970703,121.958008 C30.1126302,110.373698 35.0345052,99.0021159 39.2626953,87.8432617 L36.9291992,72.2011719 L20.0571289,70.3745117 Z" id="Path-19" fill="url(#linearGradient-8)"></path>
            <path d="M31.597168,73.8369141 C35.3224284,83.4899089 37.7757161,89.085612 38.9570312,90.6240234 C40.7290039,92.9316406 45.6547852,101.71875 45.6547852,108.098633 C45.6547852,114.478516 45.0009766,137.877441 44.2724609,138.692383 C43.5439453,139.507324 46.6914062,139.680664 50.6748047,133.438477 C54.6582031,127.196289 58.8071289,114.583496 58.8071289,105.823242 C58.8071289,97.0629883 57.2402344,81.0336914 56.5336914,78.3671875 C56.0626628,76.5895182 55.222819,74.2314453 54.0141602,71.2929688 L32.3916016,73.8369141 L31.597168,73.8369141 Z" id="Path-18" fill="url(#linearGradient-9)"></path>
            <path d="M10.8305664,68.4726562 C2.40250651,63.2174479 -0.908203125,57.4121094 0.8984375,51.0566406 C3.60839844,41.5234375 6.93945313,37.9951172 12.9780273,33.3232422 C19.0166016,28.6513672 24.9306641,24.371582 27.0654297,23.3222656 C29.2001953,22.2729492 34.5283203,22.347168 37.3349609,22.3100586 C40.1416016,22.2729492 46.1611328,23.3222656 48.3310547,23.3222656 C50.5009766,23.3222656 61.2324219,27.9755859 63.9243164,30.6494141 C66.6162109,33.3232422 70.6586914,34.0917969 72.6450195,34.0917969 C74.6313477,34.0917969 79.2426758,29.1054688 80.3066406,27.6879883 C81.3706055,26.2705078 82.4199219,24.0249023 83.3330078,24.0249023 C84.2460938,24.0249023 86.8339844,25.3671875 86.8339844,27.6879883 C86.8339844,30.0087891 86.359375,33.4575195 83.3330078,37.699707 C80.3066406,41.9418945 76.6308594,47.1352539 74.9804688,47.1352539 C73.3300781,47.1352539 68.8432617,47.965332 66.3837891,47.1352539 C64.7441406,46.5818685 60.2101237,44.4791667 52.7817383,40.8271484 C52.7817383,47.8694661 52.7817383,52.5351562 52.7817383,54.8242187 C52.7817383,58.2578125 54.3300781,64.0024414 54.980957,65.5893555 C55.6318359,67.1762695 56.7324219,70.2265625 56.1821289,71.4609375 C55.6318359,72.6953125 48.105957,74.8554688 39.1186523,74.8554688 C30.1313477,74.8554688 19.2587891,73.472168 19.2587891,69.5307617 C19.2587891,66.9031576 20.164388,57.0152995 21.9755859,39.8671875 C15.9746094,45.1386719 12.616862,48.3214518 11.9023438,49.4155273 C10.8305664,51.0566406 10.8266602,56.8188477 11.9023438,58.4658203 C12.9780273,60.112793 16.059082,65.7568359 16.059082,66.4902344 C16.059082,66.9791667 14.3162435,67.639974 10.8305664,68.4726562 Z" id="Path-15" fill="url(#linearGradient-10)"></path>
            <path d="M10.8374023,68.1635742 C13.9793294,67.2055664 15.8416341,66.8862305 16.4243164,67.2055664 C17.2983398,67.6845703 19.4321289,69.8579102 18.3652344,72.0805664 C17.2983398,74.3032227 16.3043727,77.15625 15.5258789,77.15625 C15.006883,77.15625 14.5329247,76.945638 14.1040039,76.5244141 C14.1040039,73.615804 14.1040039,72.1480103 14.1040039,72.1210327 C14.1040039,72.0940552 13.0151367,70.7749023 10.8374023,68.1635742 Z" id="Path-16" fill="url(#linearGradient-11)"></path>
            <path d="M84.043457,24.2270508 C83.6886393,21.1391602 83.925293,19.0869141 84.753418,18.0703125 C85.9956055,16.5454102 88.0581055,13.2749023 88.8725586,13.2749023 C89.6870117,13.2749023 89.6870117,15.4931641 88.8725586,16.1816406 C88.0581055,16.8701172 86.3452148,18.7509766 87.6088867,18.7509766 C88.8725586,18.7509766 90.7099609,21.0786133 90.7099609,22.652832 C90.7099609,24.2270508 87.956084,26.6513672 87.2968896,26.6513672 C86.8574268,26.6513672 85.7729492,25.8432617 84.043457,24.2270508 Z" id="Path-17" fill="url(#linearGradient-12)"></path>
            <path d="M12,138.065542 C12,135.086854 18.2242542,136.244756 19.4249577,135.269422 C20.6256612,134.294089 23.8559703,136.137543 20.5611983,138.065542 C17.2664262,139.993541 12,141.04423 12,138.065542 Z" id="Path-20" fill="#000000"></path>
            <path d="M44,137.687837 C44,134.104485 51.469105,135.497437 52.9099492,134.324114 C54.3507934,133.150791 58.2271644,135.36846 54.2734379,137.687837 C50.3197114,140.007214 44,141.27119 44,137.687837 Z" id="Path-20-Copy" fill="#000000"></path>
        </g>
        <g id="字" transform="translate(180.000000, 914.000000)">
            <text id="两卡融合、一网通办" font-family="PingFangSC-Medium, PingFang SC" font-size="40" font-weight="400" fill="#339FFF">
                <tspan x="15" y="42">两卡融合、一网通办</tspan>
            </text>
            <text id="社保卡？健康卡？-喜欢哪个用哪个，通通都" opacity="0.45" font-family="PingFangSC-Regular, PingFang SC" font-size="30" font-weight="normal" line-spacing="70" fill="#000000">
                <tspan x="75" y="122">社保卡？健康卡？</tspan>
                <tspan x="0" y="192">喜欢哪个用哪个，通通都能办</tspan>
            </text>
        </g>
        <g id="Group-10" transform="translate(90.000000, 376.000000)" fill="#DAECFF">
            <path d="M42,15 L42,14.9499909 C43.1411202,14.7183558 44,13.709479 44,12.5 C44,11.290521 43.1411202,10.2816442 42,10.0500091 L42,10 L5,10 C2.23857625,10 3.38176876e-16,7.76142375 0,5 C-3.38176876e-16,2.23857625 2.23857625,5.07265313e-16 5,0 L61,0 C63.7614237,-5.07265313e-16 66,2.23857625 66,5 C66,7.76142375 63.7614237,10 61,10 L53,10 L53,10.0500091 C51.8588798,10.2816442 51,11.290521 51,12.5 C51,13.709479 51.8588798,14.7183558 53,14.9499909 L53,15 L93,15 C95.7614237,15 98,17.2385763 98,20 C98,22.7614237 95.7614237,25 93,25 L37,25 C34.2385763,25 32,22.7614237 32,20 C32,17.2385763 34.2385763,15 37,15 L42,15 Z" id="Combined-Shape"></path>
        </g>
        <g id="Group-10-Copy" transform="translate(672.500000, 628.000000) scale(-1, 1) translate(-672.500000, -628.000000) translate(641.000000, 620.000000)" fill="#DAECFF">
            <path d="M27,9.6 L27,9.5679942 C27.7335772,9.4197477 28.2857143,8.77406653 28.2857143,8 C28.2857143,7.22593347 27.7335772,6.5802523 27,6.4320058 L27,6.4 L3.2,6.4 C1.4326888,6.4 2.164332e-16,4.9673112 0,3.2 C-2.164332e-16,1.4326888 1.4326888,7.6873901e-16 3.2,4.4408921e-16 L39.2285714,-1.77635684e-15 C40.9958826,-2.10100664e-15 42.4285714,1.4326888 42.4285714,3.2 C42.4285714,4.9673112 40.9958826,6.4 39.2285714,6.4 L34.0714286,6.4 L34.0714286,6.4320058 C33.3378513,6.5802523 32.7857143,7.22593347 32.7857143,8 C32.7857143,8.77406653 33.3378513,9.4197477 34.0714286,9.5679942 L34.0714286,9.6 L59.8,9.6 C61.5673112,9.6 63,11.0326888 63,12.8 C63,14.5673112 61.5673112,16 59.8,16 L23.7714286,16 C22.0041174,16 20.5714286,14.5673112 20.5714286,12.8 C20.5714286,11.0326888 22.0041174,9.6 23.7714286,9.6 L27,9.6 Z" id="Combined-Shape"></path>
        </g>
        <path d="M570,318.114805 C570,309.978086 578.329102,300.057403 589.094727,300.057403 C596.27181,300.057403 600.907878,301.582071 603.00293,304.631407 C612.997721,285.821511 624.695638,278.736875 638.09668,283.3775 C658.198242,290.338438 660.238281,303.294493 660.238281,318.114805 C660.238281,318.114805 570,318.114805 570,318.114805 Z" id="Path-12" fill="url(#linearGradient-13)"></path>
        <g id="yao-3" transform="translate(143.000000, 615.000000)" fill="#FFFFFF" fill-rule="nonzero">
            <path d="M28.4186047,7.46268657 C27.8604651,8.05970149 27.8604651,8.95522388 28.4186047,9.55223881 C28.9767442,10.1492537 29.8139535,10.1492537 30.372093,9.55223881 C32.3255814,7.46268657 35.6744186,7.46268657 37.627907,9.55223881 C37.9069767,9.85074627 38.3255814,10 38.6046512,10 C38.8837209,10 39.3023256,9.85074627 39.5813953,9.55223881 C40.1395349,8.95522388 40.1395349,8.05970149 39.5813953,7.46268657 C36.5116279,4.17910448 31.4883721,4.17910448 28.4186047,7.46268657 Z" id="Shape"></path>
            <path d="M42.2511013,3.78823529 C39.8193833,1.35294118 36.4419971,0 33.1997063,0 C29.9574156,0 26.7151248,1.21764706 24.1483113,3.78823529 L3.74889868,24.2176471 C-1.24963289,29.2235294 -1.24963289,37.3411765 3.74889868,42.2117647 C6.18061674,44.6470588 9.55800294,46 12.8002937,46 C16.0425844,46 19.2848752,44.7823529 21.8516887,42.2117647 L42.2511013,21.7823529 C47.2496329,16.7764706 47.2496329,8.65882353 42.2511013,3.78823529 Z M19.9603524,40.3176471 C18.0690162,42.2117647 15.5022026,43.2941176 12.8002937,43.2941176 C10.0983847,43.2941176 7.53157122,42.2117647 5.64023495,40.3176471 C1.72246696,36.3941176 1.72246696,30.0352941 5.64023495,26.1117647 L14.9618209,16.7764706 L27.660793,29.4941176 L29.1468429,30.9823529 L19.9603524,40.3176471 Z M40.3597651,19.8882353 L31.0381791,29.2235294 L29.6872247,27.8705882 L29.4170338,27.6 L16.7180617,14.8823529 L26.0396476,5.54705882 C27.9309838,3.65294118 30.4977974,2.57058824 33.1997063,2.57058824 C35.9016153,2.57058824 38.4684288,3.65294118 40.3597651,5.54705882 C44.277533,9.60588235 44.277533,15.9647059 40.3597651,19.8882353 Z" id="Shape"></path>
        </g>
        <g id="baoxian" transform="translate(554.000000, 412.000000)" fill="#FFFFFF" fill-rule="nonzero">
            <path d="M31.5124795,57 C30.9962374,57 30.4799953,56.8611898 30.0106844,56.6298395 C25.5991613,54.6864967 21.7038802,51.8640226 18.4656346,48.3474977 C14.3826292,43.9055713 11.4259701,38.5382436 9.68951946,32.3843249 C8.61010426,28.5901795 8.04693107,24.5184137 8,20.3078376 C8,19.9376771 8.04693107,19.5675166 8.04693107,19.197356 C8.09386215,18.4107649 8.14079327,17.5779037 8.1877244,16.7913126 C8.32851767,15.2181304 9.64258839,13.9688385 11.2382457,13.8762984 C11.7075566,13.8300284 12.1768676,13.8300284 12.6461786,13.7837583 C13.4909383,13.7374882 14.335698,13.6912181 15.1804578,13.598678 C20.2959474,13.0434373 25.1298503,11.3777149 29.5413734,8.60151086 C30.1984088,8.18508027 30.8554441,8 31.5124795,8 C31.8879283,8 32.2164459,8.04627004 32.5918947,8.18508027 C32.8734813,8.27762041 33.1550678,8.41643059 33.4366544,8.60151086 C37.3319355,11.0538244 41.6495964,12.6732767 46.2019128,13.4135978 C47.8445011,13.6912182 49.5340206,13.8300284 51.4581956,13.8300284 C53.4293017,13.8762984 54.7433724,15.1718603 54.8841656,17.115203 C55.07189,19.5675165 55.0249589,22.0661001 54.7903034,24.4721436 C53.8986126,33.4948064 50.8480913,40.9905571 45.4510152,47.3295562 C42.0250452,51.355052 37.8481775,54.5014165 32.9204124,56.6761095 C32.4980325,56.9074599 31.9817904,57 31.5124795,57 Z M11.3486319,17.3933211 C11.3022572,17.7590915 11.3022572,18.1248619 11.3022571,18.444911 C11.2095076,21.2796317 11.3950066,24.0686311 11.8587541,26.7661879 C12.60075,31.2925967 14.0847418,35.4989564 16.21798,39.2023818 C19.6960859,45.2833149 24.6118088,49.8097238 30.7796498,52.5987231 C30.8723993,52.6444444 30.918774,52.6444444 30.9651487,52.6444444 C31.0115234,52.6444444 31.0578982,52.6444444 31.1506477,52.5987231 C36.8083665,50.0383302 41.3994662,46.0148557 44.7848225,40.7111848 C49.0976738,33.9444322 50.9526635,26.3546962 50.5816655,17.530485 C50.5816655,17.3933211 50.5816655,17.2104359 50.5352908,17.0732719 L50.5352908,16.9361081 L50.4425413,16.9361081 C48.4484273,16.8903868 46.5006881,16.7532228 44.6456983,16.4331737 C39.7763501,15.6101903 35.1852505,13.8727808 31.0578982,11.312388 C31.0115235,11.2666667 30.9651487,11.2666667 30.9651487,11.2666667 C30.918774,11.2666667 30.8723992,11.2666667 30.8260245,11.312388 C30.0840286,11.769601 29.2956579,12.226814 28.5072873,12.6383057 C23.9161876,15.0615347 18.9540899,16.478895 13.7601186,16.8446655 C13.1108722,16.8903867 12.5080005,16.9361081 11.8587541,16.9361081 L11.4413814,16.9361081 C11.3950066,17.1189933 11.3950066,17.2561572 11.3486319,17.3933211 Z M27.9136329,39.5777778 C27.4489463,39.5777778 26.9377911,39.3529335 26.4731047,38.8582759 L20.6180546,33.1921993 C19.8745561,32.4726975 19.8280875,31.4833825 20.4786486,30.7638807 C20.8039291,30.4041298 21.2686157,30.1792855 21.7797708,30.1792855 C22.2444574,30.1792855 22.7091439,30.3591609 23.0344244,30.6739429 C23.8708601,31.4384136 24.6608272,32.2478531 25.4507943,33.0123238 L25.8225435,33.3720747 L27.5418837,35.0359227 L27.9136329,35.3956735 C27.9601015,35.3507047 28.0065702,35.3057358 28.0065702,35.260767 L32.2352175,31.1686004 C34.4192441,29.0550639 36.6032708,26.9415273 38.7408287,24.8279908 C39.2055152,24.5132088 39.6702017,24.3333333 40.1348883,24.3333333 L40.3672315,24.3333333 C41.0642613,24.4232711 41.5289478,24.8279908 41.7612911,25.412586 C41.9936343,25.9971813 41.900697,26.6267453 41.4360105,27.1214028 L41.1571986,27.391216 L29.3076924,38.8582759 C28.8430059,39.3529334 28.3783194,39.5777777 27.9136329,39.5777778 Z" id="Shape" transform="translate(31.500000, 32.500000) rotate(-22.000000) translate(-31.500000, -32.500000) "></path>
        </g>
    </g>
</svg>