<?xml version="1.0" encoding="UTF-8"?>
<svg width="750px" height="1334px" viewBox="0 0 750 1334" version="1.1" xmlns="http://www.w3.org/2000/svg" xmlns:xlink="http://www.w3.org/1999/xlink">
    <!-- Generator: Sketch 51.3 (57544) - http://www.bohemiancoding.com/sketch -->
    <title>02</title>
    <desc>Created with Sketch.</desc>
    <defs>
        <linearGradient x1="50%" y1="0%" x2="50%" y2="100%" id="linearGradient-1">
            <stop stop-color="#EEF8FF" offset="0%"></stop>
            <stop stop-color="#FFFFFF" stop-opacity="0" offset="100%"></stop>
        </linearGradient>
        <filter x="-8.3%" y="-27.3%" width="116.7%" height="154.5%" filterUnits="objectBoundingBox" id="filter-2">
            <feGaussianBlur stdDeviation="1" in="SourceGraphic"></feGaussianBlur>
        </filter>
        <linearGradient x1="62.6607073%" y1="100%" x2="62.6607073%" y2="11.6193042%" id="linearGradient-3">
            <stop stop-color="#EDF3FB" offset="0%"></stop>
            <stop stop-color="#D6E3F6" offset="100%"></stop>
        </linearGradient>
        <linearGradient x1="32.8182741%" y1="6.19363566%" x2="59.7307181%" y2="93.0752383%" id="linearGradient-4">
            <stop stop-color="#923A3A" offset="0%"></stop>
            <stop stop-color="#551A1A" offset="100%"></stop>
        </linearGradient>
        <linearGradient x1="50%" y1="0%" x2="50%" y2="100%" id="linearGradient-5">
            <stop stop-color="#FFE1CD" offset="0%"></stop>
            <stop stop-color="#FEC09F" offset="100%"></stop>
        </linearGradient>
        <linearGradient x1="50%" y1="0%" x2="79.4686669%" y2="93.0940677%" id="linearGradient-6">
            <stop stop-color="#F3A7B6" offset="0%"></stop>
            <stop stop-color="#E25872" offset="100%"></stop>
        </linearGradient>
        <linearGradient x1="50%" y1="0%" x2="50%" y2="100%" id="linearGradient-7">
            <stop stop-color="#502E32" offset="0%"></stop>
            <stop stop-color="#AA7777" offset="100%"></stop>
        </linearGradient>
        <linearGradient x1="18.4978762%" y1="29.2176821%" x2="91.5269218%" y2="76.083137%" id="linearGradient-8">
            <stop stop-color="#805358" offset="0%"></stop>
            <stop stop-color="#AA7676" offset="100%"></stop>
        </linearGradient>
    </defs>
    <g id="02" stroke="none" stroke-width="1" fill="none" fill-rule="evenodd">
        <rect fill="#FFFFFF" x="0" y="0" width="750" height="1334"></rect>
        <polygon id="Path-21" fill="#B8EDFF" points="540 654.748047 549.242188 654.748047 549.242188 642.574219 556.306641 634 562.089844 642.574219 562.089844 654.748047 570.513672 654.748047 574.185547 658.982422 574.185547 840.931641 540 840.931641"></polygon>
        <polygon id="Path-23" fill="#CCEBFF" points="604.59375 756.918945 604.59375 735.09375 608.94043 735.09375 608.94043 723 622.577148 723 623.834961 735.09375 637.389648 735.09375 637.389648 748.498047 655.21582 748.498047 655.21582 738.550781 671.364258 745.982422 671.364258 756.918945 684.78418 756.918945 684.78418 758.925781 689.816406 758.925781 689.816406 857.946289 595.416016 859.202148 594 756.918945"></polygon>
        <polygon id="Path-22" fill="#B5E4FF" points="185.185547 680.464844 185.185547 667 199.089844 667 199.089844 680.464844 202.416016 680.464844 202.416016 690.849609 212.816406 690.849609 212.816406 831.273438 146 831.273438 146 733.029297 151.822266 733.029297 151.822266 726.900391 150.114746 726.900391 150.114746 719.768066 154.667969 715.73584 158.771484 719.095703 158.771484 726.900391 156.13916 726.900391 156.13916 732.052734 162.240234 732.052734 162.240234 721.243652 168.916992 721.243652 168.916992 680.464844"></polygon>
        <rect id="Path" fill="#3786F7" x="188" y="744" width="67" height="77"></rect>
        <g id="Group-3" transform="translate(-211.000000, 318.000000)">
            <path d="M804.799083,349.153037 C821.550438,316.407601 831,279.307332 831,240 C831,209.493086 825.30805,180.315598 814.928214,153.471601 M761.52296,71.1156353 C718.02849,27.2018089 657.690907,0 591,0 C458.45166,0 351,107.45166 351,240 C351,269.337034 356.26377,297.444648 365.898385,323.429916" id="Oval" stroke="#56A4EE" stroke-width="2" opacity="0.3"></path>
            <path d="M719.196058,317.925001 C733.030656,295.214066 741,268.537703 741,240 C741,193.240094 719.60404,151.477483 686.068216,123.968262 M564.85589,92.270476 C505.812388,102.648116 458.664938,147.558059 445.009045,205.4048" id="Oval-Copy" stroke="#56A4EE" stroke-width="2" opacity="0.3"></path>
            <g id="Group-14" transform="translate(441.000000, 290.000000)">
                <rect id="Rectangle-18" fill="#3786F7" x="0" y="153" width="184" height="47"></rect>
                <rect id="Rectangle-17" fill="#3786F7" x="122" y="126" width="170" height="83"></rect>
                <g id="Group-11" transform="translate(43.000000, 19.000000)">
                    <rect id="Rectangle-8" fill="#3787F8" x="0" y="10" width="58" height="150"></rect>
                    <rect id="Rectangle-11" fill="#3787F8" x="6" y="0" width="17" height="14"></rect>
                    <rect id="Rectangle-11-Copy" fill="#3787F8" x="38" y="0" width="17" height="14"></rect>
                    <g id="Group-9" transform="translate(11.000000, 39.000000)" fill="#FFFFFF">
                        <g id="Group-8">
                            <rect id="Rectangle-10" x="0" y="0" width="7" height="6"></rect>
                            <rect id="Rectangle-10-Copy" x="29" y="0" width="7" height="6"></rect>
                        </g>
                        <g id="Group-8-Copy" transform="translate(0.000000, 18.000000)">
                            <rect id="Rectangle-10" x="0" y="0" width="7" height="6"></rect>
                            <rect id="Rectangle-10-Copy" x="29" y="0" width="7" height="6"></rect>
                        </g>
                        <g id="Group-8-Copy-2" transform="translate(0.000000, 36.000000)">
                            <rect id="Rectangle-10" x="0" y="0" width="7" height="6"></rect>
                            <rect id="Rectangle-10-Copy" x="29" y="0" width="7" height="6"></rect>
                        </g>
                        <g id="Group-8-Copy-3" transform="translate(0.000000, 54.000000)">
                            <rect id="Rectangle-10" x="0" y="0" width="7" height="6"></rect>
                            <rect id="Rectangle-10-Copy" x="29" y="0" width="7" height="6"></rect>
                        </g>
                    </g>
                </g>
                <rect id="Rectangle-12" fill="#3787F8" opacity="0.379241071" x="122" y="29" width="69" height="124"></rect>
                <g id="Group-13" transform="translate(140.000000, 41.000000)" fill="#FFFFFF">
                    <g id="Group-12">
                        <rect id="Rectangle-13" x="0" y="0" width="7" height="7"></rect>
                        <rect id="Rectangle-13-Copy" x="29" y="0" width="7" height="7"></rect>
                    </g>
                    <g id="Group-12-Copy" transform="translate(0.000000, 18.000000)">
                        <rect id="Rectangle-13" x="0" y="0" width="7" height="7"></rect>
                        <rect id="Rectangle-13-Copy" x="29" y="0" width="7" height="7"></rect>
                    </g>
                    <g id="Group-12-Copy-2" transform="translate(0.000000, 36.000000)">
                        <rect id="Rectangle-13" x="0" y="0" width="7" height="7"></rect>
                        <rect id="Rectangle-13-Copy" x="29" y="0" width="7" height="7"></rect>
                    </g>
                    <g id="Group-12-Copy-3" transform="translate(0.000000, 54.000000)">
                        <rect id="Rectangle-13" x="0" y="0" width="7" height="7"></rect>
                        <rect id="Rectangle-13-Copy" x="29" y="0" width="7" height="7"></rect>
                    </g>
                </g>
                <rect id="Rectangle-14" fill="#3786F7" x="140" y="5" width="4" height="19"></rect>
                <rect id="Rectangle-14-Copy" fill="#3786F7" x="172" y="5" width="4" height="19"></rect>
                <rect id="Rectangle-14-Copy-2" fill="#3786F7" transform="translate(158.000000, 2.500000) scale(1, -1) translate(-158.000000, -2.500000) " x="136" y="0" width="44" height="5"></rect>
                <rect id="Rectangle-14-Copy-3" fill="#3786F7" transform="translate(163.500000, 23.000000) scale(1, -1) translate(-163.500000, -23.000000) " x="136" y="17" width="55" height="12"></rect>
                <rect id="Rectangle-15" fill="#3786F7" x="122" y="17" width="69" height="4"></rect>
                <polygon id="Rectangle-16" fill="#3786F7" points="228 44 292 68.0214844 292 179 228 179"></polygon>
            </g>
        </g>
        <polygon id="Rectangle-7" fill="#D8F9FF" points="83 803 122 793 122 849 83 849"></polygon>
        <g id="Group-9-Copy" transform="translate(-182.000000, 789.000000)">
            <ellipse id="Oval-2" fill="url(#linearGradient-1)" cx="557" cy="324.5" rx="557" ry="313.5"></ellipse>
            <ellipse id="Oval-3" fill="#C3D3DD" opacity="0.5796875" filter="url(#filter-2)" cx="491" cy="45.5" rx="18" ry="5.5"></ellipse>
        </g>
        <g id="Group-10" transform="translate(306.000000, 1218.000000)">
            <rect id="Rectangle-2" fill="#278DFF" x="47" y="0" width="50" height="16" rx="8"></rect>
            <rect id="Rectangle-2-Copy" fill="#BAD5F2" x="0" y="0" width="30" height="16" rx="8"></rect>
            <rect id="Rectangle-2-Copy-2" fill="#BAD5F2" x="115" y="0" width="30" height="16" rx="8"></rect>
        </g>
        <g id="字" transform="translate(180.000000, 914.000000)">
            <text id="掌上办" font-family="PingFangSC-Medium, PingFang SC" font-size="40" font-weight="400" fill="#339FFF">
                <tspan x="135" y="42">掌上办</tspan>
            </text>
            <text id="办事更便捷，领跑最多跑一次" opacity="0.45" font-family="PingFangSC-Regular, PingFang SC" font-size="30" font-weight="normal" line-spacing="70" fill="#000000">
                <tspan x="0" y="122">办事更便捷，领跑最多跑一次</tspan>
            </text>
        </g>
        <g id="Group-10" transform="translate(559.000000, 419.000000)" fill="#DAECFF">
            <path d="M42,15 L42,14.9499909 C43.1411202,14.7183558 44,13.709479 44,12.5 C44,11.290521 43.1411202,10.2816442 42,10.0500091 L42,10 L5,10 C2.23857625,10 3.38176876e-16,7.76142375 0,5 C-3.38176876e-16,2.23857625 2.23857625,5.07265313e-16 5,0 L61,0 C63.7614237,-5.07265313e-16 66,2.23857625 66,5 C66,7.76142375 63.7614237,10 61,10 L53,10 L53,10.0500091 C51.8588798,10.2816442 51,11.290521 51,12.5 C51,13.709479 51.8588798,14.7183558 53,14.9499909 L53,15 L93,15 C95.7614237,15 98,17.2385763 98,20 C98,22.7614237 95.7614237,25 93,25 L37,25 C34.2385763,25 32,22.7614237 32,20 C32,17.2385763 34.2385763,15 37,15 L42,15 Z" id="Combined-Shape"></path>
        </g>
        <g id="Group-10-Copy" transform="translate(50.000000, 624.000000)" fill="#DAECFF">
            <path d="M27,9.6 L27,9.5679942 C27.7335772,9.4197477 28.2857143,8.77406653 28.2857143,8 C28.2857143,7.22593347 27.7335772,6.5802523 27,6.4320058 L27,6.4 L3.2,6.4 C1.4326888,6.4 2.164332e-16,4.9673112 0,3.2 C-2.164332e-16,1.4326888 1.4326888,7.6873901e-16 3.2,4.4408921e-16 L39.2285714,-1.77635684e-15 C40.9958826,-2.10100664e-15 42.4285714,1.4326888 42.4285714,3.2 C42.4285714,4.9673112 40.9958826,6.4 39.2285714,6.4 L34.0714286,6.4 L34.0714286,6.4320058 C33.3378513,6.5802523 32.7857143,7.22593347 32.7857143,8 C32.7857143,8.77406653 33.3378513,9.4197477 34.0714286,9.5679942 L34.0714286,9.6 L59.8,9.6 C61.5673112,9.6 63,11.0326888 63,12.8 C63,14.5673112 61.5673112,16 59.8,16 L23.7714286,16 C22.0041174,16 20.5714286,14.5673112 20.5714286,12.8 C20.5714286,11.0326888 22.0041174,9.6 23.7714286,9.6 L27,9.6 Z" id="Combined-Shape"></path>
        </g>
        <path d="M143,336.114805 C143,327.978086 151.329102,318.057403 162.094727,318.057403 C169.27181,318.057403 173.907878,319.582071 176.00293,322.631407 C185.997721,303.821511 197.695638,296.736875 211.09668,301.3775 C231.198242,308.338438 233.238281,321.294493 233.238281,336.114805 C233.238281,336.114805 143,336.114805 143,336.114805 Z" id="Path-12" fill="url(#linearGradient-3)" transform="translate(188.119141, 318.057403) scale(-1, 1) translate(-188.119141, -318.057403) "></path>
        <g id="Group" transform="translate(294.000000, 690.000000)">
            <path d="M49.7050781,10.2753906 C46.3613281,12.8313802 45.2467448,16.0638021 46.3613281,19.9726562 C47.4759115,23.8815104 49.9736328,26.6998698 53.8544922,28.4277344 L53.8544922,33.6875 L59.5419922,31.0048828 L59.5419922,28.4277344 L64.0898438,26.5087891 L61.7470703,8.1015625 L49.7050781,10.2753906 Z" id="Path-2" fill="#FFC6A6"></path>
            <path d="M46.6298828,5.921875 C46.216035,3.13532755 49.4375,0.645507813 55.7636719,0.645507812 C62.0898437,0.645507812 67.1064453,1.4453125 70.0273437,5.921875 C72.9482422,10.3984375 73.8007812,13.7109375 78.671875,13.7109375 C83.5429687,13.7109375 90.3740234,14.5126953 94.3457031,17.9980469 C98.3173828,21.4833984 95.8779297,25.4794922 95.8779297,25.4794922 C95.8779297,25.4794922 94.781901,26.0345052 92.5898437,27.1445312 C86.109375,27.1445312 82.3867187,27.1445312 81.421875,27.1445312 C79.9746094,27.1445312 76.21875,30.9658203 73.1230469,30.9658203 C70.0273437,30.9658203 64.0175781,28.8095703 64.0175781,27.1445312 C64.0175781,25.4794922 57.7041016,25.3613281 57.7041016,21.6796875 C57.7041016,17.9980469 59.6445312,15.3828125 57.7041016,13.7109375 C55.7636719,12.0390625 47.0437306,8.70842245 46.6298828,5.921875 Z" id="Path" fill="url(#linearGradient-4)"></path>
            <path d="M28.7255859,15.7607422 L25.9814453,19.9169922 C24.8154297,29.0673828 25.7301432,34.7054036 28.7255859,36.8310547 C31.7210286,38.9567057 35.796875,40.0130208 40.953125,40 L43.6269531,50.1513672 C35.5221354,50.6090495 30.555013,50.0029297 28.7255859,48.3330078 C25.9814453,45.828125 21.9033203,35.1796875 21.9033203,30.5566406 C21.9033203,27.4746094 21.9033203,23.9280599 21.9033203,19.9169922 C20.8008626,16.072998 20.2496338,13.4869385 20.2496338,12.1588135 C20.2496338,10.166626 20.803833,9.078125 21.4537354,9.07861328 C22.1036377,9.07910156 21.7406006,12.5415039 22.5870361,13.7303467 C23.4334717,14.9191895 24.1033936,16.4276123 25.9814453,15.446167 C27.2334798,14.7918701 28.1481934,14.8967285 28.7255859,15.7607422 Z" id="Path-4" fill="url(#linearGradient-5)"></path>
            <path d="M70.7382812,35.5039062 C80.2584635,36.735026 85.9560547,38.6969401 87.8310547,41.3896484 C90.6435547,45.4287109 99.7460938,62.3164062 99.7460938,65.1464844 C99.7460938,67.9765625 98.8076172,72.8291016 96.7763672,74.2304688 C94.7451172,75.6318359 96.0634766,69.6103516 95.4042969,69.6103516 C94.9648438,69.6103516 93.703125,69.6103516 91.6191406,69.6103516 C94.1425781,66.6344401 95.4042969,65.1464844 95.4042969,65.1464844 C95.4042969,65.1464844 87.5693359,49.2519531 85.2421875,47.3242188 C82.9150391,45.3964844 74.1425781,42.8222656 70.7382812,42.8222656 C68.46875,42.8222656 65.296875,42.8222656 61.2226562,42.8222656 L70.7382812,35.5039062 Z" id="Path-5" fill="url(#linearGradient-5)"></path>
            <path d="M40.9228516,40 L45.4990234,40 C49.3616536,36.9830729 52.0579427,34.8658854 53.5878906,33.6484375 C55.8828125,31.8222656 59.125,31.7675781 62.3847656,31.7949219 C64.5579427,31.813151 67.4915365,32.4309896 71.1855469,33.6484375 L68,43.0683594 C73.1341146,55.6614583 76.2597656,63.5341797 77.3769531,66.6865234 C79.0527344,71.4150391 77.3925781,72.6982422 71.1855469,75.0556641 C67.047526,76.6272786 61.7535807,78.65625 55.3037109,81.1425781 L50.4541016,48.6982422 L43.3730469,53.1142578 L40.9228516,40 Z" id="Path-3" fill="url(#linearGradient-6)"></path>
            <path d="M11.5097656,141.605469 C16.4199219,127.54362 21.070638,116.688151 25.4619141,109.039062 C32.0488281,97.5654297 43.0957031,84.8310547 55.4414062,82.2011719 C63.671875,80.4479167 66.617513,84.4153646 64.2783203,94.1035156 C52.4073398,98.0957031 43.7420035,103.074219 38.2823115,109.039062 C30.0927734,117.986328 17.4082031,136.125977 17.4082031,141.605469 C17.4082031,145.258464 15.4420573,145.258464 11.5097656,141.605469 Z" id="Path-7" fill="url(#linearGradient-7)"></path>
            <path d="M55.8242188,82.7666016 C63.124349,94.9443359 70.9254557,102.112305 79.2275391,104.270508 C91.6806641,107.507812 101.915039,104.748047 110.676758,102.657227 C116.517904,101.263346 123.998047,99.7412109 133.117188,98.0908203 L135.373047,92.8232422 C118.135417,93.7818674 106.042643,94.26118 99.0947266,94.26118 C88.6728516,94.26118 81.4033203,88.5673828 79.2275391,82.7666016 C77.7770182,78.8994141 76.9912109,75.0045573 76.8701172,71.0820312 L55.8242188,80.3378906 L55.8242188,82.7666016 Z" id="Path-6" fill="url(#linearGradient-8)"></path>
            <path d="M131.920898,107.899414 C130.141366,107.899414 130.141366,104.643229 131.920898,98.1308594 C132.686523,94.2213542 133.577148,92.2666016 134.592773,92.2666016 C136.116211,92.2666016 137.728516,92.7626953 137.728516,94.6826172 C137.728516,96.6025391 134.590197,107.899414 131.920898,107.899414 Z" id="Path-8" fill="#22181A"></path>
            <path d="M0.495117188,143.600586 C0.495117188,141.508789 4.30566406,141.508789 7.49511719,141.508789 C9.62141927,141.508789 11.2236328,141.508789 12.3017578,141.508789 C14.0713538,141.675838 15.2022132,141.974991 15.6943359,142.40625 C16.1864587,142.837509 16.4084639,143.723902 16.3603516,145.06543 C12.7177734,145.06543 9.76269531,145.06543 7.49511719,145.06543 C4.09375,145.06543 0.495117188,145.692383 0.495117188,143.600586 Z" id="Path-9" fill="#22181A"></path>
        </g>
        <circle id="Oval-8" fill="#AEDDFC" cx="417.5" cy="412.5" r="42.5"></circle>
        <circle id="Oval-8-Copy" fill="#92F0EE" cx="233" cy="575" r="31"></circle>
        <g id="jinqian" transform="translate(417.500000, 413.000000) rotate(-24.000000) translate(-417.500000, -413.000000) translate(399.000000, 391.000000)" fill="#FFFFFF" fill-rule="nonzero">
            <path d="M2.05555558,16 L34.9444445,16 C36.0796964,16 37,16.8954305 37,18 C37,18.530433 36.7834332,19.0391408 36.3979417,19.4142136 C36.0124503,19.7892863 35.4896117,20 34.9444445,20 L2.05555558,20 C1.51038834,20 0.98754973,19.7892863 0.602058278,19.4142136 C0.216566826,19.0391408 -1.15002185e-08,18.530433 0,18 C6.16205728e-16,17.469567 0.216566843,16.9608592 0.602058294,16.5857864 C0.987549744,16.2107137 1.51038835,16 2.05555558,16 Z M2.05555558,28 L34.9444445,28 C36.0796964,28 37,28.8954305 37,30 C37,30.530433 36.7834332,31.0391408 36.3979417,31.4142136 C36.0124503,31.7892863 35.4896117,32 34.9444445,32 L2.05555558,32 C1.51038834,32 0.98754973,31.7892863 0.602058278,31.4142136 C0.216566826,31.0391408 -1.15002185e-08,30.530433 0,30 C6.16205728e-16,29.469567 0.216566843,28.9608592 0.602058294,28.5857864 C0.987549744,28.2107137 1.51038835,28 2.05555558,28 Z" id="Shape"></path>
            <path d="M18,16 C18.530433,16 19.0391408,16.2107137 19.4142136,16.5857864 C19.7892863,16.9608592 20,17.469567 20,18 L20,42 C20,43.1045695 19.1045695,44 18,44 C17.469567,44 16.9608592,43.7892863 16.5857864,43.4142136 C16.2107137,43.0391408 16,42.530433 16,42 L16,18 C16,17.469567 16.2107137,16.9608592 16.5857864,16.5857864 C16.9608592,16.2107137 17.469567,16 18,16 Z" id="Shape"></path>
            <path d="M0.619876664,0.576995998 C1.43724138,-0.192331999 2.75731598,-0.192331999 3.5746807,0.576995998 L18.3906131,14.6252571 C19.203129,15.3991763 19.203129,16.6490848 18.3906131,17.423004 C17.5732484,18.192332 16.2531738,18.192332 15.4358091,17.423004 L0.619876664,3.39458508 C0.223151988,3.02201528 0,2.51485745 0,1.98579054 C0,1.45672363 0.223151988,0.949565801 0.619876664,0.576995998 Z" id="Shape"></path>
            <path d="M35.3800136,0.58170844 C36.2066621,1.38880774 36.2066621,2.69230335 35.3800136,3.49940264 L20.6261854,18.3982666 C19.7946037,19.2005778 18.4515681,19.2005778 17.6199863,18.3982666 C16.7933379,17.5911673 16.7933379,16.2876717 17.6199863,15.4805724 L32.352494,0.643787062 C32.7442301,0.243722952 33.2844002,0.012119724 33.8529258,0.000462231489 C34.4214514,-0.0111952611 34.971218,0.198059056 35.3800136,0.58170844 Z" id="Shape"></path>
        </g>
        <g id="yisheng-5" transform="translate(231.805028, 576.265904) rotate(-330.000000) translate(-231.805028, -576.265904) translate(215.805028, 559.765904)" fill="#FFFFFF" fill-rule="nonzero">
            <path d="M27.029661,20.8004857 C24.7265719,20.8004857 22.8568938,22.7796719 22.8568938,25.2124216 C22.8568938,26.2876526 23.2396875,27.2645586 23.8470956,28.0289558 C22.6259522,29.2722907 20.977725,30.0049702 19.1997908,30.0049702 C16.0108982,30.0049702 13.4895218,27.7783857 12.8789502,25.5486295 C18.491148,24.885729 22.863221,20.5086826 22.863221,15.1674173 L22.863221,1.22430428 C22.863221,0.548716686 22.3190846,0.00317177275 21.6452412,0.00317177275 L16.4095098,0.00317177275 C15.7356664,0.00317177275 15.19153,0.548716686 15.19153,1.22430428 C15.19153,1.89989188 15.7356664,2.44543679 16.4095098,2.44543679 L20.4240978,2.44543679 L20.4240978,15.1674173 C20.4240978,19.6205862 16.3905283,23.2395789 11.4300287,23.2395789 C6.47269271,23.2395789 2.4391232,19.6174145 2.4391232,15.1674173 L2.4391232,2.44543679 L6.51065571,2.44543679 C7.18449909,2.44543679 7.72863552,1.89989188 7.72863552,1.22430428 C7.72863552,0.548716686 7.18133551,0 6.50749213,0 L1.21797981,0 C0.544136435,0 0,0.545544913 0,1.22113251 L0,15.1642455 C0,20.6323817 4.57454235,25.0855507 10.3797189,25.583519 C11.0345807,29.380131 14.9510976,32.4472352 19.1966272,32.4472352 C21.7844389,32.4472352 24.1792719,31.333943 25.8812801,29.4277076 C26.2482558,29.5387196 26.6278859,29.6180139 27.029661,29.6180139 C29.3295866,29.6180139 31.1992647,27.6388277 31.1992647,25.2092498 C31.1992647,22.7796719 29.3295866,20.8004857 27.029661,20.8004857 Z M26.6927042,27.6146683 C25.7374956,27.6146683 24.9594117,26.6860137 24.9594117,25.5435682 C24.9594117,24.4011226 25.7374956,23.472468 26.6927042,23.472468 C27.6479128,23.472468 28.4259967,24.4011226 28.4259967,25.5435682 C28.4228337,26.6860137 27.6447499,27.6146683 26.6927042,27.6146683 Z" id="Shape"></path>
        </g>
    </g>
</svg>