<?xml version="1.0" encoding="UTF-8"?>
<svg width="750px" height="1334px" viewBox="0 0 750 1334" version="1.1" xmlns="http://www.w3.org/2000/svg" xmlns:xlink="http://www.w3.org/1999/xlink">
    <!-- Generator: Sketch 51.3 (57544) - http://www.bohemiancoding.com/sketch -->
    <title>03</title>
    <desc>Created with Sketch.</desc>
    <defs>
        <linearGradient x1="50%" y1="0%" x2="50%" y2="100%" id="linearGradient-1">
            <stop stop-color="#EEF8FF" offset="0%"></stop>
            <stop stop-color="#FFFFFF" stop-opacity="0" offset="100%"></stop>
        </linearGradient>
        <linearGradient x1="3.7578125%" y1="50%" x2="100%" y2="50%" id="linearGradient-2">
            <stop stop-color="#4E8DFF" offset="0%"></stop>
            <stop stop-color="#35BAFD" offset="100%"></stop>
        </linearGradient>
        <linearGradient x1="62.6607073%" y1="100%" x2="62.6607073%" y2="11.6193042%" id="linearGradient-3">
            <stop stop-color="#EDF3FB" offset="0%"></stop>
            <stop stop-color="#D6E3F6" offset="100%"></stop>
        </linearGradient>
        <linearGradient x1="50%" y1="0%" x2="50%" y2="100%" id="linearGradient-4">
            <stop stop-color="#C0E1FC" offset="0%"></stop>
            <stop stop-color="#75B6F1" offset="100%"></stop>
        </linearGradient>
        <linearGradient x1="50%" y1="0%" x2="50%" y2="100%" id="linearGradient-5">
            <stop stop-color="#72C1FF" offset="0%"></stop>
            <stop stop-color="#057DE8" offset="100%"></stop>
        </linearGradient>
        <filter x="-12.5%" y="-27.3%" width="125.0%" height="154.5%" filterUnits="objectBoundingBox" id="filter-6">
            <feGaussianBlur stdDeviation="1" in="SourceGraphic"></feGaussianBlur>
        </filter>
        <filter x="-12.5%" y="-27.3%" width="125.0%" height="154.5%" filterUnits="objectBoundingBox" id="filter-7">
            <feGaussianBlur stdDeviation="1" in="SourceGraphic"></feGaussianBlur>
        </filter>
        <linearGradient x1="50%" y1="0%" x2="50%" y2="100%" id="linearGradient-8">
            <stop stop-color="#334867" offset="0%"></stop>
            <stop stop-color="#11223A" offset="100%"></stop>
        </linearGradient>
        <linearGradient x1="50%" y1="0%" x2="50%" y2="100%" id="linearGradient-9">
            <stop stop-color="#687D97" offset="0%"></stop>
            <stop stop-color="#253B5B" offset="100%"></stop>
        </linearGradient>
        <linearGradient x1="50%" y1="0%" x2="50%" y2="100%" id="linearGradient-10">
            <stop stop-color="#FAC0A0" offset="0%"></stop>
            <stop stop-color="#FABE9D" offset="100%"></stop>
        </linearGradient>
        <linearGradient x1="50%" y1="0%" x2="50%" y2="100%" id="linearGradient-11">
            <stop stop-color="#FAEECF" offset="0%"></stop>
            <stop stop-color="#F4D04D" offset="100%"></stop>
        </linearGradient>
        <linearGradient x1="50%" y1="0%" x2="50%" y2="100%" id="linearGradient-12">
            <stop stop-color="#FDE8D9" offset="0%"></stop>
            <stop stop-color="#F6CDB7" offset="100%"></stop>
        </linearGradient>
        <linearGradient x1="50%" y1="3.43208092%" x2="50%" y2="98.3313764%" id="linearGradient-13">
            <stop stop-color="#7C5B64" offset="0%"></stop>
            <stop stop-color="#4D3940" offset="100%"></stop>
        </linearGradient>
        <linearGradient x1="62.6607073%" y1="100%" x2="62.6607073%" y2="11.6193042%" id="linearGradient-14">
            <stop stop-color="#EDF3FB" offset="0%"></stop>
            <stop stop-color="#C2DBFF" offset="100%"></stop>
        </linearGradient>
        <linearGradient x1="50%" y1="100%" x2="50%" y2="0%" id="linearGradient-15">
            <stop stop-color="#B8D9FF" offset="0%"></stop>
            <stop stop-color="#65B2FE" offset="100%"></stop>
        </linearGradient>
        <linearGradient x1="50%" y1="100%" x2="50%" y2="0%" id="linearGradient-16">
            <stop stop-color="#B8D9FE" offset="0%"></stop>
            <stop stop-color="#68B3FE" offset="100%"></stop>
        </linearGradient>
    </defs>
    <g id="03" stroke="none" stroke-width="1" fill="none" fill-rule="evenodd">
        <rect fill="#FFFFFF" x="0" y="0" width="750" height="1334"></rect>
        <g id="Group-3" opacity="0.3" transform="translate(-211.000000, 318.000000)" stroke="#56A4EE" stroke-width="2">
            <path d="M484.089365,25.0686059 C452.597564,40.7634821 425.040813,63.1758618 403.295442,90.4294158 M372.044265,141.578221 C358.523342,171.611136 351,204.926983 351,240 C351,254.451801 352.277346,268.605261 354.725296,282.35364 M432.660999,420.361455 C474.917669,457.48797 530.329851,480 591,480 M686.200527,460.37747 C771.390724,423.526375 831,338.724434 831,240 C831,217.667131 827.949622,196.046715 822.242781,175.532667 M733.931706,47.1846108 C694.0046,17.5384403 644.550461,0 591,0" id="Oval-5"></path>
            <path d="M693.81398,349.221853 C722.863404,321.866444 741,283.051236 741,240 C741,157.157288 673.842712,90 591,90 C508.157288,90 441,157.157288 441,240 C441,291.437271 466.890495,336.827492 506.350635,363.849814" id="Oval-5-Copy"></path>
        </g>
        <g id="Group-9-Copy" transform="translate(-182.000000, 789.000000)" fill="url(#linearGradient-1)">
            <ellipse id="Oval-2" cx="557" cy="324.5" rx="557" ry="313.5"></ellipse>
        </g>
        <g id="Group" transform="translate(219.000000, 1141.000000)">
            <rect id="Rectangle-7" fill="url(#linearGradient-2)" x="0" y="0" width="312" height="73" rx="36.5"></rect>
            <text id="立即体验" font-family="PingFangSC-Regular, PingFang SC" font-size="40" font-weight="normal" fill="#FFFFFF">
                <tspan x="76" y="51">立即体验</tspan>
            </text>
        </g>
        <g id="字" transform="translate(225.000000, 914.000000)">
            <text id="全流程就医服务" font-family="PingFangSC-Medium, PingFang SC" font-size="40" font-weight="400" fill="#339FFF">
                <tspan x="10" y="42">全流程就医服务</tspan>
            </text>
            <text id="挂号引导结算样样在行" opacity="0.45" font-family="PingFangSC-Regular, PingFang SC" font-size="30" font-weight="normal" line-spacing="70" fill="#000000">
                <tspan x="0" y="122">挂号引导结算样样在行</tspan>
            </text>
        </g>
        <g id="Group-10" transform="translate(104.000000, 413.000000)" fill="#DAECFF">
            <path d="M42,15 L42,14.9499909 C43.1411202,14.7183558 44,13.709479 44,12.5 C44,11.290521 43.1411202,10.2816442 42,10.0500091 L42,10 L5,10 C2.23857625,10 3.38176876e-16,7.76142375 0,5 C-3.38176876e-16,2.23857625 2.23857625,5.07265313e-16 5,0 L61,0 C63.7614237,-5.07265313e-16 66,2.23857625 66,5 C66,7.76142375 63.7614237,10 61,10 L53,10 L53,10.0500091 C51.8588798,10.2816442 51,11.290521 51,12.5 C51,13.709479 51.8588798,14.7183558 53,14.9499909 L53,15 L93,15 C95.7614237,15 98,17.2385763 98,20 C98,22.7614237 95.7614237,25 93,25 L37,25 C34.2385763,25 32,22.7614237 32,20 C32,17.2385763 34.2385763,15 37,15 L42,15 Z" id="Combined-Shape"></path>
        </g>
        <g id="Group-10-Copy" transform="translate(652.000000, 801.000000)" fill="#DAECFF">
            <path d="M27,9.6 L27,9.5679942 C27.7335772,9.4197477 28.2857143,8.77406653 28.2857143,8 C28.2857143,7.22593347 27.7335772,6.5802523 27,6.4320058 L27,6.4 L3.2,6.4 C1.4326888,6.4 2.164332e-16,4.9673112 0,3.2 C-2.164332e-16,1.4326888 1.4326888,7.6873901e-16 3.2,4.4408921e-16 L39.2285714,-1.77635684e-15 C40.9958826,-2.10100664e-15 42.4285714,1.4326888 42.4285714,3.2 C42.4285714,4.9673112 40.9958826,6.4 39.2285714,6.4 L34.0714286,6.4 L34.0714286,6.4320058 C33.3378513,6.5802523 32.7857143,7.22593347 32.7857143,8 C32.7857143,8.77406653 33.3378513,9.4197477 34.0714286,9.5679942 L34.0714286,9.6 L59.8,9.6 C61.5673112,9.6 63,11.0326888 63,12.8 C63,14.5673112 61.5673112,16 59.8,16 L23.7714286,16 C22.0041174,16 20.5714286,14.5673112 20.5714286,12.8 C20.5714286,11.0326888 22.0041174,9.6 23.7714286,9.6 L27,9.6 Z" id="Combined-Shape"></path>
        </g>
        <path d="M435,267.622628 C435,259.485909 443.329102,249.565225 454.094727,249.565225 C461.27181,249.565225 465.907878,251.089893 468.00293,254.13923 C477.997721,235.329334 489.695638,228.244698 503.09668,232.885323 C523.198242,239.846261 525.238281,252.802315 525.238281,267.622628 C525.238281,267.622628 435,267.622628 435,267.622628 Z" id="Path-12" fill="url(#linearGradient-3)"></path>
        <g id="Group-18" transform="translate(418.000000, 632.500000) scale(-1, 1) translate(-418.000000, -632.500000) translate(311.000000, 484.000000)">
            <g id="Group-17" transform="translate(94.000000, 0.000000)">
                <path d="M8.99080301,4.7934333 C14.5089992,1.83023797 18.6075949,0.348640305 21.2865902,0.348640305 C23.9655854,0.348640305 27.064379,1.08943914 30.5829707,2.5710368 L102.84909,41.6365539 C108.935918,45.4671465 113.182358,49.1612502 115.58841,52.7188649 C117.994462,56.2764796 119.434335,59.8484355 119.90803,63.4347327 L119.90803,280.955128 C119.495649,284.502852 118.055775,287.002183 115.58841,288.45312 C113.121044,289.904057 108.086926,292.082935 100.486056,294.989755 L102.84909,266.407184 L98.4745847,58.9068594 L21.2865902,20.4288383 L8.99080301,4.7934333 Z" id="Path-35" fill="url(#linearGradient-4)"></path>
                <path d="M0.369363133,16.6768752 C2.1197587,9.06217531 5.35700158,5.25482537 10.0810918,5.25482537 C14.805182,5.25482537 18.2753165,6.10639786 20.4914953,7.80954284 L97.069818,50.7679628 C105.078125,57.1987692 109.082278,64.2714694 109.082278,71.9860634 C109.082278,79.7006574 109.082278,149.236348 109.082278,280.593136 C109.065467,286.589749 107.568236,290.768487 104.590585,293.129351 C101.612935,295.490214 97.3313884,296.514376 91.7459454,296.201836 L12.5242286,250.41127 C7.54598497,245.221722 4.27561313,241.077106 2.71311313,237.977422 C1.15061313,234.877737 0.369363133,231.875969 0.369363133,228.972117 L0.369363133,16.6768752 Z" id="Path-33" fill="url(#linearGradient-5)"></path>
                <polygon id="Path-34" fill="#E2F2FF" points="14.1826543 36.4603581 90.5117682 80.3519471 90.5117682 252.482342 14.1826543 208.915656"></polygon>
                <path d="M39.3327705,40.9939986 C40.3374342,40.9939986 41.1518751,39.8423734 41.1518751,38.4217717 C41.1518751,37.00117 40.3374342,35.8495449 39.3327705,35.8495449 C38.3281067,35.8495449 37.5136658,37.00117 37.5136658,38.4217717 C37.5136658,39.8423734 38.3281067,40.9939986 39.3327705,40.9939986 Z" id="Oval-9" fill="#FFFFFF" transform="translate(39.332770, 38.421772) rotate(5.000000) translate(-39.332770, -38.421772) "></path>
                <path d="M47.1298142,39.044655 C45.8531751,38.8623606 44.9429941,39.2381998 44.3992713,40.1721725 C43.5836871,41.5731317 44.0669928,42.9327361 45.3996298,43.8341011 C46.2880544,44.4350111 55.3919347,49.5642889 72.7112707,59.2219345 C73.8799935,59.4921307 74.7640607,59.0727115 75.3634723,57.9636768 C76.2625897,56.3001247 75.3965703,54.8354645 74.7583435,54.4437078 C74.3328589,54.1825366 65.1233491,49.049519 47.1298142,39.044655 Z" id="Path-36" fill="#FFFFFF"></path>
                <path d="M32.7070364,87.0571898 C30.7870544,86.8237246 29.4182016,87.3050634 28.600478,88.5012061 C27.3738926,90.2954202 28.1007529,92.0366712 30.1049519,93.191053 C31.4410846,93.9606409 45.1327264,100.529728 71.1798773,112.898314 C72.9375602,113.244355 74.2671395,112.707203 75.1686154,111.286858 C76.5208293,109.15634 75.2183927,107.280544 74.2585412,106.77882 C73.6186402,106.444337 59.7681386,99.87046 32.7070364,87.0571898 Z" id="Path-36-Copy" fill="#FFFFFF"></path>
                <path d="M32.7070364,107.070387 C30.7870544,106.783046 29.4182016,107.375463 28.600478,108.847638 C27.3738926,111.055902 28.1007529,113.19898 30.1049519,114.619758 C31.4410846,115.566943 45.1327264,123.651973 71.1798773,138.874848 C72.9375602,139.300745 74.2671395,138.639635 75.1686154,136.891518 C76.5208293,134.269342 75.2183927,131.96067 74.2585412,131.343163 C73.6186402,130.931491 59.7681386,122.840566 32.7070364,107.070387 Z" id="Path-36-Copy-2" fill="#FFFFFF"></path>
                <path d="M30.0027655,134.070387 C27.9621568,133.783046 26.507303,134.375463 25.6382043,135.847638 C24.3345561,138.055902 25.1070829,140.19898 27.2371998,141.619758 C28.6572777,142.566943 43.2091248,150.651973 70.8927411,165.874848 C72.7608539,166.300745 74.1739668,165.639635 75.1320798,163.891518 C76.5692492,161.269342 75.1849844,158.96067 74.1648283,158.343163 C73.4847242,157.931491 58.7640366,149.840566 30.0027655,134.070387 Z" id="Path-36-Copy-3" fill="#FFFFFF"></path>
            </g>
        </g>
        <g id="Group-9" transform="translate(435.000000, 743.000000) scale(-1, 1) translate(-435.000000, -743.000000) translate(404.000000, 632.000000)">
            <g id="Group-8" transform="translate(4.000000, 197.000000)" fill="#C3D3DD" opacity="0.5796875">
                <ellipse id="Oval-3" filter="url(#filter-6)" cx="12" cy="5.5" rx="12" ry="5.5"></ellipse>
                <ellipse id="Oval-3-Copy" filter="url(#filter-7)" cx="43" cy="19.5" rx="12" ry="5.5"></ellipse>
            </g>
            <g id="Group-16">
                <path d="M14.9580078,129.34375 C14.9580078,152.738281 14.9580078,166.360026 14.9580078,170.208984 C14.9580078,174.057943 14.3613281,183.832682 13.1679688,199.533203 C15.5813802,201 17.2164714,201 18.0732422,199.533203 C19.3583984,197.333008 21.6865234,186.09082 21.6865234,184.167969 C21.6865234,182.886068 23.8476562,171.112305 28.1699219,148.84668 L21.6865234,131.206055 L14.9580078,129.34375 Z" id="Path-30" fill="url(#linearGradient-8)"></path>
                <path d="M15.4619141,129.179688 C15.9690755,138.465495 18.8014323,144.762044 23.9589844,148.069336 C31.6953125,153.030273 30.5761719,153.567383 33.6337891,157.979492 C36.6914062,162.391602 42.5556641,178.046875 42.5556641,187.09375 C42.5556641,193.125 43.1770833,202.790365 44.4199219,216.089844 C48.3645833,214.798177 50.3369141,214.152344 50.3369141,214.152344 C50.3369141,214.152344 51.8925781,168.550781 51.8925781,164.749023 C51.8925781,160.947266 50.3369141,150.868164 50.3369141,148.069336 C50.3369141,146.203451 48.8251953,141.111003 45.8017578,132.791992 L15.4619141,129.179688 Z" id="Path-29" fill="url(#linearGradient-9)"></path>
                <path d="M4.35839844,74.0742187 C2.04394531,63.5501302 0.88671875,56.523763 0.88671875,52.9951172 C0.88671875,47.7021484 0.88671875,34.3916016 2.62255859,28.3154297 C3.77978516,24.2646484 5.10123698,20.3167318 6.58691406,16.4716797 C6.14550781,12.7561849 6.60807292,9.50260417 7.97460938,6.7109375 C9.34114583,3.91927083 9.97786458,1.69824219 9.88476563,0.0478515625 C10.5460612,-0.0369466146 11.0512695,0.626383464 11.4003906,2.0378418 C11.9240723,4.1550293 10.1699219,8.00170898 12.3818359,8.40209961 C14.59375,8.80249023 13.3637695,4.53125 15.0458984,5.91210938 C16.7280273,7.29296875 15.7719727,8.41772461 15.0458984,10.2460938 C14.561849,11.4650065 13.3466797,14.0864258 11.4003906,18.1103516 C10.389974,22.4397786 9.88476563,25.8414714 9.88476563,28.3154297 C9.88476563,30.789388 9.88476563,39.0159505 9.88476563,52.9951172 L7.97460938,66.953125 L4.35839844,74.0742187 Z" id="Path-27" fill="url(#linearGradient-10)"></path>
                <path d="M45.7636719,65.5478516 C49.7389323,53.6383464 51.7265625,45.9547526 51.7265625,42.4970703 C51.7265625,39.039388 51.7265625,35.8961589 51.7265625,33.0673828 C47.7513021,27.773112 45.7636719,24.4645182 45.7636719,23.1416016 C45.7636719,21.8186849 46.757487,21.8186849 48.7451172,23.1416016 C51.7645485,26.3881836 54.1148089,28.0114746 55.7958984,28.0114746 C58.3175328,28.0114746 56.2429199,23.1416016 58.4003906,23.1416016 C60.5578613,23.1416016 62.4335937,27.7197266 61.1181641,30.3935547 C59.8027344,33.0673828 58.4003906,48.5996094 58.4003906,56.296875 C58.4003906,61.4283854 56.8068843,68.5130208 53.6198718,77.5507812 L45.7636719,68.4150391 L45.7636719,65.5478516 Z" id="Path-28" fill="url(#linearGradient-10)"></path>
                <path d="M6.28515625,68.3876953 C4.37109375,71.5400391 3.73307292,73.8968099 4.37109375,75.4580078 C5.328125,77.7998047 11.5712891,89.8613281 11.5712891,93.5976562 C11.5712891,96.0885417 11.5712891,106.800456 11.5712891,125.733398 C17.3486328,131.266602 22.5009766,134.033203 27.0283203,134.033203 C31.5556641,134.033203 38.0452474,134.033203 46.4970703,134.033203 C44.2835286,108.099609 43.7301432,94.6210938 44.8369141,93.5976562 C45.9436849,92.5742188 49.6946615,87.1666667 56.0898438,77.375 L44.8369141,64.6289062 C41.9755859,72.0996094 39.7877604,76.3483073 38.2734375,77.375 C36.0019531,78.9150391 30.5458984,80.1835938 27.0283203,80.1835938 C24.6832682,80.1835938 22.5211589,78.6083984 20.5419922,75.4580078 L13.2939453,66.9736328 L6.28515625,68.3876953 Z" id="Path-26" fill="url(#linearGradient-11)"></path>
                <path d="M32.4287109,54.0957031 C34.3258464,59.1061198 35.2744141,62.4817708 35.2744141,64.2226562 C35.2744141,66.8339844 36.9921875,72.4111328 33.8515625,74.3613281 C30.7109375,76.3115234 25.8378906,77.4316406 23.5419922,75.8964844 C22.0113932,74.8730469 19.4287109,70.9817708 15.7939453,64.2226562 L21.4130859,51.7480469 L32.4287109,54.0957031 Z" id="Path-25" fill="url(#linearGradient-12)"></path>
                <path d="M23.6348703,76.614529 C11.2116234,74.7898895 5,70.0760694 5,62.4730689 C5,51.068568 14.1024333,44.8476562 20.6930664,44.8476562 C25.0868218,44.8476562 29.7321017,47.3188163 34.6289063,52.2611363 C27.2995489,55.9614917 23.6348703,58.8661296 23.6348703,60.9750499 C23.6348703,64.1384304 27.8914931,69.0276578 27.8914931,69.0276578 C27.8914931,69.0276578 26.4726188,71.5566149 23.6348703,76.614529 Z" id="Path-24" fill="url(#linearGradient-13)"></path>
                <path d="M58.59375,208.526367 C60.7675781,208.526367 61.9875488,210.370361 59.8623047,211.922607 C57.7370605,213.474854 54.315918,216.084473 52.0878906,217.488281 C49.8598633,218.89209 47.0933907,219.031178 45.2587891,217.827393 C43.4241874,216.623607 44.1328125,214.55957 45.2587891,213.007324 C46.3847656,211.455078 56.4199219,208.526367 58.59375,208.526367 Z" id="Path-31" fill="#171A24"></path>
                <path d="M13.1401367,199.359619 C15.8020833,197.201742 18.0327962,195.527588 19.8322754,194.337158 C22.5314941,192.551514 26.9221191,191.285645 28.3442383,192.701904 C29.7663574,194.118164 23.923584,198.609375 21.9833984,199.866211 C20.0432129,201.123047 15.5885059,203.106934 14.2788086,203.106934 C13.405677,203.106934 13.0261197,201.857829 13.1401367,199.359619 Z" id="Path-32" fill="#171A24"></path>
            </g>
        </g>
        <circle id="Oval-10" fill="#93EFDC" cx="575.5" cy="425.5" r="55.5"></circle>
        <circle id="Oval-10-Copy" fill="#FFD49F" cx="324" cy="317" r="38"></circle>
        <circle id="Oval-10-Copy-2" fill="#97E3FC" cx="174.5" cy="676.5" r="59.5"></circle>
        <g id="WD_icon_yongyaozhidao" transform="translate(323.500136, 317.000000) rotate(-25.000000) translate(-323.500136, -317.000000) translate(308.000136, 297.000000)" fill="#FFFFFF" fill-rule="nonzero">
            <path d="M21.1365388,9.15510384 L9.00975227,9.15510384 L3.4121462,15.0877013 C2.26894802,16.2991096 1.63208592,17.9016972 1.63195513,19.5673401 L1.63195513,33.639988 C1.63195513,35.8934068 3.45865689,37.7198047 5.71184296,37.7198048 L24.3808656,37.7198048 C26.6343236,37.7198048 28.4607534,35.8934068 28.4607534,33.639988 L28.4607534,19.5515648 C28.4607392,17.8937199 27.8299233,16.2979885 26.6963379,15.0882453 L21.1365388,9.15510384 Z M2.22489885,13.9676557 L8.30556361,7.52317713 L21.8437193,7.52317713 L27.8868492,13.9720075 C29.3039869,15.4841683 30.0926332,17.4788933 30.0927085,19.5512929 L30.0927085,33.64026 C30.0927085,36.7947743 27.5351629,39.3520034 24.3808656,39.3520035 L5.71184296,39.3520035 C2.5572737,39.3520035 3.85145658e-08,36.7947743 0,33.64026 L0,19.5676121 C-3.2557503e-05,17.4854641 0.795928356,15.4820713 2.22489885,13.9676557 Z" id="Shape"></path>
            <path d="M1.15741187,20.7409805 L1.15741187,19.0972958 L28.3565907,19.0972958 L28.3565907,20.7409805 L1.15741187,20.7409805 Z M10.2001825,28.9352967 C9.75549315,28.9351981 9.39505241,28.5672756 9.39505241,28.1134543 C9.39505241,27.659633 9.75549315,27.2917106 10.2001825,27.291612 L19.3269734,27.291612 C19.7716627,27.2917106 20.1321035,27.659633 20.1321035,28.1134543 C20.1321035,28.5672756 19.7716627,28.9351981 19.3269734,28.9352967 L10.2001825,28.9352967 Z" id="Shape"></path>
            <path d="M14.236166,22.9823379 C14.2362632,22.5344257 14.5989684,22.1713728 15.0463543,22.1713728 C15.4937402,22.1713728 15.8564454,22.5344257 15.8565426,22.9823379 L15.8565426,32.1752731 C15.8564454,32.6231852 15.4937402,32.9862382 15.0463543,32.9862382 C14.5989684,32.9862382 14.2362632,32.6231852 14.236166,32.1752731 L14.236166,22.9823379 Z M4.51390629,1.62228268 L4.51390629,7.30027204 L25.5788022,7.30027204 L25.5788022,1.62228268 L4.51390629,1.62228268 Z M3.97378075,0 L26.1189278,0 C26.715534,3.6574566e-17 27.1991789,0.484213798 27.1991789,1.08152179 L27.1991789,7.84103293 C27.1991789,8.43834092 26.715534,8.92255472 26.1189278,8.92255472 L3.97378075,8.92255472 C3.37717455,8.92255472 2.89352967,8.43834092 2.89352967,7.84103293 L2.89352967,1.08152179 C2.89352967,0.484213798 3.37717455,1.09723698e-16 3.97378075,0 Z" id="Shape"></path>
            <path d="M13.9716147,0.578705933 L15.6014395,0.578705933 L15.6014395,7.52317713 L13.9716147,7.52317713 L13.9716147,0.578705933 Z M10.16869,0.578705933 L11.7985148,0.578705933 L11.7985148,7.52317713 L10.16869,7.52317713 L10.16869,0.578705933 Z M6.36576527,0.578705933 L7.99559011,0.578705933 L7.99559011,7.52317713 L6.36576527,7.52317713 L6.36576527,0.578705933 Z M18.0461768,0.578705933 L19.6760017,0.578705933 L19.6760017,7.52317713 L18.0461768,7.52317713 L18.0461768,0.578705933 Z" id="Shape"></path>
            <path d="M17.9398839,0.578705933 L19.50239,0.578705933 L19.50239,7.52317713 L17.9398839,7.52317713 L17.9398839,0.578705933 Z M21.5857313,0.578705933 L23.1482373,0.578705933 L23.1482373,7.52317713 L21.5857313,7.52317713 L21.5857313,0.578705933 Z" id="Shape"></path>
        </g>
        <g id="Group-3" transform="translate(506.000000, 738.000000)">
            <rect id="Rectangle-6" fill="#83C0FE" x="0" y="56" width="97" height="56"></rect>
            <rect id="Rectangle" fill="#ABE0F8" x="16" y="30" width="64" height="86"></rect>
            <g id="Group-2" transform="translate(25.000000, 55.000000)" fill="#FFFFFF">
                <rect id="Rectangle-4" x="0" y="0" width="10.4444444" height="10"></rect>
                <rect id="Rectangle-4-Copy" x="12.1851852" y="0" width="10.4444444" height="10"></rect>
                <rect id="Rectangle-4-Copy-2" x="24.3703704" y="0" width="10.4444444" height="10"></rect>
                <rect id="Rectangle-4-Copy-3" x="36.5555556" y="0" width="10.4444444" height="10"></rect>
            </g>
            <g id="Group-2-Copy" transform="translate(25.000000, 66.000000)" fill="#FFFFFF">
                <rect id="Rectangle-4" x="0" y="0" width="10.4444444" height="10"></rect>
                <rect id="Rectangle-4-Copy" x="12.1851852" y="0" width="10.4444444" height="10"></rect>
                <rect id="Rectangle-4-Copy-2" x="24.3703704" y="0" width="10.4444444" height="10"></rect>
                <rect id="Rectangle-4-Copy-3" x="36.5555556" y="0" width="10.4444444" height="10"></rect>
            </g>
            <rect id="Rectangle-5" fill="#5D9EBF" x="37" y="84" width="22" height="22"></rect>
            <circle id="Oval" fill="#83C0FE" cx="47" cy="24" r="24"></circle>
            <rect id="Rectangle-3" fill="#FFFFFF" x="34" y="20" width="28" height="9" rx="4.5"></rect>
            <rect id="Rectangle-3-Copy" fill="#FFFFFF" transform="translate(48.000000, 24.500000) rotate(90.000000) translate(-48.000000, -24.500000) " x="34" y="20" width="28" height="9" rx="4.5"></rect>
        </g>
        <g id="Group-7" transform="translate(179.500000, 817.000000) scale(-1, 1) translate(-179.500000, -817.000000) translate(115.000000, 787.000000)">
            <path d="M0,59.6278655 C0,47.9960314 11.9068547,33.8139328 27.2968378,33.8139328 C37.5568265,33.8139328 44.1843102,35.9935197 47.1792888,40.3526935 C61.4673283,13.463035 78.1900675,3.33520503 97.3475066,9.96920356 C126.083665,19.9202014 129,38.44151 129,59.6278655 C129,59.6278655 0,59.6278655 0,59.6278655 Z" id="Path-12-Copy" fill="url(#linearGradient-14)"></path>
            <g id="Group-5" transform="translate(51.000000, 0.000000)">
                <polygon id="Triangle" fill="url(#linearGradient-15)" points="17 0 34 41 0 41"></polygon>
                <rect id="Rectangle-4" fill="#D8D8D8" x="15" y="41" width="4" height="19"></rect>
            </g>
            <g id="Group-6" transform="translate(83.000000, 15.000000)">
                <rect id="Rectangle-4-Copy" fill="#D8D8D8" x="12" y="26" width="4" height="19"></rect>
                <circle id="Oval-4" fill="url(#linearGradient-16)" cx="14" cy="14" r="14"></circle>
            </g>
        </g>
        <g id="jiesuan-4" transform="translate(575.188063, 422.601924) rotate(23.000000) translate(-575.188063, -422.601924) translate(544.688063, 391.601924)" fill="#FFFFFF" fill-rule="nonzero">
            <path d="M51.5461718,39.812769 C51.7835017,39.9390908 52.0378782,40 52.2906201,40 C52.8390709,40 53.3696967,39.7140013 53.6520173,39.2106986 C57.1257206,33.0005506 57.9273025,25.845317 55.9116719,19.066301 C51.7448937,5.05641104 36.7191636,-3.01963605 22.4147637,1.05708548 C11.377717,4.21253556 3.57743284,13.9021434 3.00204992,25.1685984 C2.95838247,26.0082759 3.61767545,26.7214789 4.47218757,26.7635353 C5.31580235,26.8215441 6.05729287,26.1616177 6.09917004,25.3226271 C6.60901288,15.3483182 13.5131412,6.77026592 23.2801733,3.97683658 C35.9421008,0.369833748 49.2449514,7.51682398 52.9327887,19.9178092 C54.7175499,25.9184386 54.0055603,32.2507868 50.9302349,37.749411 C50.5194028,38.484062 50.7939395,39.4085392 51.5461718,39.812769 Z" id="Shape"></path>
            <path d="M37.4907334,21.2772875 C38.3222436,21.2772875 38.997052,20.5818591 38.997052,19.725234 C38.997052,18.868531 38.3222436,18.1731026 37.4907334,18.1731026 L32.8496212,18.1731026 L37.0738444,12.4966272 C37.579705,11.8168588 37.4545249,10.8418878 36.7950617,10.3205112 C36.1369591,9.80045916 35.1910028,9.92768689 34.6834036,10.6074553 L30.498337,16.2328994 L26.3132704,10.6074553 C25.8074097,9.92776478 24.8613779,9.79874512 24.2016124,10.3205112 C23.5420736,10.8418878 23.416969,11.8168588 23.9228297,12.4966272 L28.1474308,18.1731026 L23.5060162,18.1731026 C22.6744304,18.1731026 22,18.868531 22,19.725234 C22,20.5818591 22.6744304,21.2772875 23.5060162,21.2772875 L28.9940594,21.2772875 L28.9940594,25.2588217 L23.5060162,25.2588217 C22.6744304,25.2588217 22,25.9539384 22,26.811031 C22,27.6680456 22.6744304,28.3632403 23.5060162,28.3632403 L28.9940594,28.3632403 L28.9940594,35.4477907 C28.9940594,36.3044937 29.6684898,37 30.5,37 C31.3315859,37 32.0060162,36.3044936 32.0060162,35.4477907 L32.0060162,28.3632403 L37.4940594,28.3632403 C38.3252673,28.3632403 39,27.6681235 39,26.811031 C39,25.9539384 38.3252673,25.2588217 37.4940594,25.2588217 L32.0060162,25.2588217 L32.0060162,21.2772875 L37.4907334,21.2772875 Z" id="Shape"></path>
            <path d="M45.5550459,41.9850547 C42.4081207,39.9648598 39.9319293,38.9832372 37.9893149,38.9832372 C36.3541395,38.9832372 34.9909503,39.6964136 34.2535776,40.9408245 C33.2998416,42.5442802 33.6092977,44.6829905 34.4035346,45.9699091 C34.7681481,46.5574235 35.4793772,47.5676327 36.2367649,48.6132028 C20.488718,47.6639635 17.754582,44.2081848 14.631473,40.2586169 C13.6559378,39.0275316 12.6480529,37.7549062 11.2650039,36.4690299 C8.71449338,34.1017756 6.63875625,33 4.73330133,33 C3.25568553,33 1.98349461,33.6747631 1.14581439,34.8969152 C-0.581988336,37.4210981 -0.00698500788,41.9802903 0.621934551,43.3686764 C7.72569249,59.1137201 24.8733123,61.8652559 25.5983502,61.9730512 C25.7177417,61.9909922 25.8365126,62 25.9555939,62 L58.6923822,62 C59.967366,62 60.9999981,61.0092952 60.9999981,59.7868455 L60.9999981,49.2731515 C61.0013945,48.2199136 60.230198,47.3140009 59.1573809,47.103398 C52.7698946,45.8455872 45.5687771,41.9850547 45.5550459,41.9850547 Z M26.0204486,59.0338414 C24.8088455,58.8408817 9.77326906,56.1847836 3.45971401,42.191191 C3.0566221,41.2537884 2.78735113,37.9032738 3.73007108,36.5267242 C4.0701702,36.0301063 4.44424814,35.9663076 4.73330133,35.9663076 C5.43778122,35.9663076 6.76854311,36.42347 9.11502524,38.6002957 C10.3295762,39.7277547 11.2231897,40.8564047 12.1692455,42.0515334 C16.2231275,47.1788845 20.074455,50.6109156 36.0420458,51.5736293 C36.1069005,51.5761604 36.1718327,51.5794359 36.2370752,51.5794359 C37.3467417,51.5794359 38.3787532,51.0053959 38.9293972,50.0693333 C39.511848,49.0789264 39.4515703,47.8549132 38.7748631,46.9207861 C37.7036751,45.4405357 37.2507785,44.7628693 37.0624207,44.4588387 C36.7452845,43.9455452 36.6231777,42.9417383 36.9403139,42.4059627 C37.1192849,42.1023045 37.4731928,41.9495448 37.9880736,41.9495447 C38.7160595,41.9495447 40.4438622,42.2742708 43.8336821,44.4514688 C43.9350985,44.5166277 44.040338,44.5761326 44.1488789,44.6296884 C45.9382781,45.5580833 52.0696039,48.6025573 57.9075322,49.8795748 L57.9075322,59.0338414 L26.0204486,59.0338414 Z" id="Shape"></path>
        </g>
        <g id="yisheng-6" transform="translate(174.500000, 676.687991) rotate(-18.000000) translate(-174.500000, -676.687991) translate(141.000000, 642.687991)" fill="#FFFFFF" fill-rule="nonzero">
            <path d="M32.9556723,34.5706956 C42.4513745,34.8505604 50.4110073,27.1542796 50.6902926,17.638878 C50.8299353,8.12347632 43.2892306,0.287263203 33.7935284,0.00739845069 C24.2978262,-0.272466301 16.3381935,7.42381444 16.0589081,16.9392161 L16.0589081,17.3590133 C16.0589081,26.7344825 23.5996128,34.5706956 32.9556723,34.5706956 Z M32.9556723,2.66611366 C41.0549477,2.52618128 47.7577963,8.82313827 47.897439,16.9392161 C48.0370817,25.055294 41.7531611,31.7720481 33.6538857,31.9119805 C25.5546103,32.0519129 18.8517617,25.7549559 18.7121191,17.638878 L18.7121191,17.3590133 C18.5724764,9.38286777 24.9960396,2.80604604 32.9556723,2.66611366 Z M33.5142431,36.2498842 C17.3156923,36.3898166 3.35142434,49.2635952 0,67.1749396 L2.79285363,67.1749396 C5.16677915,55.7004846 12.4281985,46.185083 22.203186,41.8471793 L32.676387,52.48204 L32.676387,62.5571711 C32.676387,63.6766301 31.8385309,64.5162244 30.7213895,64.5162244 L24.2978262,64.5162244 C23.1806848,64.5162244 22.3428287,63.6766302 22.3428287,62.5571711 L22.3428287,58.6390646 C24.7167542,58.0793351 26.3924664,55.9803494 26.5321091,53.3216342 C26.5321091,50.2431219 24.1581836,47.7243391 21.0860446,47.5844067 C18.0139057,47.5844067 15.5003374,49.9632571 15.3606947,53.0417695 C15.3606947,55.7004846 17.1760495,57.9394027 19.5499751,58.4991322 L19.5499751,62.9769682 C19.5499751,65.3558186 21.5049726,67.1749396 23.7392555,67.1749396 L31.1403175,67.1749396 C33.5142431,67.1749396 35.3295979,65.3558187 35.3295979,62.9769682 L35.3295979,52.48204 L45.2442281,42.127044 C54.6002876,46.7448125 61.5824216,56.1202817 63.9563471,67.3148719 L66.7492008,67.3148719 C63.6770618,49.2635952 49.7127938,36.3898166 33.5142431,36.2498842 Z M18.293191,53.0417695 C18.293191,51.5025133 19.6896178,50.2431219 21.2256873,50.2431219 C22.7617567,50.2431219 24.0185408,51.6424457 24.0185409,53.1817018 C24.0185409,54.720958 22.7617568,55.9803494 21.2256873,55.9803494 C19.5499751,55.9803494 18.293191,54.5810256 18.293191,53.0417695 Z M34.0728138,49.6833924 L24.856397,40.3079231 C27.6492505,39.4683289 30.5817468,39.0485317 33.3746004,39.0485317 C36.586382,39.0485317 39.7981636,39.6082612 42.8703025,40.5877879 L34.0728138,49.6833924 Z" id="Shape"></path>
        </g>
    </g>
</svg>